M48
METRIC
T1C0.700
T2C0.750
T3C0.800
T4C0.889
T5C1.000
%
G90
G05
T1
X142.195Y77.6
X144.095Y77.6
X149.405Y77.2
X151.305Y77.2
X155.595Y77.3
X157.495Y77.3
X162.205Y77.3
X164.105Y77.3
X168.395Y77.3
X170.295Y77.3
X172.895Y92.62
X174.795Y92.62
X175.5Y77.3
X177.4Y77.3
X181.495Y92.62
X181.695Y77.3
X183.395Y92.62
X183.595Y77.3
T2
X143.2Y90.2
X143.2Y92.2
X143.25Y82.9
X143.25Y84.9
X143.4Y98.5
X145.4Y98.5
T3
X149.2Y101.7
X151.7Y101.7
T4
X151.398Y82.48
X151.398Y97.72
X153.939Y82.48
X153.939Y97.72
X156.478Y82.48
X156.478Y97.72
X159.018Y82.48
X159.018Y97.72
X161.558Y82.48
X161.558Y97.72
X164.099Y82.48
X164.099Y97.72
X166.638Y82.48
X166.638Y97.72
T5
X142.35Y73.145
X144.85Y73.145
X148.95Y73.145
X151.45Y73.145
X155.55Y73.145
X158.05Y73.145
X161.75Y73.145
X164.25Y73.145
X168.35Y73.145
X170.85Y73.145
X174.745Y85.77
X174.745Y88.27
X174.745Y96.97
X174.745Y99.47
X174.95Y73.145
X177.45Y73.145
X181.55Y73.145
X184.05Y73.145
M30
