%TF.GenerationSoftware,KiCad,Pcbnew,9.0.2*%
%TF.CreationDate,2025-08-28T12:16:00+10:00*%
%TF.ProjectId,fsr_left,6673725f-6c65-4667-942e-6b696361645f,rev?*%
%TF.SameCoordinates,Original*%
%TF.FileFunction,Legend,Top*%
%TF.FilePolarity,Positive*%
%FSLAX46Y46*%
G04 Gerber Fmt 4.6, Leading zero omitted, Abs format (unit mm)*
G04 Created by KiCad (PCBNEW 9.0.2) date 2025-08-28 12:16:00*
%MOMM*%
%LPD*%
G01*
G04 APERTURE LIST*
%ADD10C,0.150000*%
%ADD11C,0.101600*%
%ADD12C,0.120000*%
%ADD13C,0.127000*%
%ADD14C,0.100000*%
G04 APERTURE END LIST*
D10*
X168604762Y-61854819D02*
X168604762Y-62569104D01*
X168604762Y-62569104D02*
X168557143Y-62711961D01*
X168557143Y-62711961D02*
X168461905Y-62807200D01*
X168461905Y-62807200D02*
X168319048Y-62854819D01*
X168319048Y-62854819D02*
X168223810Y-62854819D01*
X169080953Y-62854819D02*
X169080953Y-61854819D01*
X169080953Y-61854819D02*
X169414286Y-62569104D01*
X169414286Y-62569104D02*
X169747619Y-61854819D01*
X169747619Y-61854819D02*
X169747619Y-62854819D01*
X170223810Y-62854819D02*
X170223810Y-62188152D01*
X170223810Y-61854819D02*
X170176191Y-61902438D01*
X170176191Y-61902438D02*
X170223810Y-61950057D01*
X170223810Y-61950057D02*
X170271429Y-61902438D01*
X170271429Y-61902438D02*
X170223810Y-61854819D01*
X170223810Y-61854819D02*
X170223810Y-61950057D01*
X171128571Y-62854819D02*
X171128571Y-61854819D01*
X171128571Y-62807200D02*
X171033333Y-62854819D01*
X171033333Y-62854819D02*
X170842857Y-62854819D01*
X170842857Y-62854819D02*
X170747619Y-62807200D01*
X170747619Y-62807200D02*
X170700000Y-62759580D01*
X170700000Y-62759580D02*
X170652381Y-62664342D01*
X170652381Y-62664342D02*
X170652381Y-62378628D01*
X170652381Y-62378628D02*
X170700000Y-62283390D01*
X170700000Y-62283390D02*
X170747619Y-62235771D01*
X170747619Y-62235771D02*
X170842857Y-62188152D01*
X170842857Y-62188152D02*
X171033333Y-62188152D01*
X171033333Y-62188152D02*
X171128571Y-62235771D01*
X172128571Y-62854819D02*
X171557143Y-62854819D01*
X171842857Y-62854819D02*
X171842857Y-61854819D01*
X171842857Y-61854819D02*
X171747619Y-61997676D01*
X171747619Y-61997676D02*
X171652381Y-62092914D01*
X171652381Y-62092914D02*
X171557143Y-62140533D01*
X155476190Y-61754819D02*
X155476190Y-62469104D01*
X155476190Y-62469104D02*
X155428571Y-62611961D01*
X155428571Y-62611961D02*
X155333333Y-62707200D01*
X155333333Y-62707200D02*
X155190476Y-62754819D01*
X155190476Y-62754819D02*
X155095238Y-62754819D01*
X156523809Y-62754819D02*
X156190476Y-62278628D01*
X155952381Y-62754819D02*
X155952381Y-61754819D01*
X155952381Y-61754819D02*
X156333333Y-61754819D01*
X156333333Y-61754819D02*
X156428571Y-61802438D01*
X156428571Y-61802438D02*
X156476190Y-61850057D01*
X156476190Y-61850057D02*
X156523809Y-61945295D01*
X156523809Y-61945295D02*
X156523809Y-62088152D01*
X156523809Y-62088152D02*
X156476190Y-62183390D01*
X156476190Y-62183390D02*
X156428571Y-62231009D01*
X156428571Y-62231009D02*
X156333333Y-62278628D01*
X156333333Y-62278628D02*
X155952381Y-62278628D01*
X156952381Y-62754819D02*
X156952381Y-62088152D01*
X156952381Y-61754819D02*
X156904762Y-61802438D01*
X156904762Y-61802438D02*
X156952381Y-61850057D01*
X156952381Y-61850057D02*
X157000000Y-61802438D01*
X157000000Y-61802438D02*
X156952381Y-61754819D01*
X156952381Y-61754819D02*
X156952381Y-61850057D01*
X157428571Y-62088152D02*
X157428571Y-62754819D01*
X157428571Y-62183390D02*
X157476190Y-62135771D01*
X157476190Y-62135771D02*
X157571428Y-62088152D01*
X157571428Y-62088152D02*
X157714285Y-62088152D01*
X157714285Y-62088152D02*
X157809523Y-62135771D01*
X157809523Y-62135771D02*
X157857142Y-62231009D01*
X157857142Y-62231009D02*
X157857142Y-62754819D01*
X158857142Y-62754819D02*
X158285714Y-62754819D01*
X158571428Y-62754819D02*
X158571428Y-61754819D01*
X158571428Y-61754819D02*
X158476190Y-61897676D01*
X158476190Y-61897676D02*
X158380952Y-61992914D01*
X158380952Y-61992914D02*
X158285714Y-62040533D01*
X161726428Y-79674819D02*
X161393095Y-79198628D01*
X161155000Y-79674819D02*
X161155000Y-78674819D01*
X161155000Y-78674819D02*
X161535952Y-78674819D01*
X161535952Y-78674819D02*
X161631190Y-78722438D01*
X161631190Y-78722438D02*
X161678809Y-78770057D01*
X161678809Y-78770057D02*
X161726428Y-78865295D01*
X161726428Y-78865295D02*
X161726428Y-79008152D01*
X161726428Y-79008152D02*
X161678809Y-79103390D01*
X161678809Y-79103390D02*
X161631190Y-79151009D01*
X161631190Y-79151009D02*
X161535952Y-79198628D01*
X161535952Y-79198628D02*
X161155000Y-79198628D01*
X162155000Y-79674819D02*
X162155000Y-78674819D01*
X162155000Y-78674819D02*
X162488333Y-79389104D01*
X162488333Y-79389104D02*
X162821666Y-78674819D01*
X162821666Y-78674819D02*
X162821666Y-79674819D01*
X163297857Y-79674819D02*
X163297857Y-79008152D01*
X163297857Y-78674819D02*
X163250238Y-78722438D01*
X163250238Y-78722438D02*
X163297857Y-78770057D01*
X163297857Y-78770057D02*
X163345476Y-78722438D01*
X163345476Y-78722438D02*
X163297857Y-78674819D01*
X163297857Y-78674819D02*
X163297857Y-78770057D01*
X164202618Y-79674819D02*
X164202618Y-78674819D01*
X164202618Y-79627200D02*
X164107380Y-79674819D01*
X164107380Y-79674819D02*
X163916904Y-79674819D01*
X163916904Y-79674819D02*
X163821666Y-79627200D01*
X163821666Y-79627200D02*
X163774047Y-79579580D01*
X163774047Y-79579580D02*
X163726428Y-79484342D01*
X163726428Y-79484342D02*
X163726428Y-79198628D01*
X163726428Y-79198628D02*
X163774047Y-79103390D01*
X163774047Y-79103390D02*
X163821666Y-79055771D01*
X163821666Y-79055771D02*
X163916904Y-79008152D01*
X163916904Y-79008152D02*
X164107380Y-79008152D01*
X164107380Y-79008152D02*
X164202618Y-79055771D01*
X164631190Y-78770057D02*
X164678809Y-78722438D01*
X164678809Y-78722438D02*
X164774047Y-78674819D01*
X164774047Y-78674819D02*
X165012142Y-78674819D01*
X165012142Y-78674819D02*
X165107380Y-78722438D01*
X165107380Y-78722438D02*
X165154999Y-78770057D01*
X165154999Y-78770057D02*
X165202618Y-78865295D01*
X165202618Y-78865295D02*
X165202618Y-78960533D01*
X165202618Y-78960533D02*
X165154999Y-79103390D01*
X165154999Y-79103390D02*
X164583571Y-79674819D01*
X164583571Y-79674819D02*
X165202618Y-79674819D01*
D11*
X150866118Y-90426716D02*
X150980404Y-90464811D01*
X150980404Y-90464811D02*
X151170880Y-90464811D01*
X151170880Y-90464811D02*
X151247071Y-90426716D01*
X151247071Y-90426716D02*
X151285166Y-90388620D01*
X151285166Y-90388620D02*
X151323261Y-90312430D01*
X151323261Y-90312430D02*
X151323261Y-90236239D01*
X151323261Y-90236239D02*
X151285166Y-90160049D01*
X151285166Y-90160049D02*
X151247071Y-90121954D01*
X151247071Y-90121954D02*
X151170880Y-90083858D01*
X151170880Y-90083858D02*
X151018499Y-90045763D01*
X151018499Y-90045763D02*
X150942309Y-90007668D01*
X150942309Y-90007668D02*
X150904214Y-89969573D01*
X150904214Y-89969573D02*
X150866118Y-89893382D01*
X150866118Y-89893382D02*
X150866118Y-89817192D01*
X150866118Y-89817192D02*
X150904214Y-89741001D01*
X150904214Y-89741001D02*
X150942309Y-89702906D01*
X150942309Y-89702906D02*
X151018499Y-89664811D01*
X151018499Y-89664811D02*
X151208976Y-89664811D01*
X151208976Y-89664811D02*
X151323261Y-89702906D01*
X151666119Y-90045763D02*
X151932785Y-90045763D01*
X152047071Y-90464811D02*
X151666119Y-90464811D01*
X151666119Y-90464811D02*
X151666119Y-89664811D01*
X151666119Y-89664811D02*
X152047071Y-89664811D01*
X152389929Y-90045763D02*
X152656595Y-90045763D01*
X152770881Y-90464811D02*
X152389929Y-90464811D01*
X152389929Y-90464811D02*
X152389929Y-89664811D01*
X152389929Y-89664811D02*
X152770881Y-89664811D01*
X153113739Y-90045763D02*
X153380405Y-90045763D01*
X153494691Y-90464811D02*
X153113739Y-90464811D01*
X153113739Y-90464811D02*
X153113739Y-89664811D01*
X153113739Y-89664811D02*
X153494691Y-89664811D01*
X153837549Y-90464811D02*
X153837549Y-89664811D01*
X153837549Y-89664811D02*
X154028025Y-89664811D01*
X154028025Y-89664811D02*
X154142311Y-89702906D01*
X154142311Y-89702906D02*
X154218501Y-89779096D01*
X154218501Y-89779096D02*
X154256596Y-89855287D01*
X154256596Y-89855287D02*
X154294692Y-90007668D01*
X154294692Y-90007668D02*
X154294692Y-90121954D01*
X154294692Y-90121954D02*
X154256596Y-90274335D01*
X154256596Y-90274335D02*
X154218501Y-90350525D01*
X154218501Y-90350525D02*
X154142311Y-90426716D01*
X154142311Y-90426716D02*
X154028025Y-90464811D01*
X154028025Y-90464811D02*
X153837549Y-90464811D01*
X154637549Y-89664811D02*
X154637549Y-90312430D01*
X154637549Y-90312430D02*
X154675644Y-90388620D01*
X154675644Y-90388620D02*
X154713739Y-90426716D01*
X154713739Y-90426716D02*
X154789930Y-90464811D01*
X154789930Y-90464811D02*
X154942311Y-90464811D01*
X154942311Y-90464811D02*
X155018501Y-90426716D01*
X155018501Y-90426716D02*
X155056596Y-90388620D01*
X155056596Y-90388620D02*
X155094692Y-90312430D01*
X155094692Y-90312430D02*
X155094692Y-89664811D01*
X155475644Y-90464811D02*
X155475644Y-89664811D01*
X155856596Y-90464811D02*
X155856596Y-89664811D01*
X155856596Y-89664811D02*
X156313739Y-90464811D01*
X156313739Y-90464811D02*
X156313739Y-89664811D01*
X156847072Y-89664811D02*
X156999453Y-89664811D01*
X156999453Y-89664811D02*
X157075643Y-89702906D01*
X157075643Y-89702906D02*
X157151834Y-89779096D01*
X157151834Y-89779096D02*
X157189929Y-89931477D01*
X157189929Y-89931477D02*
X157189929Y-90198144D01*
X157189929Y-90198144D02*
X157151834Y-90350525D01*
X157151834Y-90350525D02*
X157075643Y-90426716D01*
X157075643Y-90426716D02*
X156999453Y-90464811D01*
X156999453Y-90464811D02*
X156847072Y-90464811D01*
X156847072Y-90464811D02*
X156770881Y-90426716D01*
X156770881Y-90426716D02*
X156694691Y-90350525D01*
X156694691Y-90350525D02*
X156656595Y-90198144D01*
X156656595Y-90198144D02*
X156656595Y-89931477D01*
X156656595Y-89931477D02*
X156694691Y-89779096D01*
X156694691Y-89779096D02*
X156770881Y-89702906D01*
X156770881Y-89702906D02*
X156847072Y-89664811D01*
X157532786Y-90160049D02*
X158142310Y-90160049D01*
X158447071Y-89664811D02*
X158980405Y-90464811D01*
X158980405Y-89664811D02*
X158447071Y-90464811D01*
X159285167Y-90464811D02*
X159285167Y-89664811D01*
X159628023Y-90236239D02*
X160008976Y-90236239D01*
X159551833Y-90464811D02*
X159818500Y-89664811D01*
X159818500Y-89664811D02*
X160085166Y-90464811D01*
X160504214Y-89664811D02*
X160656595Y-89664811D01*
X160656595Y-89664811D02*
X160732785Y-89702906D01*
X160732785Y-89702906D02*
X160808976Y-89779096D01*
X160808976Y-89779096D02*
X160847071Y-89931477D01*
X160847071Y-89931477D02*
X160847071Y-90198144D01*
X160847071Y-90198144D02*
X160808976Y-90350525D01*
X160808976Y-90350525D02*
X160732785Y-90426716D01*
X160732785Y-90426716D02*
X160656595Y-90464811D01*
X160656595Y-90464811D02*
X160504214Y-90464811D01*
X160504214Y-90464811D02*
X160428023Y-90426716D01*
X160428023Y-90426716D02*
X160351833Y-90350525D01*
X160351833Y-90350525D02*
X160313737Y-90198144D01*
X160313737Y-90198144D02*
X160313737Y-89931477D01*
X160313737Y-89931477D02*
X160351833Y-89779096D01*
X160351833Y-89779096D02*
X160428023Y-89702906D01*
X160428023Y-89702906D02*
X160504214Y-89664811D01*
X161189928Y-90160049D02*
X161799452Y-90160049D01*
X162180404Y-90045763D02*
X162447070Y-90045763D01*
X162561356Y-90464811D02*
X162180404Y-90464811D01*
X162180404Y-90464811D02*
X162180404Y-89664811D01*
X162180404Y-89664811D02*
X162561356Y-89664811D01*
X162866118Y-90426716D02*
X162980404Y-90464811D01*
X162980404Y-90464811D02*
X163170880Y-90464811D01*
X163170880Y-90464811D02*
X163247071Y-90426716D01*
X163247071Y-90426716D02*
X163285166Y-90388620D01*
X163285166Y-90388620D02*
X163323261Y-90312430D01*
X163323261Y-90312430D02*
X163323261Y-90236239D01*
X163323261Y-90236239D02*
X163285166Y-90160049D01*
X163285166Y-90160049D02*
X163247071Y-90121954D01*
X163247071Y-90121954D02*
X163170880Y-90083858D01*
X163170880Y-90083858D02*
X163018499Y-90045763D01*
X163018499Y-90045763D02*
X162942309Y-90007668D01*
X162942309Y-90007668D02*
X162904214Y-89969573D01*
X162904214Y-89969573D02*
X162866118Y-89893382D01*
X162866118Y-89893382D02*
X162866118Y-89817192D01*
X162866118Y-89817192D02*
X162904214Y-89741001D01*
X162904214Y-89741001D02*
X162942309Y-89702906D01*
X162942309Y-89702906D02*
X163018499Y-89664811D01*
X163018499Y-89664811D02*
X163208976Y-89664811D01*
X163208976Y-89664811D02*
X163323261Y-89702906D01*
X163666119Y-90464811D02*
X163666119Y-89664811D01*
X163666119Y-89664811D02*
X163970881Y-89664811D01*
X163970881Y-89664811D02*
X164047071Y-89702906D01*
X164047071Y-89702906D02*
X164085166Y-89741001D01*
X164085166Y-89741001D02*
X164123262Y-89817192D01*
X164123262Y-89817192D02*
X164123262Y-89931477D01*
X164123262Y-89931477D02*
X164085166Y-90007668D01*
X164085166Y-90007668D02*
X164047071Y-90045763D01*
X164047071Y-90045763D02*
X163970881Y-90083858D01*
X163970881Y-90083858D02*
X163666119Y-90083858D01*
X164389928Y-89664811D02*
X164885166Y-89664811D01*
X164885166Y-89664811D02*
X164618500Y-89969573D01*
X164618500Y-89969573D02*
X164732785Y-89969573D01*
X164732785Y-89969573D02*
X164808976Y-90007668D01*
X164808976Y-90007668D02*
X164847071Y-90045763D01*
X164847071Y-90045763D02*
X164885166Y-90121954D01*
X164885166Y-90121954D02*
X164885166Y-90312430D01*
X164885166Y-90312430D02*
X164847071Y-90388620D01*
X164847071Y-90388620D02*
X164808976Y-90426716D01*
X164808976Y-90426716D02*
X164732785Y-90464811D01*
X164732785Y-90464811D02*
X164504214Y-90464811D01*
X164504214Y-90464811D02*
X164428023Y-90426716D01*
X164428023Y-90426716D02*
X164389928Y-90388620D01*
X165189928Y-89741001D02*
X165228024Y-89702906D01*
X165228024Y-89702906D02*
X165304214Y-89664811D01*
X165304214Y-89664811D02*
X165494690Y-89664811D01*
X165494690Y-89664811D02*
X165570881Y-89702906D01*
X165570881Y-89702906D02*
X165608976Y-89741001D01*
X165608976Y-89741001D02*
X165647071Y-89817192D01*
X165647071Y-89817192D02*
X165647071Y-89893382D01*
X165647071Y-89893382D02*
X165608976Y-90007668D01*
X165608976Y-90007668D02*
X165151833Y-90464811D01*
X165151833Y-90464811D02*
X165647071Y-90464811D01*
X165951833Y-90426716D02*
X166066119Y-90464811D01*
X166066119Y-90464811D02*
X166256595Y-90464811D01*
X166256595Y-90464811D02*
X166332786Y-90426716D01*
X166332786Y-90426716D02*
X166370881Y-90388620D01*
X166370881Y-90388620D02*
X166408976Y-90312430D01*
X166408976Y-90312430D02*
X166408976Y-90236239D01*
X166408976Y-90236239D02*
X166370881Y-90160049D01*
X166370881Y-90160049D02*
X166332786Y-90121954D01*
X166332786Y-90121954D02*
X166256595Y-90083858D01*
X166256595Y-90083858D02*
X166104214Y-90045763D01*
X166104214Y-90045763D02*
X166028024Y-90007668D01*
X166028024Y-90007668D02*
X165989929Y-89969573D01*
X165989929Y-89969573D02*
X165951833Y-89893382D01*
X165951833Y-89893382D02*
X165951833Y-89817192D01*
X165951833Y-89817192D02*
X165989929Y-89741001D01*
X165989929Y-89741001D02*
X166028024Y-89702906D01*
X166028024Y-89702906D02*
X166104214Y-89664811D01*
X166104214Y-89664811D02*
X166294691Y-89664811D01*
X166294691Y-89664811D02*
X166408976Y-89702906D01*
X166675643Y-89664811D02*
X167170881Y-89664811D01*
X167170881Y-89664811D02*
X166904215Y-89969573D01*
X166904215Y-89969573D02*
X167018500Y-89969573D01*
X167018500Y-89969573D02*
X167094691Y-90007668D01*
X167094691Y-90007668D02*
X167132786Y-90045763D01*
X167132786Y-90045763D02*
X167170881Y-90121954D01*
X167170881Y-90121954D02*
X167170881Y-90312430D01*
X167170881Y-90312430D02*
X167132786Y-90388620D01*
X167132786Y-90388620D02*
X167094691Y-90426716D01*
X167094691Y-90426716D02*
X167018500Y-90464811D01*
X167018500Y-90464811D02*
X166789929Y-90464811D01*
X166789929Y-90464811D02*
X166713738Y-90426716D01*
X166713738Y-90426716D02*
X166675643Y-90388620D01*
D10*
X148997857Y-79574819D02*
X148664524Y-79098628D01*
X148426429Y-79574819D02*
X148426429Y-78574819D01*
X148426429Y-78574819D02*
X148807381Y-78574819D01*
X148807381Y-78574819D02*
X148902619Y-78622438D01*
X148902619Y-78622438D02*
X148950238Y-78670057D01*
X148950238Y-78670057D02*
X148997857Y-78765295D01*
X148997857Y-78765295D02*
X148997857Y-78908152D01*
X148997857Y-78908152D02*
X148950238Y-79003390D01*
X148950238Y-79003390D02*
X148902619Y-79051009D01*
X148902619Y-79051009D02*
X148807381Y-79098628D01*
X148807381Y-79098628D02*
X148426429Y-79098628D01*
X149997857Y-79574819D02*
X149664524Y-79098628D01*
X149426429Y-79574819D02*
X149426429Y-78574819D01*
X149426429Y-78574819D02*
X149807381Y-78574819D01*
X149807381Y-78574819D02*
X149902619Y-78622438D01*
X149902619Y-78622438D02*
X149950238Y-78670057D01*
X149950238Y-78670057D02*
X149997857Y-78765295D01*
X149997857Y-78765295D02*
X149997857Y-78908152D01*
X149997857Y-78908152D02*
X149950238Y-79003390D01*
X149950238Y-79003390D02*
X149902619Y-79051009D01*
X149902619Y-79051009D02*
X149807381Y-79098628D01*
X149807381Y-79098628D02*
X149426429Y-79098628D01*
X150426429Y-79574819D02*
X150426429Y-78908152D01*
X150426429Y-78574819D02*
X150378810Y-78622438D01*
X150378810Y-78622438D02*
X150426429Y-78670057D01*
X150426429Y-78670057D02*
X150474048Y-78622438D01*
X150474048Y-78622438D02*
X150426429Y-78574819D01*
X150426429Y-78574819D02*
X150426429Y-78670057D01*
X150902619Y-78908152D02*
X150902619Y-79574819D01*
X150902619Y-79003390D02*
X150950238Y-78955771D01*
X150950238Y-78955771D02*
X151045476Y-78908152D01*
X151045476Y-78908152D02*
X151188333Y-78908152D01*
X151188333Y-78908152D02*
X151283571Y-78955771D01*
X151283571Y-78955771D02*
X151331190Y-79051009D01*
X151331190Y-79051009D02*
X151331190Y-79574819D01*
X151759762Y-78670057D02*
X151807381Y-78622438D01*
X151807381Y-78622438D02*
X151902619Y-78574819D01*
X151902619Y-78574819D02*
X152140714Y-78574819D01*
X152140714Y-78574819D02*
X152235952Y-78622438D01*
X152235952Y-78622438D02*
X152283571Y-78670057D01*
X152283571Y-78670057D02*
X152331190Y-78765295D01*
X152331190Y-78765295D02*
X152331190Y-78860533D01*
X152331190Y-78860533D02*
X152283571Y-79003390D01*
X152283571Y-79003390D02*
X151712143Y-79574819D01*
X151712143Y-79574819D02*
X152331190Y-79574819D01*
X140607200Y-93533332D02*
X140654819Y-93390475D01*
X140654819Y-93390475D02*
X140654819Y-93152380D01*
X140654819Y-93152380D02*
X140607200Y-93057142D01*
X140607200Y-93057142D02*
X140559580Y-93009523D01*
X140559580Y-93009523D02*
X140464342Y-92961904D01*
X140464342Y-92961904D02*
X140369104Y-92961904D01*
X140369104Y-92961904D02*
X140273866Y-93009523D01*
X140273866Y-93009523D02*
X140226247Y-93057142D01*
X140226247Y-93057142D02*
X140178628Y-93152380D01*
X140178628Y-93152380D02*
X140131009Y-93342856D01*
X140131009Y-93342856D02*
X140083390Y-93438094D01*
X140083390Y-93438094D02*
X140035771Y-93485713D01*
X140035771Y-93485713D02*
X139940533Y-93533332D01*
X139940533Y-93533332D02*
X139845295Y-93533332D01*
X139845295Y-93533332D02*
X139750057Y-93485713D01*
X139750057Y-93485713D02*
X139702438Y-93438094D01*
X139702438Y-93438094D02*
X139654819Y-93342856D01*
X139654819Y-93342856D02*
X139654819Y-93104761D01*
X139654819Y-93104761D02*
X139702438Y-92961904D01*
X139654819Y-92628570D02*
X140654819Y-92390475D01*
X140654819Y-92390475D02*
X139940533Y-92199999D01*
X139940533Y-92199999D02*
X140654819Y-92009523D01*
X140654819Y-92009523D02*
X139654819Y-91771428D01*
X139750057Y-91438094D02*
X139702438Y-91390475D01*
X139702438Y-91390475D02*
X139654819Y-91295237D01*
X139654819Y-91295237D02*
X139654819Y-91057142D01*
X139654819Y-91057142D02*
X139702438Y-90961904D01*
X139702438Y-90961904D02*
X139750057Y-90914285D01*
X139750057Y-90914285D02*
X139845295Y-90866666D01*
X139845295Y-90866666D02*
X139940533Y-90866666D01*
X139940533Y-90866666D02*
X140083390Y-90914285D01*
X140083390Y-90914285D02*
X140654819Y-91485713D01*
X140654819Y-91485713D02*
X140654819Y-90866666D01*
X167971428Y-79554819D02*
X167638095Y-79078628D01*
X167400000Y-79554819D02*
X167400000Y-78554819D01*
X167400000Y-78554819D02*
X167780952Y-78554819D01*
X167780952Y-78554819D02*
X167876190Y-78602438D01*
X167876190Y-78602438D02*
X167923809Y-78650057D01*
X167923809Y-78650057D02*
X167971428Y-78745295D01*
X167971428Y-78745295D02*
X167971428Y-78888152D01*
X167971428Y-78888152D02*
X167923809Y-78983390D01*
X167923809Y-78983390D02*
X167876190Y-79031009D01*
X167876190Y-79031009D02*
X167780952Y-79078628D01*
X167780952Y-79078628D02*
X167400000Y-79078628D01*
X168400000Y-79554819D02*
X168400000Y-78554819D01*
X168400000Y-78554819D02*
X168733333Y-79269104D01*
X168733333Y-79269104D02*
X169066666Y-78554819D01*
X169066666Y-78554819D02*
X169066666Y-79554819D01*
X169542857Y-79554819D02*
X169542857Y-78888152D01*
X169542857Y-78554819D02*
X169495238Y-78602438D01*
X169495238Y-78602438D02*
X169542857Y-78650057D01*
X169542857Y-78650057D02*
X169590476Y-78602438D01*
X169590476Y-78602438D02*
X169542857Y-78554819D01*
X169542857Y-78554819D02*
X169542857Y-78650057D01*
X170447618Y-79554819D02*
X170447618Y-78554819D01*
X170447618Y-79507200D02*
X170352380Y-79554819D01*
X170352380Y-79554819D02*
X170161904Y-79554819D01*
X170161904Y-79554819D02*
X170066666Y-79507200D01*
X170066666Y-79507200D02*
X170019047Y-79459580D01*
X170019047Y-79459580D02*
X169971428Y-79364342D01*
X169971428Y-79364342D02*
X169971428Y-79078628D01*
X169971428Y-79078628D02*
X170019047Y-78983390D01*
X170019047Y-78983390D02*
X170066666Y-78935771D01*
X170066666Y-78935771D02*
X170161904Y-78888152D01*
X170161904Y-78888152D02*
X170352380Y-78888152D01*
X170352380Y-78888152D02*
X170447618Y-78935771D01*
X171447618Y-79554819D02*
X170876190Y-79554819D01*
X171161904Y-79554819D02*
X171161904Y-78554819D01*
X171161904Y-78554819D02*
X171066666Y-78697676D01*
X171066666Y-78697676D02*
X170971428Y-78792914D01*
X170971428Y-78792914D02*
X170876190Y-78840533D01*
X139884819Y-100678571D02*
X138884819Y-100678571D01*
X139265771Y-100678571D02*
X139218152Y-100583333D01*
X139218152Y-100583333D02*
X139218152Y-100392857D01*
X139218152Y-100392857D02*
X139265771Y-100297619D01*
X139265771Y-100297619D02*
X139313390Y-100250000D01*
X139313390Y-100250000D02*
X139408628Y-100202381D01*
X139408628Y-100202381D02*
X139694342Y-100202381D01*
X139694342Y-100202381D02*
X139789580Y-100250000D01*
X139789580Y-100250000D02*
X139837200Y-100297619D01*
X139837200Y-100297619D02*
X139884819Y-100392857D01*
X139884819Y-100392857D02*
X139884819Y-100583333D01*
X139884819Y-100583333D02*
X139837200Y-100678571D01*
X139884819Y-99345238D02*
X139361009Y-99345238D01*
X139361009Y-99345238D02*
X139265771Y-99392857D01*
X139265771Y-99392857D02*
X139218152Y-99488095D01*
X139218152Y-99488095D02*
X139218152Y-99678571D01*
X139218152Y-99678571D02*
X139265771Y-99773809D01*
X139837200Y-99345238D02*
X139884819Y-99440476D01*
X139884819Y-99440476D02*
X139884819Y-99678571D01*
X139884819Y-99678571D02*
X139837200Y-99773809D01*
X139837200Y-99773809D02*
X139741961Y-99821428D01*
X139741961Y-99821428D02*
X139646723Y-99821428D01*
X139646723Y-99821428D02*
X139551485Y-99773809D01*
X139551485Y-99773809D02*
X139503866Y-99678571D01*
X139503866Y-99678571D02*
X139503866Y-99440476D01*
X139503866Y-99440476D02*
X139456247Y-99345238D01*
X139218152Y-99011904D02*
X139218152Y-98630952D01*
X138884819Y-98869047D02*
X139741961Y-98869047D01*
X139741961Y-98869047D02*
X139837200Y-98821428D01*
X139837200Y-98821428D02*
X139884819Y-98726190D01*
X139884819Y-98726190D02*
X139884819Y-98630952D01*
X138980057Y-98345237D02*
X138932438Y-98297618D01*
X138932438Y-98297618D02*
X138884819Y-98202380D01*
X138884819Y-98202380D02*
X138884819Y-97964285D01*
X138884819Y-97964285D02*
X138932438Y-97869047D01*
X138932438Y-97869047D02*
X138980057Y-97821428D01*
X138980057Y-97821428D02*
X139075295Y-97773809D01*
X139075295Y-97773809D02*
X139170533Y-97773809D01*
X139170533Y-97773809D02*
X139313390Y-97821428D01*
X139313390Y-97821428D02*
X139884819Y-98392856D01*
X139884819Y-98392856D02*
X139884819Y-97773809D01*
X170689819Y-99386666D02*
X171404104Y-99386666D01*
X171404104Y-99386666D02*
X171546961Y-99434285D01*
X171546961Y-99434285D02*
X171642200Y-99529523D01*
X171642200Y-99529523D02*
X171689819Y-99672380D01*
X171689819Y-99672380D02*
X171689819Y-99767618D01*
X170689819Y-99053332D02*
X170689819Y-98481904D01*
X171689819Y-98767618D02*
X170689819Y-98767618D01*
X171689819Y-98148570D02*
X170689819Y-98148570D01*
X171689819Y-97719999D02*
X171166009Y-97719999D01*
X171166009Y-97719999D02*
X171070771Y-97767618D01*
X171070771Y-97767618D02*
X171023152Y-97862856D01*
X171023152Y-97862856D02*
X171023152Y-98005713D01*
X171023152Y-98005713D02*
X171070771Y-98100951D01*
X171070771Y-98100951D02*
X171118390Y-98148570D01*
X171689819Y-96719999D02*
X171689819Y-97291427D01*
X171689819Y-97005713D02*
X170689819Y-97005713D01*
X170689819Y-97005713D02*
X170832676Y-97100951D01*
X170832676Y-97100951D02*
X170927914Y-97196189D01*
X170927914Y-97196189D02*
X170975533Y-97291427D01*
X154163333Y-102059580D02*
X154115714Y-102107200D01*
X154115714Y-102107200D02*
X153972857Y-102154819D01*
X153972857Y-102154819D02*
X153877619Y-102154819D01*
X153877619Y-102154819D02*
X153734762Y-102107200D01*
X153734762Y-102107200D02*
X153639524Y-102011961D01*
X153639524Y-102011961D02*
X153591905Y-101916723D01*
X153591905Y-101916723D02*
X153544286Y-101726247D01*
X153544286Y-101726247D02*
X153544286Y-101583390D01*
X153544286Y-101583390D02*
X153591905Y-101392914D01*
X153591905Y-101392914D02*
X153639524Y-101297676D01*
X153639524Y-101297676D02*
X153734762Y-101202438D01*
X153734762Y-101202438D02*
X153877619Y-101154819D01*
X153877619Y-101154819D02*
X153972857Y-101154819D01*
X153972857Y-101154819D02*
X154115714Y-101202438D01*
X154115714Y-101202438D02*
X154163333Y-101250057D01*
X154544286Y-101250057D02*
X154591905Y-101202438D01*
X154591905Y-101202438D02*
X154687143Y-101154819D01*
X154687143Y-101154819D02*
X154925238Y-101154819D01*
X154925238Y-101154819D02*
X155020476Y-101202438D01*
X155020476Y-101202438D02*
X155068095Y-101250057D01*
X155068095Y-101250057D02*
X155115714Y-101345295D01*
X155115714Y-101345295D02*
X155115714Y-101440533D01*
X155115714Y-101440533D02*
X155068095Y-101583390D01*
X155068095Y-101583390D02*
X154496667Y-102154819D01*
X154496667Y-102154819D02*
X155115714Y-102154819D01*
X140804819Y-85328571D02*
X139804819Y-85328571D01*
X140185771Y-85328571D02*
X140138152Y-85233333D01*
X140138152Y-85233333D02*
X140138152Y-85042857D01*
X140138152Y-85042857D02*
X140185771Y-84947619D01*
X140185771Y-84947619D02*
X140233390Y-84900000D01*
X140233390Y-84900000D02*
X140328628Y-84852381D01*
X140328628Y-84852381D02*
X140614342Y-84852381D01*
X140614342Y-84852381D02*
X140709580Y-84900000D01*
X140709580Y-84900000D02*
X140757200Y-84947619D01*
X140757200Y-84947619D02*
X140804819Y-85042857D01*
X140804819Y-85042857D02*
X140804819Y-85233333D01*
X140804819Y-85233333D02*
X140757200Y-85328571D01*
X140804819Y-83995238D02*
X140281009Y-83995238D01*
X140281009Y-83995238D02*
X140185771Y-84042857D01*
X140185771Y-84042857D02*
X140138152Y-84138095D01*
X140138152Y-84138095D02*
X140138152Y-84328571D01*
X140138152Y-84328571D02*
X140185771Y-84423809D01*
X140757200Y-83995238D02*
X140804819Y-84090476D01*
X140804819Y-84090476D02*
X140804819Y-84328571D01*
X140804819Y-84328571D02*
X140757200Y-84423809D01*
X140757200Y-84423809D02*
X140661961Y-84471428D01*
X140661961Y-84471428D02*
X140566723Y-84471428D01*
X140566723Y-84471428D02*
X140471485Y-84423809D01*
X140471485Y-84423809D02*
X140423866Y-84328571D01*
X140423866Y-84328571D02*
X140423866Y-84090476D01*
X140423866Y-84090476D02*
X140376247Y-83995238D01*
X140138152Y-83661904D02*
X140138152Y-83280952D01*
X139804819Y-83519047D02*
X140661961Y-83519047D01*
X140661961Y-83519047D02*
X140757200Y-83471428D01*
X140757200Y-83471428D02*
X140804819Y-83376190D01*
X140804819Y-83376190D02*
X140804819Y-83280952D01*
X140138152Y-82519047D02*
X140804819Y-82519047D01*
X139757200Y-82757142D02*
X140471485Y-82995237D01*
X140471485Y-82995237D02*
X140471485Y-82376190D01*
X155342857Y-79554819D02*
X155009524Y-79078628D01*
X154771429Y-79554819D02*
X154771429Y-78554819D01*
X154771429Y-78554819D02*
X155152381Y-78554819D01*
X155152381Y-78554819D02*
X155247619Y-78602438D01*
X155247619Y-78602438D02*
X155295238Y-78650057D01*
X155295238Y-78650057D02*
X155342857Y-78745295D01*
X155342857Y-78745295D02*
X155342857Y-78888152D01*
X155342857Y-78888152D02*
X155295238Y-78983390D01*
X155295238Y-78983390D02*
X155247619Y-79031009D01*
X155247619Y-79031009D02*
X155152381Y-79078628D01*
X155152381Y-79078628D02*
X154771429Y-79078628D01*
X156342857Y-79554819D02*
X156009524Y-79078628D01*
X155771429Y-79554819D02*
X155771429Y-78554819D01*
X155771429Y-78554819D02*
X156152381Y-78554819D01*
X156152381Y-78554819D02*
X156247619Y-78602438D01*
X156247619Y-78602438D02*
X156295238Y-78650057D01*
X156295238Y-78650057D02*
X156342857Y-78745295D01*
X156342857Y-78745295D02*
X156342857Y-78888152D01*
X156342857Y-78888152D02*
X156295238Y-78983390D01*
X156295238Y-78983390D02*
X156247619Y-79031009D01*
X156247619Y-79031009D02*
X156152381Y-79078628D01*
X156152381Y-79078628D02*
X155771429Y-79078628D01*
X156771429Y-79554819D02*
X156771429Y-78888152D01*
X156771429Y-78554819D02*
X156723810Y-78602438D01*
X156723810Y-78602438D02*
X156771429Y-78650057D01*
X156771429Y-78650057D02*
X156819048Y-78602438D01*
X156819048Y-78602438D02*
X156771429Y-78554819D01*
X156771429Y-78554819D02*
X156771429Y-78650057D01*
X157247619Y-78888152D02*
X157247619Y-79554819D01*
X157247619Y-78983390D02*
X157295238Y-78935771D01*
X157295238Y-78935771D02*
X157390476Y-78888152D01*
X157390476Y-78888152D02*
X157533333Y-78888152D01*
X157533333Y-78888152D02*
X157628571Y-78935771D01*
X157628571Y-78935771D02*
X157676190Y-79031009D01*
X157676190Y-79031009D02*
X157676190Y-79554819D01*
X158676190Y-79554819D02*
X158104762Y-79554819D01*
X158390476Y-79554819D02*
X158390476Y-78554819D01*
X158390476Y-78554819D02*
X158295238Y-78697676D01*
X158295238Y-78697676D02*
X158200000Y-78792914D01*
X158200000Y-78792914D02*
X158104762Y-78840533D01*
X142142857Y-79954819D02*
X141809524Y-79478628D01*
X141571429Y-79954819D02*
X141571429Y-78954819D01*
X141571429Y-78954819D02*
X141952381Y-78954819D01*
X141952381Y-78954819D02*
X142047619Y-79002438D01*
X142047619Y-79002438D02*
X142095238Y-79050057D01*
X142095238Y-79050057D02*
X142142857Y-79145295D01*
X142142857Y-79145295D02*
X142142857Y-79288152D01*
X142142857Y-79288152D02*
X142095238Y-79383390D01*
X142095238Y-79383390D02*
X142047619Y-79431009D01*
X142047619Y-79431009D02*
X141952381Y-79478628D01*
X141952381Y-79478628D02*
X141571429Y-79478628D01*
X142571429Y-79954819D02*
X142571429Y-78954819D01*
X142571429Y-78954819D02*
X142952381Y-78954819D01*
X142952381Y-78954819D02*
X143047619Y-79002438D01*
X143047619Y-79002438D02*
X143095238Y-79050057D01*
X143095238Y-79050057D02*
X143142857Y-79145295D01*
X143142857Y-79145295D02*
X143142857Y-79288152D01*
X143142857Y-79288152D02*
X143095238Y-79383390D01*
X143095238Y-79383390D02*
X143047619Y-79431009D01*
X143047619Y-79431009D02*
X142952381Y-79478628D01*
X142952381Y-79478628D02*
X142571429Y-79478628D01*
X143571429Y-79954819D02*
X143571429Y-79288152D01*
X143571429Y-78954819D02*
X143523810Y-79002438D01*
X143523810Y-79002438D02*
X143571429Y-79050057D01*
X143571429Y-79050057D02*
X143619048Y-79002438D01*
X143619048Y-79002438D02*
X143571429Y-78954819D01*
X143571429Y-78954819D02*
X143571429Y-79050057D01*
X144047619Y-79288152D02*
X144047619Y-79954819D01*
X144047619Y-79383390D02*
X144095238Y-79335771D01*
X144095238Y-79335771D02*
X144190476Y-79288152D01*
X144190476Y-79288152D02*
X144333333Y-79288152D01*
X144333333Y-79288152D02*
X144428571Y-79335771D01*
X144428571Y-79335771D02*
X144476190Y-79431009D01*
X144476190Y-79431009D02*
X144476190Y-79954819D01*
X145476190Y-79954819D02*
X144904762Y-79954819D01*
X145190476Y-79954819D02*
X145190476Y-78954819D01*
X145190476Y-78954819D02*
X145095238Y-79097676D01*
X145095238Y-79097676D02*
X145000000Y-79192914D01*
X145000000Y-79192914D02*
X144904762Y-79240533D01*
X182176190Y-62054819D02*
X182176190Y-62769104D01*
X182176190Y-62769104D02*
X182128571Y-62911961D01*
X182128571Y-62911961D02*
X182033333Y-63007200D01*
X182033333Y-63007200D02*
X181890476Y-63054819D01*
X181890476Y-63054819D02*
X181795238Y-63054819D01*
X182652381Y-63054819D02*
X182652381Y-62054819D01*
X183128571Y-62388152D02*
X183128571Y-63054819D01*
X183128571Y-62483390D02*
X183176190Y-62435771D01*
X183176190Y-62435771D02*
X183271428Y-62388152D01*
X183271428Y-62388152D02*
X183414285Y-62388152D01*
X183414285Y-62388152D02*
X183509523Y-62435771D01*
X183509523Y-62435771D02*
X183557142Y-62531009D01*
X183557142Y-62531009D02*
X183557142Y-63054819D01*
X184557142Y-63054819D02*
X183985714Y-63054819D01*
X184271428Y-63054819D02*
X184271428Y-62054819D01*
X184271428Y-62054819D02*
X184176190Y-62197676D01*
X184176190Y-62197676D02*
X184080952Y-62292914D01*
X184080952Y-62292914D02*
X183985714Y-62340533D01*
X177289999Y-92274819D02*
X176956666Y-91798628D01*
X176718571Y-92274819D02*
X176718571Y-91274819D01*
X176718571Y-91274819D02*
X177099523Y-91274819D01*
X177099523Y-91274819D02*
X177194761Y-91322438D01*
X177194761Y-91322438D02*
X177242380Y-91370057D01*
X177242380Y-91370057D02*
X177289999Y-91465295D01*
X177289999Y-91465295D02*
X177289999Y-91608152D01*
X177289999Y-91608152D02*
X177242380Y-91703390D01*
X177242380Y-91703390D02*
X177194761Y-91751009D01*
X177194761Y-91751009D02*
X177099523Y-91798628D01*
X177099523Y-91798628D02*
X176718571Y-91798628D01*
X177575714Y-91274819D02*
X178147142Y-91274819D01*
X177861428Y-92274819D02*
X177861428Y-91274819D01*
X178480476Y-92274819D02*
X178480476Y-91274819D01*
X178909047Y-92274819D02*
X178909047Y-91751009D01*
X178909047Y-91751009D02*
X178861428Y-91655771D01*
X178861428Y-91655771D02*
X178766190Y-91608152D01*
X178766190Y-91608152D02*
X178623333Y-91608152D01*
X178623333Y-91608152D02*
X178528095Y-91655771D01*
X178528095Y-91655771D02*
X178480476Y-91703390D01*
X179909047Y-92274819D02*
X179337619Y-92274819D01*
X179623333Y-92274819D02*
X179623333Y-91274819D01*
X179623333Y-91274819D02*
X179528095Y-91417676D01*
X179528095Y-91417676D02*
X179432857Y-91512914D01*
X179432857Y-91512914D02*
X179337619Y-91560533D01*
X177289999Y-93574819D02*
X176956666Y-93098628D01*
X176718571Y-93574819D02*
X176718571Y-92574819D01*
X176718571Y-92574819D02*
X177099523Y-92574819D01*
X177099523Y-92574819D02*
X177194761Y-92622438D01*
X177194761Y-92622438D02*
X177242380Y-92670057D01*
X177242380Y-92670057D02*
X177289999Y-92765295D01*
X177289999Y-92765295D02*
X177289999Y-92908152D01*
X177289999Y-92908152D02*
X177242380Y-93003390D01*
X177242380Y-93003390D02*
X177194761Y-93051009D01*
X177194761Y-93051009D02*
X177099523Y-93098628D01*
X177099523Y-93098628D02*
X176718571Y-93098628D01*
X177575714Y-92574819D02*
X178147142Y-92574819D01*
X177861428Y-93574819D02*
X177861428Y-92574819D01*
X178480476Y-93574819D02*
X178480476Y-92574819D01*
X178909047Y-93574819D02*
X178909047Y-93051009D01*
X178909047Y-93051009D02*
X178861428Y-92955771D01*
X178861428Y-92955771D02*
X178766190Y-92908152D01*
X178766190Y-92908152D02*
X178623333Y-92908152D01*
X178623333Y-92908152D02*
X178528095Y-92955771D01*
X178528095Y-92955771D02*
X178480476Y-93003390D01*
X179337619Y-92670057D02*
X179385238Y-92622438D01*
X179385238Y-92622438D02*
X179480476Y-92574819D01*
X179480476Y-92574819D02*
X179718571Y-92574819D01*
X179718571Y-92574819D02*
X179813809Y-92622438D01*
X179813809Y-92622438D02*
X179861428Y-92670057D01*
X179861428Y-92670057D02*
X179909047Y-92765295D01*
X179909047Y-92765295D02*
X179909047Y-92860533D01*
X179909047Y-92860533D02*
X179861428Y-93003390D01*
X179861428Y-93003390D02*
X179290000Y-93574819D01*
X179290000Y-93574819D02*
X179909047Y-93574819D01*
X175592857Y-79674819D02*
X175259524Y-79198628D01*
X175021429Y-79674819D02*
X175021429Y-78674819D01*
X175021429Y-78674819D02*
X175402381Y-78674819D01*
X175402381Y-78674819D02*
X175497619Y-78722438D01*
X175497619Y-78722438D02*
X175545238Y-78770057D01*
X175545238Y-78770057D02*
X175592857Y-78865295D01*
X175592857Y-78865295D02*
X175592857Y-79008152D01*
X175592857Y-79008152D02*
X175545238Y-79103390D01*
X175545238Y-79103390D02*
X175497619Y-79151009D01*
X175497619Y-79151009D02*
X175402381Y-79198628D01*
X175402381Y-79198628D02*
X175021429Y-79198628D01*
X176021429Y-79674819D02*
X176021429Y-78674819D01*
X176497619Y-79008152D02*
X176497619Y-79674819D01*
X176497619Y-79103390D02*
X176545238Y-79055771D01*
X176545238Y-79055771D02*
X176640476Y-79008152D01*
X176640476Y-79008152D02*
X176783333Y-79008152D01*
X176783333Y-79008152D02*
X176878571Y-79055771D01*
X176878571Y-79055771D02*
X176926190Y-79151009D01*
X176926190Y-79151009D02*
X176926190Y-79674819D01*
X177354762Y-78770057D02*
X177402381Y-78722438D01*
X177402381Y-78722438D02*
X177497619Y-78674819D01*
X177497619Y-78674819D02*
X177735714Y-78674819D01*
X177735714Y-78674819D02*
X177830952Y-78722438D01*
X177830952Y-78722438D02*
X177878571Y-78770057D01*
X177878571Y-78770057D02*
X177926190Y-78865295D01*
X177926190Y-78865295D02*
X177926190Y-78960533D01*
X177926190Y-78960533D02*
X177878571Y-79103390D01*
X177878571Y-79103390D02*
X177307143Y-79674819D01*
X177307143Y-79674819D02*
X177926190Y-79674819D01*
X181837857Y-79754819D02*
X181504524Y-79278628D01*
X181266429Y-79754819D02*
X181266429Y-78754819D01*
X181266429Y-78754819D02*
X181647381Y-78754819D01*
X181647381Y-78754819D02*
X181742619Y-78802438D01*
X181742619Y-78802438D02*
X181790238Y-78850057D01*
X181790238Y-78850057D02*
X181837857Y-78945295D01*
X181837857Y-78945295D02*
X181837857Y-79088152D01*
X181837857Y-79088152D02*
X181790238Y-79183390D01*
X181790238Y-79183390D02*
X181742619Y-79231009D01*
X181742619Y-79231009D02*
X181647381Y-79278628D01*
X181647381Y-79278628D02*
X181266429Y-79278628D01*
X182266429Y-79754819D02*
X182266429Y-78754819D01*
X182742619Y-79088152D02*
X182742619Y-79754819D01*
X182742619Y-79183390D02*
X182790238Y-79135771D01*
X182790238Y-79135771D02*
X182885476Y-79088152D01*
X182885476Y-79088152D02*
X183028333Y-79088152D01*
X183028333Y-79088152D02*
X183123571Y-79135771D01*
X183123571Y-79135771D02*
X183171190Y-79231009D01*
X183171190Y-79231009D02*
X183171190Y-79754819D01*
X184171190Y-79754819D02*
X183599762Y-79754819D01*
X183885476Y-79754819D02*
X183885476Y-78754819D01*
X183885476Y-78754819D02*
X183790238Y-78897676D01*
X183790238Y-78897676D02*
X183695000Y-78992914D01*
X183695000Y-78992914D02*
X183599762Y-79040533D01*
X142276190Y-61954819D02*
X142276190Y-62669104D01*
X142276190Y-62669104D02*
X142228571Y-62811961D01*
X142228571Y-62811961D02*
X142133333Y-62907200D01*
X142133333Y-62907200D02*
X141990476Y-62954819D01*
X141990476Y-62954819D02*
X141895238Y-62954819D01*
X142752381Y-62954819D02*
X142752381Y-61954819D01*
X142752381Y-61954819D02*
X143133333Y-61954819D01*
X143133333Y-61954819D02*
X143228571Y-62002438D01*
X143228571Y-62002438D02*
X143276190Y-62050057D01*
X143276190Y-62050057D02*
X143323809Y-62145295D01*
X143323809Y-62145295D02*
X143323809Y-62288152D01*
X143323809Y-62288152D02*
X143276190Y-62383390D01*
X143276190Y-62383390D02*
X143228571Y-62431009D01*
X143228571Y-62431009D02*
X143133333Y-62478628D01*
X143133333Y-62478628D02*
X142752381Y-62478628D01*
X143752381Y-62954819D02*
X143752381Y-62288152D01*
X143752381Y-61954819D02*
X143704762Y-62002438D01*
X143704762Y-62002438D02*
X143752381Y-62050057D01*
X143752381Y-62050057D02*
X143800000Y-62002438D01*
X143800000Y-62002438D02*
X143752381Y-61954819D01*
X143752381Y-61954819D02*
X143752381Y-62050057D01*
X144228571Y-62288152D02*
X144228571Y-62954819D01*
X144228571Y-62383390D02*
X144276190Y-62335771D01*
X144276190Y-62335771D02*
X144371428Y-62288152D01*
X144371428Y-62288152D02*
X144514285Y-62288152D01*
X144514285Y-62288152D02*
X144609523Y-62335771D01*
X144609523Y-62335771D02*
X144657142Y-62431009D01*
X144657142Y-62431009D02*
X144657142Y-62954819D01*
X145657142Y-62954819D02*
X145085714Y-62954819D01*
X145371428Y-62954819D02*
X145371428Y-61954819D01*
X145371428Y-61954819D02*
X145276190Y-62097676D01*
X145276190Y-62097676D02*
X145180952Y-62192914D01*
X145180952Y-62192914D02*
X145085714Y-62240533D01*
D12*
%TO.C,JMid1*%
X165790000Y-63835000D02*
X165790000Y-75555000D01*
X165790000Y-75555000D02*
X167210000Y-75555000D01*
X167210000Y-71055000D02*
X169600000Y-71055000D01*
X167210000Y-75555000D02*
X167210000Y-71055000D01*
X168100000Y-64445000D02*
X168100000Y-69945000D01*
X168100000Y-69945000D02*
X168600000Y-69945000D01*
X168600000Y-64445000D02*
X168100000Y-64445000D01*
X168600000Y-69945000D02*
X168600000Y-64445000D01*
X169600000Y-63835000D02*
X165790000Y-63835000D01*
X169600000Y-63835000D02*
X173410000Y-63835000D01*
X170550000Y-75245000D02*
X170850000Y-74645000D01*
X170600000Y-64445000D02*
X170600000Y-69945000D01*
X170600000Y-69945000D02*
X171100000Y-69945000D01*
X170850000Y-74645000D02*
X171150000Y-75245000D01*
X171100000Y-64445000D02*
X170600000Y-64445000D01*
X171100000Y-69945000D02*
X171100000Y-64445000D01*
X171150000Y-75245000D02*
X170550000Y-75245000D01*
X171990000Y-71055000D02*
X169600000Y-71055000D01*
X171990000Y-75555000D02*
X171990000Y-71055000D01*
X173410000Y-63835000D02*
X173410000Y-75555000D01*
X173410000Y-75555000D02*
X171990000Y-75555000D01*
%TO.C,JRin1*%
X152990000Y-63835000D02*
X152990000Y-75555000D01*
X152990000Y-75555000D02*
X154410000Y-75555000D01*
X154410000Y-71055000D02*
X156800000Y-71055000D01*
X154410000Y-75555000D02*
X154410000Y-71055000D01*
X155300000Y-64445000D02*
X155300000Y-69945000D01*
X155300000Y-69945000D02*
X155800000Y-69945000D01*
X155800000Y-64445000D02*
X155300000Y-64445000D01*
X155800000Y-69945000D02*
X155800000Y-64445000D01*
X156800000Y-63835000D02*
X152990000Y-63835000D01*
X156800000Y-63835000D02*
X160610000Y-63835000D01*
X157750000Y-75245000D02*
X158050000Y-74645000D01*
X157800000Y-64445000D02*
X157800000Y-69945000D01*
X157800000Y-69945000D02*
X158300000Y-69945000D01*
X158050000Y-74645000D02*
X158350000Y-75245000D01*
X158300000Y-64445000D02*
X157800000Y-64445000D01*
X158300000Y-69945000D02*
X158300000Y-64445000D01*
X158350000Y-75245000D02*
X157750000Y-75245000D01*
X159190000Y-71055000D02*
X156800000Y-71055000D01*
X159190000Y-75555000D02*
X159190000Y-71055000D01*
X160610000Y-63835000D02*
X160610000Y-75555000D01*
X160610000Y-75555000D02*
X159190000Y-75555000D01*
%TO.C,RMid2*%
X163687867Y-76480000D02*
G75*
G02*
X163687867Y-78120000I417133J-820000D01*
G01*
D13*
%TO.C,U1*%
X146967500Y-94091272D02*
X146967500Y-86096000D01*
X147467500Y-85596000D02*
X148477500Y-85596000D01*
D14*
X148477500Y-83115000D02*
X148477500Y-97085000D01*
D13*
X148477500Y-83115000D02*
X148477500Y-97085000D01*
X148477500Y-94595000D02*
X147467228Y-94591272D01*
X169432500Y-97085000D02*
X169432500Y-83115000D01*
X146967500Y-86096000D02*
G75*
G02*
X147467500Y-85596000I500000J0D01*
G01*
X147467228Y-94591272D02*
G75*
G02*
X146967501Y-94091272I291J500018D01*
G01*
X148477500Y-83115000D02*
G75*
G02*
X150382500Y-81210000I1905000J0D01*
G01*
X150382500Y-98990000D02*
G75*
G02*
X148477500Y-97085000I1J1905001D01*
G01*
X167527500Y-81210000D02*
G75*
G02*
X169432500Y-83115000I0J-1905000D01*
G01*
X169432500Y-97085000D02*
G75*
G02*
X167527500Y-98990000I-1905001J1D01*
G01*
D12*
%TO.C,RRin2*%
X150887867Y-76380000D02*
G75*
G02*
X150887867Y-78020000I417133J-820000D01*
G01*
%TO.C,SW2*%
X141090000Y-93310000D02*
X141090000Y-94560000D01*
X141090000Y-94560000D02*
X142340000Y-94560000D01*
X141190000Y-92500000D02*
X141190000Y-92800000D01*
X141190000Y-92800000D02*
X141390000Y-92800000D01*
X141290000Y-92500000D02*
X141290000Y-92800000D01*
X141390000Y-88140000D02*
X141390000Y-94260000D01*
X141390000Y-91700000D02*
X142000000Y-91700000D01*
X141390000Y-92500000D02*
X141190000Y-92500000D01*
X141390000Y-94260000D02*
X146110000Y-94260000D01*
X142000000Y-88750000D02*
X142000000Y-90700000D01*
X142000000Y-90700000D02*
X141390000Y-90700000D01*
X142000000Y-91700000D02*
X142000000Y-93650000D01*
X142000000Y-93650000D02*
X145500000Y-93650000D01*
X142700000Y-88140000D02*
X142700000Y-88750000D01*
X142700000Y-94260000D02*
X142700000Y-93650000D01*
X144000000Y-88140000D02*
X144000000Y-88750000D01*
X144000000Y-94260000D02*
X144000000Y-93650000D01*
X145000000Y-91100000D02*
X145500000Y-91100000D01*
X145000000Y-91300000D02*
X145000000Y-91100000D01*
X145500000Y-88750000D02*
X142000000Y-88750000D01*
X145500000Y-91200000D02*
X145000000Y-91200000D01*
X145500000Y-91300000D02*
X145000000Y-91300000D01*
X145500000Y-93650000D02*
X145500000Y-88750000D01*
X146110000Y-88140000D02*
X141390000Y-88140000D01*
X146110000Y-94260000D02*
X146110000Y-88140000D01*
%TO.C,RMid1*%
X168812133Y-78120000D02*
G75*
G02*
X168812133Y-76480000I-417133J820000D01*
G01*
%TO.C,bat2*%
X141040000Y-96390000D02*
X141040000Y-97640000D01*
X141340000Y-96690000D02*
X141340000Y-101410000D01*
X141340000Y-98000000D02*
X141950000Y-98000000D01*
X141340000Y-99300000D02*
X141950000Y-99300000D01*
X141340000Y-101410000D02*
X147460000Y-101410000D01*
X141950000Y-97300000D02*
X141950000Y-100800000D01*
X141950000Y-100800000D02*
X146850000Y-100800000D01*
X142290000Y-96390000D02*
X141040000Y-96390000D01*
X142800000Y-96490000D02*
X142800000Y-96690000D01*
X143100000Y-96490000D02*
X142800000Y-96490000D01*
X143100000Y-96590000D02*
X142800000Y-96590000D01*
X143100000Y-96690000D02*
X143100000Y-96490000D01*
X143900000Y-96690000D02*
X143900000Y-97300000D01*
X143900000Y-97300000D02*
X141950000Y-97300000D01*
X144300000Y-100300000D02*
X144500000Y-100300000D01*
X144300000Y-100800000D02*
X144300000Y-100300000D01*
X144400000Y-100800000D02*
X144400000Y-100300000D01*
X144500000Y-100300000D02*
X144500000Y-100800000D01*
X144900000Y-97300000D02*
X144900000Y-96690000D01*
X146850000Y-97300000D02*
X144900000Y-97300000D01*
X146850000Y-100800000D02*
X146850000Y-97300000D01*
X147460000Y-96690000D02*
X141340000Y-96690000D01*
X147460000Y-98000000D02*
X146850000Y-98000000D01*
X147460000Y-99300000D02*
X146850000Y-99300000D01*
X147460000Y-101410000D02*
X147460000Y-96690000D01*
%TO.C,JTh1*%
X172335000Y-94410000D02*
X172335000Y-95830000D01*
X172335000Y-95830000D02*
X176835000Y-95830000D01*
X172335000Y-100610000D02*
X176835000Y-100610000D01*
X172335000Y-102030000D02*
X172335000Y-100610000D01*
X172645000Y-99170000D02*
X173245000Y-99470000D01*
X172645000Y-99770000D02*
X172645000Y-99170000D01*
X173245000Y-99470000D02*
X172645000Y-99770000D01*
X176835000Y-95830000D02*
X176835000Y-98220000D01*
X176835000Y-100610000D02*
X176835000Y-98220000D01*
X177945000Y-96720000D02*
X177945000Y-97220000D01*
X177945000Y-97220000D02*
X183445000Y-97220000D01*
X177945000Y-99220000D02*
X177945000Y-99720000D01*
X177945000Y-99720000D02*
X183445000Y-99720000D01*
X183445000Y-96720000D02*
X177945000Y-96720000D01*
X183445000Y-97220000D02*
X183445000Y-96720000D01*
X183445000Y-99220000D02*
X177945000Y-99220000D01*
X183445000Y-99720000D02*
X183445000Y-99220000D01*
X184055000Y-94410000D02*
X172335000Y-94410000D01*
X184055000Y-98220000D02*
X184055000Y-94410000D01*
X184055000Y-98220000D02*
X184055000Y-102030000D01*
X184055000Y-102030000D02*
X172335000Y-102030000D01*
%TO.C,C2*%
X148830000Y-100580000D02*
X148830000Y-100728000D01*
X148830000Y-100580000D02*
X152070000Y-100580000D01*
X148830000Y-102672000D02*
X148830000Y-102820000D01*
X148830000Y-102820000D02*
X152070000Y-102820000D01*
X152070000Y-100580000D02*
X152070000Y-100728000D01*
X152070000Y-102672000D02*
X152070000Y-102820000D01*
%TO.C,bat4*%
X141140000Y-86010000D02*
X141140000Y-87260000D01*
X141140000Y-87260000D02*
X142390000Y-87260000D01*
X141240000Y-85200000D02*
X141240000Y-85500000D01*
X141240000Y-85500000D02*
X141440000Y-85500000D01*
X141340000Y-85200000D02*
X141340000Y-85500000D01*
X141440000Y-80840000D02*
X141440000Y-86960000D01*
X141440000Y-84400000D02*
X142050000Y-84400000D01*
X141440000Y-85200000D02*
X141240000Y-85200000D01*
X141440000Y-86960000D02*
X146160000Y-86960000D01*
X142050000Y-81450000D02*
X142050000Y-83400000D01*
X142050000Y-83400000D02*
X141440000Y-83400000D01*
X142050000Y-84400000D02*
X142050000Y-86350000D01*
X142050000Y-86350000D02*
X145550000Y-86350000D01*
X142750000Y-80840000D02*
X142750000Y-81450000D01*
X142750000Y-86960000D02*
X142750000Y-86350000D01*
X144050000Y-80840000D02*
X144050000Y-81450000D01*
X144050000Y-86960000D02*
X144050000Y-86350000D01*
X145050000Y-83800000D02*
X145550000Y-83800000D01*
X145050000Y-84000000D02*
X145050000Y-83800000D01*
X145550000Y-81450000D02*
X142050000Y-81450000D01*
X145550000Y-83900000D02*
X145050000Y-83900000D01*
X145550000Y-84000000D02*
X145050000Y-84000000D01*
X145550000Y-86350000D02*
X145550000Y-81450000D01*
X146160000Y-80840000D02*
X141440000Y-80840000D01*
X146160000Y-86960000D02*
X146160000Y-80840000D01*
%TO.C,RRin1*%
X156012133Y-78120000D02*
G75*
G02*
X156012133Y-76480000I-417133J820000D01*
G01*
%TO.C,RPin1*%
X142612133Y-78420000D02*
G75*
G02*
X142612133Y-76780000I-417133J820000D01*
G01*
%TO.C,JIn1*%
X178990000Y-63835000D02*
X178990000Y-75555000D01*
X178990000Y-75555000D02*
X180410000Y-75555000D01*
X180410000Y-71055000D02*
X182800000Y-71055000D01*
X180410000Y-75555000D02*
X180410000Y-71055000D01*
X181300000Y-64445000D02*
X181300000Y-69945000D01*
X181300000Y-69945000D02*
X181800000Y-69945000D01*
X181800000Y-64445000D02*
X181300000Y-64445000D01*
X181800000Y-69945000D02*
X181800000Y-64445000D01*
X182800000Y-63835000D02*
X178990000Y-63835000D01*
X182800000Y-63835000D02*
X186610000Y-63835000D01*
X183750000Y-75245000D02*
X184050000Y-74645000D01*
X183800000Y-64445000D02*
X183800000Y-69945000D01*
X183800000Y-69945000D02*
X184300000Y-69945000D01*
X184050000Y-74645000D02*
X184350000Y-75245000D01*
X184300000Y-64445000D02*
X183800000Y-64445000D01*
X184300000Y-69945000D02*
X184300000Y-64445000D01*
X184350000Y-75245000D02*
X183750000Y-75245000D01*
X185190000Y-71055000D02*
X182800000Y-71055000D01*
X185190000Y-75555000D02*
X185190000Y-71055000D01*
X186610000Y-63835000D02*
X186610000Y-75555000D01*
X186610000Y-75555000D02*
X185190000Y-75555000D01*
%TO.C,RTh1*%
X174377867Y-91800000D02*
G75*
G02*
X174377867Y-93440000I417133J-820000D01*
G01*
%TO.C,RTh2*%
X182977867Y-91800000D02*
G75*
G02*
X182977867Y-93440000I417133J-820000D01*
G01*
%TO.C,RIn2*%
X176982867Y-76480000D02*
G75*
G02*
X176982867Y-78120000I417133J-820000D01*
G01*
%TO.C,RIn1*%
X182112133Y-78120000D02*
G75*
G02*
X182112133Y-76480000I-417133J820000D01*
G01*
%TO.C,JPin1*%
X139790000Y-63835000D02*
X139790000Y-75555000D01*
X139790000Y-75555000D02*
X141210000Y-75555000D01*
X141210000Y-71055000D02*
X143600000Y-71055000D01*
X141210000Y-75555000D02*
X141210000Y-71055000D01*
X142100000Y-64445000D02*
X142100000Y-69945000D01*
X142100000Y-69945000D02*
X142600000Y-69945000D01*
X142600000Y-64445000D02*
X142100000Y-64445000D01*
X142600000Y-69945000D02*
X142600000Y-64445000D01*
X143600000Y-63835000D02*
X139790000Y-63835000D01*
X143600000Y-63835000D02*
X147410000Y-63835000D01*
X144550000Y-75245000D02*
X144850000Y-74645000D01*
X144600000Y-64445000D02*
X144600000Y-69945000D01*
X144600000Y-69945000D02*
X145100000Y-69945000D01*
X144850000Y-74645000D02*
X145150000Y-75245000D01*
X145100000Y-64445000D02*
X144600000Y-64445000D01*
X145100000Y-69945000D02*
X145100000Y-64445000D01*
X145150000Y-75245000D02*
X144550000Y-75245000D01*
X145990000Y-71055000D02*
X143600000Y-71055000D01*
X145990000Y-75555000D02*
X145990000Y-71055000D01*
X147410000Y-63835000D02*
X147410000Y-75555000D01*
X147410000Y-75555000D02*
X145990000Y-75555000D01*
%TD*%
M02*
