%TF.GenerationSoftware,KiCad,Pcbnew,9.0.2*%
%TF.CreationDate,2025-08-28T12:16:00+10:00*%
%TF.ProjectId,fsr_left,6673725f-6c65-4667-942e-6b696361645f,rev?*%
%TF.SameCoordinates,Original*%
%TF.FileFunction,Soldermask,Top*%
%TF.FilePolarity,Negative*%
%FSLAX46Y46*%
G04 Gerber Fmt 4.6, Leading zero omitted, Abs format (unit mm)*
G04 Created by KiCad (PCBNEW 9.0.2) date 2025-08-28 12:16:00*
%MOMM*%
%LPD*%
G01*
G04 APERTURE LIST*
G04 Aperture macros list*
%AMRoundRect*
0 Rectangle with rounded corners*
0 $1 Rounding radius*
0 $2 $3 $4 $5 $6 $7 $8 $9 X,Y pos of 4 corners*
0 Add a 4 corners polygon primitive as box body*
4,1,4,$2,$3,$4,$5,$6,$7,$8,$9,$2,$3,0*
0 Add four circle primitives for the rounded corners*
1,1,$1+$1,$2,$3*
1,1,$1+$1,$4,$5*
1,1,$1+$1,$6,$7*
1,1,$1+$1,$8,$9*
0 Add four rect primitives between the rounded corners*
20,1,$1+$1,$2,$3,$4,$5,0*
20,1,$1+$1,$4,$5,$6,$7,0*
20,1,$1+$1,$6,$7,$8,$9,0*
20,1,$1+$1,$8,$9,$2,$3,0*%
G04 Aperture macros list end*
%ADD10RoundRect,0.250000X0.600000X0.750000X-0.600000X0.750000X-0.600000X-0.750000X0.600000X-0.750000X0*%
%ADD11O,1.700000X2.000000*%
%ADD12C,1.400000*%
%ADD13RoundRect,0.152400X-0.609600X1.063600X-0.609600X-1.063600X0.609600X-1.063600X0.609600X1.063600X0*%
%ADD14C,1.524000*%
%ADD15RoundRect,0.152400X0.609600X-1.063600X0.609600X1.063600X-0.609600X1.063600X-0.609600X-1.063600X0*%
%ADD16RoundRect,0.250000X0.625000X-0.350000X0.625000X0.350000X-0.625000X0.350000X-0.625000X-0.350000X0*%
%ADD17O,1.750000X1.200000*%
%ADD18RoundRect,0.250000X-0.350000X-0.625000X0.350000X-0.625000X0.350000X0.625000X-0.350000X0.625000X0*%
%ADD19O,1.200000X1.750000*%
%ADD20RoundRect,0.250000X0.750000X-0.600000X0.750000X0.600000X-0.750000X0.600000X-0.750000X-0.600000X0*%
%ADD21O,2.000000X1.700000*%
%ADD22C,1.600000*%
%ADD23RoundRect,0.250000X-0.600000X-0.750000X0.600000X-0.750000X0.600000X0.750000X-0.600000X0.750000X0*%
%ADD24RoundRect,0.250000X-0.750000X0.600000X-0.750000X-0.600000X0.750000X-0.600000X0.750000X0.600000X0*%
G04 APERTURE END LIST*
D10*
%TO.C,JMid1*%
X170850000Y-73145000D03*
D11*
X168350000Y-73145000D03*
%TD*%
D10*
%TO.C,JRin1*%
X158050000Y-73145000D03*
D11*
X155550000Y-73145000D03*
%TD*%
D12*
%TO.C,RMid2*%
X164105000Y-77300000D03*
X162205000Y-77300000D03*
%TD*%
D13*
%TO.C,U1*%
X151398500Y-98555000D03*
D14*
X151398500Y-97720000D03*
D13*
X153938500Y-98555000D03*
D14*
X153938500Y-97720000D03*
D13*
X156478500Y-98555000D03*
D14*
X156478500Y-97720000D03*
D13*
X159018500Y-98555000D03*
D14*
X159018500Y-97720000D03*
D13*
X161558500Y-98555000D03*
D14*
X161558500Y-97720000D03*
D13*
X164098500Y-98555000D03*
D14*
X164098500Y-97720000D03*
D13*
X166638500Y-98555000D03*
D14*
X166638500Y-97720000D03*
X166638500Y-82480000D03*
D15*
X166638500Y-81645000D03*
D14*
X164098500Y-82480000D03*
D15*
X164098500Y-81645000D03*
D14*
X161558500Y-82480000D03*
D15*
X161558500Y-81645000D03*
D14*
X159018500Y-82480000D03*
D15*
X159018500Y-81645000D03*
D14*
X156478500Y-82480000D03*
D15*
X156478500Y-81645000D03*
D14*
X153938500Y-82480000D03*
D15*
X153938500Y-81645000D03*
D14*
X151398500Y-82480000D03*
D15*
X151398500Y-81645000D03*
%TD*%
D12*
%TO.C,RRin2*%
X151305000Y-77200000D03*
X149405000Y-77200000D03*
%TD*%
D16*
%TO.C,SW2*%
X143200000Y-92200000D03*
D17*
X143200000Y-90200000D03*
%TD*%
D12*
%TO.C,RMid1*%
X168395000Y-77300000D03*
X170295000Y-77300000D03*
%TD*%
D18*
%TO.C,bat2*%
X143400000Y-98500000D03*
D19*
X145400000Y-98500000D03*
%TD*%
D20*
%TO.C,JTh1*%
X174745000Y-99470000D03*
D21*
X174745000Y-96970000D03*
%TD*%
D22*
%TO.C,C2*%
X149200000Y-101700000D03*
X151700000Y-101700000D03*
%TD*%
D16*
%TO.C,bat4*%
X143250000Y-84900000D03*
D17*
X143250000Y-82900000D03*
%TD*%
D12*
%TO.C,RRin1*%
X155595000Y-77300000D03*
X157495000Y-77300000D03*
%TD*%
%TO.C,RPin1*%
X142195000Y-77600000D03*
X144095000Y-77600000D03*
%TD*%
D10*
%TO.C,JIn1*%
X184050000Y-73145000D03*
D11*
X181550000Y-73145000D03*
%TD*%
D12*
%TO.C,RTh1*%
X174795000Y-92620000D03*
X172895000Y-92620000D03*
%TD*%
%TO.C,RTh2*%
X183395000Y-92620000D03*
X181495000Y-92620000D03*
%TD*%
%TO.C,RIn2*%
X177400000Y-77300000D03*
X175500000Y-77300000D03*
%TD*%
%TO.C,RIn1*%
X181695000Y-77300000D03*
X183595000Y-77300000D03*
%TD*%
D10*
%TO.C,JPin1*%
X144850000Y-73145000D03*
D11*
X142350000Y-73145000D03*
%TD*%
D23*
%TO.C,JIn2*%
X174950000Y-73145000D03*
D11*
X177450000Y-73145000D03*
%TD*%
D23*
%TO.C,JMid2*%
X161750000Y-73145000D03*
D11*
X164250000Y-73145000D03*
%TD*%
D23*
%TO.C,JRin2*%
X148950000Y-73145000D03*
D11*
X151450000Y-73145000D03*
%TD*%
D24*
%TO.C,JTh2*%
X174745000Y-85770000D03*
D21*
X174745000Y-88270000D03*
%TD*%
M02*
