%TF.GenerationSoftware,KiCad,Pcbnew,9.0.2*%
%TF.CreationDate,2025-08-28T12:15:59+10:00*%
%TF.ProjectId,fsr_left,6673725f-6c65-4667-942e-6b696361645f,rev?*%
%TF.SameCoordinates,Original*%
%TF.FileFunction,Copper,L2,Bot*%
%TF.FilePolarity,Positive*%
%FSLAX46Y46*%
G04 Gerber Fmt 4.6, Leading zero omitted, Abs format (unit mm)*
G04 Created by KiCad (PCBNEW 9.0.2) date 2025-08-28 12:15:59*
%MOMM*%
%LPD*%
G01*
G04 APERTURE LIST*
G04 Aperture macros list*
%AMRoundRect*
0 Rectangle with rounded corners*
0 $1 Rounding radius*
0 $2 $3 $4 $5 $6 $7 $8 $9 X,Y pos of 4 corners*
0 Add a 4 corners polygon primitive as box body*
4,1,4,$2,$3,$4,$5,$6,$7,$8,$9,$2,$3,0*
0 Add four circle primitives for the rounded corners*
1,1,$1+$1,$2,$3*
1,1,$1+$1,$4,$5*
1,1,$1+$1,$6,$7*
1,1,$1+$1,$8,$9*
0 Add four rect primitives between the rounded corners*
20,1,$1+$1,$2,$3,$4,$5,0*
20,1,$1+$1,$4,$5,$6,$7,0*
20,1,$1+$1,$6,$7,$8,$9,0*
20,1,$1+$1,$8,$9,$2,$3,0*%
G04 Aperture macros list end*
%TA.AperFunction,ComponentPad*%
%ADD10RoundRect,0.250000X0.600000X0.750000X-0.600000X0.750000X-0.600000X-0.750000X0.600000X-0.750000X0*%
%TD*%
%TA.AperFunction,ComponentPad*%
%ADD11O,1.700000X2.000000*%
%TD*%
%TA.AperFunction,ComponentPad*%
%ADD12C,1.400000*%
%TD*%
%TA.AperFunction,ComponentPad*%
%ADD13C,1.524000*%
%TD*%
%TA.AperFunction,ComponentPad*%
%ADD14RoundRect,0.250000X0.625000X-0.350000X0.625000X0.350000X-0.625000X0.350000X-0.625000X-0.350000X0*%
%TD*%
%TA.AperFunction,ComponentPad*%
%ADD15O,1.750000X1.200000*%
%TD*%
%TA.AperFunction,ComponentPad*%
%ADD16RoundRect,0.250000X-0.350000X-0.625000X0.350000X-0.625000X0.350000X0.625000X-0.350000X0.625000X0*%
%TD*%
%TA.AperFunction,ComponentPad*%
%ADD17O,1.200000X1.750000*%
%TD*%
%TA.AperFunction,ComponentPad*%
%ADD18RoundRect,0.250000X0.750000X-0.600000X0.750000X0.600000X-0.750000X0.600000X-0.750000X-0.600000X0*%
%TD*%
%TA.AperFunction,ComponentPad*%
%ADD19O,2.000000X1.700000*%
%TD*%
%TA.AperFunction,ComponentPad*%
%ADD20C,1.600000*%
%TD*%
%TA.AperFunction,ComponentPad*%
%ADD21RoundRect,0.250000X-0.600000X-0.750000X0.600000X-0.750000X0.600000X0.750000X-0.600000X0.750000X0*%
%TD*%
%TA.AperFunction,ComponentPad*%
%ADD22RoundRect,0.250000X-0.750000X0.600000X-0.750000X-0.600000X0.750000X-0.600000X0.750000X0.600000X0*%
%TD*%
%TA.AperFunction,Conductor*%
%ADD23C,0.500000*%
%TD*%
G04 APERTURE END LIST*
D10*
%TO.P,JMid1,1,Pin_1*%
%TO.N,+3.3V*%
X170850000Y-73145000D03*
D11*
%TO.P,JMid1,2,Pin_2*%
%TO.N,/Mid1*%
X168350000Y-73145000D03*
%TD*%
D10*
%TO.P,JRin1,1,Pin_1*%
%TO.N,+3.3V*%
X158050000Y-73145000D03*
D11*
%TO.P,JRin1,2,Pin_2*%
%TO.N,/Rin1*%
X155550000Y-73145000D03*
%TD*%
D12*
%TO.P,RMid2,1*%
%TO.N,/Mid2*%
X164105000Y-77300000D03*
%TO.P,RMid2,2*%
%TO.N,GND*%
X162205000Y-77300000D03*
%TD*%
D13*
%TO.P,U1,1,PA02_A0_D0*%
%TO.N,/Mid2*%
X151398500Y-97720000D03*
%TO.P,U1,2,PA4_A1_D1*%
%TO.N,/Mid1*%
X153938500Y-97720000D03*
%TO.P,U1,3,PA10_A2_D2*%
%TO.N,/In2*%
X156478500Y-97720000D03*
%TO.P,U1,4,PA11_A3_D3*%
%TO.N,/In1*%
X159018500Y-97720000D03*
%TO.P,U1,5,PA8_A4_D4_SDA*%
%TO.N,/Th2*%
X161558500Y-97720000D03*
%TO.P,U1,6,PA9_A5_D5_SCL*%
%TO.N,/Th1*%
X164098500Y-97720000D03*
%TO.P,U1,7,PB08_A6_TX*%
%TO.N,unconnected-(U1-PB08_A6_TX-Pad7)*%
X166638500Y-97720000D03*
%TO.P,U1,8,PB09_D7_RX*%
%TO.N,unconnected-(U1-PB09_D7_RX-Pad8)_1*%
X166638500Y-82480000D03*
%TO.P,U1,9,PA7_A8_D8_SCK*%
%TO.N,/Rin1*%
X164098500Y-82480000D03*
%TO.P,U1,10,PA5_A9_D9_MISO*%
%TO.N,/Rin2*%
X161558500Y-82480000D03*
%TO.P,U1,11,PA6_A10_D10_MOSI*%
%TO.N,/Pin*%
X159018500Y-82480000D03*
%TO.P,U1,12,3V3*%
%TO.N,+3.3V*%
X156478500Y-82480000D03*
%TO.P,U1,13,GND*%
%TO.N,GND*%
X153938500Y-82480000D03*
%TO.P,U1,14,5V*%
%TO.N,unconnected-(U1-5V-Pad14)_1*%
X151398500Y-82480000D03*
%TD*%
D12*
%TO.P,RRin2,1*%
%TO.N,/Rin2*%
X151305000Y-77200000D03*
%TO.P,RRin2,2*%
%TO.N,GND*%
X149405000Y-77200000D03*
%TD*%
D14*
%TO.P,SW2,1,A*%
%TO.N,Net-(SW2A-A)*%
X143200000Y-92200000D03*
D15*
%TO.P,SW2,2,B*%
%TO.N,Net-(SW2A-B)*%
X143200000Y-90200000D03*
%TD*%
D12*
%TO.P,RMid1,1*%
%TO.N,/Mid1*%
X168395000Y-77300000D03*
%TO.P,RMid1,2*%
%TO.N,GND*%
X170295000Y-77300000D03*
%TD*%
D16*
%TO.P,bat2,1,3.7V*%
%TO.N,Net-(SW2A-A)*%
X143400000Y-98500000D03*
D17*
%TO.P,bat2,2,G*%
%TO.N,GND*%
X145400000Y-98500000D03*
%TD*%
D18*
%TO.P,JTh1,1,Pin_1*%
%TO.N,+3.3V*%
X174745000Y-99470000D03*
D19*
%TO.P,JTh1,2,Pin_2*%
%TO.N,/Th1*%
X174745000Y-96970000D03*
%TD*%
D20*
%TO.P,C2,1*%
%TO.N,Net-(SW2A-A)*%
X149200000Y-101700000D03*
%TO.P,C2,2*%
%TO.N,GND*%
X151700000Y-101700000D03*
%TD*%
D14*
%TO.P,bat4,1,3.7V*%
%TO.N,Net-(SW2A-B)*%
X143250000Y-84900000D03*
D15*
%TO.P,bat4,2,G*%
%TO.N,GND*%
X143250000Y-82900000D03*
%TD*%
D12*
%TO.P,RRin1,1*%
%TO.N,/Rin1*%
X155595000Y-77300000D03*
%TO.P,RRin1,2*%
%TO.N,GND*%
X157495000Y-77300000D03*
%TD*%
%TO.P,RPin1,1*%
%TO.N,/Pin*%
X142195000Y-77600000D03*
%TO.P,RPin1,2*%
%TO.N,GND*%
X144095000Y-77600000D03*
%TD*%
D10*
%TO.P,JIn1,1,Pin_1*%
%TO.N,+3.3V*%
X184050000Y-73145000D03*
D11*
%TO.P,JIn1,2,Pin_2*%
%TO.N,/In1*%
X181550000Y-73145000D03*
%TD*%
D12*
%TO.P,RTh1,1*%
%TO.N,/Th1*%
X174795000Y-92620000D03*
%TO.P,RTh1,2*%
%TO.N,GND*%
X172895000Y-92620000D03*
%TD*%
%TO.P,RTh2,1*%
%TO.N,/Th2*%
X183395000Y-92620000D03*
%TO.P,RTh2,2*%
%TO.N,GND*%
X181495000Y-92620000D03*
%TD*%
%TO.P,RIn2,1*%
%TO.N,/In2*%
X177400000Y-77300000D03*
%TO.P,RIn2,2*%
%TO.N,GND*%
X175500000Y-77300000D03*
%TD*%
%TO.P,RIn1,1*%
%TO.N,/In1*%
X181695000Y-77300000D03*
%TO.P,RIn1,2*%
%TO.N,GND*%
X183595000Y-77300000D03*
%TD*%
D10*
%TO.P,JPin1,1,Pin_1*%
%TO.N,+3.3V*%
X144850000Y-73145000D03*
D11*
%TO.P,JPin1,2,Pin_2*%
%TO.N,/Pin*%
X142350000Y-73145000D03*
%TD*%
D21*
%TO.P,JIn2,1,Pin_1*%
%TO.N,+3.3V*%
X174950000Y-73145000D03*
D11*
%TO.P,JIn2,2,Pin_2*%
%TO.N,/In2*%
X177450000Y-73145000D03*
%TD*%
D21*
%TO.P,JMid2,1,Pin_1*%
%TO.N,+3.3V*%
X161750000Y-73145000D03*
D11*
%TO.P,JMid2,2,Pin_2*%
%TO.N,/Mid2*%
X164250000Y-73145000D03*
%TD*%
D21*
%TO.P,JRin2,1,Pin_1*%
%TO.N,+3.3V*%
X148950000Y-73145000D03*
D11*
%TO.P,JRin2,2,Pin_2*%
%TO.N,/Rin2*%
X151450000Y-73145000D03*
%TD*%
D22*
%TO.P,JTh2,1,Pin_1*%
%TO.N,+3.3V*%
X174745000Y-85770000D03*
D19*
%TO.P,JTh2,2,Pin_2*%
%TO.N,/Th2*%
X174745000Y-88270000D03*
%TD*%
D23*
%TO.N,Net-(SW2A-A)*%
X143400000Y-98500000D02*
X146600000Y-101700000D01*
X146600000Y-101700000D02*
X149200000Y-101700000D01*
X143200000Y-92200000D02*
X143200000Y-98300000D01*
X143200000Y-98300000D02*
X143400000Y-98500000D01*
%TO.N,Net-(SW2A-B)*%
X143250000Y-90150000D02*
X143200000Y-90200000D01*
X143250000Y-84900000D02*
X143250000Y-90150000D01*
%TD*%
%TA.AperFunction,Conductor*%
%TO.N,GND*%
G36*
X187514418Y-61630816D02*
G01*
X187714561Y-61645130D01*
X187732063Y-61647647D01*
X187923797Y-61689355D01*
X187940755Y-61694334D01*
X188124609Y-61762909D01*
X188140701Y-61770259D01*
X188312904Y-61864288D01*
X188327784Y-61873849D01*
X188484867Y-61991441D01*
X188498237Y-62003027D01*
X188636972Y-62141762D01*
X188648558Y-62155132D01*
X188766146Y-62312210D01*
X188775711Y-62327095D01*
X188869740Y-62499298D01*
X188877090Y-62515390D01*
X188945662Y-62699236D01*
X188950646Y-62716212D01*
X188992351Y-62907931D01*
X188994869Y-62925442D01*
X189009184Y-63125580D01*
X189009500Y-63134427D01*
X189009500Y-101655572D01*
X189009184Y-101664419D01*
X188994869Y-101864557D01*
X188992351Y-101882068D01*
X188950646Y-102073787D01*
X188945662Y-102090763D01*
X188877090Y-102274609D01*
X188869740Y-102290701D01*
X188775711Y-102462904D01*
X188766146Y-102477789D01*
X188648558Y-102634867D01*
X188636972Y-102648237D01*
X188498237Y-102786972D01*
X188484867Y-102798558D01*
X188327789Y-102916146D01*
X188312904Y-102925711D01*
X188140701Y-103019740D01*
X188124609Y-103027090D01*
X187940763Y-103095662D01*
X187923787Y-103100646D01*
X187732068Y-103142351D01*
X187714557Y-103144869D01*
X187533779Y-103157799D01*
X187514417Y-103159184D01*
X187505572Y-103159500D01*
X152197914Y-103159500D01*
X152130875Y-103139815D01*
X152085120Y-103087011D01*
X152075176Y-103017853D01*
X152104201Y-102954297D01*
X152159595Y-102917569D01*
X152199031Y-102904755D01*
X152381349Y-102811859D01*
X152425921Y-102779474D01*
X151746447Y-102100000D01*
X151752661Y-102100000D01*
X151854394Y-102072741D01*
X151945606Y-102020080D01*
X152020080Y-101945606D01*
X152072741Y-101854394D01*
X152100000Y-101752661D01*
X152100000Y-101746447D01*
X152779474Y-102425921D01*
X152811859Y-102381349D01*
X152904755Y-102199031D01*
X152967990Y-102004417D01*
X153000000Y-101802317D01*
X153000000Y-101597682D01*
X152967990Y-101395582D01*
X152904755Y-101200968D01*
X152811859Y-101018650D01*
X152779474Y-100974077D01*
X152779474Y-100974076D01*
X152100000Y-101653551D01*
X152100000Y-101647339D01*
X152072741Y-101545606D01*
X152020080Y-101454394D01*
X151945606Y-101379920D01*
X151854394Y-101327259D01*
X151752661Y-101300000D01*
X151746446Y-101300000D01*
X152425922Y-100620524D01*
X152425921Y-100620523D01*
X152381359Y-100588147D01*
X152381350Y-100588141D01*
X152199031Y-100495244D01*
X152004417Y-100432009D01*
X151802317Y-100400000D01*
X151597683Y-100400000D01*
X151395582Y-100432009D01*
X151200968Y-100495244D01*
X151018644Y-100588143D01*
X150974077Y-100620523D01*
X150974077Y-100620524D01*
X151653554Y-101300000D01*
X151647339Y-101300000D01*
X151545606Y-101327259D01*
X151454394Y-101379920D01*
X151379920Y-101454394D01*
X151327259Y-101545606D01*
X151300000Y-101647339D01*
X151300000Y-101653553D01*
X150620524Y-100974077D01*
X150620523Y-100974077D01*
X150588143Y-101018644D01*
X150560765Y-101072378D01*
X150512790Y-101123174D01*
X150444969Y-101139969D01*
X150378834Y-101117431D01*
X150339795Y-101072378D01*
X150312284Y-101018385D01*
X150191971Y-100852786D01*
X150047213Y-100708028D01*
X149881613Y-100587715D01*
X149881612Y-100587714D01*
X149881610Y-100587713D01*
X149824653Y-100558691D01*
X149699223Y-100494781D01*
X149504534Y-100431522D01*
X149329995Y-100403878D01*
X149302352Y-100399500D01*
X149097648Y-100399500D01*
X149073329Y-100403351D01*
X148895465Y-100431522D01*
X148700776Y-100494781D01*
X148518386Y-100587715D01*
X148352786Y-100708028D01*
X148208032Y-100852782D01*
X148208028Y-100852787D01*
X148174900Y-100898385D01*
X148119571Y-100941051D01*
X148074582Y-100949500D01*
X146962229Y-100949500D01*
X146895190Y-100929815D01*
X146874548Y-100913181D01*
X145898898Y-99937531D01*
X145865413Y-99876208D01*
X145870397Y-99806516D01*
X145912269Y-99750583D01*
X145930284Y-99739365D01*
X145976524Y-99715804D01*
X146116602Y-99614032D01*
X146239032Y-99491602D01*
X146340804Y-99351524D01*
X146419408Y-99197257D01*
X146472914Y-99032584D01*
X146500000Y-98861571D01*
X146500000Y-98750000D01*
X145680330Y-98750000D01*
X145700075Y-98730255D01*
X145749444Y-98644745D01*
X145775000Y-98549370D01*
X145775000Y-98450630D01*
X145749444Y-98355255D01*
X145700075Y-98269745D01*
X145680330Y-98250000D01*
X146500000Y-98250000D01*
X146500000Y-98138428D01*
X146472914Y-97967415D01*
X146419408Y-97802742D01*
X146352822Y-97672062D01*
X146340804Y-97648475D01*
X146320580Y-97620639D01*
X150136000Y-97620639D01*
X150136000Y-97819361D01*
X150136892Y-97824991D01*
X150167087Y-98015637D01*
X150228493Y-98204629D01*
X150228494Y-98204632D01*
X150315812Y-98376000D01*
X150318713Y-98381694D01*
X150435519Y-98542464D01*
X150576036Y-98682981D01*
X150736806Y-98799787D01*
X150823649Y-98844035D01*
X150913867Y-98890005D01*
X150913870Y-98890006D01*
X151008366Y-98920709D01*
X151102864Y-98951413D01*
X151299139Y-98982500D01*
X151299140Y-98982500D01*
X151497860Y-98982500D01*
X151497861Y-98982500D01*
X151694136Y-98951413D01*
X151883132Y-98890005D01*
X152060194Y-98799787D01*
X152220964Y-98682981D01*
X152361481Y-98542464D01*
X152478287Y-98381694D01*
X152558015Y-98225218D01*
X152605990Y-98174423D01*
X152673811Y-98157628D01*
X152739946Y-98180165D01*
X152778984Y-98225218D01*
X152858713Y-98381694D01*
X152975519Y-98542464D01*
X153116036Y-98682981D01*
X153276806Y-98799787D01*
X153363649Y-98844035D01*
X153453867Y-98890005D01*
X153453870Y-98890006D01*
X153548366Y-98920709D01*
X153642864Y-98951413D01*
X153839139Y-98982500D01*
X153839140Y-98982500D01*
X154037860Y-98982500D01*
X154037861Y-98982500D01*
X154234136Y-98951413D01*
X154423132Y-98890005D01*
X154600194Y-98799787D01*
X154760964Y-98682981D01*
X154901481Y-98542464D01*
X155018287Y-98381694D01*
X155098015Y-98225218D01*
X155145990Y-98174423D01*
X155213811Y-98157628D01*
X155279946Y-98180165D01*
X155318984Y-98225218D01*
X155398713Y-98381694D01*
X155515519Y-98542464D01*
X155656036Y-98682981D01*
X155816806Y-98799787D01*
X155903649Y-98844035D01*
X155993867Y-98890005D01*
X155993870Y-98890006D01*
X156088366Y-98920709D01*
X156182864Y-98951413D01*
X156379139Y-98982500D01*
X156379140Y-98982500D01*
X156577860Y-98982500D01*
X156577861Y-98982500D01*
X156774136Y-98951413D01*
X156963132Y-98890005D01*
X157140194Y-98799787D01*
X157300964Y-98682981D01*
X157441481Y-98542464D01*
X157558287Y-98381694D01*
X157638015Y-98225218D01*
X157685990Y-98174423D01*
X157753811Y-98157628D01*
X157819946Y-98180165D01*
X157858984Y-98225218D01*
X157938713Y-98381694D01*
X158055519Y-98542464D01*
X158196036Y-98682981D01*
X158356806Y-98799787D01*
X158443649Y-98844035D01*
X158533867Y-98890005D01*
X158533870Y-98890006D01*
X158628366Y-98920709D01*
X158722864Y-98951413D01*
X158919139Y-98982500D01*
X158919140Y-98982500D01*
X159117860Y-98982500D01*
X159117861Y-98982500D01*
X159314136Y-98951413D01*
X159503132Y-98890005D01*
X159680194Y-98799787D01*
X159840964Y-98682981D01*
X159981481Y-98542464D01*
X160098287Y-98381694D01*
X160178015Y-98225218D01*
X160225990Y-98174423D01*
X160293811Y-98157628D01*
X160359946Y-98180165D01*
X160398984Y-98225218D01*
X160478713Y-98381694D01*
X160595519Y-98542464D01*
X160736036Y-98682981D01*
X160896806Y-98799787D01*
X160983649Y-98844035D01*
X161073867Y-98890005D01*
X161073870Y-98890006D01*
X161168366Y-98920709D01*
X161262864Y-98951413D01*
X161459139Y-98982500D01*
X161459140Y-98982500D01*
X161657860Y-98982500D01*
X161657861Y-98982500D01*
X161854136Y-98951413D01*
X162043132Y-98890005D01*
X162220194Y-98799787D01*
X162380964Y-98682981D01*
X162521481Y-98542464D01*
X162638287Y-98381694D01*
X162718015Y-98225218D01*
X162765990Y-98174423D01*
X162833811Y-98157628D01*
X162899946Y-98180165D01*
X162938984Y-98225218D01*
X163018713Y-98381694D01*
X163135519Y-98542464D01*
X163276036Y-98682981D01*
X163436806Y-98799787D01*
X163523649Y-98844035D01*
X163613867Y-98890005D01*
X163613870Y-98890006D01*
X163708366Y-98920709D01*
X163802864Y-98951413D01*
X163999139Y-98982500D01*
X163999140Y-98982500D01*
X164197860Y-98982500D01*
X164197861Y-98982500D01*
X164394136Y-98951413D01*
X164583132Y-98890005D01*
X164760194Y-98799787D01*
X164920964Y-98682981D01*
X165061481Y-98542464D01*
X165178287Y-98381694D01*
X165258015Y-98225218D01*
X165305990Y-98174423D01*
X165373811Y-98157628D01*
X165439946Y-98180165D01*
X165478984Y-98225218D01*
X165558713Y-98381694D01*
X165675519Y-98542464D01*
X165816036Y-98682981D01*
X165976806Y-98799787D01*
X166063649Y-98844035D01*
X166153867Y-98890005D01*
X166153870Y-98890006D01*
X166248366Y-98920709D01*
X166342864Y-98951413D01*
X166539139Y-98982500D01*
X166539140Y-98982500D01*
X166737860Y-98982500D01*
X166737861Y-98982500D01*
X166934136Y-98951413D01*
X167123132Y-98890005D01*
X167300194Y-98799787D01*
X167460964Y-98682981D01*
X167601481Y-98542464D01*
X167718287Y-98381694D01*
X167808505Y-98204632D01*
X167869913Y-98015636D01*
X167901000Y-97819361D01*
X167901000Y-97620639D01*
X167869913Y-97424364D01*
X167823777Y-97282371D01*
X167808506Y-97235370D01*
X167808505Y-97235367D01*
X167759504Y-97139199D01*
X167718287Y-97058306D01*
X167601481Y-96897536D01*
X167567658Y-96863713D01*
X173244500Y-96863713D01*
X173244500Y-97076286D01*
X173277429Y-97284195D01*
X173277754Y-97286243D01*
X173322632Y-97424364D01*
X173343444Y-97488414D01*
X173439951Y-97677820D01*
X173564890Y-97849786D01*
X173703705Y-97988601D01*
X173737190Y-98049924D01*
X173732206Y-98119616D01*
X173690334Y-98175549D01*
X173681121Y-98181821D01*
X173526342Y-98277289D01*
X173402289Y-98401342D01*
X173310187Y-98550663D01*
X173310186Y-98550666D01*
X173255001Y-98717203D01*
X173255001Y-98717204D01*
X173255000Y-98717204D01*
X173244500Y-98819983D01*
X173244500Y-100120001D01*
X173244501Y-100120018D01*
X173255000Y-100222796D01*
X173255001Y-100222799D01*
X173310185Y-100389331D01*
X173310186Y-100389334D01*
X173402288Y-100538656D01*
X173526344Y-100662712D01*
X173675666Y-100754814D01*
X173842203Y-100809999D01*
X173944991Y-100820500D01*
X175545008Y-100820499D01*
X175647797Y-100809999D01*
X175814334Y-100754814D01*
X175963656Y-100662712D01*
X176087712Y-100538656D01*
X176179814Y-100389334D01*
X176234999Y-100222797D01*
X176245500Y-100120009D01*
X176245499Y-98819992D01*
X176243464Y-98800075D01*
X176234999Y-98717203D01*
X176234998Y-98717200D01*
X176221846Y-98677511D01*
X176179814Y-98550666D01*
X176087712Y-98401344D01*
X175963656Y-98277288D01*
X175814334Y-98185186D01*
X175814333Y-98185185D01*
X175808878Y-98181821D01*
X175762154Y-98129873D01*
X175750931Y-98060910D01*
X175778775Y-97996828D01*
X175786272Y-97988623D01*
X175925104Y-97849792D01*
X176050051Y-97677816D01*
X176146557Y-97488412D01*
X176212246Y-97286243D01*
X176245500Y-97076287D01*
X176245500Y-96863713D01*
X176212246Y-96653757D01*
X176146557Y-96451588D01*
X176050051Y-96262184D01*
X176050049Y-96262181D01*
X176050048Y-96262179D01*
X175925109Y-96090213D01*
X175774786Y-95939890D01*
X175602820Y-95814951D01*
X175413414Y-95718444D01*
X175413413Y-95718443D01*
X175413412Y-95718443D01*
X175211243Y-95652754D01*
X175211241Y-95652753D01*
X175211240Y-95652753D01*
X175049957Y-95627208D01*
X175001287Y-95619500D01*
X174488713Y-95619500D01*
X174440042Y-95627208D01*
X174278760Y-95652753D01*
X174076585Y-95718444D01*
X173887179Y-95814951D01*
X173715213Y-95939890D01*
X173564890Y-96090213D01*
X173439951Y-96262179D01*
X173343444Y-96451585D01*
X173277753Y-96653760D01*
X173244500Y-96863713D01*
X167567658Y-96863713D01*
X167460964Y-96757019D01*
X167300194Y-96640213D01*
X167123132Y-96549994D01*
X167123129Y-96549993D01*
X166934137Y-96488587D01*
X166835998Y-96473043D01*
X166737861Y-96457500D01*
X166539139Y-96457500D01*
X166473714Y-96467862D01*
X166342862Y-96488587D01*
X166153870Y-96549993D01*
X166153867Y-96549994D01*
X165976805Y-96640213D01*
X165816033Y-96757021D01*
X165675521Y-96897533D01*
X165558713Y-97058305D01*
X165478985Y-97214780D01*
X165431010Y-97265576D01*
X165363189Y-97282371D01*
X165297054Y-97259833D01*
X165258015Y-97214780D01*
X165219504Y-97139199D01*
X165178287Y-97058306D01*
X165061481Y-96897536D01*
X164920964Y-96757019D01*
X164760194Y-96640213D01*
X164583132Y-96549994D01*
X164583129Y-96549993D01*
X164394137Y-96488587D01*
X164295998Y-96473043D01*
X164197861Y-96457500D01*
X163999139Y-96457500D01*
X163933714Y-96467862D01*
X163802862Y-96488587D01*
X163613870Y-96549993D01*
X163613867Y-96549994D01*
X163436805Y-96640213D01*
X163276033Y-96757021D01*
X163135521Y-96897533D01*
X163018713Y-97058305D01*
X162938985Y-97214780D01*
X162891010Y-97265576D01*
X162823189Y-97282371D01*
X162757054Y-97259833D01*
X162718015Y-97214780D01*
X162679504Y-97139199D01*
X162638287Y-97058306D01*
X162521481Y-96897536D01*
X162380964Y-96757019D01*
X162220194Y-96640213D01*
X162043132Y-96549994D01*
X162043129Y-96549993D01*
X161854137Y-96488587D01*
X161755998Y-96473043D01*
X161657861Y-96457500D01*
X161459139Y-96457500D01*
X161393714Y-96467862D01*
X161262862Y-96488587D01*
X161073870Y-96549993D01*
X161073867Y-96549994D01*
X160896805Y-96640213D01*
X160736033Y-96757021D01*
X160595521Y-96897533D01*
X160478713Y-97058305D01*
X160398985Y-97214780D01*
X160351010Y-97265576D01*
X160283189Y-97282371D01*
X160217054Y-97259833D01*
X160178015Y-97214780D01*
X160139504Y-97139199D01*
X160098287Y-97058306D01*
X159981481Y-96897536D01*
X159840964Y-96757019D01*
X159680194Y-96640213D01*
X159503132Y-96549994D01*
X159503129Y-96549993D01*
X159314137Y-96488587D01*
X159215998Y-96473043D01*
X159117861Y-96457500D01*
X158919139Y-96457500D01*
X158853714Y-96467862D01*
X158722862Y-96488587D01*
X158533870Y-96549993D01*
X158533867Y-96549994D01*
X158356805Y-96640213D01*
X158196033Y-96757021D01*
X158055521Y-96897533D01*
X157938713Y-97058305D01*
X157858985Y-97214780D01*
X157811010Y-97265576D01*
X157743189Y-97282371D01*
X157677054Y-97259833D01*
X157638015Y-97214780D01*
X157599504Y-97139199D01*
X157558287Y-97058306D01*
X157441481Y-96897536D01*
X157300964Y-96757019D01*
X157140194Y-96640213D01*
X156963132Y-96549994D01*
X156963129Y-96549993D01*
X156774137Y-96488587D01*
X156675998Y-96473043D01*
X156577861Y-96457500D01*
X156379139Y-96457500D01*
X156313714Y-96467862D01*
X156182862Y-96488587D01*
X155993870Y-96549993D01*
X155993867Y-96549994D01*
X155816805Y-96640213D01*
X155656033Y-96757021D01*
X155515521Y-96897533D01*
X155398713Y-97058305D01*
X155318985Y-97214780D01*
X155271010Y-97265576D01*
X155203189Y-97282371D01*
X155137054Y-97259833D01*
X155098015Y-97214780D01*
X155059504Y-97139199D01*
X155018287Y-97058306D01*
X154901481Y-96897536D01*
X154760964Y-96757019D01*
X154600194Y-96640213D01*
X154423132Y-96549994D01*
X154423129Y-96549993D01*
X154234137Y-96488587D01*
X154135998Y-96473043D01*
X154037861Y-96457500D01*
X153839139Y-96457500D01*
X153773714Y-96467862D01*
X153642862Y-96488587D01*
X153453870Y-96549993D01*
X153453867Y-96549994D01*
X153276805Y-96640213D01*
X153116033Y-96757021D01*
X152975521Y-96897533D01*
X152858713Y-97058305D01*
X152778985Y-97214780D01*
X152731010Y-97265576D01*
X152663189Y-97282371D01*
X152597054Y-97259833D01*
X152558015Y-97214780D01*
X152519504Y-97139199D01*
X152478287Y-97058306D01*
X152361481Y-96897536D01*
X152220964Y-96757019D01*
X152060194Y-96640213D01*
X151883132Y-96549994D01*
X151883129Y-96549993D01*
X151694137Y-96488587D01*
X151595998Y-96473043D01*
X151497861Y-96457500D01*
X151299139Y-96457500D01*
X151233714Y-96467862D01*
X151102862Y-96488587D01*
X150913870Y-96549993D01*
X150913867Y-96549994D01*
X150736805Y-96640213D01*
X150576033Y-96757021D01*
X150435521Y-96897533D01*
X150318713Y-97058305D01*
X150228494Y-97235367D01*
X150228493Y-97235370D01*
X150167087Y-97424362D01*
X150158244Y-97480194D01*
X150136000Y-97620639D01*
X146320580Y-97620639D01*
X146239032Y-97508397D01*
X146116602Y-97385967D01*
X145976524Y-97284195D01*
X145822257Y-97205591D01*
X145657589Y-97152087D01*
X145657581Y-97152085D01*
X145650000Y-97150884D01*
X145650000Y-98219670D01*
X145630255Y-98199925D01*
X145544745Y-98150556D01*
X145449370Y-98125000D01*
X145350630Y-98125000D01*
X145255255Y-98150556D01*
X145169745Y-98199925D01*
X145150000Y-98219670D01*
X145150000Y-97150884D01*
X145149999Y-97150884D01*
X145142418Y-97152085D01*
X145142410Y-97152087D01*
X144977742Y-97205591D01*
X144823475Y-97284195D01*
X144683401Y-97385964D01*
X144575799Y-97493566D01*
X144514476Y-97527050D01*
X144444784Y-97522066D01*
X144388851Y-97480194D01*
X144382585Y-97470988D01*
X144342712Y-97406344D01*
X144218656Y-97282288D01*
X144125888Y-97225069D01*
X144069336Y-97190187D01*
X144069335Y-97190186D01*
X144069334Y-97190186D01*
X144069328Y-97190184D01*
X144035494Y-97178972D01*
X143978050Y-97139199D01*
X143951228Y-97074683D01*
X143950500Y-97061267D01*
X143950500Y-93627882D01*
X172240669Y-93627882D01*
X172240670Y-93627883D01*
X172266059Y-93646329D01*
X172434362Y-93732085D01*
X172613997Y-93790451D01*
X172800553Y-93820000D01*
X172989447Y-93820000D01*
X173176002Y-93790451D01*
X173355637Y-93732085D01*
X173523937Y-93646331D01*
X173549328Y-93627883D01*
X173549328Y-93627882D01*
X172895001Y-92973554D01*
X172895000Y-92973554D01*
X172240669Y-93627882D01*
X143950500Y-93627882D01*
X143950500Y-93388585D01*
X143970185Y-93321546D01*
X144022989Y-93275791D01*
X144035489Y-93270881D01*
X144144334Y-93234814D01*
X144293656Y-93142712D01*
X144417712Y-93018656D01*
X144509814Y-92869334D01*
X144564999Y-92702797D01*
X144575500Y-92600009D01*
X144575500Y-92525552D01*
X171695000Y-92525552D01*
X171695000Y-92714447D01*
X171724548Y-92901002D01*
X171782914Y-93080637D01*
X171868666Y-93248933D01*
X171887116Y-93274328D01*
X172541446Y-92620000D01*
X172541446Y-92619999D01*
X172495369Y-92573922D01*
X172545000Y-92573922D01*
X172545000Y-92666078D01*
X172568852Y-92755095D01*
X172614930Y-92834905D01*
X172680095Y-92900070D01*
X172759905Y-92946148D01*
X172848922Y-92970000D01*
X172941078Y-92970000D01*
X173030095Y-92946148D01*
X173109905Y-92900070D01*
X173175070Y-92834905D01*
X173221148Y-92755095D01*
X173245000Y-92666078D01*
X173245000Y-92619999D01*
X173248554Y-92619999D01*
X173248554Y-92620000D01*
X173648439Y-93019885D01*
X173678688Y-93069246D01*
X173682453Y-93080832D01*
X173711778Y-93138387D01*
X173768238Y-93249197D01*
X173786497Y-93274328D01*
X173879310Y-93402073D01*
X174012927Y-93535690D01*
X174165801Y-93646760D01*
X174245347Y-93687290D01*
X174334163Y-93732545D01*
X174334165Y-93732545D01*
X174334168Y-93732547D01*
X174430497Y-93763846D01*
X174513881Y-93790940D01*
X174700514Y-93820500D01*
X174700519Y-93820500D01*
X174889486Y-93820500D01*
X175076118Y-93790940D01*
X175077623Y-93790451D01*
X175255832Y-93732547D01*
X175424199Y-93646760D01*
X175450182Y-93627882D01*
X180840669Y-93627882D01*
X180840670Y-93627883D01*
X180866059Y-93646329D01*
X181034362Y-93732085D01*
X181213997Y-93790451D01*
X181400553Y-93820000D01*
X181589447Y-93820000D01*
X181776002Y-93790451D01*
X181955637Y-93732085D01*
X182123937Y-93646331D01*
X182149328Y-93627883D01*
X182149328Y-93627882D01*
X181495001Y-92973554D01*
X181495000Y-92973554D01*
X180840669Y-93627882D01*
X175450182Y-93627882D01*
X175577073Y-93535690D01*
X175710690Y-93402073D01*
X175821760Y-93249199D01*
X175907547Y-93080832D01*
X175965940Y-92901118D01*
X175970974Y-92869334D01*
X175995500Y-92714486D01*
X175995500Y-92525552D01*
X180295000Y-92525552D01*
X180295000Y-92714447D01*
X180324548Y-92901002D01*
X180382914Y-93080637D01*
X180468666Y-93248933D01*
X180487116Y-93274328D01*
X181141446Y-92620000D01*
X181141446Y-92619999D01*
X181095369Y-92573922D01*
X181145000Y-92573922D01*
X181145000Y-92666078D01*
X181168852Y-92755095D01*
X181214930Y-92834905D01*
X181280095Y-92900070D01*
X181359905Y-92946148D01*
X181448922Y-92970000D01*
X181541078Y-92970000D01*
X181630095Y-92946148D01*
X181709905Y-92900070D01*
X181775070Y-92834905D01*
X181821148Y-92755095D01*
X181845000Y-92666078D01*
X181845000Y-92619999D01*
X181848554Y-92619999D01*
X181848554Y-92620000D01*
X182248439Y-93019885D01*
X182278688Y-93069246D01*
X182282453Y-93080832D01*
X182311778Y-93138387D01*
X182368238Y-93249197D01*
X182386497Y-93274328D01*
X182479310Y-93402073D01*
X182612927Y-93535690D01*
X182765801Y-93646760D01*
X182845347Y-93687290D01*
X182934163Y-93732545D01*
X182934165Y-93732545D01*
X182934168Y-93732547D01*
X183030497Y-93763846D01*
X183113881Y-93790940D01*
X183300514Y-93820500D01*
X183300519Y-93820500D01*
X183489486Y-93820500D01*
X183676118Y-93790940D01*
X183677623Y-93790451D01*
X183855832Y-93732547D01*
X184024199Y-93646760D01*
X184177073Y-93535690D01*
X184310690Y-93402073D01*
X184421760Y-93249199D01*
X184507547Y-93080832D01*
X184565940Y-92901118D01*
X184570974Y-92869334D01*
X184595500Y-92714486D01*
X184595500Y-92525513D01*
X184565940Y-92338881D01*
X184507545Y-92159163D01*
X184462290Y-92070347D01*
X184421760Y-91990801D01*
X184310690Y-91837927D01*
X184177073Y-91704310D01*
X184024199Y-91593240D01*
X183855836Y-91507454D01*
X183676118Y-91449059D01*
X183489486Y-91419500D01*
X183489481Y-91419500D01*
X183300519Y-91419500D01*
X183300514Y-91419500D01*
X183113881Y-91449059D01*
X182934163Y-91507454D01*
X182765800Y-91593240D01*
X182678579Y-91656610D01*
X182612927Y-91704310D01*
X182612925Y-91704312D01*
X182612924Y-91704312D01*
X182479312Y-91837924D01*
X182479312Y-91837925D01*
X182479310Y-91837927D01*
X182445941Y-91883855D01*
X182368238Y-91990802D01*
X182282452Y-92159169D01*
X182278686Y-92170759D01*
X182248438Y-92220114D01*
X181848554Y-92619999D01*
X181845000Y-92619999D01*
X181845000Y-92573922D01*
X181821148Y-92484905D01*
X181775070Y-92405095D01*
X181709905Y-92339930D01*
X181630095Y-92293852D01*
X181541078Y-92270000D01*
X181448922Y-92270000D01*
X181359905Y-92293852D01*
X181280095Y-92339930D01*
X181214930Y-92405095D01*
X181168852Y-92484905D01*
X181145000Y-92573922D01*
X181095369Y-92573922D01*
X180487116Y-91965669D01*
X180487116Y-91965670D01*
X180468669Y-91991060D01*
X180382914Y-92159362D01*
X180324548Y-92338997D01*
X180295000Y-92525552D01*
X175995500Y-92525552D01*
X175995500Y-92525513D01*
X175965940Y-92338881D01*
X175907545Y-92159163D01*
X175862290Y-92070347D01*
X175821760Y-91990801D01*
X175710690Y-91837927D01*
X175577073Y-91704310D01*
X175450179Y-91612116D01*
X180840669Y-91612116D01*
X181495000Y-92266446D01*
X181495001Y-92266446D01*
X182149328Y-91612116D01*
X182123933Y-91593666D01*
X181955637Y-91507914D01*
X181776002Y-91449548D01*
X181589447Y-91420000D01*
X181400553Y-91420000D01*
X181213997Y-91449548D01*
X181034362Y-91507914D01*
X180866060Y-91593669D01*
X180840670Y-91612116D01*
X180840669Y-91612116D01*
X175450179Y-91612116D01*
X175424199Y-91593240D01*
X175255836Y-91507454D01*
X175076118Y-91449059D01*
X174889486Y-91419500D01*
X174889481Y-91419500D01*
X174700519Y-91419500D01*
X174700514Y-91419500D01*
X174513881Y-91449059D01*
X174334163Y-91507454D01*
X174165800Y-91593240D01*
X174078579Y-91656610D01*
X174012927Y-91704310D01*
X174012925Y-91704312D01*
X174012924Y-91704312D01*
X173879312Y-91837924D01*
X173879312Y-91837925D01*
X173879310Y-91837927D01*
X173845941Y-91883855D01*
X173768238Y-91990802D01*
X173682452Y-92159169D01*
X173678686Y-92170759D01*
X173648438Y-92220114D01*
X173248554Y-92619999D01*
X173245000Y-92619999D01*
X173245000Y-92573922D01*
X173221148Y-92484905D01*
X173175070Y-92405095D01*
X173109905Y-92339930D01*
X173030095Y-92293852D01*
X172941078Y-92270000D01*
X172848922Y-92270000D01*
X172759905Y-92293852D01*
X172680095Y-92339930D01*
X172614930Y-92405095D01*
X172568852Y-92484905D01*
X172545000Y-92573922D01*
X172495369Y-92573922D01*
X171887116Y-91965669D01*
X171887116Y-91965670D01*
X171868669Y-91991060D01*
X171782914Y-92159362D01*
X171724548Y-92338997D01*
X171695000Y-92525552D01*
X144575500Y-92525552D01*
X144575499Y-92170759D01*
X144575499Y-91799998D01*
X144575498Y-91799980D01*
X144564999Y-91697203D01*
X144564998Y-91697200D01*
X144536804Y-91612116D01*
X172240669Y-91612116D01*
X172895000Y-92266446D01*
X172895001Y-92266446D01*
X173549328Y-91612116D01*
X173523933Y-91593666D01*
X173355637Y-91507914D01*
X173176002Y-91449548D01*
X172989447Y-91420000D01*
X172800553Y-91420000D01*
X172613997Y-91449548D01*
X172434362Y-91507914D01*
X172266060Y-91593669D01*
X172240670Y-91612116D01*
X172240669Y-91612116D01*
X144536804Y-91612116D01*
X144530549Y-91593240D01*
X144509814Y-91530666D01*
X144417712Y-91381344D01*
X144293656Y-91257288D01*
X144293652Y-91257285D01*
X144229456Y-91217688D01*
X144182731Y-91165740D01*
X144171510Y-91096777D01*
X144199353Y-91032695D01*
X144206850Y-91024491D01*
X144314414Y-90916928D01*
X144416232Y-90776788D01*
X144494873Y-90622445D01*
X144548402Y-90457701D01*
X144575500Y-90286611D01*
X144575500Y-90113389D01*
X144548402Y-89942299D01*
X144494873Y-89777555D01*
X144416232Y-89623212D01*
X144314414Y-89483072D01*
X144191928Y-89360586D01*
X144108682Y-89300104D01*
X144051614Y-89258641D01*
X144008949Y-89203310D01*
X144000500Y-89158323D01*
X144000500Y-86088585D01*
X144020185Y-86021546D01*
X144072989Y-85975791D01*
X144085489Y-85970881D01*
X144194334Y-85934814D01*
X144343656Y-85842712D01*
X144467712Y-85718656D01*
X144559814Y-85569334D01*
X144614999Y-85402797D01*
X144625500Y-85300009D01*
X144625500Y-85119983D01*
X173244500Y-85119983D01*
X173244500Y-86420001D01*
X173244501Y-86420018D01*
X173255000Y-86522796D01*
X173255001Y-86522799D01*
X173310185Y-86689331D01*
X173310187Y-86689336D01*
X173402289Y-86838657D01*
X173526344Y-86962712D01*
X173681120Y-87058178D01*
X173727845Y-87110126D01*
X173739068Y-87179088D01*
X173711224Y-87243171D01*
X173703706Y-87251398D01*
X173564889Y-87390215D01*
X173439951Y-87562179D01*
X173343444Y-87751585D01*
X173277753Y-87953760D01*
X173244500Y-88163713D01*
X173244500Y-88376286D01*
X173277753Y-88586239D01*
X173343444Y-88788414D01*
X173439951Y-88977820D01*
X173564890Y-89149786D01*
X173715213Y-89300109D01*
X173887179Y-89425048D01*
X173887181Y-89425049D01*
X173887184Y-89425051D01*
X174076588Y-89521557D01*
X174278757Y-89587246D01*
X174488713Y-89620500D01*
X174488714Y-89620500D01*
X175001286Y-89620500D01*
X175001287Y-89620500D01*
X175211243Y-89587246D01*
X175413412Y-89521557D01*
X175602816Y-89425051D01*
X175624789Y-89409086D01*
X175774786Y-89300109D01*
X175774788Y-89300106D01*
X175774792Y-89300104D01*
X175925104Y-89149792D01*
X175925106Y-89149788D01*
X175925109Y-89149786D01*
X176050048Y-88977820D01*
X176050047Y-88977820D01*
X176050051Y-88977816D01*
X176146557Y-88788412D01*
X176212246Y-88586243D01*
X176245500Y-88376287D01*
X176245500Y-88163713D01*
X176212246Y-87953757D01*
X176146557Y-87751588D01*
X176050051Y-87562184D01*
X176050049Y-87562181D01*
X176050048Y-87562179D01*
X175925109Y-87390213D01*
X175786294Y-87251398D01*
X175752809Y-87190075D01*
X175757793Y-87120383D01*
X175799665Y-87064450D01*
X175808879Y-87058178D01*
X175814331Y-87054814D01*
X175814334Y-87054814D01*
X175963656Y-86962712D01*
X176087712Y-86838656D01*
X176179814Y-86689334D01*
X176234999Y-86522797D01*
X176245500Y-86420009D01*
X176245499Y-85119992D01*
X176245176Y-85116834D01*
X176234999Y-85017203D01*
X176234998Y-85017200D01*
X176179814Y-84850666D01*
X176087712Y-84701344D01*
X175963656Y-84577288D01*
X175838348Y-84499998D01*
X175814336Y-84485187D01*
X175814331Y-84485185D01*
X175812862Y-84484698D01*
X175647797Y-84430001D01*
X175647795Y-84430000D01*
X175545010Y-84419500D01*
X173944998Y-84419500D01*
X173944981Y-84419501D01*
X173842203Y-84430000D01*
X173842200Y-84430001D01*
X173675668Y-84485185D01*
X173675663Y-84485187D01*
X173526342Y-84577289D01*
X173402289Y-84701342D01*
X173310187Y-84850663D01*
X173310186Y-84850666D01*
X173255001Y-85017203D01*
X173255001Y-85017204D01*
X173255000Y-85017204D01*
X173244500Y-85119983D01*
X144625500Y-85119983D01*
X144625499Y-84850668D01*
X144625499Y-84499998D01*
X144625498Y-84499980D01*
X144614999Y-84397203D01*
X144614998Y-84397200D01*
X144559814Y-84230666D01*
X144467712Y-84081344D01*
X144343656Y-83957288D01*
X144343655Y-83957287D01*
X144279019Y-83917420D01*
X144232294Y-83865472D01*
X144221071Y-83796510D01*
X144248914Y-83732428D01*
X144256434Y-83724199D01*
X144364035Y-83616598D01*
X144465804Y-83476524D01*
X144544408Y-83322255D01*
X144597914Y-83157584D01*
X144599115Y-83150000D01*
X143530330Y-83150000D01*
X143550075Y-83130255D01*
X143599444Y-83044745D01*
X143625000Y-82949370D01*
X143625000Y-82850630D01*
X143599444Y-82755255D01*
X143550075Y-82669745D01*
X143530330Y-82650000D01*
X144599115Y-82650000D01*
X144599115Y-82649999D01*
X144597914Y-82642415D01*
X144544408Y-82477742D01*
X144521133Y-82432063D01*
X144521132Y-82432062D01*
X144494931Y-82380639D01*
X150136000Y-82380639D01*
X150136000Y-82579360D01*
X150167087Y-82775637D01*
X150228493Y-82964629D01*
X150228494Y-82964632D01*
X150318574Y-83141422D01*
X150318713Y-83141694D01*
X150435519Y-83302464D01*
X150576036Y-83442981D01*
X150736806Y-83559787D01*
X150823649Y-83604035D01*
X150913867Y-83650005D01*
X150913870Y-83650006D01*
X151008366Y-83680709D01*
X151102864Y-83711413D01*
X151299139Y-83742500D01*
X151299140Y-83742500D01*
X151497860Y-83742500D01*
X151497861Y-83742500D01*
X151694136Y-83711413D01*
X151883132Y-83650005D01*
X152060194Y-83559787D01*
X152220964Y-83442981D01*
X152361481Y-83302464D01*
X152478287Y-83141694D01*
X152558296Y-82984667D01*
X152606269Y-82933872D01*
X152674090Y-82917077D01*
X152740225Y-82939614D01*
X152779265Y-82984668D01*
X152859141Y-83141432D01*
X152886230Y-83178715D01*
X152886231Y-83178716D01*
X153500852Y-82564094D01*
X153524292Y-82651571D01*
X153582811Y-82752930D01*
X153665570Y-82835689D01*
X153766929Y-82894208D01*
X153854405Y-82917647D01*
X153239783Y-83532268D01*
X153239783Y-83532269D01*
X153277067Y-83559358D01*
X153454062Y-83649542D01*
X153642977Y-83710924D01*
X153839179Y-83742000D01*
X154037821Y-83742000D01*
X154234020Y-83710924D01*
X154234023Y-83710924D01*
X154422937Y-83649542D01*
X154599925Y-83559362D01*
X154637216Y-83532268D01*
X154022595Y-82917647D01*
X154110071Y-82894208D01*
X154211430Y-82835689D01*
X154294189Y-82752930D01*
X154352708Y-82651571D01*
X154376147Y-82564094D01*
X154990768Y-83178715D01*
X155017864Y-83141422D01*
X155097734Y-82984669D01*
X155145708Y-82933872D01*
X155213529Y-82917077D01*
X155279664Y-82939614D01*
X155318703Y-82984667D01*
X155398713Y-83141694D01*
X155515519Y-83302464D01*
X155656036Y-83442981D01*
X155816806Y-83559787D01*
X155903649Y-83604035D01*
X155993867Y-83650005D01*
X155993870Y-83650006D01*
X156088366Y-83680709D01*
X156182864Y-83711413D01*
X156379139Y-83742500D01*
X156379140Y-83742500D01*
X156577860Y-83742500D01*
X156577861Y-83742500D01*
X156774136Y-83711413D01*
X156963132Y-83650005D01*
X157140194Y-83559787D01*
X157300964Y-83442981D01*
X157441481Y-83302464D01*
X157558287Y-83141694D01*
X157638015Y-82985218D01*
X157685990Y-82934423D01*
X157753811Y-82917628D01*
X157819946Y-82940165D01*
X157858984Y-82985218D01*
X157938713Y-83141694D01*
X158055519Y-83302464D01*
X158196036Y-83442981D01*
X158356806Y-83559787D01*
X158443649Y-83604035D01*
X158533867Y-83650005D01*
X158533870Y-83650006D01*
X158628366Y-83680709D01*
X158722864Y-83711413D01*
X158919139Y-83742500D01*
X158919140Y-83742500D01*
X159117860Y-83742500D01*
X159117861Y-83742500D01*
X159314136Y-83711413D01*
X159503132Y-83650005D01*
X159680194Y-83559787D01*
X159840964Y-83442981D01*
X159981481Y-83302464D01*
X160098287Y-83141694D01*
X160178015Y-82985218D01*
X160225990Y-82934423D01*
X160293811Y-82917628D01*
X160359946Y-82940165D01*
X160398984Y-82985218D01*
X160478713Y-83141694D01*
X160595519Y-83302464D01*
X160736036Y-83442981D01*
X160896806Y-83559787D01*
X160983649Y-83604035D01*
X161073867Y-83650005D01*
X161073870Y-83650006D01*
X161168366Y-83680709D01*
X161262864Y-83711413D01*
X161459139Y-83742500D01*
X161459140Y-83742500D01*
X161657860Y-83742500D01*
X161657861Y-83742500D01*
X161854136Y-83711413D01*
X162043132Y-83650005D01*
X162220194Y-83559787D01*
X162380964Y-83442981D01*
X162521481Y-83302464D01*
X162638287Y-83141694D01*
X162718015Y-82985218D01*
X162765990Y-82934423D01*
X162833811Y-82917628D01*
X162899946Y-82940165D01*
X162938984Y-82985218D01*
X163018713Y-83141694D01*
X163135519Y-83302464D01*
X163276036Y-83442981D01*
X163436806Y-83559787D01*
X163523649Y-83604035D01*
X163613867Y-83650005D01*
X163613870Y-83650006D01*
X163708366Y-83680709D01*
X163802864Y-83711413D01*
X163999139Y-83742500D01*
X163999140Y-83742500D01*
X164197860Y-83742500D01*
X164197861Y-83742500D01*
X164394136Y-83711413D01*
X164583132Y-83650005D01*
X164760194Y-83559787D01*
X164920964Y-83442981D01*
X165061481Y-83302464D01*
X165178287Y-83141694D01*
X165258015Y-82985218D01*
X165305990Y-82934423D01*
X165373811Y-82917628D01*
X165439946Y-82940165D01*
X165478984Y-82985218D01*
X165558713Y-83141694D01*
X165675519Y-83302464D01*
X165816036Y-83442981D01*
X165976806Y-83559787D01*
X166063649Y-83604035D01*
X166153867Y-83650005D01*
X166153870Y-83650006D01*
X166248366Y-83680709D01*
X166342864Y-83711413D01*
X166539139Y-83742500D01*
X166539140Y-83742500D01*
X166737860Y-83742500D01*
X166737861Y-83742500D01*
X166934136Y-83711413D01*
X167123132Y-83650005D01*
X167300194Y-83559787D01*
X167460964Y-83442981D01*
X167601481Y-83302464D01*
X167718287Y-83141694D01*
X167808505Y-82964632D01*
X167869913Y-82775636D01*
X167901000Y-82579361D01*
X167901000Y-82380639D01*
X167869913Y-82184364D01*
X167808505Y-81995368D01*
X167808505Y-81995367D01*
X167722760Y-81827085D01*
X167718287Y-81818306D01*
X167601481Y-81657536D01*
X167460964Y-81517019D01*
X167300194Y-81400213D01*
X167123132Y-81309994D01*
X167123129Y-81309993D01*
X166934137Y-81248587D01*
X166835998Y-81233043D01*
X166737861Y-81217500D01*
X166539139Y-81217500D01*
X166473714Y-81227862D01*
X166342862Y-81248587D01*
X166153870Y-81309993D01*
X166153867Y-81309994D01*
X165976805Y-81400213D01*
X165816033Y-81517021D01*
X165675521Y-81657533D01*
X165558713Y-81818305D01*
X165478985Y-81974780D01*
X165431010Y-82025576D01*
X165363189Y-82042371D01*
X165297054Y-82019833D01*
X165258015Y-81974780D01*
X165182760Y-81827085D01*
X165178287Y-81818306D01*
X165061481Y-81657536D01*
X164920964Y-81517019D01*
X164760194Y-81400213D01*
X164583132Y-81309994D01*
X164583129Y-81309993D01*
X164394137Y-81248587D01*
X164295998Y-81233043D01*
X164197861Y-81217500D01*
X163999139Y-81217500D01*
X163933714Y-81227862D01*
X163802862Y-81248587D01*
X163613870Y-81309993D01*
X163613867Y-81309994D01*
X163436805Y-81400213D01*
X163276033Y-81517021D01*
X163135521Y-81657533D01*
X163018713Y-81818305D01*
X162938985Y-81974780D01*
X162891010Y-82025576D01*
X162823189Y-82042371D01*
X162757054Y-82019833D01*
X162718015Y-81974780D01*
X162642760Y-81827085D01*
X162638287Y-81818306D01*
X162521481Y-81657536D01*
X162380964Y-81517019D01*
X162220194Y-81400213D01*
X162043132Y-81309994D01*
X162043129Y-81309993D01*
X161854137Y-81248587D01*
X161755998Y-81233043D01*
X161657861Y-81217500D01*
X161459139Y-81217500D01*
X161393714Y-81227862D01*
X161262862Y-81248587D01*
X161073870Y-81309993D01*
X161073867Y-81309994D01*
X160896805Y-81400213D01*
X160736033Y-81517021D01*
X160595521Y-81657533D01*
X160478713Y-81818305D01*
X160398985Y-81974780D01*
X160351010Y-82025576D01*
X160283189Y-82042371D01*
X160217054Y-82019833D01*
X160178015Y-81974780D01*
X160102760Y-81827085D01*
X160098287Y-81818306D01*
X159981481Y-81657536D01*
X159840964Y-81517019D01*
X159680194Y-81400213D01*
X159503132Y-81309994D01*
X159503129Y-81309993D01*
X159314137Y-81248587D01*
X159215998Y-81233043D01*
X159117861Y-81217500D01*
X158919139Y-81217500D01*
X158853714Y-81227862D01*
X158722862Y-81248587D01*
X158533870Y-81309993D01*
X158533867Y-81309994D01*
X158356805Y-81400213D01*
X158196033Y-81517021D01*
X158055521Y-81657533D01*
X157938713Y-81818305D01*
X157858985Y-81974780D01*
X157811010Y-82025576D01*
X157743189Y-82042371D01*
X157677054Y-82019833D01*
X157638015Y-81974780D01*
X157562760Y-81827085D01*
X157558287Y-81818306D01*
X157441481Y-81657536D01*
X157300964Y-81517019D01*
X157140194Y-81400213D01*
X156963132Y-81309994D01*
X156963129Y-81309993D01*
X156774137Y-81248587D01*
X156675998Y-81233043D01*
X156577861Y-81217500D01*
X156379139Y-81217500D01*
X156313714Y-81227862D01*
X156182862Y-81248587D01*
X155993870Y-81309993D01*
X155993867Y-81309994D01*
X155816805Y-81400213D01*
X155656033Y-81517021D01*
X155515521Y-81657533D01*
X155398713Y-81818305D01*
X155318704Y-81975331D01*
X155270729Y-82026127D01*
X155202908Y-82042922D01*
X155136773Y-82020384D01*
X155097734Y-81975331D01*
X155017858Y-81818567D01*
X154990768Y-81781283D01*
X154376147Y-82395904D01*
X154352708Y-82308429D01*
X154294189Y-82207070D01*
X154211430Y-82124311D01*
X154110071Y-82065792D01*
X154022594Y-82042352D01*
X154637216Y-81427731D01*
X154637215Y-81427730D01*
X154599932Y-81400641D01*
X154422937Y-81310457D01*
X154234022Y-81249075D01*
X154037821Y-81218000D01*
X153839179Y-81218000D01*
X153642979Y-81249075D01*
X153642976Y-81249075D01*
X153454062Y-81310457D01*
X153277064Y-81400643D01*
X153239783Y-81427729D01*
X153239782Y-81427730D01*
X153854406Y-82042352D01*
X153766929Y-82065792D01*
X153665570Y-82124311D01*
X153582811Y-82207070D01*
X153524292Y-82308429D01*
X153500852Y-82395905D01*
X152886230Y-81781282D01*
X152886229Y-81781283D01*
X152859141Y-81818566D01*
X152779264Y-81975332D01*
X152731290Y-82026127D01*
X152663469Y-82042922D01*
X152597334Y-82020384D01*
X152558296Y-81975332D01*
X152478287Y-81818306D01*
X152361481Y-81657536D01*
X152220964Y-81517019D01*
X152060194Y-81400213D01*
X151883132Y-81309994D01*
X151883129Y-81309993D01*
X151694137Y-81248587D01*
X151595998Y-81233043D01*
X151497861Y-81217500D01*
X151299139Y-81217500D01*
X151233714Y-81227862D01*
X151102862Y-81248587D01*
X150913870Y-81309993D01*
X150913867Y-81309994D01*
X150736805Y-81400213D01*
X150576033Y-81517021D01*
X150435521Y-81657533D01*
X150318713Y-81818305D01*
X150228494Y-81995367D01*
X150228493Y-81995370D01*
X150167087Y-82184362D01*
X150136000Y-82380639D01*
X144494931Y-82380639D01*
X144465804Y-82323475D01*
X144364032Y-82183397D01*
X144241602Y-82060967D01*
X144101524Y-81959195D01*
X143947257Y-81880591D01*
X143782584Y-81827085D01*
X143611571Y-81800000D01*
X143500000Y-81800000D01*
X143500000Y-82619670D01*
X143480255Y-82599925D01*
X143394745Y-82550556D01*
X143299370Y-82525000D01*
X143200630Y-82525000D01*
X143105255Y-82550556D01*
X143019745Y-82599925D01*
X143000000Y-82619670D01*
X143000000Y-81800000D01*
X142888429Y-81800000D01*
X142717415Y-81827085D01*
X142552742Y-81880591D01*
X142398475Y-81959195D01*
X142258397Y-82060967D01*
X142135967Y-82183397D01*
X142034195Y-82323475D01*
X141955591Y-82477744D01*
X141902085Y-82642415D01*
X141900884Y-82649999D01*
X141900885Y-82650000D01*
X142969670Y-82650000D01*
X142949925Y-82669745D01*
X142900556Y-82755255D01*
X142875000Y-82850630D01*
X142875000Y-82949370D01*
X142900556Y-83044745D01*
X142949925Y-83130255D01*
X142969670Y-83150000D01*
X141900885Y-83150000D01*
X141902085Y-83157584D01*
X141955591Y-83322255D01*
X142034195Y-83476524D01*
X142135967Y-83616602D01*
X142243565Y-83724200D01*
X142277050Y-83785523D01*
X142272066Y-83855215D01*
X142230194Y-83911148D01*
X142220981Y-83917420D01*
X142156342Y-83957289D01*
X142032289Y-84081342D01*
X141940187Y-84230663D01*
X141940186Y-84230666D01*
X141885001Y-84397203D01*
X141885001Y-84397204D01*
X141885000Y-84397204D01*
X141874500Y-84499983D01*
X141874500Y-85300001D01*
X141874501Y-85300019D01*
X141885000Y-85402796D01*
X141885001Y-85402799D01*
X141940185Y-85569331D01*
X141940186Y-85569334D01*
X142032288Y-85718656D01*
X142156344Y-85842712D01*
X142305666Y-85934814D01*
X142414505Y-85970879D01*
X142471949Y-86010652D01*
X142498772Y-86075167D01*
X142499500Y-86088585D01*
X142499500Y-89105695D01*
X142479815Y-89172734D01*
X142431795Y-89216180D01*
X142348211Y-89258768D01*
X142291318Y-89300104D01*
X142208072Y-89360586D01*
X142208070Y-89360588D01*
X142208069Y-89360588D01*
X142085588Y-89483069D01*
X142085588Y-89483070D01*
X142085586Y-89483072D01*
X142057625Y-89521557D01*
X141983768Y-89623211D01*
X141905128Y-89777552D01*
X141851597Y-89942302D01*
X141824500Y-90113389D01*
X141824500Y-90286611D01*
X141851598Y-90457701D01*
X141905127Y-90622445D01*
X141983768Y-90776788D01*
X142085586Y-90916928D01*
X142085588Y-90916930D01*
X142193127Y-91024469D01*
X142226612Y-91085792D01*
X142221628Y-91155484D01*
X142179756Y-91211417D01*
X142170544Y-91217688D01*
X142106344Y-91257287D01*
X141982289Y-91381342D01*
X141890187Y-91530663D01*
X141890186Y-91530666D01*
X141835001Y-91697203D01*
X141835001Y-91697204D01*
X141835000Y-91697204D01*
X141824500Y-91799983D01*
X141824500Y-92600001D01*
X141824501Y-92600019D01*
X141835000Y-92702796D01*
X141835001Y-92702799D01*
X141878777Y-92834905D01*
X141890186Y-92869334D01*
X141982288Y-93018656D01*
X142106344Y-93142712D01*
X142255666Y-93234814D01*
X142364505Y-93270879D01*
X142421949Y-93310652D01*
X142448772Y-93375167D01*
X142449500Y-93388585D01*
X142449500Y-97383804D01*
X142431039Y-97448900D01*
X142365189Y-97555659D01*
X142365186Y-97555666D01*
X142310001Y-97722203D01*
X142310001Y-97722204D01*
X142310000Y-97722204D01*
X142299500Y-97824983D01*
X142299500Y-99175001D01*
X142299501Y-99175018D01*
X142310000Y-99277796D01*
X142310001Y-99277799D01*
X142365185Y-99444331D01*
X142365186Y-99444334D01*
X142457288Y-99593656D01*
X142581344Y-99717712D01*
X142730666Y-99809814D01*
X142897203Y-99864999D01*
X142999991Y-99875500D01*
X143662769Y-99875499D01*
X143729808Y-99895183D01*
X143750450Y-99911818D01*
X146017048Y-102178415D01*
X146017049Y-102178416D01*
X146098663Y-102260030D01*
X146121585Y-102282952D01*
X146244498Y-102365080D01*
X146244511Y-102365087D01*
X146341513Y-102405266D01*
X146381087Y-102421658D01*
X146381091Y-102421658D01*
X146381092Y-102421659D01*
X146526079Y-102450500D01*
X146526082Y-102450500D01*
X148074582Y-102450500D01*
X148141621Y-102470185D01*
X148174900Y-102501615D01*
X148208028Y-102547212D01*
X148208032Y-102547217D01*
X148352786Y-102691971D01*
X148492182Y-102793246D01*
X148518390Y-102812287D01*
X148700781Y-102905220D01*
X148738788Y-102917569D01*
X148796464Y-102957007D01*
X148823662Y-103021365D01*
X148811747Y-103090212D01*
X148764503Y-103141687D01*
X148700470Y-103159500D01*
X138924428Y-103159500D01*
X138915582Y-103159184D01*
X138893622Y-103157613D01*
X138715442Y-103144869D01*
X138697931Y-103142351D01*
X138506212Y-103100646D01*
X138489236Y-103095662D01*
X138305390Y-103027090D01*
X138289298Y-103019740D01*
X138117095Y-102925711D01*
X138102210Y-102916146D01*
X137945132Y-102798558D01*
X137931762Y-102786972D01*
X137793027Y-102648237D01*
X137781441Y-102634867D01*
X137715823Y-102547212D01*
X137663849Y-102477784D01*
X137654288Y-102462904D01*
X137560259Y-102290701D01*
X137552909Y-102274609D01*
X137524790Y-102199219D01*
X137484334Y-102090755D01*
X137479355Y-102073797D01*
X137437647Y-101882063D01*
X137435130Y-101864556D01*
X137434403Y-101854394D01*
X137420816Y-101664418D01*
X137420500Y-101655572D01*
X137420500Y-77505513D01*
X140994500Y-77505513D01*
X140994500Y-77694486D01*
X141024059Y-77881118D01*
X141082454Y-78060836D01*
X141157378Y-78207882D01*
X141168240Y-78229199D01*
X141279310Y-78382073D01*
X141412927Y-78515690D01*
X141565801Y-78626760D01*
X141645347Y-78667290D01*
X141734163Y-78712545D01*
X141734165Y-78712545D01*
X141734168Y-78712547D01*
X141830497Y-78743846D01*
X141913881Y-78770940D01*
X142100514Y-78800500D01*
X142100519Y-78800500D01*
X142289486Y-78800500D01*
X142476118Y-78770940D01*
X142477623Y-78770451D01*
X142655832Y-78712547D01*
X142824199Y-78626760D01*
X142850182Y-78607882D01*
X143440669Y-78607882D01*
X143440670Y-78607883D01*
X143466059Y-78626329D01*
X143634362Y-78712085D01*
X143813997Y-78770451D01*
X144000553Y-78800000D01*
X144189447Y-78800000D01*
X144376002Y-78770451D01*
X144555637Y-78712085D01*
X144723937Y-78626331D01*
X144749328Y-78607883D01*
X144749328Y-78607882D01*
X144095001Y-77953554D01*
X144095000Y-77953554D01*
X143440669Y-78607882D01*
X142850182Y-78607882D01*
X142977073Y-78515690D01*
X143110690Y-78382073D01*
X143221760Y-78229199D01*
X143307547Y-78060832D01*
X143311310Y-78049249D01*
X143341561Y-77999882D01*
X143741445Y-77599999D01*
X143695368Y-77553922D01*
X143745000Y-77553922D01*
X143745000Y-77646078D01*
X143768852Y-77735095D01*
X143814930Y-77814905D01*
X143880095Y-77880070D01*
X143959905Y-77926148D01*
X144048922Y-77950000D01*
X144141078Y-77950000D01*
X144230095Y-77926148D01*
X144309905Y-77880070D01*
X144375070Y-77814905D01*
X144421148Y-77735095D01*
X144445000Y-77646078D01*
X144445000Y-77599999D01*
X144448554Y-77599999D01*
X144448554Y-77600000D01*
X145102882Y-78254328D01*
X145102883Y-78254328D01*
X145121331Y-78228936D01*
X145132059Y-78207882D01*
X148750669Y-78207882D01*
X148750670Y-78207883D01*
X148776059Y-78226329D01*
X148944362Y-78312085D01*
X149123997Y-78370451D01*
X149310553Y-78400000D01*
X149499447Y-78400000D01*
X149686002Y-78370451D01*
X149865637Y-78312085D01*
X150033937Y-78226331D01*
X150059328Y-78207883D01*
X150059328Y-78207882D01*
X149405001Y-77553554D01*
X149405000Y-77553554D01*
X148750669Y-78207882D01*
X145132059Y-78207882D01*
X145184824Y-78104328D01*
X145207085Y-78060637D01*
X145265451Y-77881002D01*
X145295000Y-77694447D01*
X145295000Y-77505552D01*
X145265451Y-77318997D01*
X145207085Y-77139362D01*
X145189858Y-77105552D01*
X148205000Y-77105552D01*
X148205000Y-77294447D01*
X148234548Y-77481002D01*
X148292914Y-77660637D01*
X148378666Y-77828933D01*
X148397116Y-77854328D01*
X149051446Y-77200000D01*
X149051446Y-77199999D01*
X149005369Y-77153922D01*
X149055000Y-77153922D01*
X149055000Y-77246078D01*
X149078852Y-77335095D01*
X149124930Y-77414905D01*
X149190095Y-77480070D01*
X149269905Y-77526148D01*
X149358922Y-77550000D01*
X149451078Y-77550000D01*
X149540095Y-77526148D01*
X149619905Y-77480070D01*
X149685070Y-77414905D01*
X149731148Y-77335095D01*
X149755000Y-77246078D01*
X149755000Y-77199999D01*
X149758554Y-77199999D01*
X149758554Y-77200000D01*
X150158439Y-77599885D01*
X150188688Y-77649246D01*
X150192453Y-77660832D01*
X150221778Y-77718387D01*
X150278238Y-77829197D01*
X150296497Y-77854328D01*
X150389310Y-77982073D01*
X150522927Y-78115690D01*
X150675801Y-78226760D01*
X150755347Y-78267290D01*
X150844163Y-78312545D01*
X150844165Y-78312545D01*
X150844168Y-78312547D01*
X150886591Y-78326331D01*
X151023881Y-78370940D01*
X151210514Y-78400500D01*
X151210519Y-78400500D01*
X151399486Y-78400500D01*
X151586118Y-78370940D01*
X151587623Y-78370451D01*
X151765832Y-78312547D01*
X151934199Y-78226760D01*
X152087073Y-78115690D01*
X152220690Y-77982073D01*
X152331760Y-77829199D01*
X152417547Y-77660832D01*
X152475940Y-77481118D01*
X152489662Y-77394481D01*
X152505500Y-77294486D01*
X152505500Y-77205513D01*
X154394500Y-77205513D01*
X154394500Y-77394486D01*
X154424059Y-77581118D01*
X154482454Y-77760836D01*
X154566685Y-77926148D01*
X154568240Y-77929199D01*
X154679310Y-78082073D01*
X154812927Y-78215690D01*
X154965801Y-78326760D01*
X155045347Y-78367290D01*
X155134163Y-78412545D01*
X155134165Y-78412545D01*
X155134168Y-78412547D01*
X155230497Y-78443846D01*
X155313881Y-78470940D01*
X155500514Y-78500500D01*
X155500519Y-78500500D01*
X155689486Y-78500500D01*
X155876118Y-78470940D01*
X155877623Y-78470451D01*
X156055832Y-78412547D01*
X156224199Y-78326760D01*
X156250182Y-78307882D01*
X156840669Y-78307882D01*
X156840670Y-78307883D01*
X156866059Y-78326329D01*
X157034362Y-78412085D01*
X157213997Y-78470451D01*
X157400553Y-78500000D01*
X157589447Y-78500000D01*
X157776002Y-78470451D01*
X157955637Y-78412085D01*
X158123937Y-78326331D01*
X158149328Y-78307883D01*
X158149328Y-78307882D01*
X161550669Y-78307882D01*
X161550670Y-78307883D01*
X161576059Y-78326329D01*
X161744362Y-78412085D01*
X161923997Y-78470451D01*
X162110553Y-78500000D01*
X162299447Y-78500000D01*
X162486002Y-78470451D01*
X162665637Y-78412085D01*
X162833937Y-78326331D01*
X162859328Y-78307883D01*
X162859328Y-78307882D01*
X162205001Y-77653554D01*
X162205000Y-77653554D01*
X161550669Y-78307882D01*
X158149328Y-78307882D01*
X157495001Y-77653554D01*
X157495000Y-77653554D01*
X156840669Y-78307882D01*
X156250182Y-78307882D01*
X156377073Y-78215690D01*
X156510690Y-78082073D01*
X156621760Y-77929199D01*
X156707547Y-77760832D01*
X156711310Y-77749249D01*
X156741561Y-77699882D01*
X157141445Y-77299999D01*
X157095368Y-77253922D01*
X157145000Y-77253922D01*
X157145000Y-77346078D01*
X157168852Y-77435095D01*
X157214930Y-77514905D01*
X157280095Y-77580070D01*
X157359905Y-77626148D01*
X157448922Y-77650000D01*
X157541078Y-77650000D01*
X157630095Y-77626148D01*
X157709905Y-77580070D01*
X157775070Y-77514905D01*
X157821148Y-77435095D01*
X157845000Y-77346078D01*
X157845000Y-77299999D01*
X157848554Y-77299999D01*
X157848554Y-77300000D01*
X158502882Y-77954328D01*
X158502883Y-77954328D01*
X158521331Y-77928937D01*
X158607085Y-77760637D01*
X158665451Y-77581002D01*
X158695000Y-77394447D01*
X158695000Y-77205552D01*
X161005000Y-77205552D01*
X161005000Y-77394447D01*
X161034548Y-77581002D01*
X161092914Y-77760637D01*
X161178666Y-77928933D01*
X161197116Y-77954328D01*
X161851446Y-77300000D01*
X161851446Y-77299999D01*
X161805369Y-77253922D01*
X161855000Y-77253922D01*
X161855000Y-77346078D01*
X161878852Y-77435095D01*
X161924930Y-77514905D01*
X161990095Y-77580070D01*
X162069905Y-77626148D01*
X162158922Y-77650000D01*
X162251078Y-77650000D01*
X162340095Y-77626148D01*
X162419905Y-77580070D01*
X162485070Y-77514905D01*
X162531148Y-77435095D01*
X162555000Y-77346078D01*
X162555000Y-77299999D01*
X162558554Y-77299999D01*
X162558554Y-77300000D01*
X162958439Y-77699885D01*
X162988688Y-77749246D01*
X162992453Y-77760832D01*
X163021778Y-77818387D01*
X163078238Y-77929197D01*
X163093353Y-77950000D01*
X163189310Y-78082073D01*
X163322927Y-78215690D01*
X163475801Y-78326760D01*
X163555347Y-78367290D01*
X163644163Y-78412545D01*
X163644165Y-78412545D01*
X163644168Y-78412547D01*
X163740497Y-78443846D01*
X163823881Y-78470940D01*
X164010514Y-78500500D01*
X164010519Y-78500500D01*
X164199486Y-78500500D01*
X164386118Y-78470940D01*
X164387623Y-78470451D01*
X164565832Y-78412547D01*
X164734199Y-78326760D01*
X164887073Y-78215690D01*
X165020690Y-78082073D01*
X165131760Y-77929199D01*
X165217547Y-77760832D01*
X165275940Y-77581118D01*
X165280869Y-77550000D01*
X165305500Y-77394486D01*
X165305500Y-77205513D01*
X167194500Y-77205513D01*
X167194500Y-77394486D01*
X167224059Y-77581118D01*
X167282454Y-77760836D01*
X167366685Y-77926148D01*
X167368240Y-77929199D01*
X167479310Y-78082073D01*
X167612927Y-78215690D01*
X167765801Y-78326760D01*
X167845347Y-78367290D01*
X167934163Y-78412545D01*
X167934165Y-78412545D01*
X167934168Y-78412547D01*
X168030497Y-78443846D01*
X168113881Y-78470940D01*
X168300514Y-78500500D01*
X168300519Y-78500500D01*
X168489486Y-78500500D01*
X168676118Y-78470940D01*
X168677623Y-78470451D01*
X168855832Y-78412547D01*
X169024199Y-78326760D01*
X169050182Y-78307882D01*
X169640669Y-78307882D01*
X169640670Y-78307883D01*
X169666059Y-78326329D01*
X169834362Y-78412085D01*
X170013997Y-78470451D01*
X170200553Y-78500000D01*
X170389447Y-78500000D01*
X170576002Y-78470451D01*
X170755637Y-78412085D01*
X170923937Y-78326331D01*
X170949328Y-78307883D01*
X170949328Y-78307882D01*
X174845669Y-78307882D01*
X174845670Y-78307883D01*
X174871059Y-78326329D01*
X175039362Y-78412085D01*
X175218997Y-78470451D01*
X175405553Y-78500000D01*
X175594447Y-78500000D01*
X175781002Y-78470451D01*
X175960637Y-78412085D01*
X176128937Y-78326331D01*
X176154328Y-78307883D01*
X176154328Y-78307882D01*
X175500001Y-77653554D01*
X175500000Y-77653554D01*
X174845669Y-78307882D01*
X170949328Y-78307882D01*
X170295001Y-77653554D01*
X170295000Y-77653554D01*
X169640669Y-78307882D01*
X169050182Y-78307882D01*
X169177073Y-78215690D01*
X169310690Y-78082073D01*
X169421760Y-77929199D01*
X169507547Y-77760832D01*
X169511310Y-77749249D01*
X169541561Y-77699882D01*
X169941445Y-77299999D01*
X169895368Y-77253922D01*
X169945000Y-77253922D01*
X169945000Y-77346078D01*
X169968852Y-77435095D01*
X170014930Y-77514905D01*
X170080095Y-77580070D01*
X170159905Y-77626148D01*
X170248922Y-77650000D01*
X170341078Y-77650000D01*
X170430095Y-77626148D01*
X170509905Y-77580070D01*
X170575070Y-77514905D01*
X170621148Y-77435095D01*
X170645000Y-77346078D01*
X170645000Y-77299999D01*
X170648554Y-77299999D01*
X170648554Y-77300000D01*
X171302882Y-77954328D01*
X171302883Y-77954328D01*
X171321331Y-77928937D01*
X171407085Y-77760637D01*
X171465451Y-77581002D01*
X171495000Y-77394447D01*
X171495000Y-77205552D01*
X174300000Y-77205552D01*
X174300000Y-77394447D01*
X174329548Y-77581002D01*
X174387914Y-77760637D01*
X174473666Y-77928933D01*
X174492116Y-77954328D01*
X175146446Y-77300000D01*
X175146446Y-77299999D01*
X175100369Y-77253922D01*
X175150000Y-77253922D01*
X175150000Y-77346078D01*
X175173852Y-77435095D01*
X175219930Y-77514905D01*
X175285095Y-77580070D01*
X175364905Y-77626148D01*
X175453922Y-77650000D01*
X175546078Y-77650000D01*
X175635095Y-77626148D01*
X175714905Y-77580070D01*
X175780070Y-77514905D01*
X175826148Y-77435095D01*
X175850000Y-77346078D01*
X175850000Y-77299999D01*
X175853554Y-77299999D01*
X175853554Y-77300000D01*
X176253439Y-77699885D01*
X176283688Y-77749246D01*
X176287453Y-77760832D01*
X176316778Y-77818387D01*
X176373238Y-77929197D01*
X176388353Y-77950000D01*
X176484310Y-78082073D01*
X176617927Y-78215690D01*
X176770801Y-78326760D01*
X176850347Y-78367290D01*
X176939163Y-78412545D01*
X176939165Y-78412545D01*
X176939168Y-78412547D01*
X177035497Y-78443846D01*
X177118881Y-78470940D01*
X177305514Y-78500500D01*
X177305519Y-78500500D01*
X177494486Y-78500500D01*
X177681118Y-78470940D01*
X177682623Y-78470451D01*
X177860832Y-78412547D01*
X178029199Y-78326760D01*
X178182073Y-78215690D01*
X178315690Y-78082073D01*
X178426760Y-77929199D01*
X178512547Y-77760832D01*
X178570940Y-77581118D01*
X178575869Y-77550000D01*
X178600500Y-77394486D01*
X178600500Y-77205513D01*
X180494500Y-77205513D01*
X180494500Y-77394486D01*
X180524059Y-77581118D01*
X180582454Y-77760836D01*
X180666685Y-77926148D01*
X180668240Y-77929199D01*
X180779310Y-78082073D01*
X180912927Y-78215690D01*
X181065801Y-78326760D01*
X181145347Y-78367290D01*
X181234163Y-78412545D01*
X181234165Y-78412545D01*
X181234168Y-78412547D01*
X181330497Y-78443846D01*
X181413881Y-78470940D01*
X181600514Y-78500500D01*
X181600519Y-78500500D01*
X181789486Y-78500500D01*
X181976118Y-78470940D01*
X181977623Y-78470451D01*
X182155832Y-78412547D01*
X182324199Y-78326760D01*
X182350182Y-78307882D01*
X182940669Y-78307882D01*
X182940670Y-78307883D01*
X182966059Y-78326329D01*
X183134362Y-78412085D01*
X183313997Y-78470451D01*
X183500553Y-78500000D01*
X183689447Y-78500000D01*
X183876002Y-78470451D01*
X184055637Y-78412085D01*
X184223937Y-78326331D01*
X184249328Y-78307883D01*
X184249328Y-78307882D01*
X183595001Y-77653554D01*
X183595000Y-77653554D01*
X182940669Y-78307882D01*
X182350182Y-78307882D01*
X182477073Y-78215690D01*
X182610690Y-78082073D01*
X182721760Y-77929199D01*
X182807547Y-77760832D01*
X182811310Y-77749249D01*
X182841561Y-77699882D01*
X183241445Y-77299999D01*
X183195368Y-77253922D01*
X183245000Y-77253922D01*
X183245000Y-77346078D01*
X183268852Y-77435095D01*
X183314930Y-77514905D01*
X183380095Y-77580070D01*
X183459905Y-77626148D01*
X183548922Y-77650000D01*
X183641078Y-77650000D01*
X183730095Y-77626148D01*
X183809905Y-77580070D01*
X183875070Y-77514905D01*
X183921148Y-77435095D01*
X183945000Y-77346078D01*
X183945000Y-77299999D01*
X183948554Y-77299999D01*
X183948554Y-77300000D01*
X184602882Y-77954328D01*
X184602883Y-77954328D01*
X184621331Y-77928937D01*
X184707085Y-77760637D01*
X184765451Y-77581002D01*
X184795000Y-77394447D01*
X184795000Y-77205552D01*
X184765451Y-77018997D01*
X184707085Y-76839362D01*
X184621329Y-76671059D01*
X184602883Y-76645670D01*
X184602882Y-76645669D01*
X183948554Y-77299999D01*
X183945000Y-77299999D01*
X183945000Y-77253922D01*
X183921148Y-77164905D01*
X183875070Y-77085095D01*
X183809905Y-77019930D01*
X183730095Y-76973852D01*
X183641078Y-76950000D01*
X183548922Y-76950000D01*
X183459905Y-76973852D01*
X183380095Y-77019930D01*
X183314930Y-77085095D01*
X183268852Y-77164905D01*
X183245000Y-77253922D01*
X183195368Y-77253922D01*
X182841560Y-76900114D01*
X182811310Y-76850750D01*
X182807547Y-76839168D01*
X182721760Y-76670801D01*
X182610690Y-76517927D01*
X182477073Y-76384310D01*
X182350179Y-76292116D01*
X182940669Y-76292116D01*
X183595000Y-76946446D01*
X183595001Y-76946446D01*
X184249328Y-76292116D01*
X184223933Y-76273666D01*
X184055637Y-76187914D01*
X183876002Y-76129548D01*
X183689447Y-76100000D01*
X183500553Y-76100000D01*
X183313997Y-76129548D01*
X183134362Y-76187914D01*
X182966060Y-76273669D01*
X182940670Y-76292116D01*
X182940669Y-76292116D01*
X182350179Y-76292116D01*
X182324199Y-76273240D01*
X182155836Y-76187454D01*
X181976118Y-76129059D01*
X181789486Y-76099500D01*
X181789481Y-76099500D01*
X181600519Y-76099500D01*
X181600514Y-76099500D01*
X181413881Y-76129059D01*
X181234163Y-76187454D01*
X181065800Y-76273240D01*
X180978579Y-76336610D01*
X180912927Y-76384310D01*
X180912925Y-76384312D01*
X180912924Y-76384312D01*
X180779312Y-76517924D01*
X180779312Y-76517925D01*
X180779310Y-76517927D01*
X180739123Y-76573240D01*
X180668240Y-76670800D01*
X180582454Y-76839163D01*
X180524059Y-77018881D01*
X180494500Y-77205513D01*
X178600500Y-77205513D01*
X178570940Y-77018881D01*
X178532350Y-76900114D01*
X178512547Y-76839168D01*
X178512545Y-76839165D01*
X178512545Y-76839163D01*
X178433643Y-76684310D01*
X178426760Y-76670801D01*
X178315690Y-76517927D01*
X178182073Y-76384310D01*
X178029199Y-76273240D01*
X177860836Y-76187454D01*
X177681118Y-76129059D01*
X177494486Y-76099500D01*
X177494481Y-76099500D01*
X177305519Y-76099500D01*
X177305514Y-76099500D01*
X177118881Y-76129059D01*
X176939163Y-76187454D01*
X176770800Y-76273240D01*
X176683579Y-76336610D01*
X176617927Y-76384310D01*
X176617925Y-76384312D01*
X176617924Y-76384312D01*
X176484312Y-76517924D01*
X176484312Y-76517925D01*
X176484310Y-76517927D01*
X176450941Y-76563855D01*
X176373238Y-76670802D01*
X176287452Y-76839169D01*
X176283686Y-76850759D01*
X176253438Y-76900114D01*
X175853554Y-77299999D01*
X175850000Y-77299999D01*
X175850000Y-77253922D01*
X175826148Y-77164905D01*
X175780070Y-77085095D01*
X175714905Y-77019930D01*
X175635095Y-76973852D01*
X175546078Y-76950000D01*
X175453922Y-76950000D01*
X175364905Y-76973852D01*
X175285095Y-77019930D01*
X175219930Y-77085095D01*
X175173852Y-77164905D01*
X175150000Y-77253922D01*
X175100369Y-77253922D01*
X174492116Y-76645669D01*
X174492116Y-76645670D01*
X174473669Y-76671060D01*
X174387914Y-76839362D01*
X174329548Y-77018997D01*
X174300000Y-77205552D01*
X171495000Y-77205552D01*
X171465451Y-77018997D01*
X171407085Y-76839362D01*
X171321329Y-76671059D01*
X171302883Y-76645670D01*
X171302882Y-76645669D01*
X170648554Y-77299999D01*
X170645000Y-77299999D01*
X170645000Y-77253922D01*
X170621148Y-77164905D01*
X170575070Y-77085095D01*
X170509905Y-77019930D01*
X170430095Y-76973852D01*
X170341078Y-76950000D01*
X170248922Y-76950000D01*
X170159905Y-76973852D01*
X170080095Y-77019930D01*
X170014930Y-77085095D01*
X169968852Y-77164905D01*
X169945000Y-77253922D01*
X169895368Y-77253922D01*
X169541560Y-76900114D01*
X169511310Y-76850750D01*
X169507547Y-76839168D01*
X169421760Y-76670801D01*
X169310690Y-76517927D01*
X169177073Y-76384310D01*
X169050179Y-76292116D01*
X169640669Y-76292116D01*
X170295000Y-76946446D01*
X170295001Y-76946446D01*
X170949328Y-76292116D01*
X174845669Y-76292116D01*
X175500000Y-76946446D01*
X175500001Y-76946446D01*
X176154328Y-76292116D01*
X176128933Y-76273666D01*
X175960637Y-76187914D01*
X175781002Y-76129548D01*
X175594447Y-76100000D01*
X175405553Y-76100000D01*
X175218997Y-76129548D01*
X175039362Y-76187914D01*
X174871060Y-76273669D01*
X174845670Y-76292116D01*
X174845669Y-76292116D01*
X170949328Y-76292116D01*
X170923933Y-76273666D01*
X170755637Y-76187914D01*
X170576002Y-76129548D01*
X170389447Y-76100000D01*
X170200553Y-76100000D01*
X170013997Y-76129548D01*
X169834362Y-76187914D01*
X169666060Y-76273669D01*
X169640670Y-76292116D01*
X169640669Y-76292116D01*
X169050179Y-76292116D01*
X169024199Y-76273240D01*
X168855836Y-76187454D01*
X168676118Y-76129059D01*
X168489486Y-76099500D01*
X168489481Y-76099500D01*
X168300519Y-76099500D01*
X168300514Y-76099500D01*
X168113881Y-76129059D01*
X167934163Y-76187454D01*
X167765800Y-76273240D01*
X167678579Y-76336610D01*
X167612927Y-76384310D01*
X167612925Y-76384312D01*
X167612924Y-76384312D01*
X167479312Y-76517924D01*
X167479312Y-76517925D01*
X167479310Y-76517927D01*
X167439123Y-76573240D01*
X167368240Y-76670800D01*
X167282454Y-76839163D01*
X167224059Y-77018881D01*
X167194500Y-77205513D01*
X165305500Y-77205513D01*
X165275940Y-77018881D01*
X165237350Y-76900114D01*
X165217547Y-76839168D01*
X165217545Y-76839165D01*
X165217545Y-76839163D01*
X165138643Y-76684310D01*
X165131760Y-76670801D01*
X165020690Y-76517927D01*
X164887073Y-76384310D01*
X164734199Y-76273240D01*
X164565836Y-76187454D01*
X164386118Y-76129059D01*
X164199486Y-76099500D01*
X164199481Y-76099500D01*
X164010519Y-76099500D01*
X164010514Y-76099500D01*
X163823881Y-76129059D01*
X163644163Y-76187454D01*
X163475800Y-76273240D01*
X163388579Y-76336610D01*
X163322927Y-76384310D01*
X163322925Y-76384312D01*
X163322924Y-76384312D01*
X163189312Y-76517924D01*
X163189312Y-76517925D01*
X163189310Y-76517927D01*
X163155941Y-76563855D01*
X163078238Y-76670802D01*
X162992452Y-76839169D01*
X162988686Y-76850759D01*
X162958438Y-76900114D01*
X162558554Y-77299999D01*
X162555000Y-77299999D01*
X162555000Y-77253922D01*
X162531148Y-77164905D01*
X162485070Y-77085095D01*
X162419905Y-77019930D01*
X162340095Y-76973852D01*
X162251078Y-76950000D01*
X162158922Y-76950000D01*
X162069905Y-76973852D01*
X161990095Y-77019930D01*
X161924930Y-77085095D01*
X161878852Y-77164905D01*
X161855000Y-77253922D01*
X161805369Y-77253922D01*
X161197116Y-76645669D01*
X161197116Y-76645670D01*
X161178669Y-76671060D01*
X161092914Y-76839362D01*
X161034548Y-77018997D01*
X161005000Y-77205552D01*
X158695000Y-77205552D01*
X158665451Y-77018997D01*
X158607085Y-76839362D01*
X158521329Y-76671059D01*
X158502883Y-76645670D01*
X158502882Y-76645669D01*
X157848554Y-77299999D01*
X157845000Y-77299999D01*
X157845000Y-77253922D01*
X157821148Y-77164905D01*
X157775070Y-77085095D01*
X157709905Y-77019930D01*
X157630095Y-76973852D01*
X157541078Y-76950000D01*
X157448922Y-76950000D01*
X157359905Y-76973852D01*
X157280095Y-77019930D01*
X157214930Y-77085095D01*
X157168852Y-77164905D01*
X157145000Y-77253922D01*
X157095368Y-77253922D01*
X156741560Y-76900114D01*
X156711310Y-76850750D01*
X156707547Y-76839168D01*
X156621760Y-76670801D01*
X156510690Y-76517927D01*
X156377073Y-76384310D01*
X156250179Y-76292116D01*
X156840669Y-76292116D01*
X157495000Y-76946446D01*
X157495001Y-76946446D01*
X158149328Y-76292116D01*
X161550669Y-76292116D01*
X162205000Y-76946446D01*
X162205001Y-76946446D01*
X162859328Y-76292116D01*
X162833933Y-76273666D01*
X162665637Y-76187914D01*
X162486002Y-76129548D01*
X162299447Y-76100000D01*
X162110553Y-76100000D01*
X161923997Y-76129548D01*
X161744362Y-76187914D01*
X161576060Y-76273669D01*
X161550670Y-76292116D01*
X161550669Y-76292116D01*
X158149328Y-76292116D01*
X158123933Y-76273666D01*
X157955637Y-76187914D01*
X157776002Y-76129548D01*
X157589447Y-76100000D01*
X157400553Y-76100000D01*
X157213997Y-76129548D01*
X157034362Y-76187914D01*
X156866060Y-76273669D01*
X156840670Y-76292116D01*
X156840669Y-76292116D01*
X156250179Y-76292116D01*
X156224199Y-76273240D01*
X156055836Y-76187454D01*
X155876118Y-76129059D01*
X155689486Y-76099500D01*
X155689481Y-76099500D01*
X155500519Y-76099500D01*
X155500514Y-76099500D01*
X155313881Y-76129059D01*
X155134163Y-76187454D01*
X154965800Y-76273240D01*
X154878579Y-76336610D01*
X154812927Y-76384310D01*
X154812925Y-76384312D01*
X154812924Y-76384312D01*
X154679312Y-76517924D01*
X154679312Y-76517925D01*
X154679310Y-76517927D01*
X154639123Y-76573240D01*
X154568240Y-76670800D01*
X154482454Y-76839163D01*
X154424059Y-77018881D01*
X154394500Y-77205513D01*
X152505500Y-77205513D01*
X152505500Y-77105513D01*
X152475940Y-76918881D01*
X152448846Y-76835497D01*
X152417547Y-76739168D01*
X152417545Y-76739165D01*
X152417545Y-76739163D01*
X152369907Y-76645669D01*
X152331760Y-76570801D01*
X152220690Y-76417927D01*
X152087073Y-76284310D01*
X151934199Y-76173240D01*
X151765836Y-76087454D01*
X151586118Y-76029059D01*
X151399486Y-75999500D01*
X151399481Y-75999500D01*
X151210519Y-75999500D01*
X151210514Y-75999500D01*
X151023881Y-76029059D01*
X150844163Y-76087454D01*
X150675800Y-76173240D01*
X150588579Y-76236610D01*
X150522927Y-76284310D01*
X150522925Y-76284312D01*
X150522924Y-76284312D01*
X150389312Y-76417924D01*
X150389312Y-76417925D01*
X150389310Y-76417927D01*
X150380867Y-76429548D01*
X150278238Y-76570802D01*
X150192452Y-76739169D01*
X150188686Y-76750759D01*
X150158438Y-76800114D01*
X149758554Y-77199999D01*
X149755000Y-77199999D01*
X149755000Y-77153922D01*
X149731148Y-77064905D01*
X149685070Y-76985095D01*
X149619905Y-76919930D01*
X149540095Y-76873852D01*
X149451078Y-76850000D01*
X149358922Y-76850000D01*
X149269905Y-76873852D01*
X149190095Y-76919930D01*
X149124930Y-76985095D01*
X149078852Y-77064905D01*
X149055000Y-77153922D01*
X149005369Y-77153922D01*
X148397116Y-76545669D01*
X148397116Y-76545670D01*
X148378669Y-76571060D01*
X148292914Y-76739362D01*
X148234548Y-76918997D01*
X148205000Y-77105552D01*
X145189858Y-77105552D01*
X145121329Y-76971059D01*
X145102883Y-76945670D01*
X145102882Y-76945669D01*
X144448554Y-77599999D01*
X144445000Y-77599999D01*
X144445000Y-77553922D01*
X144421148Y-77464905D01*
X144375070Y-77385095D01*
X144309905Y-77319930D01*
X144230095Y-77273852D01*
X144141078Y-77250000D01*
X144048922Y-77250000D01*
X143959905Y-77273852D01*
X143880095Y-77319930D01*
X143814930Y-77385095D01*
X143768852Y-77464905D01*
X143745000Y-77553922D01*
X143695368Y-77553922D01*
X143341560Y-77200114D01*
X143311310Y-77150750D01*
X143307546Y-77139166D01*
X143290399Y-77105513D01*
X143221760Y-76970801D01*
X143110690Y-76817927D01*
X142977073Y-76684310D01*
X142850179Y-76592116D01*
X143440669Y-76592116D01*
X144095000Y-77246446D01*
X144095001Y-77246446D01*
X144749328Y-76592116D01*
X144723933Y-76573666D01*
X144555637Y-76487914D01*
X144376002Y-76429548D01*
X144189447Y-76400000D01*
X144000553Y-76400000D01*
X143813997Y-76429548D01*
X143634362Y-76487914D01*
X143466060Y-76573669D01*
X143440670Y-76592116D01*
X143440669Y-76592116D01*
X142850179Y-76592116D01*
X142824199Y-76573240D01*
X142655836Y-76487454D01*
X142476118Y-76429059D01*
X142289486Y-76399500D01*
X142289481Y-76399500D01*
X142100519Y-76399500D01*
X142100514Y-76399500D01*
X141913881Y-76429059D01*
X141734163Y-76487454D01*
X141565800Y-76573240D01*
X141478579Y-76636610D01*
X141412927Y-76684310D01*
X141412925Y-76684312D01*
X141412924Y-76684312D01*
X141279312Y-76817924D01*
X141279312Y-76817925D01*
X141279310Y-76817927D01*
X141255463Y-76850750D01*
X141168240Y-76970800D01*
X141082454Y-77139163D01*
X141024059Y-77318881D01*
X140994500Y-77505513D01*
X137420500Y-77505513D01*
X137420500Y-76192116D01*
X148750669Y-76192116D01*
X149405000Y-76846446D01*
X149405001Y-76846446D01*
X150059328Y-76192116D01*
X150033933Y-76173666D01*
X149865637Y-76087914D01*
X149686002Y-76029548D01*
X149499447Y-76000000D01*
X149310553Y-76000000D01*
X149123997Y-76029548D01*
X148944362Y-76087914D01*
X148776060Y-76173669D01*
X148750670Y-76192116D01*
X148750669Y-76192116D01*
X137420500Y-76192116D01*
X137420500Y-72888713D01*
X140999500Y-72888713D01*
X140999500Y-73401286D01*
X141032753Y-73611239D01*
X141098444Y-73813414D01*
X141194951Y-74002820D01*
X141319890Y-74174786D01*
X141470213Y-74325109D01*
X141642179Y-74450048D01*
X141642181Y-74450049D01*
X141642184Y-74450051D01*
X141831588Y-74546557D01*
X142033757Y-74612246D01*
X142243713Y-74645500D01*
X142243714Y-74645500D01*
X142456286Y-74645500D01*
X142456287Y-74645500D01*
X142666243Y-74612246D01*
X142868412Y-74546557D01*
X143057816Y-74450051D01*
X143229792Y-74325104D01*
X143368604Y-74186291D01*
X143429923Y-74152809D01*
X143499615Y-74157793D01*
X143555549Y-74199664D01*
X143561821Y-74208878D01*
X143565185Y-74214333D01*
X143565186Y-74214334D01*
X143657288Y-74363656D01*
X143781344Y-74487712D01*
X143930666Y-74579814D01*
X144097203Y-74634999D01*
X144199991Y-74645500D01*
X145500008Y-74645499D01*
X145602797Y-74634999D01*
X145769334Y-74579814D01*
X145918656Y-74487712D01*
X146042712Y-74363656D01*
X146134814Y-74214334D01*
X146189999Y-74047797D01*
X146200500Y-73945009D01*
X146200499Y-72344992D01*
X146200498Y-72344983D01*
X147599500Y-72344983D01*
X147599500Y-73945001D01*
X147599501Y-73945018D01*
X147610000Y-74047796D01*
X147610001Y-74047799D01*
X147655894Y-74186294D01*
X147665186Y-74214334D01*
X147757288Y-74363656D01*
X147881344Y-74487712D01*
X148030666Y-74579814D01*
X148197203Y-74634999D01*
X148299991Y-74645500D01*
X149600008Y-74645499D01*
X149702797Y-74634999D01*
X149869334Y-74579814D01*
X150018656Y-74487712D01*
X150142712Y-74363656D01*
X150234814Y-74214334D01*
X150234814Y-74214331D01*
X150238178Y-74208879D01*
X150290126Y-74162154D01*
X150359088Y-74150931D01*
X150423170Y-74178774D01*
X150431398Y-74186294D01*
X150570213Y-74325109D01*
X150742179Y-74450048D01*
X150742181Y-74450049D01*
X150742184Y-74450051D01*
X150931588Y-74546557D01*
X151133757Y-74612246D01*
X151343713Y-74645500D01*
X151343714Y-74645500D01*
X151556286Y-74645500D01*
X151556287Y-74645500D01*
X151766243Y-74612246D01*
X151968412Y-74546557D01*
X152157816Y-74450051D01*
X152179789Y-74434086D01*
X152329786Y-74325109D01*
X152329788Y-74325106D01*
X152329792Y-74325104D01*
X152480104Y-74174792D01*
X152480106Y-74174788D01*
X152480109Y-74174786D01*
X152605048Y-74002820D01*
X152605047Y-74002820D01*
X152605051Y-74002816D01*
X152701557Y-73813412D01*
X152767246Y-73611243D01*
X152800500Y-73401287D01*
X152800500Y-72888713D01*
X154199500Y-72888713D01*
X154199500Y-73401286D01*
X154232753Y-73611239D01*
X154298444Y-73813414D01*
X154394951Y-74002820D01*
X154519890Y-74174786D01*
X154670213Y-74325109D01*
X154842179Y-74450048D01*
X154842181Y-74450049D01*
X154842184Y-74450051D01*
X155031588Y-74546557D01*
X155233757Y-74612246D01*
X155443713Y-74645500D01*
X155443714Y-74645500D01*
X155656286Y-74645500D01*
X155656287Y-74645500D01*
X155866243Y-74612246D01*
X156068412Y-74546557D01*
X156257816Y-74450051D01*
X156429792Y-74325104D01*
X156568604Y-74186291D01*
X156629923Y-74152809D01*
X156699615Y-74157793D01*
X156755549Y-74199664D01*
X156761821Y-74208878D01*
X156765185Y-74214333D01*
X156765186Y-74214334D01*
X156857288Y-74363656D01*
X156981344Y-74487712D01*
X157130666Y-74579814D01*
X157297203Y-74634999D01*
X157399991Y-74645500D01*
X158700008Y-74645499D01*
X158802797Y-74634999D01*
X158969334Y-74579814D01*
X159118656Y-74487712D01*
X159242712Y-74363656D01*
X159334814Y-74214334D01*
X159389999Y-74047797D01*
X159400500Y-73945009D01*
X159400499Y-72344992D01*
X159400498Y-72344983D01*
X160399500Y-72344983D01*
X160399500Y-73945001D01*
X160399501Y-73945018D01*
X160410000Y-74047796D01*
X160410001Y-74047799D01*
X160455894Y-74186294D01*
X160465186Y-74214334D01*
X160557288Y-74363656D01*
X160681344Y-74487712D01*
X160830666Y-74579814D01*
X160997203Y-74634999D01*
X161099991Y-74645500D01*
X162400008Y-74645499D01*
X162502797Y-74634999D01*
X162669334Y-74579814D01*
X162818656Y-74487712D01*
X162942712Y-74363656D01*
X163034814Y-74214334D01*
X163034814Y-74214331D01*
X163038178Y-74208879D01*
X163090126Y-74162154D01*
X163159088Y-74150931D01*
X163223170Y-74178774D01*
X163231398Y-74186294D01*
X163370213Y-74325109D01*
X163542179Y-74450048D01*
X163542181Y-74450049D01*
X163542184Y-74450051D01*
X163731588Y-74546557D01*
X163933757Y-74612246D01*
X164143713Y-74645500D01*
X164143714Y-74645500D01*
X164356286Y-74645500D01*
X164356287Y-74645500D01*
X164566243Y-74612246D01*
X164768412Y-74546557D01*
X164957816Y-74450051D01*
X164979789Y-74434086D01*
X165129786Y-74325109D01*
X165129788Y-74325106D01*
X165129792Y-74325104D01*
X165280104Y-74174792D01*
X165280106Y-74174788D01*
X165280109Y-74174786D01*
X165405048Y-74002820D01*
X165405047Y-74002820D01*
X165405051Y-74002816D01*
X165501557Y-73813412D01*
X165567246Y-73611243D01*
X165600500Y-73401287D01*
X165600500Y-72888713D01*
X166999500Y-72888713D01*
X166999500Y-73401286D01*
X167032753Y-73611239D01*
X167098444Y-73813414D01*
X167194951Y-74002820D01*
X167319890Y-74174786D01*
X167470213Y-74325109D01*
X167642179Y-74450048D01*
X167642181Y-74450049D01*
X167642184Y-74450051D01*
X167831588Y-74546557D01*
X168033757Y-74612246D01*
X168243713Y-74645500D01*
X168243714Y-74645500D01*
X168456286Y-74645500D01*
X168456287Y-74645500D01*
X168666243Y-74612246D01*
X168868412Y-74546557D01*
X169057816Y-74450051D01*
X169229792Y-74325104D01*
X169368604Y-74186291D01*
X169429923Y-74152809D01*
X169499615Y-74157793D01*
X169555549Y-74199664D01*
X169561821Y-74208878D01*
X169565185Y-74214333D01*
X169565186Y-74214334D01*
X169657288Y-74363656D01*
X169781344Y-74487712D01*
X169930666Y-74579814D01*
X170097203Y-74634999D01*
X170199991Y-74645500D01*
X171500008Y-74645499D01*
X171602797Y-74634999D01*
X171769334Y-74579814D01*
X171918656Y-74487712D01*
X172042712Y-74363656D01*
X172134814Y-74214334D01*
X172189999Y-74047797D01*
X172200500Y-73945009D01*
X172200499Y-72344992D01*
X172200498Y-72344983D01*
X173599500Y-72344983D01*
X173599500Y-73945001D01*
X173599501Y-73945018D01*
X173610000Y-74047796D01*
X173610001Y-74047799D01*
X173655894Y-74186294D01*
X173665186Y-74214334D01*
X173757288Y-74363656D01*
X173881344Y-74487712D01*
X174030666Y-74579814D01*
X174197203Y-74634999D01*
X174299991Y-74645500D01*
X175600008Y-74645499D01*
X175702797Y-74634999D01*
X175869334Y-74579814D01*
X176018656Y-74487712D01*
X176142712Y-74363656D01*
X176234814Y-74214334D01*
X176234814Y-74214331D01*
X176238178Y-74208879D01*
X176290126Y-74162154D01*
X176359088Y-74150931D01*
X176423170Y-74178774D01*
X176431398Y-74186294D01*
X176570213Y-74325109D01*
X176742179Y-74450048D01*
X176742181Y-74450049D01*
X176742184Y-74450051D01*
X176931588Y-74546557D01*
X177133757Y-74612246D01*
X177343713Y-74645500D01*
X177343714Y-74645500D01*
X177556286Y-74645500D01*
X177556287Y-74645500D01*
X177766243Y-74612246D01*
X177968412Y-74546557D01*
X178157816Y-74450051D01*
X178179789Y-74434086D01*
X178329786Y-74325109D01*
X178329788Y-74325106D01*
X178329792Y-74325104D01*
X178480104Y-74174792D01*
X178480106Y-74174788D01*
X178480109Y-74174786D01*
X178605048Y-74002820D01*
X178605047Y-74002820D01*
X178605051Y-74002816D01*
X178701557Y-73813412D01*
X178767246Y-73611243D01*
X178800500Y-73401287D01*
X178800500Y-72888713D01*
X180199500Y-72888713D01*
X180199500Y-73401286D01*
X180232753Y-73611239D01*
X180298444Y-73813414D01*
X180394951Y-74002820D01*
X180519890Y-74174786D01*
X180670213Y-74325109D01*
X180842179Y-74450048D01*
X180842181Y-74450049D01*
X180842184Y-74450051D01*
X181031588Y-74546557D01*
X181233757Y-74612246D01*
X181443713Y-74645500D01*
X181443714Y-74645500D01*
X181656286Y-74645500D01*
X181656287Y-74645500D01*
X181866243Y-74612246D01*
X182068412Y-74546557D01*
X182257816Y-74450051D01*
X182429792Y-74325104D01*
X182568604Y-74186291D01*
X182629923Y-74152809D01*
X182699615Y-74157793D01*
X182755549Y-74199664D01*
X182761821Y-74208878D01*
X182765185Y-74214333D01*
X182765186Y-74214334D01*
X182857288Y-74363656D01*
X182981344Y-74487712D01*
X183130666Y-74579814D01*
X183297203Y-74634999D01*
X183399991Y-74645500D01*
X184700008Y-74645499D01*
X184802797Y-74634999D01*
X184969334Y-74579814D01*
X185118656Y-74487712D01*
X185242712Y-74363656D01*
X185334814Y-74214334D01*
X185389999Y-74047797D01*
X185400500Y-73945009D01*
X185400499Y-72344992D01*
X185389999Y-72242203D01*
X185334814Y-72075666D01*
X185242712Y-71926344D01*
X185118656Y-71802288D01*
X184969334Y-71710186D01*
X184802797Y-71655001D01*
X184802795Y-71655000D01*
X184700010Y-71644500D01*
X183399998Y-71644500D01*
X183399981Y-71644501D01*
X183297203Y-71655000D01*
X183297200Y-71655001D01*
X183130668Y-71710185D01*
X183130663Y-71710187D01*
X182981342Y-71802289D01*
X182857289Y-71926342D01*
X182761821Y-72081121D01*
X182709873Y-72127845D01*
X182640910Y-72139068D01*
X182576828Y-72111224D01*
X182568601Y-72103705D01*
X182429786Y-71964890D01*
X182257820Y-71839951D01*
X182068414Y-71743444D01*
X182068413Y-71743443D01*
X182068412Y-71743443D01*
X181866243Y-71677754D01*
X181866241Y-71677753D01*
X181866240Y-71677753D01*
X181704957Y-71652208D01*
X181656287Y-71644500D01*
X181443713Y-71644500D01*
X181395042Y-71652208D01*
X181233760Y-71677753D01*
X181031585Y-71743444D01*
X180842179Y-71839951D01*
X180670213Y-71964890D01*
X180519890Y-72115213D01*
X180394951Y-72287179D01*
X180298444Y-72476585D01*
X180232753Y-72678760D01*
X180199500Y-72888713D01*
X178800500Y-72888713D01*
X178767246Y-72678757D01*
X178701557Y-72476588D01*
X178605051Y-72287184D01*
X178605049Y-72287181D01*
X178605048Y-72287179D01*
X178480109Y-72115213D01*
X178329786Y-71964890D01*
X178157820Y-71839951D01*
X177968414Y-71743444D01*
X177968413Y-71743443D01*
X177968412Y-71743443D01*
X177766243Y-71677754D01*
X177766241Y-71677753D01*
X177766240Y-71677753D01*
X177604957Y-71652208D01*
X177556287Y-71644500D01*
X177343713Y-71644500D01*
X177295042Y-71652208D01*
X177133760Y-71677753D01*
X176931585Y-71743444D01*
X176742179Y-71839951D01*
X176570215Y-71964889D01*
X176431398Y-72103706D01*
X176370075Y-72137190D01*
X176300383Y-72132206D01*
X176244450Y-72090334D01*
X176238178Y-72081120D01*
X176142712Y-71926344D01*
X176018657Y-71802289D01*
X176018656Y-71802288D01*
X175869334Y-71710186D01*
X175702797Y-71655001D01*
X175702795Y-71655000D01*
X175600010Y-71644500D01*
X174299998Y-71644500D01*
X174299981Y-71644501D01*
X174197203Y-71655000D01*
X174197200Y-71655001D01*
X174030668Y-71710185D01*
X174030663Y-71710187D01*
X173881342Y-71802289D01*
X173757289Y-71926342D01*
X173665187Y-72075663D01*
X173665185Y-72075668D01*
X173646450Y-72132206D01*
X173610001Y-72242203D01*
X173610001Y-72242204D01*
X173610000Y-72242204D01*
X173599500Y-72344983D01*
X172200498Y-72344983D01*
X172189999Y-72242203D01*
X172134814Y-72075666D01*
X172042712Y-71926344D01*
X171918656Y-71802288D01*
X171769334Y-71710186D01*
X171602797Y-71655001D01*
X171602795Y-71655000D01*
X171500010Y-71644500D01*
X170199998Y-71644500D01*
X170199981Y-71644501D01*
X170097203Y-71655000D01*
X170097200Y-71655001D01*
X169930668Y-71710185D01*
X169930663Y-71710187D01*
X169781342Y-71802289D01*
X169657289Y-71926342D01*
X169561821Y-72081121D01*
X169509873Y-72127845D01*
X169440910Y-72139068D01*
X169376828Y-72111224D01*
X169368601Y-72103705D01*
X169229786Y-71964890D01*
X169057820Y-71839951D01*
X168868414Y-71743444D01*
X168868413Y-71743443D01*
X168868412Y-71743443D01*
X168666243Y-71677754D01*
X168666241Y-71677753D01*
X168666240Y-71677753D01*
X168504957Y-71652208D01*
X168456287Y-71644500D01*
X168243713Y-71644500D01*
X168195042Y-71652208D01*
X168033760Y-71677753D01*
X167831585Y-71743444D01*
X167642179Y-71839951D01*
X167470213Y-71964890D01*
X167319890Y-72115213D01*
X167194951Y-72287179D01*
X167098444Y-72476585D01*
X167032753Y-72678760D01*
X166999500Y-72888713D01*
X165600500Y-72888713D01*
X165567246Y-72678757D01*
X165501557Y-72476588D01*
X165405051Y-72287184D01*
X165405049Y-72287181D01*
X165405048Y-72287179D01*
X165280109Y-72115213D01*
X165129786Y-71964890D01*
X164957820Y-71839951D01*
X164768414Y-71743444D01*
X164768413Y-71743443D01*
X164768412Y-71743443D01*
X164566243Y-71677754D01*
X164566241Y-71677753D01*
X164566240Y-71677753D01*
X164404957Y-71652208D01*
X164356287Y-71644500D01*
X164143713Y-71644500D01*
X164095042Y-71652208D01*
X163933760Y-71677753D01*
X163731585Y-71743444D01*
X163542179Y-71839951D01*
X163370215Y-71964889D01*
X163231398Y-72103706D01*
X163170075Y-72137190D01*
X163100383Y-72132206D01*
X163044450Y-72090334D01*
X163038178Y-72081120D01*
X162942712Y-71926344D01*
X162818657Y-71802289D01*
X162818656Y-71802288D01*
X162669334Y-71710186D01*
X162502797Y-71655001D01*
X162502795Y-71655000D01*
X162400010Y-71644500D01*
X161099998Y-71644500D01*
X161099981Y-71644501D01*
X160997203Y-71655000D01*
X160997200Y-71655001D01*
X160830668Y-71710185D01*
X160830663Y-71710187D01*
X160681342Y-71802289D01*
X160557289Y-71926342D01*
X160465187Y-72075663D01*
X160465185Y-72075668D01*
X160446450Y-72132206D01*
X160410001Y-72242203D01*
X160410001Y-72242204D01*
X160410000Y-72242204D01*
X160399500Y-72344983D01*
X159400498Y-72344983D01*
X159389999Y-72242203D01*
X159334814Y-72075666D01*
X159242712Y-71926344D01*
X159118656Y-71802288D01*
X158969334Y-71710186D01*
X158802797Y-71655001D01*
X158802795Y-71655000D01*
X158700010Y-71644500D01*
X157399998Y-71644500D01*
X157399981Y-71644501D01*
X157297203Y-71655000D01*
X157297200Y-71655001D01*
X157130668Y-71710185D01*
X157130663Y-71710187D01*
X156981342Y-71802289D01*
X156857289Y-71926342D01*
X156761821Y-72081121D01*
X156709873Y-72127845D01*
X156640910Y-72139068D01*
X156576828Y-72111224D01*
X156568601Y-72103705D01*
X156429786Y-71964890D01*
X156257820Y-71839951D01*
X156068414Y-71743444D01*
X156068413Y-71743443D01*
X156068412Y-71743443D01*
X155866243Y-71677754D01*
X155866241Y-71677753D01*
X155866240Y-71677753D01*
X155704957Y-71652208D01*
X155656287Y-71644500D01*
X155443713Y-71644500D01*
X155395042Y-71652208D01*
X155233760Y-71677753D01*
X155031585Y-71743444D01*
X154842179Y-71839951D01*
X154670213Y-71964890D01*
X154519890Y-72115213D01*
X154394951Y-72287179D01*
X154298444Y-72476585D01*
X154232753Y-72678760D01*
X154199500Y-72888713D01*
X152800500Y-72888713D01*
X152767246Y-72678757D01*
X152701557Y-72476588D01*
X152605051Y-72287184D01*
X152605049Y-72287181D01*
X152605048Y-72287179D01*
X152480109Y-72115213D01*
X152329786Y-71964890D01*
X152157820Y-71839951D01*
X151968414Y-71743444D01*
X151968413Y-71743443D01*
X151968412Y-71743443D01*
X151766243Y-71677754D01*
X151766241Y-71677753D01*
X151766240Y-71677753D01*
X151604957Y-71652208D01*
X151556287Y-71644500D01*
X151343713Y-71644500D01*
X151295042Y-71652208D01*
X151133760Y-71677753D01*
X150931585Y-71743444D01*
X150742179Y-71839951D01*
X150570215Y-71964889D01*
X150431398Y-72103706D01*
X150370075Y-72137190D01*
X150300383Y-72132206D01*
X150244450Y-72090334D01*
X150238178Y-72081120D01*
X150142712Y-71926344D01*
X150018657Y-71802289D01*
X150018656Y-71802288D01*
X149869334Y-71710186D01*
X149702797Y-71655001D01*
X149702795Y-71655000D01*
X149600010Y-71644500D01*
X148299998Y-71644500D01*
X148299981Y-71644501D01*
X148197203Y-71655000D01*
X148197200Y-71655001D01*
X148030668Y-71710185D01*
X148030663Y-71710187D01*
X147881342Y-71802289D01*
X147757289Y-71926342D01*
X147665187Y-72075663D01*
X147665185Y-72075668D01*
X147646450Y-72132206D01*
X147610001Y-72242203D01*
X147610001Y-72242204D01*
X147610000Y-72242204D01*
X147599500Y-72344983D01*
X146200498Y-72344983D01*
X146189999Y-72242203D01*
X146134814Y-72075666D01*
X146042712Y-71926344D01*
X145918656Y-71802288D01*
X145769334Y-71710186D01*
X145602797Y-71655001D01*
X145602795Y-71655000D01*
X145500010Y-71644500D01*
X144199998Y-71644500D01*
X144199981Y-71644501D01*
X144097203Y-71655000D01*
X144097200Y-71655001D01*
X143930668Y-71710185D01*
X143930663Y-71710187D01*
X143781342Y-71802289D01*
X143657289Y-71926342D01*
X143561821Y-72081121D01*
X143509873Y-72127845D01*
X143440910Y-72139068D01*
X143376828Y-72111224D01*
X143368601Y-72103705D01*
X143229786Y-71964890D01*
X143057820Y-71839951D01*
X142868414Y-71743444D01*
X142868413Y-71743443D01*
X142868412Y-71743443D01*
X142666243Y-71677754D01*
X142666241Y-71677753D01*
X142666240Y-71677753D01*
X142504957Y-71652208D01*
X142456287Y-71644500D01*
X142243713Y-71644500D01*
X142195042Y-71652208D01*
X142033760Y-71677753D01*
X141831585Y-71743444D01*
X141642179Y-71839951D01*
X141470213Y-71964890D01*
X141319890Y-72115213D01*
X141194951Y-72287179D01*
X141098444Y-72476585D01*
X141032753Y-72678760D01*
X140999500Y-72888713D01*
X137420500Y-72888713D01*
X137420500Y-63134427D01*
X137420816Y-63125581D01*
X137435130Y-62925443D01*
X137435131Y-62925434D01*
X137437646Y-62907938D01*
X137479356Y-62716199D01*
X137484333Y-62699248D01*
X137552911Y-62515385D01*
X137560259Y-62499298D01*
X137622815Y-62384734D01*
X137654291Y-62327089D01*
X137663845Y-62312221D01*
X137781448Y-62155123D01*
X137793020Y-62141769D01*
X137931769Y-62003020D01*
X137945123Y-61991448D01*
X138102221Y-61873845D01*
X138117089Y-61864291D01*
X138289298Y-61770258D01*
X138305385Y-61762911D01*
X138489248Y-61694333D01*
X138506199Y-61689356D01*
X138697938Y-61647646D01*
X138715436Y-61645130D01*
X138915582Y-61630816D01*
X138924428Y-61630500D01*
X138985892Y-61630500D01*
X187444108Y-61630500D01*
X187505572Y-61630500D01*
X187514418Y-61630816D01*
G37*
%TD.AperFunction*%
%TA.AperFunction,Conductor*%
G36*
X151300000Y-101752661D02*
G01*
X151327259Y-101854394D01*
X151379920Y-101945606D01*
X151454394Y-102020080D01*
X151545606Y-102072741D01*
X151647339Y-102100000D01*
X151653553Y-102100000D01*
X150974076Y-102779474D01*
X151018650Y-102811859D01*
X151200968Y-102904755D01*
X151240405Y-102917569D01*
X151298080Y-102957007D01*
X151325278Y-103021366D01*
X151313363Y-103090212D01*
X151266118Y-103141688D01*
X151202086Y-103159500D01*
X149699530Y-103159500D01*
X149632491Y-103139815D01*
X149586736Y-103087011D01*
X149576792Y-103017853D01*
X149605817Y-102954297D01*
X149661211Y-102917569D01*
X149699219Y-102905220D01*
X149881610Y-102812287D01*
X149974590Y-102744732D01*
X150047213Y-102691971D01*
X150047215Y-102691968D01*
X150047219Y-102691966D01*
X150191966Y-102547219D01*
X150191968Y-102547215D01*
X150191971Y-102547213D01*
X150312286Y-102381611D01*
X150312415Y-102381359D01*
X150339795Y-102327621D01*
X150387769Y-102276826D01*
X150455589Y-102260030D01*
X150521725Y-102282567D01*
X150560765Y-102327621D01*
X150588141Y-102381350D01*
X150588147Y-102381359D01*
X150620523Y-102425921D01*
X150620524Y-102425922D01*
X151300000Y-101746446D01*
X151300000Y-101752661D01*
G37*
%TD.AperFunction*%
%TD*%
M02*
