%TF.GenerationSoftware,KiCad,Pcbnew,9.0.2*%
%TF.CreationDate,2025-08-28T12:16:00+10:00*%
%TF.ProjectId,fsr_left,6673725f-6c65-4667-942e-6b696361645f,rev?*%
%TF.SameCoordinates,Original*%
%TF.FileFunction,Legend,Bot*%
%TF.FilePolarity,Positive*%
%FSLAX46Y46*%
G04 Gerber Fmt 4.6, Leading zero omitted, Abs format (unit mm)*
G04 Created by KiCad (PCBNEW 9.0.2) date 2025-08-28 12:16:00*
%MOMM*%
%LPD*%
G01*
G04 APERTURE LIST*
%ADD10C,0.300000*%
%ADD11C,0.150000*%
%ADD12C,0.120000*%
G04 APERTURE END LIST*
D10*
X162725489Y-90165114D02*
X163225489Y-90165114D01*
X163225489Y-90950828D02*
X163225489Y-89450828D01*
X163225489Y-89450828D02*
X162511203Y-89450828D01*
X162011203Y-90879400D02*
X161796918Y-90950828D01*
X161796918Y-90950828D02*
X161439775Y-90950828D01*
X161439775Y-90950828D02*
X161296918Y-90879400D01*
X161296918Y-90879400D02*
X161225489Y-90807971D01*
X161225489Y-90807971D02*
X161154060Y-90665114D01*
X161154060Y-90665114D02*
X161154060Y-90522257D01*
X161154060Y-90522257D02*
X161225489Y-90379400D01*
X161225489Y-90379400D02*
X161296918Y-90307971D01*
X161296918Y-90307971D02*
X161439775Y-90236542D01*
X161439775Y-90236542D02*
X161725489Y-90165114D01*
X161725489Y-90165114D02*
X161868346Y-90093685D01*
X161868346Y-90093685D02*
X161939775Y-90022257D01*
X161939775Y-90022257D02*
X162011203Y-89879400D01*
X162011203Y-89879400D02*
X162011203Y-89736542D01*
X162011203Y-89736542D02*
X161939775Y-89593685D01*
X161939775Y-89593685D02*
X161868346Y-89522257D01*
X161868346Y-89522257D02*
X161725489Y-89450828D01*
X161725489Y-89450828D02*
X161368346Y-89450828D01*
X161368346Y-89450828D02*
X161154060Y-89522257D01*
X159654061Y-90950828D02*
X160154061Y-90236542D01*
X160511204Y-90950828D02*
X160511204Y-89450828D01*
X160511204Y-89450828D02*
X159939775Y-89450828D01*
X159939775Y-89450828D02*
X159796918Y-89522257D01*
X159796918Y-89522257D02*
X159725489Y-89593685D01*
X159725489Y-89593685D02*
X159654061Y-89736542D01*
X159654061Y-89736542D02*
X159654061Y-89950828D01*
X159654061Y-89950828D02*
X159725489Y-90093685D01*
X159725489Y-90093685D02*
X159796918Y-90165114D01*
X159796918Y-90165114D02*
X159939775Y-90236542D01*
X159939775Y-90236542D02*
X160511204Y-90236542D01*
X159368347Y-91093685D02*
X158225489Y-91093685D01*
X157154061Y-90950828D02*
X157868347Y-90950828D01*
X157868347Y-90950828D02*
X157868347Y-89450828D01*
X156654061Y-90165114D02*
X156154061Y-90165114D01*
X155939775Y-90950828D02*
X156654061Y-90950828D01*
X156654061Y-90950828D02*
X156654061Y-89450828D01*
X156654061Y-89450828D02*
X155939775Y-89450828D01*
X154796918Y-90165114D02*
X155296918Y-90165114D01*
X155296918Y-90950828D02*
X155296918Y-89450828D01*
X155296918Y-89450828D02*
X154582632Y-89450828D01*
X154225489Y-89450828D02*
X153368347Y-89450828D01*
X153796918Y-90950828D02*
X153796918Y-89450828D01*
D11*
X177623809Y-61954819D02*
X177623809Y-62669104D01*
X177623809Y-62669104D02*
X177671428Y-62811961D01*
X177671428Y-62811961D02*
X177766666Y-62907200D01*
X177766666Y-62907200D02*
X177909523Y-62954819D01*
X177909523Y-62954819D02*
X178004761Y-62954819D01*
X177147618Y-62954819D02*
X177147618Y-61954819D01*
X176671428Y-62288152D02*
X176671428Y-62954819D01*
X176671428Y-62383390D02*
X176623809Y-62335771D01*
X176623809Y-62335771D02*
X176528571Y-62288152D01*
X176528571Y-62288152D02*
X176385714Y-62288152D01*
X176385714Y-62288152D02*
X176290476Y-62335771D01*
X176290476Y-62335771D02*
X176242857Y-62431009D01*
X176242857Y-62431009D02*
X176242857Y-62954819D01*
X175814285Y-62050057D02*
X175766666Y-62002438D01*
X175766666Y-62002438D02*
X175671428Y-61954819D01*
X175671428Y-61954819D02*
X175433333Y-61954819D01*
X175433333Y-61954819D02*
X175338095Y-62002438D01*
X175338095Y-62002438D02*
X175290476Y-62050057D01*
X175290476Y-62050057D02*
X175242857Y-62145295D01*
X175242857Y-62145295D02*
X175242857Y-62240533D01*
X175242857Y-62240533D02*
X175290476Y-62383390D01*
X175290476Y-62383390D02*
X175861904Y-62954819D01*
X175861904Y-62954819D02*
X175242857Y-62954819D01*
X164495237Y-61854819D02*
X164495237Y-62569104D01*
X164495237Y-62569104D02*
X164542856Y-62711961D01*
X164542856Y-62711961D02*
X164638094Y-62807200D01*
X164638094Y-62807200D02*
X164780951Y-62854819D01*
X164780951Y-62854819D02*
X164876189Y-62854819D01*
X164019046Y-62854819D02*
X164019046Y-61854819D01*
X164019046Y-61854819D02*
X163685713Y-62569104D01*
X163685713Y-62569104D02*
X163352380Y-61854819D01*
X163352380Y-61854819D02*
X163352380Y-62854819D01*
X162876189Y-62854819D02*
X162876189Y-62188152D01*
X162876189Y-61854819D02*
X162923808Y-61902438D01*
X162923808Y-61902438D02*
X162876189Y-61950057D01*
X162876189Y-61950057D02*
X162828570Y-61902438D01*
X162828570Y-61902438D02*
X162876189Y-61854819D01*
X162876189Y-61854819D02*
X162876189Y-61950057D01*
X161971428Y-62854819D02*
X161971428Y-61854819D01*
X161971428Y-62807200D02*
X162066666Y-62854819D01*
X162066666Y-62854819D02*
X162257142Y-62854819D01*
X162257142Y-62854819D02*
X162352380Y-62807200D01*
X162352380Y-62807200D02*
X162399999Y-62759580D01*
X162399999Y-62759580D02*
X162447618Y-62664342D01*
X162447618Y-62664342D02*
X162447618Y-62378628D01*
X162447618Y-62378628D02*
X162399999Y-62283390D01*
X162399999Y-62283390D02*
X162352380Y-62235771D01*
X162352380Y-62235771D02*
X162257142Y-62188152D01*
X162257142Y-62188152D02*
X162066666Y-62188152D01*
X162066666Y-62188152D02*
X161971428Y-62235771D01*
X161542856Y-61950057D02*
X161495237Y-61902438D01*
X161495237Y-61902438D02*
X161399999Y-61854819D01*
X161399999Y-61854819D02*
X161161904Y-61854819D01*
X161161904Y-61854819D02*
X161066666Y-61902438D01*
X161066666Y-61902438D02*
X161019047Y-61950057D01*
X161019047Y-61950057D02*
X160971428Y-62045295D01*
X160971428Y-62045295D02*
X160971428Y-62140533D01*
X160971428Y-62140533D02*
X161019047Y-62283390D01*
X161019047Y-62283390D02*
X161590475Y-62854819D01*
X161590475Y-62854819D02*
X160971428Y-62854819D01*
X151523809Y-62154819D02*
X151523809Y-62869104D01*
X151523809Y-62869104D02*
X151571428Y-63011961D01*
X151571428Y-63011961D02*
X151666666Y-63107200D01*
X151666666Y-63107200D02*
X151809523Y-63154819D01*
X151809523Y-63154819D02*
X151904761Y-63154819D01*
X150476190Y-63154819D02*
X150809523Y-62678628D01*
X151047618Y-63154819D02*
X151047618Y-62154819D01*
X151047618Y-62154819D02*
X150666666Y-62154819D01*
X150666666Y-62154819D02*
X150571428Y-62202438D01*
X150571428Y-62202438D02*
X150523809Y-62250057D01*
X150523809Y-62250057D02*
X150476190Y-62345295D01*
X150476190Y-62345295D02*
X150476190Y-62488152D01*
X150476190Y-62488152D02*
X150523809Y-62583390D01*
X150523809Y-62583390D02*
X150571428Y-62631009D01*
X150571428Y-62631009D02*
X150666666Y-62678628D01*
X150666666Y-62678628D02*
X151047618Y-62678628D01*
X150047618Y-63154819D02*
X150047618Y-62488152D01*
X150047618Y-62154819D02*
X150095237Y-62202438D01*
X150095237Y-62202438D02*
X150047618Y-62250057D01*
X150047618Y-62250057D02*
X149999999Y-62202438D01*
X149999999Y-62202438D02*
X150047618Y-62154819D01*
X150047618Y-62154819D02*
X150047618Y-62250057D01*
X149571428Y-62488152D02*
X149571428Y-63154819D01*
X149571428Y-62583390D02*
X149523809Y-62535771D01*
X149523809Y-62535771D02*
X149428571Y-62488152D01*
X149428571Y-62488152D02*
X149285714Y-62488152D01*
X149285714Y-62488152D02*
X149190476Y-62535771D01*
X149190476Y-62535771D02*
X149142857Y-62631009D01*
X149142857Y-62631009D02*
X149142857Y-63154819D01*
X148714285Y-62250057D02*
X148666666Y-62202438D01*
X148666666Y-62202438D02*
X148571428Y-62154819D01*
X148571428Y-62154819D02*
X148333333Y-62154819D01*
X148333333Y-62154819D02*
X148238095Y-62202438D01*
X148238095Y-62202438D02*
X148190476Y-62250057D01*
X148190476Y-62250057D02*
X148142857Y-62345295D01*
X148142857Y-62345295D02*
X148142857Y-62440533D01*
X148142857Y-62440533D02*
X148190476Y-62583390D01*
X148190476Y-62583390D02*
X148761904Y-63154819D01*
X148761904Y-63154819D02*
X148142857Y-63154819D01*
X170689819Y-85853333D02*
X171404104Y-85853333D01*
X171404104Y-85853333D02*
X171546961Y-85805714D01*
X171546961Y-85805714D02*
X171642200Y-85710476D01*
X171642200Y-85710476D02*
X171689819Y-85567619D01*
X171689819Y-85567619D02*
X171689819Y-85472381D01*
X170689819Y-86186667D02*
X170689819Y-86758095D01*
X171689819Y-86472381D02*
X170689819Y-86472381D01*
X171689819Y-87091429D02*
X170689819Y-87091429D01*
X171689819Y-87520000D02*
X171166009Y-87520000D01*
X171166009Y-87520000D02*
X171070771Y-87472381D01*
X171070771Y-87472381D02*
X171023152Y-87377143D01*
X171023152Y-87377143D02*
X171023152Y-87234286D01*
X171023152Y-87234286D02*
X171070771Y-87139048D01*
X171070771Y-87139048D02*
X171118390Y-87091429D01*
X170785057Y-87948572D02*
X170737438Y-87996191D01*
X170737438Y-87996191D02*
X170689819Y-88091429D01*
X170689819Y-88091429D02*
X170689819Y-88329524D01*
X170689819Y-88329524D02*
X170737438Y-88424762D01*
X170737438Y-88424762D02*
X170785057Y-88472381D01*
X170785057Y-88472381D02*
X170880295Y-88520000D01*
X170880295Y-88520000D02*
X170975533Y-88520000D01*
X170975533Y-88520000D02*
X171118390Y-88472381D01*
X171118390Y-88472381D02*
X171689819Y-87900953D01*
X171689819Y-87900953D02*
X171689819Y-88520000D01*
D12*
%TO.C,JIn2*%
X172390000Y-63835000D02*
X172390000Y-75555000D01*
X172390000Y-75555000D02*
X173810000Y-75555000D01*
X173810000Y-71055000D02*
X176200000Y-71055000D01*
X173810000Y-75555000D02*
X173810000Y-71055000D01*
X174650000Y-75245000D02*
X175250000Y-75245000D01*
X174700000Y-64445000D02*
X175200000Y-64445000D01*
X174700000Y-69945000D02*
X174700000Y-64445000D01*
X174950000Y-74645000D02*
X174650000Y-75245000D01*
X175200000Y-64445000D02*
X175200000Y-69945000D01*
X175200000Y-69945000D02*
X174700000Y-69945000D01*
X175250000Y-75245000D02*
X174950000Y-74645000D01*
X176200000Y-63835000D02*
X172390000Y-63835000D01*
X176200000Y-63835000D02*
X180010000Y-63835000D01*
X177200000Y-64445000D02*
X177700000Y-64445000D01*
X177200000Y-69945000D02*
X177200000Y-64445000D01*
X177700000Y-64445000D02*
X177700000Y-69945000D01*
X177700000Y-69945000D02*
X177200000Y-69945000D01*
X178590000Y-71055000D02*
X176200000Y-71055000D01*
X178590000Y-75555000D02*
X178590000Y-71055000D01*
X180010000Y-63835000D02*
X180010000Y-75555000D01*
X180010000Y-75555000D02*
X178590000Y-75555000D01*
%TO.C,JMid2*%
X159190000Y-63835000D02*
X159190000Y-75555000D01*
X159190000Y-75555000D02*
X160610000Y-75555000D01*
X160610000Y-71055000D02*
X163000000Y-71055000D01*
X160610000Y-75555000D02*
X160610000Y-71055000D01*
X161450000Y-75245000D02*
X162050000Y-75245000D01*
X161500000Y-64445000D02*
X162000000Y-64445000D01*
X161500000Y-69945000D02*
X161500000Y-64445000D01*
X161750000Y-74645000D02*
X161450000Y-75245000D01*
X162000000Y-64445000D02*
X162000000Y-69945000D01*
X162000000Y-69945000D02*
X161500000Y-69945000D01*
X162050000Y-75245000D02*
X161750000Y-74645000D01*
X163000000Y-63835000D02*
X159190000Y-63835000D01*
X163000000Y-63835000D02*
X166810000Y-63835000D01*
X164000000Y-64445000D02*
X164500000Y-64445000D01*
X164000000Y-69945000D02*
X164000000Y-64445000D01*
X164500000Y-64445000D02*
X164500000Y-69945000D01*
X164500000Y-69945000D02*
X164000000Y-69945000D01*
X165390000Y-71055000D02*
X163000000Y-71055000D01*
X165390000Y-75555000D02*
X165390000Y-71055000D01*
X166810000Y-63835000D02*
X166810000Y-75555000D01*
X166810000Y-75555000D02*
X165390000Y-75555000D01*
%TO.C,JRin2*%
X146390000Y-63835000D02*
X146390000Y-75555000D01*
X146390000Y-75555000D02*
X147810000Y-75555000D01*
X147810000Y-71055000D02*
X150200000Y-71055000D01*
X147810000Y-75555000D02*
X147810000Y-71055000D01*
X148650000Y-75245000D02*
X149250000Y-75245000D01*
X148700000Y-64445000D02*
X149200000Y-64445000D01*
X148700000Y-69945000D02*
X148700000Y-64445000D01*
X148950000Y-74645000D02*
X148650000Y-75245000D01*
X149200000Y-64445000D02*
X149200000Y-69945000D01*
X149200000Y-69945000D02*
X148700000Y-69945000D01*
X149250000Y-75245000D02*
X148950000Y-74645000D01*
X150200000Y-63835000D02*
X146390000Y-63835000D01*
X150200000Y-63835000D02*
X154010000Y-63835000D01*
X151200000Y-64445000D02*
X151700000Y-64445000D01*
X151200000Y-69945000D02*
X151200000Y-64445000D01*
X151700000Y-64445000D02*
X151700000Y-69945000D01*
X151700000Y-69945000D02*
X151200000Y-69945000D01*
X152590000Y-71055000D02*
X150200000Y-71055000D01*
X152590000Y-75555000D02*
X152590000Y-71055000D01*
X154010000Y-63835000D02*
X154010000Y-75555000D01*
X154010000Y-75555000D02*
X152590000Y-75555000D01*
%TO.C,JTh2*%
X172335000Y-83210000D02*
X172335000Y-84630000D01*
X172335000Y-84630000D02*
X176835000Y-84630000D01*
X172335000Y-89410000D02*
X176835000Y-89410000D01*
X172335000Y-90830000D02*
X172335000Y-89410000D01*
X172645000Y-85470000D02*
X172645000Y-86070000D01*
X172645000Y-86070000D02*
X173245000Y-85770000D01*
X173245000Y-85770000D02*
X172645000Y-85470000D01*
X176835000Y-84630000D02*
X176835000Y-87020000D01*
X176835000Y-89410000D02*
X176835000Y-87020000D01*
X177945000Y-85520000D02*
X183445000Y-85520000D01*
X177945000Y-86020000D02*
X177945000Y-85520000D01*
X177945000Y-88020000D02*
X183445000Y-88020000D01*
X177945000Y-88520000D02*
X177945000Y-88020000D01*
X183445000Y-85520000D02*
X183445000Y-86020000D01*
X183445000Y-86020000D02*
X177945000Y-86020000D01*
X183445000Y-88020000D02*
X183445000Y-88520000D01*
X183445000Y-88520000D02*
X177945000Y-88520000D01*
X184055000Y-83210000D02*
X172335000Y-83210000D01*
X184055000Y-87020000D02*
X184055000Y-83210000D01*
X184055000Y-87020000D02*
X184055000Y-90830000D01*
X184055000Y-90830000D02*
X172335000Y-90830000D01*
%TD*%
M02*
