%TF.GenerationSoftware,KiCad,Pcbnew,9.0.2*%
%TF.CreationDate,2025-08-28T12:16:00+10:00*%
%TF.ProjectId,fsr_left,6673725f-6c65-4667-942e-6b696361645f,rev?*%
%TF.SameCoordinates,Original*%
%TF.FileFunction,Other,User*%
%FSLAX46Y46*%
G04 Gerber Fmt 4.6, Leading zero omitted, Abs format (unit mm)*
G04 Created by KiCad (PCBNEW 9.0.2) date 2025-08-28 12:16:00*
%MOMM*%
%LPD*%
G01*
G04 APERTURE LIST*
%ADD10C,0.050000*%
G04 APERTURE END LIST*
D10*
%TO.C,JMid1*%
X165400000Y-63445000D02*
X165400000Y-75955000D01*
X165400000Y-75955000D02*
X173800000Y-75955000D01*
X173800000Y-63445000D02*
X165400000Y-63445000D01*
X173800000Y-75955000D02*
X173800000Y-63445000D01*
%TO.C,JRin1*%
X152600000Y-63445000D02*
X152600000Y-75955000D01*
X152600000Y-75955000D02*
X161000000Y-75955000D01*
X161000000Y-63445000D02*
X152600000Y-63445000D01*
X161000000Y-75955000D02*
X161000000Y-63445000D01*
%TO.C,RMid2*%
X165155000Y-78350000D02*
X161245000Y-78350000D01*
X161245000Y-76250000D01*
X165155000Y-76250000D01*
X165155000Y-78350000D01*
%TO.C,U1*%
X148468500Y-99000000D02*
X169443500Y-99000000D01*
X169443500Y-81200000D01*
X148468500Y-81200000D01*
X148468500Y-99000000D01*
%TO.C,RRin2*%
X152355000Y-78250000D02*
X148445000Y-78250000D01*
X148445000Y-76150000D01*
X152355000Y-76150000D01*
X152355000Y-78250000D01*
%TO.C,SW2*%
X141000000Y-87750000D02*
X141000000Y-94650000D01*
X141000000Y-94650000D02*
X146500000Y-94650000D01*
X146500000Y-87750000D02*
X141000000Y-87750000D01*
X146500000Y-94650000D02*
X146500000Y-87750000D01*
%TO.C,RMid1*%
X167345000Y-76250000D02*
X171255000Y-76250000D01*
X171255000Y-78350000D01*
X167345000Y-78350000D01*
X167345000Y-76250000D01*
%TO.C,bat2*%
X140950000Y-96300000D02*
X140950000Y-101800000D01*
X140950000Y-101800000D02*
X147850000Y-101800000D01*
X147850000Y-96300000D02*
X140950000Y-96300000D01*
X147850000Y-101800000D02*
X147850000Y-96300000D01*
%TO.C,JTh1*%
X171935000Y-94020000D02*
X171935000Y-102420000D01*
X171935000Y-102420000D02*
X184445000Y-102420000D01*
X184445000Y-94020000D02*
X171935000Y-94020000D01*
X184445000Y-102420000D02*
X184445000Y-94020000D01*
%TO.C,C2*%
X148150000Y-100450000D02*
X152750000Y-100450000D01*
X152750000Y-102950000D01*
X148150000Y-102950000D01*
X148150000Y-100450000D01*
%TO.C,bat4*%
X141050000Y-80450000D02*
X141050000Y-87350000D01*
X141050000Y-87350000D02*
X146550000Y-87350000D01*
X146550000Y-80450000D02*
X141050000Y-80450000D01*
X146550000Y-87350000D02*
X146550000Y-80450000D01*
%TO.C,RRin1*%
X154545000Y-76250000D02*
X158455000Y-76250000D01*
X158455000Y-78350000D01*
X154545000Y-78350000D01*
X154545000Y-76250000D01*
%TO.C,RPin1*%
X141145000Y-76550000D02*
X145055000Y-76550000D01*
X145055000Y-78650000D01*
X141145000Y-78650000D01*
X141145000Y-76550000D01*
%TO.C,JIn1*%
X178600000Y-63445000D02*
X178600000Y-75955000D01*
X178600000Y-75955000D02*
X187000000Y-75955000D01*
X187000000Y-63445000D02*
X178600000Y-63445000D01*
X187000000Y-75955000D02*
X187000000Y-63445000D01*
%TO.C,RTh1*%
X175845000Y-93670000D02*
X171935000Y-93670000D01*
X171935000Y-91570000D01*
X175845000Y-91570000D01*
X175845000Y-93670000D01*
%TO.C,RTh2*%
X184445000Y-93670000D02*
X180535000Y-93670000D01*
X180535000Y-91570000D01*
X184445000Y-91570000D01*
X184445000Y-93670000D01*
%TO.C,RIn2*%
X178450000Y-78350000D02*
X174540000Y-78350000D01*
X174540000Y-76250000D01*
X178450000Y-76250000D01*
X178450000Y-78350000D01*
%TO.C,RIn1*%
X180645000Y-76250000D02*
X184555000Y-76250000D01*
X184555000Y-78350000D01*
X180645000Y-78350000D01*
X180645000Y-76250000D01*
%TO.C,JPin1*%
X139400000Y-63445000D02*
X139400000Y-75955000D01*
X139400000Y-75955000D02*
X147800000Y-75955000D01*
X147800000Y-63445000D02*
X139400000Y-63445000D01*
X147800000Y-75955000D02*
X147800000Y-63445000D01*
%TD*%
M02*
