%TF.GenerationSoftware,KiCad,Pcbnew,9.0.2*%
%TF.CreationDate,2025-08-29T09:25:12+10:00*%
%TF.ProjectId,fsr_right,6673725f-7269-4676-9874-2e6b69636164,rev?*%
%TF.SameCoordinates,Original*%
%TF.FileFunction,Legend,Bot*%
%TF.FilePolarity,Positive*%
%FSLAX46Y46*%
G04 Gerber Fmt 4.6, Leading zero omitted, Abs format (unit mm)*
G04 Created by KiCad (PCBNEW 9.0.2) date 2025-08-29 09:25:12*
%MOMM*%
%LPD*%
G01*
G04 APERTURE LIST*
%ADD10C,0.200000*%
%ADD11C,0.150000*%
%ADD12C,0.120000*%
G04 APERTURE END LIST*
D10*
X170686993Y-91683409D02*
X171020326Y-91683409D01*
X171020326Y-92207219D02*
X171020326Y-91207219D01*
X171020326Y-91207219D02*
X170544136Y-91207219D01*
X170210802Y-92159600D02*
X170067945Y-92207219D01*
X170067945Y-92207219D02*
X169829850Y-92207219D01*
X169829850Y-92207219D02*
X169734612Y-92159600D01*
X169734612Y-92159600D02*
X169686993Y-92111980D01*
X169686993Y-92111980D02*
X169639374Y-92016742D01*
X169639374Y-92016742D02*
X169639374Y-91921504D01*
X169639374Y-91921504D02*
X169686993Y-91826266D01*
X169686993Y-91826266D02*
X169734612Y-91778647D01*
X169734612Y-91778647D02*
X169829850Y-91731028D01*
X169829850Y-91731028D02*
X170020326Y-91683409D01*
X170020326Y-91683409D02*
X170115564Y-91635790D01*
X170115564Y-91635790D02*
X170163183Y-91588171D01*
X170163183Y-91588171D02*
X170210802Y-91492933D01*
X170210802Y-91492933D02*
X170210802Y-91397695D01*
X170210802Y-91397695D02*
X170163183Y-91302457D01*
X170163183Y-91302457D02*
X170115564Y-91254838D01*
X170115564Y-91254838D02*
X170020326Y-91207219D01*
X170020326Y-91207219D02*
X169782231Y-91207219D01*
X169782231Y-91207219D02*
X169639374Y-91254838D01*
X168639374Y-92207219D02*
X168972707Y-91731028D01*
X169210802Y-92207219D02*
X169210802Y-91207219D01*
X169210802Y-91207219D02*
X168829850Y-91207219D01*
X168829850Y-91207219D02*
X168734612Y-91254838D01*
X168734612Y-91254838D02*
X168686993Y-91302457D01*
X168686993Y-91302457D02*
X168639374Y-91397695D01*
X168639374Y-91397695D02*
X168639374Y-91540552D01*
X168639374Y-91540552D02*
X168686993Y-91635790D01*
X168686993Y-91635790D02*
X168734612Y-91683409D01*
X168734612Y-91683409D02*
X168829850Y-91731028D01*
X168829850Y-91731028D02*
X169210802Y-91731028D01*
X168448898Y-92302457D02*
X167686993Y-92302457D01*
X166877469Y-92207219D02*
X167210802Y-91731028D01*
X167448897Y-92207219D02*
X167448897Y-91207219D01*
X167448897Y-91207219D02*
X167067945Y-91207219D01*
X167067945Y-91207219D02*
X166972707Y-91254838D01*
X166972707Y-91254838D02*
X166925088Y-91302457D01*
X166925088Y-91302457D02*
X166877469Y-91397695D01*
X166877469Y-91397695D02*
X166877469Y-91540552D01*
X166877469Y-91540552D02*
X166925088Y-91635790D01*
X166925088Y-91635790D02*
X166972707Y-91683409D01*
X166972707Y-91683409D02*
X167067945Y-91731028D01*
X167067945Y-91731028D02*
X167448897Y-91731028D01*
X166448897Y-92207219D02*
X166448897Y-91207219D01*
X165448898Y-91254838D02*
X165544136Y-91207219D01*
X165544136Y-91207219D02*
X165686993Y-91207219D01*
X165686993Y-91207219D02*
X165829850Y-91254838D01*
X165829850Y-91254838D02*
X165925088Y-91350076D01*
X165925088Y-91350076D02*
X165972707Y-91445314D01*
X165972707Y-91445314D02*
X166020326Y-91635790D01*
X166020326Y-91635790D02*
X166020326Y-91778647D01*
X166020326Y-91778647D02*
X165972707Y-91969123D01*
X165972707Y-91969123D02*
X165925088Y-92064361D01*
X165925088Y-92064361D02*
X165829850Y-92159600D01*
X165829850Y-92159600D02*
X165686993Y-92207219D01*
X165686993Y-92207219D02*
X165591755Y-92207219D01*
X165591755Y-92207219D02*
X165448898Y-92159600D01*
X165448898Y-92159600D02*
X165401279Y-92111980D01*
X165401279Y-92111980D02*
X165401279Y-91778647D01*
X165401279Y-91778647D02*
X165591755Y-91778647D01*
X164972707Y-92207219D02*
X164972707Y-91207219D01*
X164972707Y-91683409D02*
X164401279Y-91683409D01*
X164401279Y-92207219D02*
X164401279Y-91207219D01*
X164067945Y-91207219D02*
X163496517Y-91207219D01*
X163782231Y-92207219D02*
X163782231Y-91207219D01*
D11*
X151423809Y-61954819D02*
X151423809Y-62669104D01*
X151423809Y-62669104D02*
X151471428Y-62811961D01*
X151471428Y-62811961D02*
X151566666Y-62907200D01*
X151566666Y-62907200D02*
X151709523Y-62954819D01*
X151709523Y-62954819D02*
X151804761Y-62954819D01*
X150947618Y-62954819D02*
X150947618Y-61954819D01*
X150471428Y-62288152D02*
X150471428Y-62954819D01*
X150471428Y-62383390D02*
X150423809Y-62335771D01*
X150423809Y-62335771D02*
X150328571Y-62288152D01*
X150328571Y-62288152D02*
X150185714Y-62288152D01*
X150185714Y-62288152D02*
X150090476Y-62335771D01*
X150090476Y-62335771D02*
X150042857Y-62431009D01*
X150042857Y-62431009D02*
X150042857Y-62954819D01*
X149614285Y-62050057D02*
X149566666Y-62002438D01*
X149566666Y-62002438D02*
X149471428Y-61954819D01*
X149471428Y-61954819D02*
X149233333Y-61954819D01*
X149233333Y-61954819D02*
X149138095Y-62002438D01*
X149138095Y-62002438D02*
X149090476Y-62050057D01*
X149090476Y-62050057D02*
X149042857Y-62145295D01*
X149042857Y-62145295D02*
X149042857Y-62240533D01*
X149042857Y-62240533D02*
X149090476Y-62383390D01*
X149090476Y-62383390D02*
X149661904Y-62954819D01*
X149661904Y-62954819D02*
X149042857Y-62954819D01*
X164595237Y-61854819D02*
X164595237Y-62569104D01*
X164595237Y-62569104D02*
X164642856Y-62711961D01*
X164642856Y-62711961D02*
X164738094Y-62807200D01*
X164738094Y-62807200D02*
X164880951Y-62854819D01*
X164880951Y-62854819D02*
X164976189Y-62854819D01*
X164119046Y-62854819D02*
X164119046Y-61854819D01*
X164119046Y-61854819D02*
X163785713Y-62569104D01*
X163785713Y-62569104D02*
X163452380Y-61854819D01*
X163452380Y-61854819D02*
X163452380Y-62854819D01*
X162976189Y-62854819D02*
X162976189Y-62188152D01*
X162976189Y-61854819D02*
X163023808Y-61902438D01*
X163023808Y-61902438D02*
X162976189Y-61950057D01*
X162976189Y-61950057D02*
X162928570Y-61902438D01*
X162928570Y-61902438D02*
X162976189Y-61854819D01*
X162976189Y-61854819D02*
X162976189Y-61950057D01*
X162071428Y-62854819D02*
X162071428Y-61854819D01*
X162071428Y-62807200D02*
X162166666Y-62854819D01*
X162166666Y-62854819D02*
X162357142Y-62854819D01*
X162357142Y-62854819D02*
X162452380Y-62807200D01*
X162452380Y-62807200D02*
X162499999Y-62759580D01*
X162499999Y-62759580D02*
X162547618Y-62664342D01*
X162547618Y-62664342D02*
X162547618Y-62378628D01*
X162547618Y-62378628D02*
X162499999Y-62283390D01*
X162499999Y-62283390D02*
X162452380Y-62235771D01*
X162452380Y-62235771D02*
X162357142Y-62188152D01*
X162357142Y-62188152D02*
X162166666Y-62188152D01*
X162166666Y-62188152D02*
X162071428Y-62235771D01*
X161642856Y-61950057D02*
X161595237Y-61902438D01*
X161595237Y-61902438D02*
X161499999Y-61854819D01*
X161499999Y-61854819D02*
X161261904Y-61854819D01*
X161261904Y-61854819D02*
X161166666Y-61902438D01*
X161166666Y-61902438D02*
X161119047Y-61950057D01*
X161119047Y-61950057D02*
X161071428Y-62045295D01*
X161071428Y-62045295D02*
X161071428Y-62140533D01*
X161071428Y-62140533D02*
X161119047Y-62283390D01*
X161119047Y-62283390D02*
X161690475Y-62854819D01*
X161690475Y-62854819D02*
X161071428Y-62854819D01*
X177623809Y-62154819D02*
X177623809Y-62869104D01*
X177623809Y-62869104D02*
X177671428Y-63011961D01*
X177671428Y-63011961D02*
X177766666Y-63107200D01*
X177766666Y-63107200D02*
X177909523Y-63154819D01*
X177909523Y-63154819D02*
X178004761Y-63154819D01*
X176576190Y-63154819D02*
X176909523Y-62678628D01*
X177147618Y-63154819D02*
X177147618Y-62154819D01*
X177147618Y-62154819D02*
X176766666Y-62154819D01*
X176766666Y-62154819D02*
X176671428Y-62202438D01*
X176671428Y-62202438D02*
X176623809Y-62250057D01*
X176623809Y-62250057D02*
X176576190Y-62345295D01*
X176576190Y-62345295D02*
X176576190Y-62488152D01*
X176576190Y-62488152D02*
X176623809Y-62583390D01*
X176623809Y-62583390D02*
X176671428Y-62631009D01*
X176671428Y-62631009D02*
X176766666Y-62678628D01*
X176766666Y-62678628D02*
X177147618Y-62678628D01*
X176147618Y-63154819D02*
X176147618Y-62488152D01*
X176147618Y-62154819D02*
X176195237Y-62202438D01*
X176195237Y-62202438D02*
X176147618Y-62250057D01*
X176147618Y-62250057D02*
X176099999Y-62202438D01*
X176099999Y-62202438D02*
X176147618Y-62154819D01*
X176147618Y-62154819D02*
X176147618Y-62250057D01*
X175671428Y-62488152D02*
X175671428Y-63154819D01*
X175671428Y-62583390D02*
X175623809Y-62535771D01*
X175623809Y-62535771D02*
X175528571Y-62488152D01*
X175528571Y-62488152D02*
X175385714Y-62488152D01*
X175385714Y-62488152D02*
X175290476Y-62535771D01*
X175290476Y-62535771D02*
X175242857Y-62631009D01*
X175242857Y-62631009D02*
X175242857Y-63154819D01*
X174814285Y-62250057D02*
X174766666Y-62202438D01*
X174766666Y-62202438D02*
X174671428Y-62154819D01*
X174671428Y-62154819D02*
X174433333Y-62154819D01*
X174433333Y-62154819D02*
X174338095Y-62202438D01*
X174338095Y-62202438D02*
X174290476Y-62250057D01*
X174290476Y-62250057D02*
X174242857Y-62345295D01*
X174242857Y-62345295D02*
X174242857Y-62440533D01*
X174242857Y-62440533D02*
X174290476Y-62583390D01*
X174290476Y-62583390D02*
X174861904Y-63154819D01*
X174861904Y-63154819D02*
X174242857Y-63154819D01*
X152254819Y-84183333D02*
X152969104Y-84183333D01*
X152969104Y-84183333D02*
X153111961Y-84135714D01*
X153111961Y-84135714D02*
X153207200Y-84040476D01*
X153207200Y-84040476D02*
X153254819Y-83897619D01*
X153254819Y-83897619D02*
X153254819Y-83802381D01*
X152254819Y-84516667D02*
X152254819Y-85088095D01*
X153254819Y-84802381D02*
X152254819Y-84802381D01*
X153254819Y-85421429D02*
X152254819Y-85421429D01*
X153254819Y-85850000D02*
X152731009Y-85850000D01*
X152731009Y-85850000D02*
X152635771Y-85802381D01*
X152635771Y-85802381D02*
X152588152Y-85707143D01*
X152588152Y-85707143D02*
X152588152Y-85564286D01*
X152588152Y-85564286D02*
X152635771Y-85469048D01*
X152635771Y-85469048D02*
X152683390Y-85421429D01*
X152350057Y-86278572D02*
X152302438Y-86326191D01*
X152302438Y-86326191D02*
X152254819Y-86421429D01*
X152254819Y-86421429D02*
X152254819Y-86659524D01*
X152254819Y-86659524D02*
X152302438Y-86754762D01*
X152302438Y-86754762D02*
X152350057Y-86802381D01*
X152350057Y-86802381D02*
X152445295Y-86850000D01*
X152445295Y-86850000D02*
X152540533Y-86850000D01*
X152540533Y-86850000D02*
X152683390Y-86802381D01*
X152683390Y-86802381D02*
X153254819Y-86230953D01*
X153254819Y-86230953D02*
X153254819Y-86850000D01*
D12*
%TO.C,JIn2*%
X146190000Y-63835000D02*
X146190000Y-75555000D01*
X146190000Y-75555000D02*
X147610000Y-75555000D01*
X147610000Y-71055000D02*
X150000000Y-71055000D01*
X147610000Y-75555000D02*
X147610000Y-71055000D01*
X148450000Y-75245000D02*
X149050000Y-75245000D01*
X148500000Y-64445000D02*
X149000000Y-64445000D01*
X148500000Y-69945000D02*
X148500000Y-64445000D01*
X148750000Y-74645000D02*
X148450000Y-75245000D01*
X149000000Y-64445000D02*
X149000000Y-69945000D01*
X149000000Y-69945000D02*
X148500000Y-69945000D01*
X149050000Y-75245000D02*
X148750000Y-74645000D01*
X150000000Y-63835000D02*
X146190000Y-63835000D01*
X150000000Y-63835000D02*
X153810000Y-63835000D01*
X151000000Y-64445000D02*
X151500000Y-64445000D01*
X151000000Y-69945000D02*
X151000000Y-64445000D01*
X151500000Y-64445000D02*
X151500000Y-69945000D01*
X151500000Y-69945000D02*
X151000000Y-69945000D01*
X152390000Y-71055000D02*
X150000000Y-71055000D01*
X152390000Y-75555000D02*
X152390000Y-71055000D01*
X153810000Y-63835000D02*
X153810000Y-75555000D01*
X153810000Y-75555000D02*
X152390000Y-75555000D01*
%TO.C,JMid2*%
X159290000Y-63835000D02*
X159290000Y-75555000D01*
X159290000Y-75555000D02*
X160710000Y-75555000D01*
X160710000Y-71055000D02*
X163100000Y-71055000D01*
X160710000Y-75555000D02*
X160710000Y-71055000D01*
X161550000Y-75245000D02*
X162150000Y-75245000D01*
X161600000Y-64445000D02*
X162100000Y-64445000D01*
X161600000Y-69945000D02*
X161600000Y-64445000D01*
X161850000Y-74645000D02*
X161550000Y-75245000D01*
X162100000Y-64445000D02*
X162100000Y-69945000D01*
X162100000Y-69945000D02*
X161600000Y-69945000D01*
X162150000Y-75245000D02*
X161850000Y-74645000D01*
X163100000Y-63835000D02*
X159290000Y-63835000D01*
X163100000Y-63835000D02*
X166910000Y-63835000D01*
X164100000Y-64445000D02*
X164600000Y-64445000D01*
X164100000Y-69945000D02*
X164100000Y-64445000D01*
X164600000Y-64445000D02*
X164600000Y-69945000D01*
X164600000Y-69945000D02*
X164100000Y-69945000D01*
X165490000Y-71055000D02*
X163100000Y-71055000D01*
X165490000Y-75555000D02*
X165490000Y-71055000D01*
X166910000Y-63835000D02*
X166910000Y-75555000D01*
X166910000Y-75555000D02*
X165490000Y-75555000D01*
%TO.C,JRin2*%
X172490000Y-63835000D02*
X172490000Y-75555000D01*
X172490000Y-75555000D02*
X173910000Y-75555000D01*
X173910000Y-71055000D02*
X176300000Y-71055000D01*
X173910000Y-75555000D02*
X173910000Y-71055000D01*
X174750000Y-75245000D02*
X175350000Y-75245000D01*
X174800000Y-64445000D02*
X175300000Y-64445000D01*
X174800000Y-69945000D02*
X174800000Y-64445000D01*
X175050000Y-74645000D02*
X174750000Y-75245000D01*
X175300000Y-64445000D02*
X175300000Y-69945000D01*
X175300000Y-69945000D02*
X174800000Y-69945000D01*
X175350000Y-75245000D02*
X175050000Y-74645000D01*
X176300000Y-63835000D02*
X172490000Y-63835000D01*
X176300000Y-63835000D02*
X180110000Y-63835000D01*
X177300000Y-64445000D02*
X177800000Y-64445000D01*
X177300000Y-69945000D02*
X177300000Y-64445000D01*
X177800000Y-64445000D02*
X177800000Y-69945000D01*
X177800000Y-69945000D02*
X177300000Y-69945000D01*
X178690000Y-71055000D02*
X176300000Y-71055000D01*
X178690000Y-75555000D02*
X178690000Y-71055000D01*
X180110000Y-63835000D02*
X180110000Y-75555000D01*
X180110000Y-75555000D02*
X178690000Y-75555000D01*
%TO.C,JTh2*%
X139980000Y-81540000D02*
X151700000Y-81540000D01*
X139980000Y-85350000D02*
X139980000Y-81540000D01*
X139980000Y-85350000D02*
X139980000Y-89160000D01*
X139980000Y-89160000D02*
X151700000Y-89160000D01*
X140590000Y-83850000D02*
X146090000Y-83850000D01*
X140590000Y-84350000D02*
X140590000Y-83850000D01*
X140590000Y-86350000D02*
X146090000Y-86350000D01*
X140590000Y-86850000D02*
X140590000Y-86350000D01*
X146090000Y-83850000D02*
X146090000Y-84350000D01*
X146090000Y-84350000D02*
X140590000Y-84350000D01*
X146090000Y-86350000D02*
X146090000Y-86850000D01*
X146090000Y-86850000D02*
X140590000Y-86850000D01*
X147200000Y-82960000D02*
X147200000Y-85350000D01*
X147200000Y-87740000D02*
X147200000Y-85350000D01*
X150790000Y-86600000D02*
X151390000Y-86900000D01*
X151390000Y-86300000D02*
X150790000Y-86600000D01*
X151390000Y-86900000D02*
X151390000Y-86300000D01*
X151700000Y-81540000D02*
X151700000Y-82960000D01*
X151700000Y-82960000D02*
X147200000Y-82960000D01*
X151700000Y-87740000D02*
X147200000Y-87740000D01*
X151700000Y-89160000D02*
X151700000Y-87740000D01*
%TD*%
M02*
