%TF.GenerationSoftware,KiCad,Pcbnew,9.0.2*%
%TF.CreationDate,2025-08-29T09:25:12+10:00*%
%TF.ProjectId,fsr_right,6673725f-7269-4676-9874-2e6b69636164,rev?*%
%TF.SameCoordinates,Original*%
%TF.FileFunction,Soldermask,Top*%
%TF.FilePolarity,Negative*%
%FSLAX46Y46*%
G04 Gerber Fmt 4.6, Leading zero omitted, Abs format (unit mm)*
G04 Created by KiCad (PCBNEW 9.0.2) date 2025-08-29 09:25:12*
%MOMM*%
%LPD*%
G01*
G04 APERTURE LIST*
G04 Aperture macros list*
%AMRoundRect*
0 Rectangle with rounded corners*
0 $1 Rounding radius*
0 $2 $3 $4 $5 $6 $7 $8 $9 X,Y pos of 4 corners*
0 Add a 4 corners polygon primitive as box body*
4,1,4,$2,$3,$4,$5,$6,$7,$8,$9,$2,$3,0*
0 Add four circle primitives for the rounded corners*
1,1,$1+$1,$2,$3*
1,1,$1+$1,$4,$5*
1,1,$1+$1,$6,$7*
1,1,$1+$1,$8,$9*
0 Add four rect primitives between the rounded corners*
20,1,$1+$1,$2,$3,$4,$5,0*
20,1,$1+$1,$4,$5,$6,$7,0*
20,1,$1+$1,$6,$7,$8,$9,0*
20,1,$1+$1,$8,$9,$2,$3,0*%
G04 Aperture macros list end*
%ADD10RoundRect,0.250000X0.600000X0.750000X-0.600000X0.750000X-0.600000X-0.750000X0.600000X-0.750000X0*%
%ADD11O,1.700000X2.000000*%
%ADD12C,1.400000*%
%ADD13RoundRect,0.152400X0.609600X-1.063600X0.609600X1.063600X-0.609600X1.063600X-0.609600X-1.063600X0*%
%ADD14C,1.524000*%
%ADD15RoundRect,0.152400X-0.609600X1.063600X-0.609600X-1.063600X0.609600X-1.063600X0.609600X1.063600X0*%
%ADD16RoundRect,0.250000X0.625000X-0.350000X0.625000X0.350000X-0.625000X0.350000X-0.625000X-0.350000X0*%
%ADD17O,1.750000X1.200000*%
%ADD18RoundRect,0.250000X-0.350000X-0.625000X0.350000X-0.625000X0.350000X0.625000X-0.350000X0.625000X0*%
%ADD19O,1.200000X1.750000*%
%ADD20RoundRect,0.250000X-0.750000X0.600000X-0.750000X-0.600000X0.750000X-0.600000X0.750000X0.600000X0*%
%ADD21O,2.000000X1.700000*%
%ADD22C,1.600000*%
%ADD23RoundRect,0.250000X-0.600000X-0.750000X0.600000X-0.750000X0.600000X0.750000X-0.600000X0.750000X0*%
%ADD24RoundRect,0.250000X0.750000X-0.600000X0.750000X0.600000X-0.750000X0.600000X-0.750000X-0.600000X0*%
G04 APERTURE END LIST*
D10*
%TO.C,JMid1*%
X157850000Y-73145000D03*
D11*
X155350000Y-73145000D03*
%TD*%
D10*
%TO.C,JRin1*%
X170950000Y-73145000D03*
D11*
X168450000Y-73145000D03*
%TD*%
D12*
%TO.C,RMid2*%
X164205000Y-77600000D03*
X162305000Y-77600000D03*
%TD*%
D13*
%TO.C,U1*%
X175540000Y-82225000D03*
D14*
X175540000Y-83060000D03*
D13*
X173000000Y-82225000D03*
D14*
X173000000Y-83060000D03*
D13*
X170460000Y-82225000D03*
D14*
X170460000Y-83060000D03*
D13*
X167920000Y-82225000D03*
D14*
X167920000Y-83060000D03*
D13*
X165380000Y-82225000D03*
D14*
X165380000Y-83060000D03*
D13*
X162840000Y-82225000D03*
D14*
X162840000Y-83060000D03*
D13*
X160300000Y-82225000D03*
D14*
X160300000Y-83060000D03*
X160300000Y-98300000D03*
D15*
X160300000Y-99135000D03*
D14*
X162840000Y-98300000D03*
D15*
X162840000Y-99135000D03*
D14*
X165380000Y-98300000D03*
D15*
X165380000Y-99135000D03*
D14*
X167920000Y-98300000D03*
D15*
X167920000Y-99135000D03*
D14*
X170460000Y-98300000D03*
D15*
X170460000Y-99135000D03*
D14*
X173000000Y-98300000D03*
D15*
X173000000Y-99135000D03*
D14*
X175540000Y-98300000D03*
D15*
X175540000Y-99135000D03*
%TD*%
D12*
%TO.C,RRin2*%
X177405000Y-77600000D03*
X175505000Y-77600000D03*
%TD*%
D16*
%TO.C,SW2*%
X182900000Y-92200000D03*
D17*
X182900000Y-90200000D03*
%TD*%
D12*
%TO.C,RMid1*%
X155395000Y-77600000D03*
X157295000Y-77600000D03*
%TD*%
D18*
%TO.C,bat2*%
X181600000Y-98550000D03*
D19*
X183600000Y-98550000D03*
%TD*%
D20*
%TO.C,JTh1*%
X149345000Y-95050000D03*
D21*
X149345000Y-97550000D03*
%TD*%
D22*
%TO.C,C2*%
X176850000Y-102000000D03*
X174350000Y-102000000D03*
%TD*%
D16*
%TO.C,bat4*%
X182850000Y-84900000D03*
D17*
X182850000Y-82900000D03*
%TD*%
D12*
%TO.C,RRin1*%
X168495000Y-77600000D03*
X170395000Y-77600000D03*
%TD*%
%TO.C,RPin1*%
X181395000Y-77600000D03*
X183295000Y-77600000D03*
%TD*%
D10*
%TO.C,JIn1*%
X144650000Y-73145000D03*
D11*
X142150000Y-73145000D03*
%TD*%
D12*
%TO.C,RTh1*%
X149240000Y-90750000D03*
X151140000Y-90750000D03*
%TD*%
%TO.C,RTh2*%
X140640000Y-90750000D03*
X142540000Y-90750000D03*
%TD*%
%TO.C,RIn2*%
X151200000Y-77600000D03*
X149300000Y-77600000D03*
%TD*%
%TO.C,RIn1*%
X142295000Y-77600000D03*
X144195000Y-77600000D03*
%TD*%
D10*
%TO.C,JPin1*%
X184050000Y-73145000D03*
D11*
X181550000Y-73145000D03*
%TD*%
D23*
%TO.C,JIn2*%
X148750000Y-73145000D03*
D11*
X151250000Y-73145000D03*
%TD*%
D23*
%TO.C,JMid2*%
X161850000Y-73145000D03*
D11*
X164350000Y-73145000D03*
%TD*%
D23*
%TO.C,JRin2*%
X175050000Y-73145000D03*
D11*
X177550000Y-73145000D03*
%TD*%
D24*
%TO.C,JTh2*%
X149290000Y-86600000D03*
D21*
X149290000Y-84100000D03*
%TD*%
M02*
