%TF.GenerationSoftware,KiCad,Pcbnew,9.0.2*%
%TF.CreationDate,2025-08-29T09:25:12+10:00*%
%TF.ProjectId,fsr_right,6673725f-7269-4676-9874-2e6b69636164,rev?*%
%TF.SameCoordinates,Original*%
%TF.FileFunction,Other,User*%
%FSLAX46Y46*%
G04 Gerber Fmt 4.6, Leading zero omitted, Abs format (unit mm)*
G04 Created by KiCad (PCBNEW 9.0.2) date 2025-08-29 09:25:12*
%MOMM*%
%LPD*%
G01*
G04 APERTURE LIST*
%ADD10C,0.050000*%
G04 APERTURE END LIST*
D10*
%TO.C,JMid1*%
X152400000Y-63445000D02*
X152400000Y-75955000D01*
X152400000Y-75955000D02*
X160800000Y-75955000D01*
X160800000Y-63445000D02*
X152400000Y-63445000D01*
X160800000Y-75955000D02*
X160800000Y-63445000D01*
%TO.C,JRin1*%
X165500000Y-63445000D02*
X165500000Y-75955000D01*
X165500000Y-75955000D02*
X173900000Y-75955000D01*
X173900000Y-63445000D02*
X165500000Y-63445000D01*
X173900000Y-75955000D02*
X173900000Y-63445000D01*
%TO.C,RMid2*%
X165255000Y-78650000D02*
X161345000Y-78650000D01*
X161345000Y-76550000D01*
X165255000Y-76550000D01*
X165255000Y-78650000D01*
%TO.C,U1*%
X178470000Y-81780000D02*
X157495000Y-81780000D01*
X157495000Y-99580000D01*
X178470000Y-99580000D01*
X178470000Y-81780000D01*
%TO.C,RRin2*%
X178455000Y-78650000D02*
X174545000Y-78650000D01*
X174545000Y-76550000D01*
X178455000Y-76550000D01*
X178455000Y-78650000D01*
%TO.C,SW2*%
X180700000Y-87750000D02*
X180700000Y-94650000D01*
X180700000Y-94650000D02*
X186200000Y-94650000D01*
X186200000Y-87750000D02*
X180700000Y-87750000D01*
X186200000Y-94650000D02*
X186200000Y-87750000D01*
%TO.C,RMid1*%
X154345000Y-76550000D02*
X158255000Y-76550000D01*
X158255000Y-78650000D01*
X154345000Y-78650000D01*
X154345000Y-76550000D01*
%TO.C,bat2*%
X179150000Y-96350000D02*
X179150000Y-101850000D01*
X179150000Y-101850000D02*
X186050000Y-101850000D01*
X186050000Y-96350000D02*
X179150000Y-96350000D01*
X186050000Y-101850000D02*
X186050000Y-96350000D01*
%TO.C,JTh1*%
X139645000Y-92100000D02*
X139645000Y-100500000D01*
X139645000Y-100500000D02*
X152155000Y-100500000D01*
X152155000Y-92100000D02*
X139645000Y-92100000D01*
X152155000Y-100500000D02*
X152155000Y-92100000D01*
%TO.C,C2*%
X177900000Y-103250000D02*
X173300000Y-103250000D01*
X173300000Y-100750000D01*
X177900000Y-100750000D01*
X177900000Y-103250000D01*
%TO.C,bat4*%
X180650000Y-80450000D02*
X180650000Y-87350000D01*
X180650000Y-87350000D02*
X186150000Y-87350000D01*
X186150000Y-80450000D02*
X180650000Y-80450000D01*
X186150000Y-87350000D02*
X186150000Y-80450000D01*
%TO.C,RRin1*%
X167445000Y-76550000D02*
X171355000Y-76550000D01*
X171355000Y-78650000D01*
X167445000Y-78650000D01*
X167445000Y-76550000D01*
%TO.C,RPin1*%
X180345000Y-76550000D02*
X184255000Y-76550000D01*
X184255000Y-78650000D01*
X180345000Y-78650000D01*
X180345000Y-76550000D01*
%TO.C,JIn1*%
X139200000Y-63445000D02*
X139200000Y-75955000D01*
X139200000Y-75955000D02*
X147600000Y-75955000D01*
X147600000Y-63445000D02*
X139200000Y-63445000D01*
X147600000Y-75955000D02*
X147600000Y-63445000D01*
%TO.C,RTh1*%
X148190000Y-89700000D02*
X152100000Y-89700000D01*
X152100000Y-91800000D01*
X148190000Y-91800000D01*
X148190000Y-89700000D01*
%TO.C,RTh2*%
X139590000Y-89700000D02*
X143500000Y-89700000D01*
X143500000Y-91800000D01*
X139590000Y-91800000D01*
X139590000Y-89700000D01*
%TO.C,RIn2*%
X152250000Y-78650000D02*
X148340000Y-78650000D01*
X148340000Y-76550000D01*
X152250000Y-76550000D01*
X152250000Y-78650000D01*
%TO.C,RIn1*%
X141245000Y-76550000D02*
X145155000Y-76550000D01*
X145155000Y-78650000D01*
X141245000Y-78650000D01*
X141245000Y-76550000D01*
%TO.C,JPin1*%
X178600000Y-63445000D02*
X178600000Y-75955000D01*
X178600000Y-75955000D02*
X187000000Y-75955000D01*
X187000000Y-63445000D02*
X178600000Y-63445000D01*
X187000000Y-75955000D02*
X187000000Y-63445000D01*
%TD*%
M02*
