%TF.GenerationSoftware,KiCad,Pcbnew,9.0.2*%
%TF.CreationDate,2025-08-29T09:25:12+10:00*%
%TF.ProjectId,fsr_right,6673725f-7269-4676-9874-2e6b69636164,rev?*%
%TF.SameCoordinates,Original*%
%TF.FileFunction,Copper,L1,Top*%
%TF.FilePolarity,Positive*%
%FSLAX46Y46*%
G04 Gerber Fmt 4.6, Leading zero omitted, Abs format (unit mm)*
G04 Created by KiCad (PCBNEW 9.0.2) date 2025-08-29 09:25:12*
%MOMM*%
%LPD*%
G01*
G04 APERTURE LIST*
G04 Aperture macros list*
%AMRoundRect*
0 Rectangle with rounded corners*
0 $1 Rounding radius*
0 $2 $3 $4 $5 $6 $7 $8 $9 X,Y pos of 4 corners*
0 Add a 4 corners polygon primitive as box body*
4,1,4,$2,$3,$4,$5,$6,$7,$8,$9,$2,$3,0*
0 Add four circle primitives for the rounded corners*
1,1,$1+$1,$2,$3*
1,1,$1+$1,$4,$5*
1,1,$1+$1,$6,$7*
1,1,$1+$1,$8,$9*
0 Add four rect primitives between the rounded corners*
20,1,$1+$1,$2,$3,$4,$5,0*
20,1,$1+$1,$4,$5,$6,$7,0*
20,1,$1+$1,$6,$7,$8,$9,0*
20,1,$1+$1,$8,$9,$2,$3,0*%
G04 Aperture macros list end*
%TA.AperFunction,ComponentPad*%
%ADD10RoundRect,0.250000X0.600000X0.750000X-0.600000X0.750000X-0.600000X-0.750000X0.600000X-0.750000X0*%
%TD*%
%TA.AperFunction,ComponentPad*%
%ADD11O,1.700000X2.000000*%
%TD*%
%TA.AperFunction,ComponentPad*%
%ADD12C,1.400000*%
%TD*%
%TA.AperFunction,SMDPad,CuDef*%
%ADD13RoundRect,0.152400X0.609600X-1.063600X0.609600X1.063600X-0.609600X1.063600X-0.609600X-1.063600X0*%
%TD*%
%TA.AperFunction,ComponentPad*%
%ADD14C,1.524000*%
%TD*%
%TA.AperFunction,SMDPad,CuDef*%
%ADD15RoundRect,0.152400X-0.609600X1.063600X-0.609600X-1.063600X0.609600X-1.063600X0.609600X1.063600X0*%
%TD*%
%TA.AperFunction,ComponentPad*%
%ADD16RoundRect,0.250000X0.625000X-0.350000X0.625000X0.350000X-0.625000X0.350000X-0.625000X-0.350000X0*%
%TD*%
%TA.AperFunction,ComponentPad*%
%ADD17O,1.750000X1.200000*%
%TD*%
%TA.AperFunction,ComponentPad*%
%ADD18RoundRect,0.250000X-0.350000X-0.625000X0.350000X-0.625000X0.350000X0.625000X-0.350000X0.625000X0*%
%TD*%
%TA.AperFunction,ComponentPad*%
%ADD19O,1.200000X1.750000*%
%TD*%
%TA.AperFunction,ComponentPad*%
%ADD20RoundRect,0.250000X-0.750000X0.600000X-0.750000X-0.600000X0.750000X-0.600000X0.750000X0.600000X0*%
%TD*%
%TA.AperFunction,ComponentPad*%
%ADD21O,2.000000X1.700000*%
%TD*%
%TA.AperFunction,ComponentPad*%
%ADD22C,1.600000*%
%TD*%
%TA.AperFunction,ComponentPad*%
%ADD23RoundRect,0.250000X-0.600000X-0.750000X0.600000X-0.750000X0.600000X0.750000X-0.600000X0.750000X0*%
%TD*%
%TA.AperFunction,ComponentPad*%
%ADD24RoundRect,0.250000X0.750000X-0.600000X0.750000X0.600000X-0.750000X0.600000X-0.750000X-0.600000X0*%
%TD*%
%TA.AperFunction,Conductor*%
%ADD25C,0.500000*%
%TD*%
G04 APERTURE END LIST*
D10*
%TO.P,JMid1,1,Pin_1*%
%TO.N,+3.3V*%
X157850000Y-73145000D03*
D11*
%TO.P,JMid1,2,Pin_2*%
%TO.N,/Mid1*%
X155350000Y-73145000D03*
%TD*%
D10*
%TO.P,JRin1,1,Pin_1*%
%TO.N,+3.3V*%
X170950000Y-73145000D03*
D11*
%TO.P,JRin1,2,Pin_2*%
%TO.N,/Rin1*%
X168450000Y-73145000D03*
%TD*%
D12*
%TO.P,RMid2,1*%
%TO.N,/Mid2*%
X164205000Y-77600000D03*
%TO.P,RMid2,2*%
%TO.N,GND*%
X162305000Y-77600000D03*
%TD*%
D13*
%TO.P,U1,1,PA02_A0_D0*%
%TO.N,/Th1*%
X175540000Y-82225000D03*
D14*
X175540000Y-83060000D03*
D13*
%TO.P,U1,2,PA4_A1_D1*%
%TO.N,/Th2*%
X173000000Y-82225000D03*
D14*
X173000000Y-83060000D03*
D13*
%TO.P,U1,3,PA10_A2_D2*%
%TO.N,/Mid2*%
X170460000Y-82225000D03*
D14*
X170460000Y-83060000D03*
D13*
%TO.P,U1,4,PA11_A3_D3*%
%TO.N,/Mid1*%
X167920000Y-82225000D03*
D14*
X167920000Y-83060000D03*
D13*
%TO.P,U1,5,PA8_A4_D4_SDA*%
%TO.N,/In2*%
X165380000Y-82225000D03*
D14*
X165380000Y-83060000D03*
D13*
%TO.P,U1,6,PA9_A5_D5_SCL*%
%TO.N,/In1*%
X162840000Y-82225000D03*
D14*
X162840000Y-83060000D03*
D13*
%TO.P,U1,7,PB08_A6_TX*%
%TO.N,unconnected-(U1-PB08_A6_TX-Pad7)_1*%
X160300000Y-82225000D03*
D14*
%TO.N,unconnected-(U1-PB08_A6_TX-Pad7)*%
X160300000Y-83060000D03*
%TO.P,U1,8,PB09_D7_RX*%
%TO.N,unconnected-(U1-PB09_D7_RX-Pad8)_1*%
X160300000Y-98300000D03*
D15*
%TO.N,unconnected-(U1-PB09_D7_RX-Pad8)*%
X160300000Y-99135000D03*
D14*
%TO.P,U1,9,PA7_A8_D8_SCK*%
%TO.N,/Rin1*%
X162840000Y-98300000D03*
D15*
X162840000Y-99135000D03*
D14*
%TO.P,U1,10,PA5_A9_D9_MISO*%
%TO.N,/Rin2*%
X165380000Y-98300000D03*
D15*
X165380000Y-99135000D03*
D14*
%TO.P,U1,11,PA6_A10_D10_MOSI*%
%TO.N,/Pin*%
X167920000Y-98300000D03*
D15*
X167920000Y-99135000D03*
D14*
%TO.P,U1,12,3V3*%
%TO.N,+3.3V*%
X170460000Y-98300000D03*
D15*
X170460000Y-99135000D03*
D14*
%TO.P,U1,13,GND*%
%TO.N,GND*%
X173000000Y-98300000D03*
D15*
X173000000Y-99135000D03*
D14*
%TO.P,U1,14,5V*%
%TO.N,unconnected-(U1-5V-Pad14)_1*%
X175540000Y-98300000D03*
D15*
%TO.N,unconnected-(U1-5V-Pad14)*%
X175540000Y-99135000D03*
%TD*%
D12*
%TO.P,RRin2,1*%
%TO.N,/Rin2*%
X177405000Y-77600000D03*
%TO.P,RRin2,2*%
%TO.N,GND*%
X175505000Y-77600000D03*
%TD*%
D16*
%TO.P,SW2,1,A*%
%TO.N,Net-(SW2A-A)*%
X182900000Y-92200000D03*
D17*
%TO.P,SW2,2,B*%
%TO.N,Net-(SW2A-B)*%
X182900000Y-90200000D03*
%TD*%
D12*
%TO.P,RMid1,1*%
%TO.N,/Mid1*%
X155395000Y-77600000D03*
%TO.P,RMid1,2*%
%TO.N,GND*%
X157295000Y-77600000D03*
%TD*%
D18*
%TO.P,bat2,1,3.7V*%
%TO.N,Net-(SW2A-A)*%
X181600000Y-98550000D03*
D19*
%TO.P,bat2,2,G*%
%TO.N,GND*%
X183600000Y-98550000D03*
%TD*%
D20*
%TO.P,JTh1,1,Pin_1*%
%TO.N,+3.3V*%
X149345000Y-95050000D03*
D21*
%TO.P,JTh1,2,Pin_2*%
%TO.N,/Th1*%
X149345000Y-97550000D03*
%TD*%
D22*
%TO.P,C2,1*%
%TO.N,Net-(SW2A-A)*%
X176850000Y-102000000D03*
%TO.P,C2,2*%
%TO.N,GND*%
X174350000Y-102000000D03*
%TD*%
D16*
%TO.P,bat4,1,3.7V*%
%TO.N,Net-(SW2A-B)*%
X182850000Y-84900000D03*
D17*
%TO.P,bat4,2,G*%
%TO.N,GND*%
X182850000Y-82900000D03*
%TD*%
D12*
%TO.P,RRin1,1*%
%TO.N,/Rin1*%
X168495000Y-77600000D03*
%TO.P,RRin1,2*%
%TO.N,GND*%
X170395000Y-77600000D03*
%TD*%
%TO.P,RPin1,1*%
%TO.N,/Pin*%
X181395000Y-77600000D03*
%TO.P,RPin1,2*%
%TO.N,GND*%
X183295000Y-77600000D03*
%TD*%
D10*
%TO.P,JIn1,1,Pin_1*%
%TO.N,+3.3V*%
X144650000Y-73145000D03*
D11*
%TO.P,JIn1,2,Pin_2*%
%TO.N,/In1*%
X142150000Y-73145000D03*
%TD*%
D12*
%TO.P,RTh1,1*%
%TO.N,/Th1*%
X149240000Y-90750000D03*
%TO.P,RTh1,2*%
%TO.N,GND*%
X151140000Y-90750000D03*
%TD*%
%TO.P,RTh2,1*%
%TO.N,/Th2*%
X140640000Y-90750000D03*
%TO.P,RTh2,2*%
%TO.N,GND*%
X142540000Y-90750000D03*
%TD*%
%TO.P,RIn2,1*%
%TO.N,/In2*%
X151200000Y-77600000D03*
%TO.P,RIn2,2*%
%TO.N,GND*%
X149300000Y-77600000D03*
%TD*%
%TO.P,RIn1,1*%
%TO.N,/In1*%
X142295000Y-77600000D03*
%TO.P,RIn1,2*%
%TO.N,GND*%
X144195000Y-77600000D03*
%TD*%
D10*
%TO.P,JPin1,1,Pin_1*%
%TO.N,+3.3V*%
X184050000Y-73145000D03*
D11*
%TO.P,JPin1,2,Pin_2*%
%TO.N,/Pin*%
X181550000Y-73145000D03*
%TD*%
D23*
%TO.P,JIn2,1,Pin_1*%
%TO.N,+3.3V*%
X148750000Y-73145000D03*
D11*
%TO.P,JIn2,2,Pin_2*%
%TO.N,/In2*%
X151250000Y-73145000D03*
%TD*%
D23*
%TO.P,JMid2,1,Pin_1*%
%TO.N,+3.3V*%
X161850000Y-73145000D03*
D11*
%TO.P,JMid2,2,Pin_2*%
%TO.N,/Mid2*%
X164350000Y-73145000D03*
%TD*%
D23*
%TO.P,JRin2,1,Pin_1*%
%TO.N,+3.3V*%
X175050000Y-73145000D03*
D11*
%TO.P,JRin2,2,Pin_2*%
%TO.N,/Rin2*%
X177550000Y-73145000D03*
%TD*%
D24*
%TO.P,JTh2,1,Pin_1*%
%TO.N,+3.3V*%
X149290000Y-86600000D03*
D21*
%TO.P,JTh2,2,Pin_2*%
%TO.N,/Th2*%
X149290000Y-84100000D03*
%TD*%
D25*
%TO.N,/In1*%
X151900000Y-81360000D02*
X146055000Y-81360000D01*
X142150000Y-73145000D02*
X142150000Y-77455000D01*
X156050000Y-85510000D02*
X151900000Y-81360000D01*
X162840000Y-83060000D02*
X160390000Y-85510000D01*
X160390000Y-85510000D02*
X156050000Y-85510000D01*
X146055000Y-81360000D02*
X142295000Y-77600000D01*
X142150000Y-77455000D02*
X142295000Y-77600000D01*
%TO.N,/In2*%
X151250000Y-77550000D02*
X151200000Y-77600000D01*
X163087630Y-79690000D02*
X165380000Y-81982370D01*
X151200000Y-77600000D02*
X153290000Y-79690000D01*
X165380000Y-81982370D02*
X165380000Y-83060000D01*
X151250000Y-73145000D02*
X151250000Y-77550000D01*
X153290000Y-79690000D02*
X163087630Y-79690000D01*
%TO.N,/Mid1*%
X155350000Y-73145000D02*
X155350000Y-77555000D01*
X155350000Y-73145000D02*
X161103000Y-78898000D01*
X161103000Y-78898000D02*
X164835630Y-78898000D01*
X167920000Y-81982370D02*
X167920000Y-83060000D01*
X155350000Y-77555000D02*
X155395000Y-77600000D01*
X164835630Y-78898000D02*
X167920000Y-81982370D01*
%TO.N,/Mid2*%
X164205000Y-77600000D02*
X165825758Y-77600000D01*
X165825758Y-77600000D02*
X170460000Y-82234242D01*
X170460000Y-82234242D02*
X170460000Y-83060000D01*
X164350000Y-77455000D02*
X164205000Y-77600000D01*
X164350000Y-73145000D02*
X164350000Y-77455000D01*
%TO.N,/Pin*%
X167920000Y-95080000D02*
X168900000Y-94100000D01*
X180200000Y-77600000D02*
X181395000Y-77600000D01*
X171500000Y-94100000D02*
X179300000Y-86300000D01*
X179300000Y-86300000D02*
X179300000Y-78500000D01*
X167920000Y-98300000D02*
X167920000Y-95080000D01*
X181550000Y-77445000D02*
X181395000Y-77600000D01*
X179300000Y-78500000D02*
X180200000Y-77600000D01*
X181550000Y-73145000D02*
X181550000Y-77445000D01*
X168900000Y-94100000D02*
X171500000Y-94100000D01*
%TO.N,/Rin1*%
X177400000Y-80800000D02*
X177400000Y-84400000D01*
X168450000Y-77555000D02*
X168495000Y-77600000D01*
X162840000Y-95760000D02*
X162840000Y-98300000D01*
X171453000Y-80558000D02*
X177158000Y-80558000D01*
X177158000Y-80558000D02*
X177400000Y-80800000D01*
X167100000Y-91500000D02*
X162840000Y-95760000D01*
X168450000Y-73145000D02*
X168450000Y-77555000D01*
X170300000Y-91500000D02*
X167100000Y-91500000D01*
X168495000Y-77600000D02*
X171453000Y-80558000D01*
X177400000Y-84400000D02*
X170300000Y-91500000D01*
%TO.N,/Rin2*%
X165380000Y-95220000D02*
X167800000Y-92800000D01*
X177550000Y-77455000D02*
X177405000Y-77600000D01*
X165380000Y-98300000D02*
X165380000Y-95220000D01*
X170900000Y-92800000D02*
X178105000Y-85595000D01*
X167800000Y-92800000D02*
X170900000Y-92800000D01*
X178105000Y-85595000D02*
X178105000Y-78300000D01*
X178105000Y-78300000D02*
X177405000Y-77600000D01*
X177550000Y-73145000D02*
X177550000Y-77455000D01*
%TO.N,/Th1*%
X151020000Y-88970000D02*
X169630000Y-88970000D01*
X169630000Y-88970000D02*
X175540000Y-83060000D01*
X145400000Y-96400000D02*
X146550000Y-97550000D01*
X145400000Y-93100000D02*
X145400000Y-96400000D01*
X149240000Y-90750000D02*
X151020000Y-88970000D01*
X147750000Y-90750000D02*
X145400000Y-93100000D01*
X146550000Y-97550000D02*
X149345000Y-97550000D01*
X149240000Y-90750000D02*
X147750000Y-90750000D01*
%TO.N,/Th2*%
X144100000Y-84100000D02*
X149290000Y-84100000D01*
X168620000Y-87440000D02*
X173000000Y-83060000D01*
X149290000Y-84100000D02*
X152630000Y-87440000D01*
X152630000Y-87440000D02*
X168620000Y-87440000D01*
X140640000Y-87560000D02*
X144100000Y-84100000D01*
X140640000Y-90750000D02*
X140640000Y-87560000D01*
%TD*%
%TA.AperFunction,Conductor*%
%TO.N,+3.3V*%
G36*
X186810887Y-70638446D02*
G01*
X186877661Y-70659002D01*
X186922723Y-70712398D01*
X186933221Y-70759081D01*
X187774820Y-101867087D01*
X187756955Y-101934634D01*
X187705408Y-101981800D01*
X187650121Y-101994438D01*
X178262073Y-101938129D01*
X178195153Y-101918042D01*
X178149716Y-101864965D01*
X178140344Y-101833529D01*
X178118477Y-101695466D01*
X178055220Y-101500781D01*
X178055218Y-101500778D01*
X178055218Y-101500776D01*
X178012470Y-101416880D01*
X177962287Y-101318390D01*
X177900690Y-101233608D01*
X177841971Y-101152786D01*
X177697213Y-101008028D01*
X177531613Y-100887715D01*
X177531612Y-100887714D01*
X177531610Y-100887713D01*
X177459553Y-100850998D01*
X177349223Y-100794781D01*
X177154534Y-100731522D01*
X176979995Y-100703878D01*
X176952352Y-100699500D01*
X176829295Y-100699500D01*
X176762256Y-100679815D01*
X176716501Y-100627011D01*
X176706557Y-100557853D01*
X176722563Y-100512379D01*
X176731758Y-100496830D01*
X176753564Y-100459959D01*
X176799587Y-100301548D01*
X176802500Y-100264534D01*
X176802500Y-98005466D01*
X176799587Y-97968452D01*
X176793194Y-97946446D01*
X176781568Y-97906429D01*
X176772432Y-97874983D01*
X180499500Y-97874983D01*
X180499500Y-99225001D01*
X180499501Y-99225018D01*
X180510000Y-99327796D01*
X180510001Y-99327799D01*
X180565185Y-99494331D01*
X180565187Y-99494336D01*
X180588870Y-99532732D01*
X180657288Y-99643656D01*
X180781344Y-99767712D01*
X180930666Y-99859814D01*
X181097203Y-99914999D01*
X181199991Y-99925500D01*
X182000008Y-99925499D01*
X182000016Y-99925498D01*
X182000019Y-99925498D01*
X182056302Y-99919748D01*
X182102797Y-99914999D01*
X182269334Y-99859814D01*
X182418656Y-99767712D01*
X182542712Y-99643656D01*
X182582310Y-99579456D01*
X182634258Y-99532732D01*
X182703220Y-99521509D01*
X182767303Y-99549352D01*
X182775530Y-99556872D01*
X182883072Y-99664414D01*
X183023212Y-99766232D01*
X183177555Y-99844873D01*
X183342299Y-99898402D01*
X183513389Y-99925500D01*
X183513390Y-99925500D01*
X183686610Y-99925500D01*
X183686611Y-99925500D01*
X183857701Y-99898402D01*
X184022445Y-99844873D01*
X184176788Y-99766232D01*
X184316928Y-99664414D01*
X184439414Y-99541928D01*
X184541232Y-99401788D01*
X184619873Y-99247445D01*
X184673402Y-99082701D01*
X184700500Y-98911611D01*
X184700500Y-98188389D01*
X184673402Y-98017299D01*
X184619873Y-97852555D01*
X184541232Y-97698212D01*
X184439414Y-97558072D01*
X184316928Y-97435586D01*
X184176788Y-97333768D01*
X184080553Y-97284734D01*
X184022447Y-97255128D01*
X184022446Y-97255127D01*
X184022445Y-97255127D01*
X183857701Y-97201598D01*
X183857699Y-97201597D01*
X183857698Y-97201597D01*
X183726271Y-97180781D01*
X183686611Y-97174500D01*
X183513389Y-97174500D01*
X183473728Y-97180781D01*
X183342302Y-97201597D01*
X183177552Y-97255128D01*
X183023211Y-97333768D01*
X182883073Y-97435585D01*
X182775530Y-97543128D01*
X182714207Y-97576612D01*
X182644515Y-97571628D01*
X182588582Y-97529756D01*
X182582310Y-97520543D01*
X182555783Y-97477536D01*
X182542712Y-97456344D01*
X182418656Y-97332288D01*
X182293559Y-97255128D01*
X182269336Y-97240187D01*
X182269331Y-97240185D01*
X182267862Y-97239698D01*
X182102797Y-97185001D01*
X182102795Y-97185000D01*
X182000010Y-97174500D01*
X181199998Y-97174500D01*
X181199980Y-97174501D01*
X181097203Y-97185000D01*
X181097200Y-97185001D01*
X180930668Y-97240185D01*
X180930663Y-97240187D01*
X180781342Y-97332289D01*
X180657289Y-97456342D01*
X180565187Y-97605663D01*
X180565186Y-97605666D01*
X180510001Y-97772203D01*
X180510001Y-97772204D01*
X180510000Y-97772204D01*
X180499500Y-97874983D01*
X176772432Y-97874983D01*
X176753565Y-97810045D01*
X176753564Y-97810042D01*
X176753564Y-97810041D01*
X176683675Y-97691866D01*
X176669594Y-97668056D01*
X176669590Y-97668051D01*
X176657825Y-97656286D01*
X176573390Y-97571851D01*
X176560758Y-97557060D01*
X176502984Y-97477539D01*
X176362466Y-97337021D01*
X176362465Y-97337020D01*
X176362464Y-97337019D01*
X176201694Y-97220213D01*
X176024632Y-97129994D01*
X176024629Y-97129993D01*
X175835637Y-97068587D01*
X175737498Y-97053043D01*
X175639361Y-97037500D01*
X175440639Y-97037500D01*
X175375214Y-97047862D01*
X175244362Y-97068587D01*
X175055370Y-97129993D01*
X175055367Y-97129994D01*
X174878305Y-97220213D01*
X174717533Y-97337021D01*
X174577018Y-97477536D01*
X174519239Y-97557061D01*
X174513960Y-97563821D01*
X174510446Y-97568013D01*
X174410408Y-97668053D01*
X174371564Y-97733733D01*
X174365038Y-97741521D01*
X174344076Y-97755485D01*
X174325662Y-97772679D01*
X174315492Y-97774528D01*
X174306891Y-97780259D01*
X174281703Y-97780674D01*
X174256921Y-97785182D01*
X174247366Y-97781240D01*
X174237031Y-97781411D01*
X174215616Y-97768142D01*
X174192331Y-97758536D01*
X174183308Y-97748123D01*
X174177638Y-97744610D01*
X174174426Y-97737873D01*
X174163268Y-97724996D01*
X174147428Y-97698212D01*
X174129592Y-97668053D01*
X174033390Y-97571851D01*
X174020758Y-97557060D01*
X173962984Y-97477539D01*
X173822466Y-97337021D01*
X173822465Y-97337020D01*
X173822464Y-97337019D01*
X173661694Y-97220213D01*
X173484632Y-97129994D01*
X173484629Y-97129993D01*
X173295637Y-97068587D01*
X173197498Y-97053043D01*
X173099361Y-97037500D01*
X172900639Y-97037500D01*
X172835214Y-97047862D01*
X172704362Y-97068587D01*
X172515370Y-97129993D01*
X172515367Y-97129994D01*
X172338305Y-97220213D01*
X172177533Y-97337021D01*
X172037018Y-97477536D01*
X171979239Y-97557061D01*
X171973992Y-97563784D01*
X171970469Y-97567990D01*
X171870408Y-97668053D01*
X171831285Y-97734204D01*
X171824779Y-97741975D01*
X171803798Y-97755964D01*
X171785371Y-97773170D01*
X171775227Y-97775015D01*
X171766647Y-97780736D01*
X171741433Y-97781161D01*
X171716629Y-97785673D01*
X171707097Y-97781740D01*
X171696787Y-97781915D01*
X171675347Y-97768642D01*
X171652040Y-97759027D01*
X171643043Y-97748643D01*
X171637380Y-97745138D01*
X171634161Y-97738393D01*
X171622977Y-97725486D01*
X171589195Y-97668364D01*
X171589192Y-97668360D01*
X171517191Y-97596360D01*
X170897647Y-98215904D01*
X170874208Y-98128429D01*
X170815689Y-98027070D01*
X170732930Y-97944311D01*
X170631571Y-97885792D01*
X170544094Y-97862352D01*
X171158716Y-97247731D01*
X171158715Y-97247730D01*
X171121432Y-97220641D01*
X170944437Y-97130457D01*
X170755522Y-97069075D01*
X170559321Y-97038000D01*
X170360679Y-97038000D01*
X170164479Y-97069075D01*
X170164476Y-97069075D01*
X169975562Y-97130457D01*
X169798564Y-97220643D01*
X169761283Y-97247729D01*
X169761282Y-97247730D01*
X170375906Y-97862352D01*
X170288429Y-97885792D01*
X170187070Y-97944311D01*
X170104311Y-98027070D01*
X170045792Y-98128429D01*
X170022352Y-98215905D01*
X169402807Y-97596360D01*
X169330810Y-97668357D01*
X169330800Y-97668370D01*
X169297021Y-97725487D01*
X169245952Y-97773170D01*
X169177210Y-97785673D01*
X169112621Y-97759027D01*
X169095220Y-97741975D01*
X169088716Y-97734208D01*
X169049592Y-97668053D01*
X168949518Y-97567979D01*
X168946007Y-97563786D01*
X168945489Y-97562600D01*
X168940758Y-97557060D01*
X168882984Y-97477539D01*
X168790349Y-97384904D01*
X168742464Y-97337019D01*
X168716273Y-97317990D01*
X168711380Y-97313570D01*
X168696413Y-97289189D01*
X168678949Y-97266540D01*
X168677379Y-97258181D01*
X168674827Y-97254024D01*
X168675002Y-97245526D01*
X168670500Y-97221553D01*
X168670500Y-95442229D01*
X168690185Y-95375190D01*
X168706819Y-95354548D01*
X169174548Y-94886819D01*
X169235871Y-94853334D01*
X169262229Y-94850500D01*
X171573920Y-94850500D01*
X171671462Y-94831096D01*
X171718913Y-94821658D01*
X171855495Y-94765084D01*
X171904729Y-94732186D01*
X171918041Y-94723292D01*
X171931970Y-94713985D01*
X171978416Y-94682952D01*
X176547980Y-90113388D01*
X181524500Y-90113388D01*
X181524500Y-90113389D01*
X181524500Y-90286611D01*
X181551598Y-90457701D01*
X181605127Y-90622445D01*
X181683768Y-90776788D01*
X181785586Y-90916928D01*
X181785588Y-90916930D01*
X181893127Y-91024469D01*
X181926612Y-91085792D01*
X181921628Y-91155484D01*
X181879756Y-91211417D01*
X181870544Y-91217688D01*
X181806344Y-91257287D01*
X181682289Y-91381342D01*
X181590187Y-91530663D01*
X181590185Y-91530668D01*
X181572034Y-91585444D01*
X181535001Y-91697203D01*
X181535001Y-91697204D01*
X181535000Y-91697204D01*
X181524500Y-91799983D01*
X181524500Y-92600001D01*
X181524501Y-92600019D01*
X181535000Y-92702796D01*
X181535001Y-92702799D01*
X181590185Y-92869331D01*
X181590187Y-92869336D01*
X181597435Y-92881087D01*
X181682288Y-93018656D01*
X181806344Y-93142712D01*
X181955666Y-93234814D01*
X182122203Y-93289999D01*
X182224991Y-93300500D01*
X183575008Y-93300499D01*
X183677797Y-93289999D01*
X183844334Y-93234814D01*
X183993656Y-93142712D01*
X184117712Y-93018656D01*
X184209814Y-92869334D01*
X184264999Y-92702797D01*
X184275500Y-92600009D01*
X184275499Y-91799992D01*
X184264999Y-91697203D01*
X184209814Y-91530666D01*
X184117712Y-91381344D01*
X183993656Y-91257288D01*
X183993652Y-91257285D01*
X183929456Y-91217688D01*
X183882731Y-91165740D01*
X183871510Y-91096777D01*
X183899353Y-91032695D01*
X183906850Y-91024491D01*
X184014414Y-90916928D01*
X184116232Y-90776788D01*
X184194873Y-90622445D01*
X184248402Y-90457701D01*
X184275500Y-90286611D01*
X184275500Y-90113389D01*
X184248402Y-89942299D01*
X184194873Y-89777555D01*
X184116232Y-89623212D01*
X184014414Y-89483072D01*
X183891928Y-89360586D01*
X183751788Y-89258768D01*
X183597445Y-89180127D01*
X183432701Y-89126598D01*
X183432699Y-89126597D01*
X183432698Y-89126597D01*
X183301271Y-89105781D01*
X183261611Y-89099500D01*
X182538389Y-89099500D01*
X182498728Y-89105781D01*
X182367302Y-89126597D01*
X182202552Y-89180128D01*
X182048211Y-89258768D01*
X181968256Y-89316859D01*
X181908072Y-89360586D01*
X181908070Y-89360588D01*
X181908069Y-89360588D01*
X181785588Y-89483069D01*
X181785588Y-89483070D01*
X181785586Y-89483072D01*
X181741859Y-89543256D01*
X181683768Y-89623211D01*
X181605128Y-89777552D01*
X181605127Y-89777554D01*
X181605127Y-89777555D01*
X181597455Y-89801166D01*
X181551597Y-89942302D01*
X181524500Y-90113388D01*
X176547980Y-90113388D01*
X179882952Y-86778416D01*
X179932186Y-86704729D01*
X179965084Y-86655495D01*
X180021658Y-86518913D01*
X180031096Y-86471462D01*
X180050500Y-86373920D01*
X180050500Y-82813389D01*
X181474500Y-82813389D01*
X181474500Y-82986611D01*
X181501598Y-83157701D01*
X181555127Y-83322445D01*
X181633768Y-83476788D01*
X181735586Y-83616928D01*
X181735588Y-83616930D01*
X181843127Y-83724469D01*
X181876612Y-83785792D01*
X181871628Y-83855484D01*
X181829756Y-83911417D01*
X181820544Y-83917688D01*
X181756344Y-83957287D01*
X181632289Y-84081342D01*
X181540187Y-84230663D01*
X181540186Y-84230666D01*
X181485001Y-84397203D01*
X181485001Y-84397204D01*
X181485000Y-84397204D01*
X181474500Y-84499983D01*
X181474500Y-85300001D01*
X181474501Y-85300019D01*
X181485000Y-85402796D01*
X181485001Y-85402799D01*
X181499320Y-85446009D01*
X181540186Y-85569334D01*
X181632288Y-85718656D01*
X181756344Y-85842712D01*
X181905666Y-85934814D01*
X182072203Y-85989999D01*
X182174991Y-86000500D01*
X183525008Y-86000499D01*
X183627797Y-85989999D01*
X183794334Y-85934814D01*
X183943656Y-85842712D01*
X184067712Y-85718656D01*
X184159814Y-85569334D01*
X184214999Y-85402797D01*
X184225500Y-85300009D01*
X184225499Y-84499992D01*
X184222376Y-84469423D01*
X184214999Y-84397203D01*
X184214998Y-84397200D01*
X184189179Y-84319284D01*
X184159814Y-84230666D01*
X184067712Y-84081344D01*
X183943656Y-83957288D01*
X183943652Y-83957285D01*
X183879456Y-83917688D01*
X183832731Y-83865740D01*
X183821510Y-83796777D01*
X183849353Y-83732695D01*
X183856850Y-83724491D01*
X183964414Y-83616928D01*
X184066232Y-83476788D01*
X184144873Y-83322445D01*
X184198402Y-83157701D01*
X184225500Y-82986611D01*
X184225500Y-82813389D01*
X184198402Y-82642299D01*
X184144873Y-82477555D01*
X184066232Y-82323212D01*
X183964414Y-82183072D01*
X183841928Y-82060586D01*
X183701788Y-81958768D01*
X183547445Y-81880127D01*
X183382701Y-81826598D01*
X183382699Y-81826597D01*
X183382698Y-81826597D01*
X183251271Y-81805781D01*
X183211611Y-81799500D01*
X182488389Y-81799500D01*
X182448728Y-81805781D01*
X182317302Y-81826597D01*
X182152552Y-81880128D01*
X181998211Y-81958768D01*
X181952220Y-81992183D01*
X181858072Y-82060586D01*
X181858070Y-82060588D01*
X181858069Y-82060588D01*
X181735588Y-82183069D01*
X181735588Y-82183070D01*
X181735586Y-82183072D01*
X181691859Y-82243256D01*
X181633768Y-82323211D01*
X181555128Y-82477552D01*
X181501597Y-82642302D01*
X181484619Y-82749500D01*
X181474500Y-82813389D01*
X180050500Y-82813389D01*
X180050500Y-78862228D01*
X180070185Y-78795189D01*
X180086815Y-78774551D01*
X180391622Y-78469743D01*
X180452943Y-78436260D01*
X180522634Y-78441244D01*
X180566982Y-78469745D01*
X180612927Y-78515690D01*
X180765801Y-78626760D01*
X180845347Y-78667290D01*
X180934163Y-78712545D01*
X180934165Y-78712545D01*
X180934168Y-78712547D01*
X181030497Y-78743846D01*
X181113881Y-78770940D01*
X181300514Y-78800500D01*
X181300519Y-78800500D01*
X181489486Y-78800500D01*
X181676118Y-78770940D01*
X181714755Y-78758386D01*
X181855832Y-78712547D01*
X182024199Y-78626760D01*
X182177073Y-78515690D01*
X182257319Y-78435444D01*
X182318642Y-78401959D01*
X182388334Y-78406943D01*
X182432681Y-78435444D01*
X182512927Y-78515690D01*
X182665801Y-78626760D01*
X182745347Y-78667290D01*
X182834163Y-78712545D01*
X182834165Y-78712545D01*
X182834168Y-78712547D01*
X182930497Y-78743846D01*
X183013881Y-78770940D01*
X183200514Y-78800500D01*
X183200519Y-78800500D01*
X183389486Y-78800500D01*
X183576118Y-78770940D01*
X183614755Y-78758386D01*
X183755832Y-78712547D01*
X183924199Y-78626760D01*
X184077073Y-78515690D01*
X184210690Y-78382073D01*
X184321760Y-78229199D01*
X184407547Y-78060832D01*
X184465940Y-77881118D01*
X184483382Y-77770993D01*
X184495500Y-77694486D01*
X184495500Y-77505513D01*
X184465940Y-77318881D01*
X184407545Y-77139163D01*
X184321759Y-76970800D01*
X184295690Y-76934919D01*
X184210690Y-76817927D01*
X184077073Y-76684310D01*
X183924199Y-76573240D01*
X183908999Y-76565495D01*
X183755836Y-76487454D01*
X183576118Y-76429059D01*
X183389486Y-76399500D01*
X183389481Y-76399500D01*
X183200519Y-76399500D01*
X183200514Y-76399500D01*
X183013881Y-76429059D01*
X182834163Y-76487454D01*
X182665800Y-76573240D01*
X182584113Y-76632590D01*
X182512927Y-76684310D01*
X182512925Y-76684312D01*
X182512924Y-76684312D01*
X182512181Y-76685056D01*
X182511829Y-76685248D01*
X182509223Y-76687474D01*
X182508755Y-76686926D01*
X182450858Y-76718541D01*
X182381166Y-76713557D01*
X182325233Y-76671685D01*
X182300816Y-76606221D01*
X182300500Y-76597375D01*
X182300500Y-74482220D01*
X182320185Y-74415181D01*
X182351614Y-74381902D01*
X182429792Y-74325104D01*
X182568967Y-74185928D01*
X182630286Y-74152446D01*
X182699978Y-74157430D01*
X182755912Y-74199301D01*
X182762184Y-74208515D01*
X182857684Y-74363345D01*
X182981654Y-74487315D01*
X183130875Y-74579356D01*
X183130880Y-74579358D01*
X183297302Y-74634505D01*
X183297309Y-74634506D01*
X183400019Y-74644999D01*
X183799999Y-74644999D01*
X183800000Y-74644998D01*
X183800000Y-73578012D01*
X183857007Y-73610925D01*
X183984174Y-73645000D01*
X184115826Y-73645000D01*
X184242993Y-73610925D01*
X184300000Y-73578012D01*
X184300000Y-74644999D01*
X184699972Y-74644999D01*
X184699986Y-74644998D01*
X184802697Y-74634505D01*
X184969119Y-74579358D01*
X184969124Y-74579356D01*
X185118345Y-74487315D01*
X185242315Y-74363345D01*
X185334356Y-74214124D01*
X185334358Y-74214119D01*
X185389505Y-74047697D01*
X185389506Y-74047690D01*
X185399999Y-73944986D01*
X185400000Y-73944973D01*
X185400000Y-73395000D01*
X184483012Y-73395000D01*
X184515925Y-73337993D01*
X184550000Y-73210826D01*
X184550000Y-73079174D01*
X184515925Y-72952007D01*
X184483012Y-72895000D01*
X185399999Y-72895000D01*
X185399999Y-72345028D01*
X185399998Y-72345013D01*
X185389505Y-72242302D01*
X185334358Y-72075880D01*
X185334356Y-72075875D01*
X185242315Y-71926654D01*
X185118345Y-71802684D01*
X184969124Y-71710643D01*
X184969119Y-71710641D01*
X184802697Y-71655494D01*
X184802690Y-71655493D01*
X184699986Y-71645000D01*
X184300000Y-71645000D01*
X184300000Y-72711988D01*
X184242993Y-72679075D01*
X184115826Y-72645000D01*
X183984174Y-72645000D01*
X183857007Y-72679075D01*
X183800000Y-72711988D01*
X183800000Y-71645000D01*
X183400028Y-71645000D01*
X183400012Y-71645001D01*
X183297302Y-71655494D01*
X183130880Y-71710641D01*
X183130875Y-71710643D01*
X182981654Y-71802684D01*
X182857683Y-71926655D01*
X182857680Y-71926659D01*
X182762183Y-72081484D01*
X182710235Y-72128209D01*
X182641273Y-72139430D01*
X182577191Y-72111587D01*
X182568964Y-72104068D01*
X182429786Y-71964890D01*
X182257820Y-71839951D01*
X182068414Y-71743444D01*
X182068413Y-71743443D01*
X182068412Y-71743443D01*
X181866243Y-71677754D01*
X181866241Y-71677753D01*
X181866240Y-71677753D01*
X181704957Y-71652208D01*
X181656287Y-71644500D01*
X181443713Y-71644500D01*
X181395042Y-71652208D01*
X181233760Y-71677753D01*
X181031585Y-71743444D01*
X180842179Y-71839951D01*
X180670213Y-71964890D01*
X180519890Y-72115213D01*
X180394951Y-72287179D01*
X180298444Y-72476585D01*
X180232753Y-72678760D01*
X180199500Y-72888713D01*
X180199500Y-73401286D01*
X180232703Y-73610925D01*
X180232754Y-73611243D01*
X180243722Y-73645000D01*
X180298444Y-73813414D01*
X180394951Y-74002820D01*
X180519890Y-74174786D01*
X180519896Y-74174792D01*
X180670208Y-74325104D01*
X180748384Y-74381902D01*
X180791051Y-74437231D01*
X180799500Y-74482220D01*
X180799500Y-76485575D01*
X180779815Y-76552614D01*
X180748386Y-76585892D01*
X180612927Y-76684310D01*
X180612925Y-76684312D01*
X180612924Y-76684312D01*
X180484056Y-76813181D01*
X180422733Y-76846666D01*
X180396375Y-76849500D01*
X180126080Y-76849500D01*
X179981092Y-76878340D01*
X179981082Y-76878343D01*
X179844511Y-76934912D01*
X179844498Y-76934919D01*
X179721584Y-77017048D01*
X179721580Y-77017051D01*
X178886554Y-77852077D01*
X178825231Y-77885562D01*
X178755539Y-77880578D01*
X178706949Y-77847619D01*
X178700833Y-77840864D01*
X178687951Y-77821584D01*
X178639641Y-77773274D01*
X178637576Y-77770993D01*
X178623655Y-77742186D01*
X178608334Y-77714128D01*
X178607829Y-77709439D01*
X178607175Y-77708084D01*
X178607445Y-77705862D01*
X178605500Y-77687770D01*
X178605500Y-77505513D01*
X178575940Y-77318881D01*
X178517545Y-77139163D01*
X178431759Y-76970800D01*
X178364584Y-76878342D01*
X178324181Y-76822732D01*
X178300702Y-76756928D01*
X178300500Y-76749848D01*
X178300500Y-74482220D01*
X178320185Y-74415181D01*
X178351614Y-74381902D01*
X178429792Y-74325104D01*
X178580104Y-74174792D01*
X178580106Y-74174788D01*
X178580109Y-74174786D01*
X178705048Y-74002820D01*
X178705047Y-74002820D01*
X178705051Y-74002816D01*
X178801557Y-73813412D01*
X178867246Y-73611243D01*
X178900500Y-73401287D01*
X178900500Y-72888713D01*
X178867246Y-72678757D01*
X178801557Y-72476588D01*
X178705051Y-72287184D01*
X178705049Y-72287181D01*
X178705048Y-72287179D01*
X178580109Y-72115213D01*
X178429786Y-71964890D01*
X178257820Y-71839951D01*
X178068414Y-71743444D01*
X178068413Y-71743443D01*
X178068412Y-71743443D01*
X177866243Y-71677754D01*
X177866241Y-71677753D01*
X177866240Y-71677753D01*
X177704957Y-71652208D01*
X177656287Y-71644500D01*
X177443713Y-71644500D01*
X177395042Y-71652208D01*
X177233760Y-71677753D01*
X177031585Y-71743444D01*
X176842179Y-71839951D01*
X176670215Y-71964889D01*
X176531035Y-72104069D01*
X176469712Y-72137553D01*
X176400020Y-72132569D01*
X176344087Y-72090697D01*
X176337815Y-72081484D01*
X176242315Y-71926654D01*
X176118345Y-71802684D01*
X175969124Y-71710643D01*
X175969119Y-71710641D01*
X175802697Y-71655494D01*
X175802690Y-71655493D01*
X175699986Y-71645000D01*
X175300000Y-71645000D01*
X175300000Y-72711988D01*
X175242993Y-72679075D01*
X175115826Y-72645000D01*
X174984174Y-72645000D01*
X174857007Y-72679075D01*
X174800000Y-72711988D01*
X174800000Y-71645000D01*
X174400028Y-71645000D01*
X174400012Y-71645001D01*
X174297302Y-71655494D01*
X174130880Y-71710641D01*
X174130875Y-71710643D01*
X173981654Y-71802684D01*
X173857684Y-71926654D01*
X173765643Y-72075875D01*
X173765641Y-72075880D01*
X173710494Y-72242302D01*
X173710493Y-72242309D01*
X173700000Y-72345013D01*
X173700000Y-72895000D01*
X174616988Y-72895000D01*
X174584075Y-72952007D01*
X174550000Y-73079174D01*
X174550000Y-73210826D01*
X174584075Y-73337993D01*
X174616988Y-73395000D01*
X173700001Y-73395000D01*
X173700001Y-73944986D01*
X173710494Y-74047697D01*
X173765641Y-74214119D01*
X173765643Y-74214124D01*
X173857684Y-74363345D01*
X173981654Y-74487315D01*
X174130875Y-74579356D01*
X174130880Y-74579358D01*
X174297302Y-74634505D01*
X174297309Y-74634506D01*
X174400019Y-74644999D01*
X174799999Y-74644999D01*
X174800000Y-74644998D01*
X174800000Y-73578012D01*
X174857007Y-73610925D01*
X174984174Y-73645000D01*
X175115826Y-73645000D01*
X175242993Y-73610925D01*
X175300000Y-73578012D01*
X175300000Y-74644999D01*
X175699972Y-74644999D01*
X175699986Y-74644998D01*
X175802697Y-74634505D01*
X175969119Y-74579358D01*
X175969124Y-74579356D01*
X176118345Y-74487315D01*
X176242317Y-74363343D01*
X176337815Y-74208516D01*
X176389763Y-74161791D01*
X176458725Y-74150568D01*
X176522808Y-74178412D01*
X176531035Y-74185931D01*
X176670208Y-74325104D01*
X176748384Y-74381902D01*
X176791051Y-74437231D01*
X176799500Y-74482220D01*
X176799500Y-76492840D01*
X176779815Y-76559879D01*
X176748386Y-76593158D01*
X176622925Y-76684311D01*
X176622924Y-76684312D01*
X176542681Y-76764556D01*
X176481358Y-76798041D01*
X176411666Y-76793057D01*
X176367319Y-76764556D01*
X176287075Y-76684312D01*
X176287074Y-76684311D01*
X176287073Y-76684310D01*
X176134199Y-76573240D01*
X176118999Y-76565495D01*
X175965836Y-76487454D01*
X175786118Y-76429059D01*
X175599486Y-76399500D01*
X175599481Y-76399500D01*
X175410519Y-76399500D01*
X175410514Y-76399500D01*
X175223881Y-76429059D01*
X175044163Y-76487454D01*
X174875800Y-76573240D01*
X174794113Y-76632590D01*
X174722927Y-76684310D01*
X174722925Y-76684312D01*
X174722924Y-76684312D01*
X174589312Y-76817924D01*
X174589312Y-76817925D01*
X174589310Y-76817927D01*
X174580673Y-76829815D01*
X174478240Y-76970800D01*
X174392454Y-77139163D01*
X174334059Y-77318881D01*
X174304500Y-77505513D01*
X174304500Y-77694486D01*
X174334059Y-77881118D01*
X174392454Y-78060836D01*
X174428287Y-78131161D01*
X174478240Y-78229199D01*
X174589310Y-78382073D01*
X174722927Y-78515690D01*
X174875801Y-78626760D01*
X174955347Y-78667290D01*
X175044163Y-78712545D01*
X175044165Y-78712545D01*
X175044168Y-78712547D01*
X175140497Y-78743846D01*
X175223881Y-78770940D01*
X175410514Y-78800500D01*
X175410519Y-78800500D01*
X175599486Y-78800500D01*
X175786118Y-78770940D01*
X175824755Y-78758386D01*
X175965832Y-78712547D01*
X176134199Y-78626760D01*
X176287073Y-78515690D01*
X176367319Y-78435444D01*
X176428642Y-78401959D01*
X176498334Y-78406943D01*
X176542681Y-78435444D01*
X176622927Y-78515690D01*
X176775801Y-78626760D01*
X176855347Y-78667290D01*
X176944163Y-78712545D01*
X176944165Y-78712545D01*
X176944168Y-78712547D01*
X177040497Y-78743846D01*
X177123881Y-78770940D01*
X177249898Y-78790899D01*
X177313033Y-78820828D01*
X177349964Y-78880140D01*
X177354500Y-78913372D01*
X177354500Y-79683500D01*
X177334815Y-79750539D01*
X177282011Y-79796294D01*
X177230500Y-79807500D01*
X171815230Y-79807500D01*
X171748191Y-79787815D01*
X171727549Y-79771181D01*
X170852690Y-78896322D01*
X170819205Y-78834999D01*
X170824189Y-78765307D01*
X170866061Y-78709374D01*
X170884076Y-78698156D01*
X170926162Y-78676712D01*
X171024199Y-78626760D01*
X171177073Y-78515690D01*
X171310690Y-78382073D01*
X171421760Y-78229199D01*
X171507547Y-78060832D01*
X171565940Y-77881118D01*
X171583382Y-77770993D01*
X171595500Y-77694486D01*
X171595500Y-77505513D01*
X171565940Y-77318881D01*
X171507545Y-77139163D01*
X171421759Y-76970800D01*
X171395690Y-76934919D01*
X171310690Y-76817927D01*
X171177073Y-76684310D01*
X171024199Y-76573240D01*
X171008999Y-76565495D01*
X170855836Y-76487454D01*
X170676118Y-76429059D01*
X170489486Y-76399500D01*
X170489481Y-76399500D01*
X170300519Y-76399500D01*
X170300514Y-76399500D01*
X170113881Y-76429059D01*
X169934163Y-76487454D01*
X169765800Y-76573240D01*
X169684113Y-76632590D01*
X169612927Y-76684310D01*
X169612925Y-76684312D01*
X169612924Y-76684312D01*
X169532681Y-76764556D01*
X169526894Y-76767715D01*
X169523154Y-76773145D01*
X169496609Y-76784252D01*
X169471358Y-76798041D01*
X169464782Y-76797570D01*
X169458700Y-76800116D01*
X169430364Y-76795109D01*
X169401666Y-76793057D01*
X169394783Y-76788822D01*
X169389896Y-76787959D01*
X169369114Y-76773029D01*
X169360832Y-76767934D01*
X169359048Y-76766285D01*
X169277073Y-76684310D01*
X169245701Y-76661516D01*
X169240332Y-76656554D01*
X169225996Y-76632590D01*
X169208948Y-76610481D01*
X169207199Y-76601168D01*
X169204463Y-76596595D01*
X169204737Y-76588057D01*
X169200500Y-76565495D01*
X169200500Y-74482220D01*
X169220185Y-74415181D01*
X169251614Y-74381902D01*
X169329792Y-74325104D01*
X169468967Y-74185928D01*
X169530286Y-74152446D01*
X169599978Y-74157430D01*
X169655912Y-74199301D01*
X169662184Y-74208515D01*
X169757684Y-74363345D01*
X169881654Y-74487315D01*
X170030875Y-74579356D01*
X170030880Y-74579358D01*
X170197302Y-74634505D01*
X170197309Y-74634506D01*
X170300019Y-74644999D01*
X170699999Y-74644999D01*
X170700000Y-74644998D01*
X170700000Y-73578012D01*
X170757007Y-73610925D01*
X170884174Y-73645000D01*
X171015826Y-73645000D01*
X171142993Y-73610925D01*
X171200000Y-73578012D01*
X171200000Y-74644999D01*
X171599972Y-74644999D01*
X171599986Y-74644998D01*
X171702697Y-74634505D01*
X171869119Y-74579358D01*
X171869124Y-74579356D01*
X172018345Y-74487315D01*
X172142315Y-74363345D01*
X172234356Y-74214124D01*
X172234358Y-74214119D01*
X172289505Y-74047697D01*
X172289506Y-74047690D01*
X172299999Y-73944986D01*
X172300000Y-73944973D01*
X172300000Y-73395000D01*
X171383012Y-73395000D01*
X171415925Y-73337993D01*
X171450000Y-73210826D01*
X171450000Y-73079174D01*
X171415925Y-72952007D01*
X171383012Y-72895000D01*
X172299999Y-72895000D01*
X172299999Y-72345029D01*
X172299998Y-72345012D01*
X172289505Y-72242302D01*
X172234358Y-72075880D01*
X172234356Y-72075875D01*
X172142315Y-71926654D01*
X172018345Y-71802684D01*
X171869124Y-71710643D01*
X171869119Y-71710641D01*
X171702697Y-71655494D01*
X171702690Y-71655493D01*
X171599986Y-71645000D01*
X171200000Y-71645000D01*
X171200000Y-72711988D01*
X171142993Y-72679075D01*
X171015826Y-72645000D01*
X170884174Y-72645000D01*
X170757007Y-72679075D01*
X170700000Y-72711988D01*
X170700000Y-71645000D01*
X170300028Y-71645000D01*
X170300012Y-71645001D01*
X170197302Y-71655494D01*
X170030880Y-71710641D01*
X170030875Y-71710643D01*
X169881654Y-71802684D01*
X169757683Y-71926655D01*
X169757680Y-71926659D01*
X169662183Y-72081484D01*
X169610235Y-72128209D01*
X169541273Y-72139430D01*
X169477191Y-72111587D01*
X169468964Y-72104068D01*
X169329786Y-71964890D01*
X169157820Y-71839951D01*
X168968414Y-71743444D01*
X168968413Y-71743443D01*
X168968412Y-71743443D01*
X168766243Y-71677754D01*
X168766241Y-71677753D01*
X168766240Y-71677753D01*
X168604957Y-71652208D01*
X168556287Y-71644500D01*
X168343713Y-71644500D01*
X168295042Y-71652208D01*
X168133760Y-71677753D01*
X167931585Y-71743444D01*
X167742179Y-71839951D01*
X167570213Y-71964890D01*
X167419890Y-72115213D01*
X167294951Y-72287179D01*
X167198444Y-72476585D01*
X167132753Y-72678760D01*
X167099500Y-72888713D01*
X167099500Y-73401286D01*
X167132703Y-73610925D01*
X167132754Y-73611243D01*
X167143722Y-73645000D01*
X167198444Y-73813414D01*
X167294951Y-74002820D01*
X167419890Y-74174786D01*
X167419896Y-74174792D01*
X167570208Y-74325104D01*
X167648384Y-74381902D01*
X167691051Y-74437231D01*
X167699500Y-74482220D01*
X167699500Y-76646375D01*
X167679815Y-76713414D01*
X167663181Y-76734056D01*
X167579312Y-76817924D01*
X167579312Y-76817925D01*
X167579310Y-76817927D01*
X167570673Y-76829815D01*
X167468240Y-76970800D01*
X167382454Y-77139163D01*
X167324059Y-77318881D01*
X167294500Y-77505513D01*
X167294500Y-77694488D01*
X167294857Y-77699028D01*
X167280489Y-77767405D01*
X167231435Y-77817159D01*
X167163269Y-77832494D01*
X167097633Y-77808541D01*
X167083558Y-77796431D01*
X166304176Y-77017049D01*
X166228648Y-76966584D01*
X166181253Y-76934916D01*
X166181250Y-76934914D01*
X166181249Y-76934914D01*
X166044675Y-76878343D01*
X166044665Y-76878340D01*
X165899678Y-76849500D01*
X165899676Y-76849500D01*
X165224500Y-76849500D01*
X165157461Y-76829815D01*
X165111706Y-76777011D01*
X165100500Y-76725500D01*
X165100500Y-74482220D01*
X165120185Y-74415181D01*
X165151614Y-74381902D01*
X165229792Y-74325104D01*
X165380104Y-74174792D01*
X165380106Y-74174788D01*
X165380109Y-74174786D01*
X165505048Y-74002820D01*
X165505047Y-74002820D01*
X165505051Y-74002816D01*
X165601557Y-73813412D01*
X165667246Y-73611243D01*
X165700500Y-73401287D01*
X165700500Y-72888713D01*
X165667246Y-72678757D01*
X165601557Y-72476588D01*
X165505051Y-72287184D01*
X165505049Y-72287181D01*
X165505048Y-72287179D01*
X165380109Y-72115213D01*
X165229786Y-71964890D01*
X165057820Y-71839951D01*
X164868414Y-71743444D01*
X164868413Y-71743443D01*
X164868412Y-71743443D01*
X164666243Y-71677754D01*
X164666241Y-71677753D01*
X164666240Y-71677753D01*
X164504957Y-71652208D01*
X164456287Y-71644500D01*
X164243713Y-71644500D01*
X164195042Y-71652208D01*
X164033760Y-71677753D01*
X163831585Y-71743444D01*
X163642179Y-71839951D01*
X163470215Y-71964889D01*
X163331035Y-72104069D01*
X163269712Y-72137553D01*
X163200020Y-72132569D01*
X163144087Y-72090697D01*
X163137815Y-72081484D01*
X163042315Y-71926654D01*
X162918345Y-71802684D01*
X162769124Y-71710643D01*
X162769119Y-71710641D01*
X162602697Y-71655494D01*
X162602690Y-71655493D01*
X162499986Y-71645000D01*
X162100000Y-71645000D01*
X162100000Y-72711988D01*
X162042993Y-72679075D01*
X161915826Y-72645000D01*
X161784174Y-72645000D01*
X161657007Y-72679075D01*
X161600000Y-72711988D01*
X161600000Y-71645000D01*
X161200028Y-71645000D01*
X161200012Y-71645001D01*
X161097302Y-71655494D01*
X160930880Y-71710641D01*
X160930875Y-71710643D01*
X160781654Y-71802684D01*
X160657684Y-71926654D01*
X160565643Y-72075875D01*
X160565641Y-72075880D01*
X160510494Y-72242302D01*
X160510493Y-72242309D01*
X160500000Y-72345013D01*
X160500000Y-72895000D01*
X161416988Y-72895000D01*
X161384075Y-72952007D01*
X161350000Y-73079174D01*
X161350000Y-73210826D01*
X161384075Y-73337993D01*
X161416988Y-73395000D01*
X160500001Y-73395000D01*
X160500001Y-73944986D01*
X160510494Y-74047697D01*
X160565641Y-74214119D01*
X160565643Y-74214124D01*
X160657684Y-74363345D01*
X160781654Y-74487315D01*
X160930875Y-74579356D01*
X160930880Y-74579358D01*
X161097302Y-74634505D01*
X161097309Y-74634506D01*
X161200019Y-74644999D01*
X161599999Y-74644999D01*
X161600000Y-74644998D01*
X161600000Y-73578012D01*
X161657007Y-73610925D01*
X161784174Y-73645000D01*
X161915826Y-73645000D01*
X162042993Y-73610925D01*
X162100000Y-73578012D01*
X162100000Y-74644999D01*
X162499972Y-74644999D01*
X162499986Y-74644998D01*
X162602697Y-74634505D01*
X162769119Y-74579358D01*
X162769124Y-74579356D01*
X162918345Y-74487315D01*
X163042317Y-74363343D01*
X163137815Y-74208516D01*
X163189763Y-74161791D01*
X163258725Y-74150568D01*
X163322808Y-74178412D01*
X163331035Y-74185931D01*
X163470208Y-74325104D01*
X163548384Y-74381902D01*
X163591051Y-74437231D01*
X163599500Y-74482220D01*
X163599500Y-76492840D01*
X163579815Y-76559879D01*
X163548386Y-76593158D01*
X163422925Y-76684311D01*
X163422924Y-76684312D01*
X163342681Y-76764556D01*
X163281358Y-76798041D01*
X163211666Y-76793057D01*
X163167319Y-76764556D01*
X163087075Y-76684312D01*
X163087074Y-76684311D01*
X163087073Y-76684310D01*
X162934199Y-76573240D01*
X162918999Y-76565495D01*
X162765836Y-76487454D01*
X162586118Y-76429059D01*
X162399486Y-76399500D01*
X162399481Y-76399500D01*
X162210519Y-76399500D01*
X162210514Y-76399500D01*
X162023881Y-76429059D01*
X161844163Y-76487454D01*
X161675800Y-76573240D01*
X161594113Y-76632590D01*
X161522927Y-76684310D01*
X161522925Y-76684312D01*
X161522924Y-76684312D01*
X161389312Y-76817924D01*
X161389312Y-76817925D01*
X161389310Y-76817927D01*
X161380673Y-76829815D01*
X161278240Y-76970800D01*
X161192454Y-77139163D01*
X161134059Y-77318881D01*
X161104500Y-77505513D01*
X161104500Y-77538770D01*
X161084815Y-77605809D01*
X161032011Y-77651564D01*
X160962853Y-77661508D01*
X160899297Y-77632483D01*
X160892819Y-77626451D01*
X158123048Y-74856680D01*
X158089563Y-74795357D01*
X158094547Y-74725665D01*
X158136419Y-74669732D01*
X158201883Y-74645315D01*
X158210729Y-74644999D01*
X158499972Y-74644999D01*
X158499986Y-74644998D01*
X158602697Y-74634505D01*
X158769119Y-74579358D01*
X158769124Y-74579356D01*
X158918345Y-74487315D01*
X159042315Y-74363345D01*
X159134356Y-74214124D01*
X159134358Y-74214119D01*
X159189505Y-74047697D01*
X159189506Y-74047690D01*
X159199999Y-73944986D01*
X159200000Y-73944973D01*
X159200000Y-73395000D01*
X158283012Y-73395000D01*
X158315925Y-73337993D01*
X158350000Y-73210826D01*
X158350000Y-73079174D01*
X158315925Y-72952007D01*
X158283012Y-72895000D01*
X159199999Y-72895000D01*
X159199999Y-72345029D01*
X159199998Y-72345012D01*
X159189505Y-72242302D01*
X159134358Y-72075880D01*
X159134356Y-72075875D01*
X159042315Y-71926654D01*
X158918345Y-71802684D01*
X158769124Y-71710643D01*
X158769119Y-71710641D01*
X158602697Y-71655494D01*
X158602690Y-71655493D01*
X158499986Y-71645000D01*
X158100000Y-71645000D01*
X158100000Y-72711988D01*
X158042993Y-72679075D01*
X157915826Y-72645000D01*
X157784174Y-72645000D01*
X157657007Y-72679075D01*
X157600000Y-72711988D01*
X157600000Y-71645000D01*
X157200028Y-71645000D01*
X157200012Y-71645001D01*
X157097302Y-71655494D01*
X156930880Y-71710641D01*
X156930875Y-71710643D01*
X156781654Y-71802684D01*
X156657683Y-71926655D01*
X156657680Y-71926659D01*
X156562183Y-72081484D01*
X156510235Y-72128209D01*
X156441273Y-72139430D01*
X156377191Y-72111587D01*
X156368964Y-72104068D01*
X156229786Y-71964890D01*
X156057820Y-71839951D01*
X155868414Y-71743444D01*
X155868413Y-71743443D01*
X155868412Y-71743443D01*
X155666243Y-71677754D01*
X155666241Y-71677753D01*
X155666240Y-71677753D01*
X155504957Y-71652208D01*
X155456287Y-71644500D01*
X155243713Y-71644500D01*
X155195042Y-71652208D01*
X155033760Y-71677753D01*
X154831585Y-71743444D01*
X154642179Y-71839951D01*
X154470213Y-71964890D01*
X154319890Y-72115213D01*
X154194951Y-72287179D01*
X154098444Y-72476585D01*
X154032753Y-72678760D01*
X153999500Y-72888713D01*
X153999500Y-73401286D01*
X154032703Y-73610925D01*
X154032754Y-73611243D01*
X154043722Y-73645000D01*
X154098444Y-73813414D01*
X154194951Y-74002820D01*
X154319890Y-74174786D01*
X154319896Y-74174792D01*
X154470208Y-74325104D01*
X154548384Y-74381902D01*
X154591051Y-74437231D01*
X154599500Y-74482220D01*
X154599500Y-76646375D01*
X154579815Y-76713414D01*
X154563181Y-76734056D01*
X154479312Y-76817924D01*
X154479312Y-76817925D01*
X154479310Y-76817927D01*
X154470673Y-76829815D01*
X154368240Y-76970800D01*
X154282454Y-77139163D01*
X154224059Y-77318881D01*
X154194500Y-77505513D01*
X154194500Y-77694486D01*
X154224059Y-77881118D01*
X154282454Y-78060836D01*
X154318287Y-78131161D01*
X154368240Y-78229199D01*
X154479310Y-78382073D01*
X154612927Y-78515690D01*
X154765801Y-78626760D01*
X154862207Y-78675881D01*
X154919385Y-78705015D01*
X154970181Y-78752990D01*
X154986976Y-78820811D01*
X154964439Y-78886946D01*
X154909723Y-78930397D01*
X154863090Y-78939500D01*
X153652229Y-78939500D01*
X153585190Y-78919815D01*
X153564548Y-78903181D01*
X152436819Y-77775452D01*
X152403334Y-77714129D01*
X152400500Y-77687771D01*
X152400500Y-77505513D01*
X152370940Y-77318881D01*
X152312545Y-77139163D01*
X152226759Y-76970800D01*
X152200690Y-76934919D01*
X152115690Y-76817927D01*
X152036819Y-76739056D01*
X152003334Y-76677733D01*
X152000500Y-76651375D01*
X152000500Y-74482220D01*
X152020185Y-74415181D01*
X152051614Y-74381902D01*
X152129792Y-74325104D01*
X152280104Y-74174792D01*
X152280106Y-74174788D01*
X152280109Y-74174786D01*
X152405048Y-74002820D01*
X152405047Y-74002820D01*
X152405051Y-74002816D01*
X152501557Y-73813412D01*
X152567246Y-73611243D01*
X152600500Y-73401287D01*
X152600500Y-72888713D01*
X152567246Y-72678757D01*
X152501557Y-72476588D01*
X152405051Y-72287184D01*
X152405049Y-72287181D01*
X152405048Y-72287179D01*
X152280109Y-72115213D01*
X152129786Y-71964890D01*
X151957820Y-71839951D01*
X151768414Y-71743444D01*
X151768413Y-71743443D01*
X151768412Y-71743443D01*
X151566243Y-71677754D01*
X151566241Y-71677753D01*
X151566240Y-71677753D01*
X151404957Y-71652208D01*
X151356287Y-71644500D01*
X151143713Y-71644500D01*
X151095042Y-71652208D01*
X150933760Y-71677753D01*
X150731585Y-71743444D01*
X150542179Y-71839951D01*
X150370215Y-71964889D01*
X150231035Y-72104069D01*
X150169712Y-72137553D01*
X150100020Y-72132569D01*
X150044087Y-72090697D01*
X150037815Y-72081484D01*
X149942315Y-71926654D01*
X149818345Y-71802684D01*
X149669124Y-71710643D01*
X149669119Y-71710641D01*
X149502697Y-71655494D01*
X149502690Y-71655493D01*
X149399986Y-71645000D01*
X149000000Y-71645000D01*
X149000000Y-72711988D01*
X148942993Y-72679075D01*
X148815826Y-72645000D01*
X148684174Y-72645000D01*
X148557007Y-72679075D01*
X148500000Y-72711988D01*
X148500000Y-71645000D01*
X148100028Y-71645000D01*
X148100012Y-71645001D01*
X147997302Y-71655494D01*
X147830880Y-71710641D01*
X147830875Y-71710643D01*
X147681654Y-71802684D01*
X147557684Y-71926654D01*
X147465643Y-72075875D01*
X147465641Y-72075880D01*
X147410494Y-72242302D01*
X147410493Y-72242309D01*
X147400000Y-72345013D01*
X147400000Y-72895000D01*
X148316988Y-72895000D01*
X148284075Y-72952007D01*
X148250000Y-73079174D01*
X148250000Y-73210826D01*
X148284075Y-73337993D01*
X148316988Y-73395000D01*
X147400001Y-73395000D01*
X147400001Y-73944986D01*
X147410494Y-74047697D01*
X147465641Y-74214119D01*
X147465643Y-74214124D01*
X147557684Y-74363345D01*
X147681654Y-74487315D01*
X147830875Y-74579356D01*
X147830880Y-74579358D01*
X147997302Y-74634505D01*
X147997309Y-74634506D01*
X148100019Y-74644999D01*
X148499999Y-74644999D01*
X148500000Y-74644998D01*
X148500000Y-73578012D01*
X148557007Y-73610925D01*
X148684174Y-73645000D01*
X148815826Y-73645000D01*
X148942993Y-73610925D01*
X149000000Y-73578012D01*
X149000000Y-74644999D01*
X149399972Y-74644999D01*
X149399986Y-74644998D01*
X149502697Y-74634505D01*
X149669119Y-74579358D01*
X149669124Y-74579356D01*
X149818345Y-74487315D01*
X149942317Y-74363343D01*
X150037815Y-74208516D01*
X150089763Y-74161791D01*
X150158725Y-74150568D01*
X150222808Y-74178412D01*
X150231035Y-74185931D01*
X150370208Y-74325104D01*
X150448384Y-74381902D01*
X150491051Y-74437231D01*
X150499500Y-74482220D01*
X150499500Y-76561862D01*
X150490124Y-76593789D01*
X150481640Y-76625973D01*
X150480221Y-76627517D01*
X150479815Y-76628901D01*
X150459279Y-76653280D01*
X150454088Y-76658036D01*
X150417927Y-76684310D01*
X150335753Y-76766483D01*
X150333779Y-76768293D01*
X150304734Y-76782546D01*
X150276358Y-76798041D01*
X150273566Y-76797841D01*
X150271055Y-76799074D01*
X150238930Y-76795364D01*
X150206666Y-76793057D01*
X150203975Y-76791327D01*
X150201647Y-76791059D01*
X150194681Y-76785354D01*
X150162319Y-76764556D01*
X150082075Y-76684312D01*
X150082074Y-76684311D01*
X150082073Y-76684310D01*
X149929199Y-76573240D01*
X149913999Y-76565495D01*
X149760836Y-76487454D01*
X149581118Y-76429059D01*
X149394486Y-76399500D01*
X149394481Y-76399500D01*
X149205519Y-76399500D01*
X149205514Y-76399500D01*
X149018881Y-76429059D01*
X148839163Y-76487454D01*
X148670800Y-76573240D01*
X148589113Y-76632590D01*
X148517927Y-76684310D01*
X148517925Y-76684312D01*
X148517924Y-76684312D01*
X148384312Y-76817924D01*
X148384312Y-76817925D01*
X148384310Y-76817927D01*
X148375673Y-76829815D01*
X148273240Y-76970800D01*
X148187454Y-77139163D01*
X148129059Y-77318881D01*
X148099500Y-77505513D01*
X148099500Y-77694486D01*
X148129059Y-77881118D01*
X148187454Y-78060836D01*
X148223287Y-78131161D01*
X148273240Y-78229199D01*
X148384310Y-78382073D01*
X148517927Y-78515690D01*
X148670801Y-78626760D01*
X148750347Y-78667290D01*
X148839163Y-78712545D01*
X148839165Y-78712545D01*
X148839168Y-78712547D01*
X148935497Y-78743846D01*
X149018881Y-78770940D01*
X149205514Y-78800500D01*
X149205519Y-78800500D01*
X149394486Y-78800500D01*
X149581118Y-78770940D01*
X149619755Y-78758386D01*
X149760832Y-78712547D01*
X149929199Y-78626760D01*
X150082073Y-78515690D01*
X150162319Y-78435444D01*
X150223642Y-78401959D01*
X150293334Y-78406943D01*
X150337681Y-78435444D01*
X150417927Y-78515690D01*
X150570801Y-78626760D01*
X150650347Y-78667290D01*
X150739163Y-78712545D01*
X150739165Y-78712545D01*
X150739168Y-78712547D01*
X150835497Y-78743846D01*
X150918881Y-78770940D01*
X151105514Y-78800500D01*
X151287771Y-78800500D01*
X151354810Y-78820185D01*
X151375452Y-78836819D01*
X152707048Y-80168415D01*
X152707049Y-80168416D01*
X152811584Y-80272951D01*
X152811585Y-80272952D01*
X152934498Y-80355080D01*
X152934511Y-80355087D01*
X153048125Y-80402147D01*
X153071087Y-80411658D01*
X153071091Y-80411658D01*
X153071092Y-80411659D01*
X153216079Y-80440500D01*
X153216082Y-80440500D01*
X159188598Y-80440500D01*
X159255637Y-80460185D01*
X159301392Y-80512989D01*
X159311336Y-80582147D01*
X159282311Y-80645703D01*
X159276279Y-80652181D01*
X159170412Y-80758047D01*
X159170405Y-80758056D01*
X159086435Y-80900042D01*
X159086434Y-80900045D01*
X159040413Y-81058447D01*
X159040412Y-81058453D01*
X159037500Y-81095458D01*
X159037500Y-83354541D01*
X159040412Y-83391546D01*
X159040413Y-83391552D01*
X159086434Y-83549954D01*
X159086435Y-83549957D01*
X159170405Y-83691943D01*
X159170406Y-83691944D01*
X159170408Y-83691947D01*
X159266608Y-83788147D01*
X159279240Y-83802938D01*
X159337019Y-83882464D01*
X159477536Y-84022981D01*
X159638306Y-84139787D01*
X159725149Y-84184035D01*
X159815367Y-84230005D01*
X159815370Y-84230006D01*
X159909866Y-84260709D01*
X160004364Y-84291413D01*
X160200639Y-84322500D01*
X160200640Y-84322500D01*
X160216770Y-84322500D01*
X160283809Y-84342185D01*
X160329564Y-84394989D01*
X160339508Y-84464147D01*
X160310483Y-84527703D01*
X160304451Y-84534181D01*
X160115451Y-84723181D01*
X160054128Y-84756666D01*
X160027770Y-84759500D01*
X156412229Y-84759500D01*
X156345190Y-84739815D01*
X156324548Y-84723181D01*
X152378415Y-80777047D01*
X152378413Y-80777045D01*
X152332649Y-80746468D01*
X152302138Y-80726082D01*
X152302137Y-80726081D01*
X152255503Y-80694920D01*
X152255488Y-80694912D01*
X152118917Y-80638343D01*
X152118907Y-80638340D01*
X151973920Y-80609500D01*
X151973918Y-80609500D01*
X146417230Y-80609500D01*
X146350191Y-80589815D01*
X146329549Y-80573181D01*
X144652690Y-78896322D01*
X144619205Y-78834999D01*
X144624189Y-78765307D01*
X144666061Y-78709374D01*
X144684076Y-78698156D01*
X144726162Y-78676712D01*
X144824199Y-78626760D01*
X144977073Y-78515690D01*
X145110690Y-78382073D01*
X145221760Y-78229199D01*
X145307547Y-78060832D01*
X145365940Y-77881118D01*
X145383382Y-77770993D01*
X145395500Y-77694486D01*
X145395500Y-77505513D01*
X145365940Y-77318881D01*
X145307545Y-77139163D01*
X145221759Y-76970800D01*
X145195690Y-76934919D01*
X145110690Y-76817927D01*
X144977073Y-76684310D01*
X144824199Y-76573240D01*
X144808999Y-76565495D01*
X144655836Y-76487454D01*
X144476118Y-76429059D01*
X144289486Y-76399500D01*
X144289481Y-76399500D01*
X144100519Y-76399500D01*
X144100514Y-76399500D01*
X143913881Y-76429059D01*
X143734163Y-76487454D01*
X143565800Y-76573240D01*
X143484113Y-76632590D01*
X143412927Y-76684310D01*
X143412925Y-76684312D01*
X143412924Y-76684312D01*
X143332681Y-76764556D01*
X143271358Y-76798041D01*
X143201666Y-76793057D01*
X143157319Y-76764556D01*
X143077074Y-76684311D01*
X143068020Y-76677733D01*
X142969593Y-76606221D01*
X142951614Y-76593158D01*
X142908949Y-76537827D01*
X142900500Y-76492840D01*
X142900500Y-74482220D01*
X142920185Y-74415181D01*
X142951614Y-74381902D01*
X143029792Y-74325104D01*
X143168967Y-74185928D01*
X143230286Y-74152446D01*
X143299978Y-74157430D01*
X143355912Y-74199301D01*
X143362184Y-74208515D01*
X143457684Y-74363345D01*
X143581654Y-74487315D01*
X143730875Y-74579356D01*
X143730880Y-74579358D01*
X143897302Y-74634505D01*
X143897309Y-74634506D01*
X144000019Y-74644999D01*
X144399999Y-74644999D01*
X144400000Y-74644998D01*
X144400000Y-73578012D01*
X144457007Y-73610925D01*
X144584174Y-73645000D01*
X144715826Y-73645000D01*
X144842993Y-73610925D01*
X144900000Y-73578012D01*
X144900000Y-74644999D01*
X145299972Y-74644999D01*
X145299986Y-74644998D01*
X145402697Y-74634505D01*
X145569119Y-74579358D01*
X145569124Y-74579356D01*
X145718345Y-74487315D01*
X145842315Y-74363345D01*
X145934356Y-74214124D01*
X145934358Y-74214119D01*
X145989505Y-74047697D01*
X145989506Y-74047690D01*
X145999999Y-73944986D01*
X146000000Y-73944973D01*
X146000000Y-73395000D01*
X145083012Y-73395000D01*
X145115925Y-73337993D01*
X145150000Y-73210826D01*
X145150000Y-73079174D01*
X145115925Y-72952007D01*
X145083012Y-72895000D01*
X145999999Y-72895000D01*
X145999999Y-72345029D01*
X145999998Y-72345012D01*
X145989505Y-72242302D01*
X145934358Y-72075880D01*
X145934356Y-72075875D01*
X145842315Y-71926654D01*
X145718345Y-71802684D01*
X145569124Y-71710643D01*
X145569119Y-71710641D01*
X145402697Y-71655494D01*
X145402690Y-71655493D01*
X145299986Y-71645000D01*
X144900000Y-71645000D01*
X144900000Y-72711988D01*
X144842993Y-72679075D01*
X144715826Y-72645000D01*
X144584174Y-72645000D01*
X144457007Y-72679075D01*
X144400000Y-72711988D01*
X144400000Y-71645000D01*
X144000028Y-71645000D01*
X144000012Y-71645001D01*
X143897302Y-71655494D01*
X143730880Y-71710641D01*
X143730875Y-71710643D01*
X143581654Y-71802684D01*
X143457683Y-71926655D01*
X143457680Y-71926659D01*
X143362183Y-72081484D01*
X143310235Y-72128209D01*
X143241273Y-72139430D01*
X143177191Y-72111587D01*
X143168964Y-72104068D01*
X143029786Y-71964890D01*
X142857820Y-71839951D01*
X142668414Y-71743444D01*
X142668413Y-71743443D01*
X142668412Y-71743443D01*
X142466243Y-71677754D01*
X142466241Y-71677753D01*
X142466240Y-71677753D01*
X142304957Y-71652208D01*
X142256287Y-71644500D01*
X142043713Y-71644500D01*
X141995042Y-71652208D01*
X141833760Y-71677753D01*
X141631585Y-71743444D01*
X141442179Y-71839951D01*
X141270213Y-71964890D01*
X141119890Y-72115213D01*
X140994951Y-72287179D01*
X140898444Y-72476585D01*
X140832753Y-72678760D01*
X140799500Y-72888713D01*
X140799500Y-73401286D01*
X140832703Y-73610925D01*
X140832754Y-73611243D01*
X140843722Y-73645000D01*
X140898444Y-73813414D01*
X140994951Y-74002820D01*
X141119890Y-74174786D01*
X141119896Y-74174792D01*
X141270208Y-74325104D01*
X141348384Y-74381902D01*
X141391051Y-74437231D01*
X141399500Y-74482220D01*
X141399500Y-76749848D01*
X141379815Y-76816887D01*
X141375826Y-76822722D01*
X141370673Y-76829815D01*
X141268240Y-76970800D01*
X141182454Y-77139163D01*
X141124059Y-77318881D01*
X141094500Y-77505513D01*
X141094500Y-77694486D01*
X141124059Y-77881118D01*
X141182454Y-78060836D01*
X141218287Y-78131161D01*
X141268240Y-78229199D01*
X141379310Y-78382073D01*
X141512927Y-78515690D01*
X141665801Y-78626760D01*
X141745347Y-78667290D01*
X141834163Y-78712545D01*
X141834165Y-78712545D01*
X141834168Y-78712547D01*
X141930497Y-78743846D01*
X142013881Y-78770940D01*
X142200514Y-78800500D01*
X142382770Y-78800500D01*
X142449809Y-78820185D01*
X142470451Y-78836819D01*
X145576586Y-81942954D01*
X145600255Y-81958768D01*
X145650270Y-81992186D01*
X145699505Y-82025084D01*
X145699506Y-82025084D01*
X145699507Y-82025085D01*
X145699509Y-82025086D01*
X145785219Y-82060588D01*
X145836087Y-82081658D01*
X145836091Y-82081658D01*
X145836092Y-82081659D01*
X145981079Y-82110500D01*
X145981082Y-82110500D01*
X145981083Y-82110500D01*
X146128917Y-82110500D01*
X151537770Y-82110500D01*
X151604809Y-82130185D01*
X151625451Y-82146819D01*
X155467049Y-85988416D01*
X155571583Y-86092950D01*
X155571585Y-86092952D01*
X155694498Y-86175080D01*
X155694511Y-86175087D01*
X155831082Y-86231656D01*
X155831087Y-86231658D01*
X155831091Y-86231658D01*
X155831092Y-86231659D01*
X155976079Y-86260500D01*
X155976082Y-86260500D01*
X160463920Y-86260500D01*
X160561462Y-86241096D01*
X160608913Y-86231658D01*
X160745495Y-86175084D01*
X160794729Y-86142186D01*
X160806869Y-86134075D01*
X160857867Y-86100000D01*
X160868416Y-86092952D01*
X162608107Y-84353258D01*
X162669428Y-84319775D01*
X162715183Y-84318468D01*
X162740639Y-84322500D01*
X162740640Y-84322500D01*
X162939360Y-84322500D01*
X162939361Y-84322500D01*
X163135636Y-84291413D01*
X163317815Y-84232219D01*
X163324629Y-84230006D01*
X163324632Y-84230005D01*
X163501694Y-84139787D01*
X163662464Y-84022981D01*
X163802981Y-83882464D01*
X163860762Y-83802933D01*
X163866039Y-83796175D01*
X163869537Y-83792000D01*
X163969592Y-83691947D01*
X164008439Y-83626259D01*
X164014962Y-83618477D01*
X164035927Y-83604509D01*
X164054337Y-83587321D01*
X164064505Y-83585471D01*
X164073110Y-83579739D01*
X164098299Y-83579324D01*
X164123079Y-83574817D01*
X164132634Y-83578759D01*
X164142970Y-83578589D01*
X164164379Y-83591854D01*
X164187668Y-83601462D01*
X164196691Y-83611875D01*
X164202363Y-83615390D01*
X164205575Y-83622128D01*
X164216732Y-83635004D01*
X164250405Y-83691943D01*
X164250408Y-83691947D01*
X164346608Y-83788147D01*
X164359240Y-83802938D01*
X164417019Y-83882464D01*
X164557536Y-84022981D01*
X164718306Y-84139787D01*
X164805149Y-84184035D01*
X164895367Y-84230005D01*
X164895370Y-84230006D01*
X164989866Y-84260709D01*
X165084364Y-84291413D01*
X165280639Y-84322500D01*
X165280640Y-84322500D01*
X165479360Y-84322500D01*
X165479361Y-84322500D01*
X165675636Y-84291413D01*
X165857815Y-84232219D01*
X165864629Y-84230006D01*
X165864632Y-84230005D01*
X166041694Y-84139787D01*
X166202464Y-84022981D01*
X166342981Y-83882464D01*
X166400762Y-83802933D01*
X166406039Y-83796175D01*
X166409537Y-83792000D01*
X166509592Y-83691947D01*
X166548439Y-83626259D01*
X166554962Y-83618477D01*
X166575927Y-83604509D01*
X166594337Y-83587321D01*
X166604505Y-83585471D01*
X166613110Y-83579739D01*
X166638299Y-83579324D01*
X166663079Y-83574817D01*
X166672634Y-83578759D01*
X166682970Y-83578589D01*
X166704379Y-83591854D01*
X166727668Y-83601462D01*
X166736691Y-83611875D01*
X166742363Y-83615390D01*
X166745575Y-83622128D01*
X166756732Y-83635004D01*
X166790405Y-83691943D01*
X166790408Y-83691947D01*
X166886608Y-83788147D01*
X166899240Y-83802938D01*
X166957019Y-83882464D01*
X167097536Y-84022981D01*
X167258306Y-84139787D01*
X167345149Y-84184035D01*
X167435367Y-84230005D01*
X167435370Y-84230006D01*
X167529866Y-84260709D01*
X167624364Y-84291413D01*
X167820639Y-84322500D01*
X167820640Y-84322500D01*
X168019360Y-84322500D01*
X168019361Y-84322500D01*
X168215636Y-84291413D01*
X168397815Y-84232219D01*
X168404629Y-84230006D01*
X168404632Y-84230005D01*
X168581694Y-84139787D01*
X168742464Y-84022981D01*
X168882981Y-83882464D01*
X168940762Y-83802933D01*
X168946039Y-83796175D01*
X168949537Y-83792000D01*
X169049592Y-83691947D01*
X169088439Y-83626259D01*
X169094962Y-83618477D01*
X169115927Y-83604509D01*
X169134337Y-83587321D01*
X169144505Y-83585471D01*
X169153110Y-83579739D01*
X169178299Y-83579324D01*
X169203079Y-83574817D01*
X169212634Y-83578759D01*
X169222970Y-83578589D01*
X169244379Y-83591854D01*
X169267668Y-83601462D01*
X169276691Y-83611875D01*
X169282363Y-83615390D01*
X169285575Y-83622128D01*
X169296732Y-83635004D01*
X169330405Y-83691943D01*
X169330408Y-83691947D01*
X169426608Y-83788147D01*
X169439240Y-83802938D01*
X169497019Y-83882464D01*
X169637536Y-84022981D01*
X169798306Y-84139787D01*
X169885149Y-84184035D01*
X169975367Y-84230005D01*
X169975370Y-84230006D01*
X170069866Y-84260709D01*
X170164364Y-84291413D01*
X170360639Y-84322500D01*
X170360640Y-84322500D01*
X170376770Y-84322500D01*
X170443809Y-84342185D01*
X170489564Y-84394989D01*
X170499508Y-84464147D01*
X170470483Y-84527703D01*
X170464451Y-84534181D01*
X168345451Y-86653181D01*
X168284128Y-86686666D01*
X168257770Y-86689500D01*
X152992229Y-86689500D01*
X152925190Y-86669815D01*
X152904548Y-86653181D01*
X150788995Y-84537627D01*
X150755510Y-84476304D01*
X150758457Y-84421541D01*
X150756109Y-84420978D01*
X150757243Y-84416251D01*
X150757246Y-84416243D01*
X150790500Y-84206287D01*
X150790500Y-83993713D01*
X150757246Y-83783757D01*
X150691557Y-83581588D01*
X150595051Y-83392184D01*
X150595049Y-83392181D01*
X150595048Y-83392179D01*
X150470109Y-83220213D01*
X150319786Y-83069890D01*
X150147820Y-82944951D01*
X149958414Y-82848444D01*
X149958413Y-82848443D01*
X149958412Y-82848443D01*
X149756243Y-82782754D01*
X149756241Y-82782753D01*
X149756240Y-82782753D01*
X149594957Y-82757208D01*
X149546287Y-82749500D01*
X149033713Y-82749500D01*
X148985042Y-82757208D01*
X148823760Y-82782753D01*
X148621585Y-82848444D01*
X148432179Y-82944951D01*
X148260213Y-83069890D01*
X148109892Y-83220211D01*
X148053097Y-83298385D01*
X147997767Y-83341051D01*
X147952779Y-83349500D01*
X144026080Y-83349500D01*
X143881092Y-83378340D01*
X143881082Y-83378343D01*
X143744508Y-83434914D01*
X143744505Y-83434915D01*
X143744505Y-83434916D01*
X143709809Y-83458099D01*
X143709808Y-83458098D01*
X143621585Y-83517046D01*
X143621578Y-83517052D01*
X140057050Y-87081580D01*
X140057044Y-87081588D01*
X140007812Y-87155268D01*
X140007813Y-87155269D01*
X139974921Y-87204496D01*
X139974914Y-87204508D01*
X139918342Y-87341086D01*
X139918340Y-87341092D01*
X139889500Y-87486079D01*
X139889500Y-89751374D01*
X139869815Y-89818413D01*
X139853182Y-89839055D01*
X139724309Y-89967928D01*
X139613240Y-90120800D01*
X139527454Y-90289163D01*
X139469059Y-90468881D01*
X139439500Y-90655513D01*
X139439500Y-90844486D01*
X139469059Y-91031118D01*
X139527454Y-91210836D01*
X139551123Y-91257288D01*
X139613240Y-91379199D01*
X139724310Y-91532073D01*
X139857927Y-91665690D01*
X140010801Y-91776760D01*
X140090347Y-91817290D01*
X140179163Y-91862545D01*
X140179165Y-91862545D01*
X140179168Y-91862547D01*
X140275497Y-91893846D01*
X140358881Y-91920940D01*
X140545514Y-91950500D01*
X140545519Y-91950500D01*
X140734486Y-91950500D01*
X140921118Y-91920940D01*
X141100832Y-91862547D01*
X141269199Y-91776760D01*
X141422073Y-91665690D01*
X141502319Y-91585444D01*
X141563642Y-91551959D01*
X141633334Y-91556943D01*
X141677681Y-91585444D01*
X141757927Y-91665690D01*
X141910801Y-91776760D01*
X141990347Y-91817290D01*
X142079163Y-91862545D01*
X142079165Y-91862545D01*
X142079168Y-91862547D01*
X142175497Y-91893846D01*
X142258881Y-91920940D01*
X142445514Y-91950500D01*
X142445519Y-91950500D01*
X142634486Y-91950500D01*
X142821118Y-91920940D01*
X143000832Y-91862547D01*
X143169199Y-91776760D01*
X143322073Y-91665690D01*
X143455690Y-91532073D01*
X143566760Y-91379199D01*
X143652547Y-91210832D01*
X143710940Y-91031118D01*
X143711993Y-91024468D01*
X143740500Y-90844486D01*
X143740500Y-90655513D01*
X143710940Y-90468881D01*
X143652545Y-90289163D01*
X143566759Y-90120800D01*
X143561374Y-90113388D01*
X143455690Y-89967927D01*
X143322073Y-89834310D01*
X143169199Y-89723240D01*
X143107212Y-89691656D01*
X143000836Y-89637454D01*
X142821118Y-89579059D01*
X142634486Y-89549500D01*
X142634481Y-89549500D01*
X142445519Y-89549500D01*
X142445514Y-89549500D01*
X142258881Y-89579059D01*
X142079163Y-89637454D01*
X141910800Y-89723240D01*
X141757928Y-89834309D01*
X141677681Y-89914556D01*
X141669734Y-89918894D01*
X141664310Y-89926141D01*
X141639550Y-89935375D01*
X141616357Y-89948040D01*
X141607328Y-89947394D01*
X141598846Y-89950558D01*
X141573025Y-89944941D01*
X141546666Y-89943056D01*
X141537612Y-89937237D01*
X141530573Y-89935706D01*
X141502319Y-89914555D01*
X141426819Y-89839055D01*
X141393334Y-89777732D01*
X141390500Y-89751374D01*
X141390500Y-87922230D01*
X141410185Y-87855191D01*
X141426819Y-87834549D01*
X144374549Y-84886819D01*
X144435872Y-84853334D01*
X144462230Y-84850500D01*
X147952779Y-84850500D01*
X148019818Y-84870185D01*
X148053097Y-84901615D01*
X148109892Y-84979788D01*
X148249068Y-85118964D01*
X148282553Y-85180287D01*
X148277569Y-85249979D01*
X148235697Y-85305912D01*
X148226484Y-85312183D01*
X148071659Y-85407680D01*
X148071655Y-85407683D01*
X147947684Y-85531654D01*
X147855643Y-85680875D01*
X147855641Y-85680880D01*
X147800494Y-85847302D01*
X147800493Y-85847309D01*
X147790000Y-85950013D01*
X147790000Y-86350000D01*
X148856988Y-86350000D01*
X148824075Y-86407007D01*
X148790000Y-86534174D01*
X148790000Y-86665826D01*
X148824075Y-86792993D01*
X148856988Y-86850000D01*
X147790001Y-86850000D01*
X147790001Y-87249986D01*
X147800494Y-87352697D01*
X147855641Y-87519119D01*
X147855643Y-87519124D01*
X147947684Y-87668345D01*
X148071654Y-87792315D01*
X148220875Y-87884356D01*
X148220880Y-87884358D01*
X148387302Y-87939505D01*
X148387309Y-87939506D01*
X148490019Y-87949999D01*
X149039999Y-87949999D01*
X149040000Y-87949998D01*
X149040000Y-87033012D01*
X149097007Y-87065925D01*
X149224174Y-87100000D01*
X149355826Y-87100000D01*
X149482993Y-87065925D01*
X149540000Y-87033012D01*
X149540000Y-87949999D01*
X150089972Y-87949999D01*
X150089986Y-87949998D01*
X150192697Y-87939505D01*
X150359119Y-87884358D01*
X150359124Y-87884356D01*
X150508345Y-87792315D01*
X150632315Y-87668345D01*
X150724356Y-87519124D01*
X150724358Y-87519119D01*
X150779505Y-87352697D01*
X150779506Y-87352690D01*
X150789999Y-87249986D01*
X150789999Y-86960729D01*
X150809683Y-86893690D01*
X150862487Y-86847935D01*
X150931646Y-86837991D01*
X150995201Y-86867016D01*
X151001680Y-86873048D01*
X151614712Y-87486079D01*
X152047049Y-87918416D01*
X152136452Y-88007819D01*
X152169936Y-88069143D01*
X152164952Y-88138834D01*
X152123080Y-88194768D01*
X152057615Y-88219184D01*
X152048770Y-88219500D01*
X150946080Y-88219500D01*
X150801092Y-88248340D01*
X150801082Y-88248343D01*
X150664511Y-88304912D01*
X150664498Y-88304919D01*
X150541584Y-88387048D01*
X150541580Y-88387051D01*
X149415451Y-89513181D01*
X149354128Y-89546666D01*
X149327770Y-89549500D01*
X149145514Y-89549500D01*
X148958881Y-89579059D01*
X148779163Y-89637454D01*
X148610800Y-89723240D01*
X148523579Y-89786610D01*
X148457927Y-89834310D01*
X148457925Y-89834312D01*
X148457924Y-89834312D01*
X148329056Y-89963181D01*
X148267733Y-89996666D01*
X148241375Y-89999500D01*
X147676080Y-89999500D01*
X147531092Y-90028340D01*
X147531082Y-90028343D01*
X147394508Y-90084913D01*
X147351892Y-90113389D01*
X147351891Y-90113388D01*
X147271585Y-90167046D01*
X147271578Y-90167052D01*
X144817050Y-92621580D01*
X144817044Y-92621588D01*
X144767812Y-92695268D01*
X144767813Y-92695269D01*
X144734921Y-92744496D01*
X144734914Y-92744508D01*
X144678342Y-92881086D01*
X144678340Y-92881092D01*
X144649500Y-93026079D01*
X144649500Y-93026082D01*
X144649500Y-96473918D01*
X144649500Y-96473920D01*
X144649499Y-96473920D01*
X144678340Y-96618907D01*
X144678343Y-96618917D01*
X144734913Y-96755490D01*
X144734916Y-96755495D01*
X144746517Y-96772856D01*
X144746518Y-96772861D01*
X144746520Y-96772861D01*
X144817051Y-96878420D01*
X144817052Y-96878421D01*
X145967049Y-98028416D01*
X146071584Y-98132951D01*
X146071587Y-98132953D01*
X146071588Y-98132954D01*
X146194503Y-98215083D01*
X146194506Y-98215085D01*
X146240867Y-98234288D01*
X146251080Y-98238518D01*
X146331088Y-98271659D01*
X146446552Y-98294626D01*
X146470029Y-98299296D01*
X146476081Y-98300500D01*
X146476082Y-98300500D01*
X146476083Y-98300500D01*
X146623918Y-98300500D01*
X148007779Y-98300500D01*
X148074818Y-98320185D01*
X148108097Y-98351615D01*
X148164892Y-98429788D01*
X148315213Y-98580109D01*
X148487179Y-98705048D01*
X148487181Y-98705049D01*
X148487184Y-98705051D01*
X148676588Y-98801557D01*
X148878757Y-98867246D01*
X149088713Y-98900500D01*
X149088714Y-98900500D01*
X149601286Y-98900500D01*
X149601287Y-98900500D01*
X149811243Y-98867246D01*
X150013412Y-98801557D01*
X150202816Y-98705051D01*
X150224789Y-98689086D01*
X150374786Y-98580109D01*
X150374788Y-98580106D01*
X150374792Y-98580104D01*
X150525104Y-98429792D01*
X150525106Y-98429788D01*
X150525109Y-98429786D01*
X150650048Y-98257820D01*
X150650047Y-98257820D01*
X150650051Y-98257816D01*
X150746557Y-98068412D01*
X150812246Y-97866243D01*
X150845500Y-97656287D01*
X150845500Y-97443713D01*
X150812246Y-97233757D01*
X150746557Y-97031588D01*
X150650051Y-96842184D01*
X150650049Y-96842181D01*
X150650048Y-96842179D01*
X150525109Y-96670213D01*
X150385931Y-96531035D01*
X150352446Y-96469712D01*
X150357430Y-96400020D01*
X150399302Y-96344087D01*
X150408516Y-96337815D01*
X150563343Y-96242317D01*
X150687315Y-96118345D01*
X150779356Y-95969124D01*
X150779358Y-95969119D01*
X150834505Y-95802697D01*
X150834506Y-95802690D01*
X150844999Y-95699986D01*
X150845000Y-95699973D01*
X150845000Y-95300000D01*
X149778012Y-95300000D01*
X149810925Y-95242993D01*
X149845000Y-95115826D01*
X149845000Y-94984174D01*
X149810925Y-94857007D01*
X149778012Y-94800000D01*
X150844999Y-94800000D01*
X150844999Y-94400028D01*
X150844998Y-94400013D01*
X150834505Y-94297302D01*
X150779358Y-94130880D01*
X150779356Y-94130875D01*
X150687315Y-93981654D01*
X150563345Y-93857684D01*
X150414124Y-93765643D01*
X150414119Y-93765641D01*
X150247697Y-93710494D01*
X150247690Y-93710493D01*
X150144986Y-93700000D01*
X149595000Y-93700000D01*
X149595000Y-94616988D01*
X149537993Y-94584075D01*
X149410826Y-94550000D01*
X149279174Y-94550000D01*
X149152007Y-94584075D01*
X149095000Y-94616988D01*
X149095000Y-93700000D01*
X148545028Y-93700000D01*
X148545012Y-93700001D01*
X148442302Y-93710494D01*
X148275880Y-93765641D01*
X148275875Y-93765643D01*
X148126654Y-93857684D01*
X148002684Y-93981654D01*
X147910643Y-94130875D01*
X147910641Y-94130880D01*
X147855494Y-94297302D01*
X147855493Y-94297309D01*
X147845000Y-94400013D01*
X147845000Y-94800000D01*
X148911988Y-94800000D01*
X148879075Y-94857007D01*
X148845000Y-94984174D01*
X148845000Y-95115826D01*
X148879075Y-95242993D01*
X148911988Y-95300000D01*
X147845001Y-95300000D01*
X147845001Y-95699986D01*
X147855494Y-95802697D01*
X147910641Y-95969119D01*
X147910643Y-95969124D01*
X148002684Y-96118345D01*
X148126654Y-96242315D01*
X148281484Y-96337815D01*
X148328208Y-96389763D01*
X148339431Y-96458726D01*
X148311587Y-96522808D01*
X148304069Y-96531035D01*
X148164892Y-96670212D01*
X148108097Y-96748385D01*
X148052767Y-96791051D01*
X148007779Y-96799500D01*
X146912229Y-96799500D01*
X146845190Y-96779815D01*
X146824548Y-96763181D01*
X146186819Y-96125451D01*
X146153334Y-96064128D01*
X146150500Y-96037770D01*
X146150500Y-93462230D01*
X146170185Y-93395191D01*
X146186819Y-93374549D01*
X148024549Y-91536819D01*
X148051476Y-91522115D01*
X148077295Y-91505523D01*
X148083495Y-91504631D01*
X148085872Y-91503334D01*
X148112230Y-91500500D01*
X148241375Y-91500500D01*
X148308414Y-91520185D01*
X148329056Y-91536819D01*
X148457927Y-91665690D01*
X148610801Y-91776760D01*
X148690347Y-91817290D01*
X148779163Y-91862545D01*
X148779165Y-91862545D01*
X148779168Y-91862547D01*
X148875497Y-91893846D01*
X148958881Y-91920940D01*
X149145514Y-91950500D01*
X149145519Y-91950500D01*
X149334486Y-91950500D01*
X149521118Y-91920940D01*
X149700832Y-91862547D01*
X149869199Y-91776760D01*
X150022073Y-91665690D01*
X150102319Y-91585444D01*
X150163642Y-91551959D01*
X150233334Y-91556943D01*
X150277681Y-91585444D01*
X150357927Y-91665690D01*
X150510801Y-91776760D01*
X150590347Y-91817290D01*
X150679163Y-91862545D01*
X150679165Y-91862545D01*
X150679168Y-91862547D01*
X150775497Y-91893846D01*
X150858881Y-91920940D01*
X151045514Y-91950500D01*
X151045519Y-91950500D01*
X151234486Y-91950500D01*
X151421118Y-91920940D01*
X151600832Y-91862547D01*
X151769199Y-91776760D01*
X151922073Y-91665690D01*
X152055690Y-91532073D01*
X152166760Y-91379199D01*
X152252547Y-91210832D01*
X152310940Y-91031118D01*
X152311993Y-91024468D01*
X152340500Y-90844486D01*
X152340500Y-90655513D01*
X152310940Y-90468881D01*
X152252545Y-90289163D01*
X152166759Y-90120800D01*
X152161374Y-90113388D01*
X152055690Y-89967927D01*
X152019944Y-89932181D01*
X151986459Y-89870858D01*
X151991443Y-89801166D01*
X152033315Y-89745233D01*
X152098779Y-89720816D01*
X152107625Y-89720500D01*
X169703920Y-89720500D01*
X169801462Y-89701096D01*
X169848913Y-89691658D01*
X169985495Y-89635084D01*
X170034729Y-89602186D01*
X170108416Y-89552952D01*
X175308107Y-84353258D01*
X175369428Y-84319775D01*
X175415183Y-84318468D01*
X175440639Y-84322500D01*
X175440640Y-84322500D01*
X175639360Y-84322500D01*
X175639361Y-84322500D01*
X175835636Y-84291413D01*
X176017815Y-84232219D01*
X176024629Y-84230006D01*
X176024632Y-84230005D01*
X176201694Y-84139787D01*
X176362464Y-84022981D01*
X176437819Y-83947626D01*
X176457255Y-83937013D01*
X176473989Y-83922513D01*
X176487320Y-83920596D01*
X176499142Y-83914141D01*
X176521228Y-83915720D01*
X176543147Y-83912569D01*
X176555398Y-83918164D01*
X176568834Y-83919125D01*
X176586560Y-83932395D01*
X176606703Y-83941594D01*
X176613985Y-83952925D01*
X176624767Y-83960997D01*
X176632504Y-83981742D01*
X176644477Y-84000372D01*
X176647628Y-84022290D01*
X176649184Y-84026461D01*
X176649500Y-84035307D01*
X176649500Y-84037770D01*
X176629815Y-84104809D01*
X176613181Y-84125451D01*
X170025451Y-90713181D01*
X169964128Y-90746666D01*
X169937770Y-90749500D01*
X167026080Y-90749500D01*
X166881092Y-90778340D01*
X166881086Y-90778342D01*
X166744508Y-90834914D01*
X166744496Y-90834921D01*
X166695269Y-90867813D01*
X166621588Y-90917044D01*
X166621580Y-90917050D01*
X162257050Y-95281580D01*
X162257044Y-95281588D01*
X162207812Y-95355268D01*
X162207813Y-95355269D01*
X162174921Y-95404496D01*
X162174914Y-95404508D01*
X162118342Y-95541086D01*
X162118340Y-95541092D01*
X162089500Y-95686079D01*
X162089500Y-97221553D01*
X162069815Y-97288592D01*
X162038387Y-97321869D01*
X162028126Y-97329324D01*
X162017534Y-97337020D01*
X161877018Y-97477536D01*
X161819239Y-97557061D01*
X161813960Y-97563821D01*
X161810446Y-97568013D01*
X161710408Y-97668053D01*
X161671564Y-97733733D01*
X161665038Y-97741521D01*
X161644076Y-97755485D01*
X161625662Y-97772679D01*
X161615492Y-97774528D01*
X161606891Y-97780259D01*
X161581703Y-97780674D01*
X161556921Y-97785182D01*
X161547366Y-97781240D01*
X161537031Y-97781411D01*
X161515616Y-97768142D01*
X161492331Y-97758536D01*
X161483308Y-97748123D01*
X161477638Y-97744610D01*
X161474426Y-97737873D01*
X161463268Y-97724996D01*
X161447428Y-97698212D01*
X161429592Y-97668053D01*
X161333390Y-97571851D01*
X161320758Y-97557060D01*
X161262984Y-97477539D01*
X161122466Y-97337021D01*
X161122465Y-97337020D01*
X161122464Y-97337019D01*
X160961694Y-97220213D01*
X160784632Y-97129994D01*
X160784629Y-97129993D01*
X160595637Y-97068587D01*
X160497498Y-97053043D01*
X160399361Y-97037500D01*
X160200639Y-97037500D01*
X160135214Y-97047862D01*
X160004362Y-97068587D01*
X159815370Y-97129993D01*
X159815367Y-97129994D01*
X159638305Y-97220213D01*
X159477533Y-97337021D01*
X159337018Y-97477536D01*
X159279239Y-97557061D01*
X159266604Y-97571854D01*
X159170413Y-97668046D01*
X159170405Y-97668056D01*
X159086435Y-97810042D01*
X159086434Y-97810045D01*
X159040413Y-97968447D01*
X159040412Y-97968453D01*
X159037500Y-98005458D01*
X159037500Y-100264541D01*
X159040412Y-100301546D01*
X159040413Y-100301552D01*
X159086434Y-100459954D01*
X159086435Y-100459957D01*
X159170405Y-100601943D01*
X159170412Y-100601952D01*
X159287047Y-100718587D01*
X159287051Y-100718590D01*
X159287053Y-100718592D01*
X159429041Y-100802564D01*
X159470816Y-100814701D01*
X159587447Y-100848586D01*
X159587450Y-100848586D01*
X159587452Y-100848587D01*
X159624466Y-100851500D01*
X159624474Y-100851500D01*
X160975526Y-100851500D01*
X160975534Y-100851500D01*
X161012548Y-100848587D01*
X161012550Y-100848586D01*
X161012552Y-100848586D01*
X161054323Y-100836449D01*
X161170959Y-100802564D01*
X161312947Y-100718592D01*
X161429592Y-100601947D01*
X161463268Y-100545003D01*
X161514337Y-100497321D01*
X161583079Y-100484817D01*
X161647668Y-100511462D01*
X161676732Y-100545004D01*
X161710405Y-100601943D01*
X161710407Y-100601946D01*
X161710412Y-100601952D01*
X161827047Y-100718587D01*
X161827051Y-100718590D01*
X161827053Y-100718592D01*
X161969041Y-100802564D01*
X162010816Y-100814701D01*
X162127447Y-100848586D01*
X162127450Y-100848586D01*
X162127452Y-100848587D01*
X162164466Y-100851500D01*
X162164474Y-100851500D01*
X163515526Y-100851500D01*
X163515534Y-100851500D01*
X163552548Y-100848587D01*
X163552550Y-100848586D01*
X163552552Y-100848586D01*
X163594323Y-100836449D01*
X163710959Y-100802564D01*
X163852947Y-100718592D01*
X163969592Y-100601947D01*
X164003268Y-100545003D01*
X164054337Y-100497321D01*
X164123079Y-100484817D01*
X164187668Y-100511462D01*
X164216732Y-100545004D01*
X164250405Y-100601943D01*
X164250407Y-100601946D01*
X164250412Y-100601952D01*
X164367047Y-100718587D01*
X164367051Y-100718590D01*
X164367053Y-100718592D01*
X164509041Y-100802564D01*
X164550816Y-100814701D01*
X164667447Y-100848586D01*
X164667450Y-100848586D01*
X164667452Y-100848587D01*
X164704466Y-100851500D01*
X164704474Y-100851500D01*
X166055526Y-100851500D01*
X166055534Y-100851500D01*
X166092548Y-100848587D01*
X166092550Y-100848586D01*
X166092552Y-100848586D01*
X166134323Y-100836449D01*
X166250959Y-100802564D01*
X166392947Y-100718592D01*
X166509592Y-100601947D01*
X166543268Y-100545003D01*
X166594337Y-100497321D01*
X166663079Y-100484817D01*
X166727668Y-100511462D01*
X166756732Y-100545004D01*
X166790405Y-100601943D01*
X166790407Y-100601946D01*
X166790412Y-100601952D01*
X166907047Y-100718587D01*
X166907051Y-100718590D01*
X166907053Y-100718592D01*
X167049041Y-100802564D01*
X167090816Y-100814701D01*
X167207447Y-100848586D01*
X167207450Y-100848586D01*
X167207452Y-100848587D01*
X167244466Y-100851500D01*
X167244474Y-100851500D01*
X168595526Y-100851500D01*
X168595534Y-100851500D01*
X168632548Y-100848587D01*
X168632550Y-100848586D01*
X168632552Y-100848586D01*
X168674323Y-100836449D01*
X168790959Y-100802564D01*
X168932947Y-100718592D01*
X169049592Y-100601947D01*
X169049776Y-100601637D01*
X169083558Y-100544514D01*
X169134626Y-100496830D01*
X169203368Y-100484326D01*
X169267958Y-100510971D01*
X169297022Y-100544513D01*
X169330803Y-100601634D01*
X169330810Y-100601643D01*
X169447356Y-100718189D01*
X169447365Y-100718196D01*
X169589243Y-100802102D01*
X169589246Y-100802103D01*
X169747526Y-100848088D01*
X169747532Y-100848089D01*
X169784518Y-100850999D01*
X171135469Y-100850999D01*
X171135491Y-100850998D01*
X171172466Y-100848089D01*
X171330757Y-100802102D01*
X171472634Y-100718196D01*
X171472643Y-100718189D01*
X171589189Y-100601643D01*
X171589193Y-100601637D01*
X171622976Y-100544514D01*
X171674045Y-100496830D01*
X171742787Y-100484326D01*
X171807376Y-100510971D01*
X171836440Y-100544511D01*
X171870408Y-100601947D01*
X171870410Y-100601949D01*
X171870412Y-100601952D01*
X171987047Y-100718587D01*
X171987051Y-100718590D01*
X171987053Y-100718592D01*
X172129041Y-100802564D01*
X172170816Y-100814701D01*
X172287447Y-100848586D01*
X172287450Y-100848586D01*
X172287452Y-100848587D01*
X172324466Y-100851500D01*
X172324474Y-100851500D01*
X173359953Y-100851500D01*
X173426992Y-100871185D01*
X173472747Y-100923989D01*
X173482691Y-100993147D01*
X173453666Y-101056703D01*
X173447634Y-101063181D01*
X173358032Y-101152782D01*
X173358028Y-101152786D01*
X173237715Y-101318386D01*
X173144781Y-101500776D01*
X173081522Y-101695465D01*
X173064710Y-101801616D01*
X173034781Y-101864751D01*
X172975469Y-101901682D01*
X172941493Y-101906216D01*
X139545293Y-101705909D01*
X139478373Y-101685822D01*
X139432936Y-101632745D01*
X139422075Y-101584984D01*
X138643188Y-70138735D01*
X138661207Y-70071232D01*
X138712861Y-70024184D01*
X138768764Y-70011679D01*
X186810887Y-70638446D01*
G37*
%TD.AperFunction*%
%TD*%
M02*
