M48
METRIC
T1C0.700
T2C0.750
T3C0.800
T4C0.889
T5C1.000
%
G90
G05
T1
X140.64Y90.75
X142.295Y77.6
X142.54Y90.75
X144.195Y77.6
X149.24Y90.75
X149.3Y77.6
X151.14Y90.75
X151.2Y77.6
X155.395Y77.6
X157.295Y77.6
X162.305Y77.6
X164.205Y77.6
X168.495Y77.6
X170.395Y77.6
X175.505Y77.6
X177.405Y77.6
X181.395Y77.6
X183.295Y77.6
T2
X181.6Y98.55
X182.85Y82.9
X182.85Y84.9
X182.9Y90.2
X182.9Y92.2
X183.6Y98.55
T3
X174.35Y102.0
X176.85Y102.0
T4
X160.3Y83.06
X160.3Y98.3
X162.84Y83.06
X162.84Y98.3
X165.38Y83.06
X165.38Y98.3
X167.92Y83.06
X167.92Y98.3
X170.46Y83.06
X170.46Y98.3
X173.0Y83.06
X173.0Y98.3
X175.54Y83.06
X175.54Y98.3
T5
X142.15Y73.145
X144.65Y73.145
X148.75Y73.145
X149.29Y84.1
X149.29Y86.6
X149.345Y95.05
X149.345Y97.55
X151.25Y73.145
X155.35Y73.145
X157.85Y73.145
X161.85Y73.145
X164.35Y73.145
X168.45Y73.145
X170.95Y73.145
X175.05Y73.145
X177.55Y73.145
X181.55Y73.145
X184.05Y73.145
M30
