%TF.GenerationSoftware,KiCad,Pcbnew,9.0.2*%
%TF.CreationDate,2025-08-29T09:25:12+10:00*%
%TF.ProjectId,fsr_right,6673725f-7269-4676-9874-2e6b69636164,rev?*%
%TF.SameCoordinates,Original*%
%TF.FileFunction,Copper,L2,Bot*%
%TF.FilePolarity,Positive*%
%FSLAX46Y46*%
G04 Gerber Fmt 4.6, Leading zero omitted, Abs format (unit mm)*
G04 Created by KiCad (PCBNEW 9.0.2) date 2025-08-29 09:25:12*
%MOMM*%
%LPD*%
G01*
G04 APERTURE LIST*
G04 Aperture macros list*
%AMRoundRect*
0 Rectangle with rounded corners*
0 $1 Rounding radius*
0 $2 $3 $4 $5 $6 $7 $8 $9 X,Y pos of 4 corners*
0 Add a 4 corners polygon primitive as box body*
4,1,4,$2,$3,$4,$5,$6,$7,$8,$9,$2,$3,0*
0 Add four circle primitives for the rounded corners*
1,1,$1+$1,$2,$3*
1,1,$1+$1,$4,$5*
1,1,$1+$1,$6,$7*
1,1,$1+$1,$8,$9*
0 Add four rect primitives between the rounded corners*
20,1,$1+$1,$2,$3,$4,$5,0*
20,1,$1+$1,$4,$5,$6,$7,0*
20,1,$1+$1,$6,$7,$8,$9,0*
20,1,$1+$1,$8,$9,$2,$3,0*%
G04 Aperture macros list end*
%TA.AperFunction,ComponentPad*%
%ADD10RoundRect,0.250000X0.600000X0.750000X-0.600000X0.750000X-0.600000X-0.750000X0.600000X-0.750000X0*%
%TD*%
%TA.AperFunction,ComponentPad*%
%ADD11O,1.700000X2.000000*%
%TD*%
%TA.AperFunction,ComponentPad*%
%ADD12C,1.400000*%
%TD*%
%TA.AperFunction,ComponentPad*%
%ADD13C,1.524000*%
%TD*%
%TA.AperFunction,ComponentPad*%
%ADD14RoundRect,0.250000X0.625000X-0.350000X0.625000X0.350000X-0.625000X0.350000X-0.625000X-0.350000X0*%
%TD*%
%TA.AperFunction,ComponentPad*%
%ADD15O,1.750000X1.200000*%
%TD*%
%TA.AperFunction,ComponentPad*%
%ADD16RoundRect,0.250000X-0.350000X-0.625000X0.350000X-0.625000X0.350000X0.625000X-0.350000X0.625000X0*%
%TD*%
%TA.AperFunction,ComponentPad*%
%ADD17O,1.200000X1.750000*%
%TD*%
%TA.AperFunction,ComponentPad*%
%ADD18RoundRect,0.250000X-0.750000X0.600000X-0.750000X-0.600000X0.750000X-0.600000X0.750000X0.600000X0*%
%TD*%
%TA.AperFunction,ComponentPad*%
%ADD19O,2.000000X1.700000*%
%TD*%
%TA.AperFunction,ComponentPad*%
%ADD20C,1.600000*%
%TD*%
%TA.AperFunction,ComponentPad*%
%ADD21RoundRect,0.250000X-0.600000X-0.750000X0.600000X-0.750000X0.600000X0.750000X-0.600000X0.750000X0*%
%TD*%
%TA.AperFunction,ComponentPad*%
%ADD22RoundRect,0.250000X0.750000X-0.600000X0.750000X0.600000X-0.750000X0.600000X-0.750000X-0.600000X0*%
%TD*%
%TA.AperFunction,Conductor*%
%ADD23C,0.500000*%
%TD*%
G04 APERTURE END LIST*
D10*
%TO.P,JMid1,1,Pin_1*%
%TO.N,+3.3V*%
X157850000Y-73145000D03*
D11*
%TO.P,JMid1,2,Pin_2*%
%TO.N,/Mid1*%
X155350000Y-73145000D03*
%TD*%
D10*
%TO.P,JRin1,1,Pin_1*%
%TO.N,+3.3V*%
X170950000Y-73145000D03*
D11*
%TO.P,JRin1,2,Pin_2*%
%TO.N,/Rin1*%
X168450000Y-73145000D03*
%TD*%
D12*
%TO.P,RMid2,1*%
%TO.N,/Mid2*%
X164205000Y-77600000D03*
%TO.P,RMid2,2*%
%TO.N,GND*%
X162305000Y-77600000D03*
%TD*%
D13*
%TO.P,U1,1,PA02_A0_D0*%
%TO.N,/Th1*%
X175540000Y-83060000D03*
%TO.P,U1,2,PA4_A1_D1*%
%TO.N,/Th2*%
X173000000Y-83060000D03*
%TO.P,U1,3,PA10_A2_D2*%
%TO.N,/Mid2*%
X170460000Y-83060000D03*
%TO.P,U1,4,PA11_A3_D3*%
%TO.N,/Mid1*%
X167920000Y-83060000D03*
%TO.P,U1,5,PA8_A4_D4_SDA*%
%TO.N,/In2*%
X165380000Y-83060000D03*
%TO.P,U1,6,PA9_A5_D5_SCL*%
%TO.N,/In1*%
X162840000Y-83060000D03*
%TO.P,U1,7,PB08_A6_TX*%
%TO.N,unconnected-(U1-PB08_A6_TX-Pad7)*%
X160300000Y-83060000D03*
%TO.P,U1,8,PB09_D7_RX*%
%TO.N,unconnected-(U1-PB09_D7_RX-Pad8)_1*%
X160300000Y-98300000D03*
%TO.P,U1,9,PA7_A8_D8_SCK*%
%TO.N,/Rin1*%
X162840000Y-98300000D03*
%TO.P,U1,10,PA5_A9_D9_MISO*%
%TO.N,/Rin2*%
X165380000Y-98300000D03*
%TO.P,U1,11,PA6_A10_D10_MOSI*%
%TO.N,/Pin*%
X167920000Y-98300000D03*
%TO.P,U1,12,3V3*%
%TO.N,+3.3V*%
X170460000Y-98300000D03*
%TO.P,U1,13,GND*%
%TO.N,GND*%
X173000000Y-98300000D03*
%TO.P,U1,14,5V*%
%TO.N,unconnected-(U1-5V-Pad14)_1*%
X175540000Y-98300000D03*
%TD*%
D12*
%TO.P,RRin2,1*%
%TO.N,/Rin2*%
X177405000Y-77600000D03*
%TO.P,RRin2,2*%
%TO.N,GND*%
X175505000Y-77600000D03*
%TD*%
D14*
%TO.P,SW2,1,A*%
%TO.N,Net-(SW2A-A)*%
X182900000Y-92200000D03*
D15*
%TO.P,SW2,2,B*%
%TO.N,Net-(SW2A-B)*%
X182900000Y-90200000D03*
%TD*%
D12*
%TO.P,RMid1,1*%
%TO.N,/Mid1*%
X155395000Y-77600000D03*
%TO.P,RMid1,2*%
%TO.N,GND*%
X157295000Y-77600000D03*
%TD*%
D16*
%TO.P,bat2,1,3.7V*%
%TO.N,Net-(SW2A-A)*%
X181600000Y-98550000D03*
D17*
%TO.P,bat2,2,G*%
%TO.N,GND*%
X183600000Y-98550000D03*
%TD*%
D18*
%TO.P,JTh1,1,Pin_1*%
%TO.N,+3.3V*%
X149345000Y-95050000D03*
D19*
%TO.P,JTh1,2,Pin_2*%
%TO.N,/Th1*%
X149345000Y-97550000D03*
%TD*%
D20*
%TO.P,C2,1*%
%TO.N,Net-(SW2A-A)*%
X176850000Y-102000000D03*
%TO.P,C2,2*%
%TO.N,GND*%
X174350000Y-102000000D03*
%TD*%
D14*
%TO.P,bat4,1,3.7V*%
%TO.N,Net-(SW2A-B)*%
X182850000Y-84900000D03*
D15*
%TO.P,bat4,2,G*%
%TO.N,GND*%
X182850000Y-82900000D03*
%TD*%
D12*
%TO.P,RRin1,1*%
%TO.N,/Rin1*%
X168495000Y-77600000D03*
%TO.P,RRin1,2*%
%TO.N,GND*%
X170395000Y-77600000D03*
%TD*%
%TO.P,RPin1,1*%
%TO.N,/Pin*%
X181395000Y-77600000D03*
%TO.P,RPin1,2*%
%TO.N,GND*%
X183295000Y-77600000D03*
%TD*%
D10*
%TO.P,JIn1,1,Pin_1*%
%TO.N,+3.3V*%
X144650000Y-73145000D03*
D11*
%TO.P,JIn1,2,Pin_2*%
%TO.N,/In1*%
X142150000Y-73145000D03*
%TD*%
D12*
%TO.P,RTh1,1*%
%TO.N,/Th1*%
X149240000Y-90750000D03*
%TO.P,RTh1,2*%
%TO.N,GND*%
X151140000Y-90750000D03*
%TD*%
%TO.P,RTh2,1*%
%TO.N,/Th2*%
X140640000Y-90750000D03*
%TO.P,RTh2,2*%
%TO.N,GND*%
X142540000Y-90750000D03*
%TD*%
%TO.P,RIn2,1*%
%TO.N,/In2*%
X151200000Y-77600000D03*
%TO.P,RIn2,2*%
%TO.N,GND*%
X149300000Y-77600000D03*
%TD*%
%TO.P,RIn1,1*%
%TO.N,/In1*%
X142295000Y-77600000D03*
%TO.P,RIn1,2*%
%TO.N,GND*%
X144195000Y-77600000D03*
%TD*%
D10*
%TO.P,JPin1,1,Pin_1*%
%TO.N,+3.3V*%
X184050000Y-73145000D03*
D11*
%TO.P,JPin1,2,Pin_2*%
%TO.N,/Pin*%
X181550000Y-73145000D03*
%TD*%
D21*
%TO.P,JIn2,1,Pin_1*%
%TO.N,+3.3V*%
X148750000Y-73145000D03*
D11*
%TO.P,JIn2,2,Pin_2*%
%TO.N,/In2*%
X151250000Y-73145000D03*
%TD*%
D21*
%TO.P,JMid2,1,Pin_1*%
%TO.N,+3.3V*%
X161850000Y-73145000D03*
D11*
%TO.P,JMid2,2,Pin_2*%
%TO.N,/Mid2*%
X164350000Y-73145000D03*
%TD*%
D21*
%TO.P,JRin2,1,Pin_1*%
%TO.N,+3.3V*%
X175050000Y-73145000D03*
D11*
%TO.P,JRin2,2,Pin_2*%
%TO.N,/Rin2*%
X177550000Y-73145000D03*
%TD*%
D22*
%TO.P,JTh2,1,Pin_1*%
%TO.N,+3.3V*%
X149290000Y-86600000D03*
D19*
%TO.P,JTh2,2,Pin_2*%
%TO.N,/Th2*%
X149290000Y-84100000D03*
%TD*%
D23*
%TO.N,Net-(SW2A-A)*%
X178150000Y-102000000D02*
X181600000Y-98550000D01*
X176850000Y-102000000D02*
X178150000Y-102000000D01*
X181600000Y-93500000D02*
X181600000Y-98550000D01*
X182900000Y-92200000D02*
X181600000Y-93500000D01*
%TO.N,Net-(SW2A-B)*%
X182900000Y-90200000D02*
X182900000Y-84950000D01*
X182900000Y-84950000D02*
X182850000Y-84900000D01*
%TD*%
%TA.AperFunction,Conductor*%
%TO.N,GND*%
G36*
X187474418Y-61600816D02*
G01*
X187674561Y-61615130D01*
X187692063Y-61617647D01*
X187883797Y-61659355D01*
X187900755Y-61664334D01*
X188084609Y-61732909D01*
X188100701Y-61740259D01*
X188272904Y-61834288D01*
X188287784Y-61843849D01*
X188444867Y-61961441D01*
X188458237Y-61973027D01*
X188596972Y-62111762D01*
X188608558Y-62125132D01*
X188726146Y-62282210D01*
X188735711Y-62297095D01*
X188829740Y-62469298D01*
X188837090Y-62485390D01*
X188905662Y-62669236D01*
X188910646Y-62686212D01*
X188952351Y-62877931D01*
X188954869Y-62895442D01*
X188969184Y-63095580D01*
X188969500Y-63104427D01*
X188969500Y-101695572D01*
X188969184Y-101704419D01*
X188954869Y-101904557D01*
X188952351Y-101922068D01*
X188910646Y-102113787D01*
X188905662Y-102130763D01*
X188837090Y-102314609D01*
X188829740Y-102330701D01*
X188735711Y-102502904D01*
X188726146Y-102517789D01*
X188608558Y-102674867D01*
X188596972Y-102688237D01*
X188458237Y-102826972D01*
X188444867Y-102838558D01*
X188287789Y-102956146D01*
X188272904Y-102965711D01*
X188100701Y-103059740D01*
X188084609Y-103067090D01*
X187900763Y-103135662D01*
X187883787Y-103140646D01*
X187692068Y-103182351D01*
X187674557Y-103184869D01*
X187493779Y-103197799D01*
X187474417Y-103199184D01*
X187465572Y-103199500D01*
X177789047Y-103199500D01*
X177722008Y-103179815D01*
X177676253Y-103127011D01*
X177666309Y-103057853D01*
X177695334Y-102994297D01*
X177701366Y-102987819D01*
X177733039Y-102956146D01*
X177841966Y-102847219D01*
X177852118Y-102833246D01*
X177875100Y-102801615D01*
X177930429Y-102758949D01*
X177975418Y-102750500D01*
X178223920Y-102750500D01*
X178336462Y-102728113D01*
X178368913Y-102721658D01*
X178505495Y-102665084D01*
X178554729Y-102632186D01*
X178561562Y-102627621D01*
X178579071Y-102615921D01*
X178628416Y-102582952D01*
X181249549Y-99961817D01*
X181310872Y-99928333D01*
X181337230Y-99925499D01*
X182000002Y-99925499D01*
X182000008Y-99925499D01*
X182102797Y-99914999D01*
X182269334Y-99859814D01*
X182418656Y-99767712D01*
X182542712Y-99643656D01*
X182582581Y-99579016D01*
X182634525Y-99532294D01*
X182703488Y-99521071D01*
X182767570Y-99548914D01*
X182775799Y-99556434D01*
X182883397Y-99664032D01*
X183023475Y-99765804D01*
X183177744Y-99844408D01*
X183342415Y-99897914D01*
X183342414Y-99897914D01*
X183349999Y-99899115D01*
X183350000Y-99899114D01*
X183350000Y-98830330D01*
X183369745Y-98850075D01*
X183455255Y-98899444D01*
X183550630Y-98925000D01*
X183649370Y-98925000D01*
X183744745Y-98899444D01*
X183830255Y-98850075D01*
X183850000Y-98830330D01*
X183850000Y-99899115D01*
X183857584Y-99897914D01*
X184022255Y-99844408D01*
X184176524Y-99765804D01*
X184316602Y-99664032D01*
X184439032Y-99541602D01*
X184540804Y-99401524D01*
X184619408Y-99247257D01*
X184672914Y-99082584D01*
X184700000Y-98911571D01*
X184700000Y-98800000D01*
X183880330Y-98800000D01*
X183900075Y-98780255D01*
X183949444Y-98694745D01*
X183975000Y-98599370D01*
X183975000Y-98500630D01*
X183949444Y-98405255D01*
X183900075Y-98319745D01*
X183880330Y-98300000D01*
X184700000Y-98300000D01*
X184700000Y-98188428D01*
X184672914Y-98017415D01*
X184619408Y-97852742D01*
X184540804Y-97698475D01*
X184439032Y-97558397D01*
X184316602Y-97435967D01*
X184176524Y-97334195D01*
X184022257Y-97255591D01*
X183857589Y-97202087D01*
X183857581Y-97202085D01*
X183850000Y-97200884D01*
X183850000Y-98269670D01*
X183830255Y-98249925D01*
X183744745Y-98200556D01*
X183649370Y-98175000D01*
X183550630Y-98175000D01*
X183455255Y-98200556D01*
X183369745Y-98249925D01*
X183350000Y-98269670D01*
X183350000Y-97200884D01*
X183349999Y-97200884D01*
X183342418Y-97202085D01*
X183342410Y-97202087D01*
X183177742Y-97255591D01*
X183023475Y-97334195D01*
X182883401Y-97435964D01*
X182775799Y-97543566D01*
X182714476Y-97577050D01*
X182644784Y-97572066D01*
X182588851Y-97530194D01*
X182582585Y-97520988D01*
X182542712Y-97456344D01*
X182418656Y-97332288D01*
X182418655Y-97332287D01*
X182409402Y-97326580D01*
X182362678Y-97274632D01*
X182350500Y-97221042D01*
X182350500Y-93862228D01*
X182370185Y-93795189D01*
X182386815Y-93774551D01*
X182824548Y-93336817D01*
X182885871Y-93303333D01*
X182912229Y-93300499D01*
X183575002Y-93300499D01*
X183575008Y-93300499D01*
X183677797Y-93289999D01*
X183844334Y-93234814D01*
X183993656Y-93142712D01*
X184117712Y-93018656D01*
X184209814Y-92869334D01*
X184264999Y-92702797D01*
X184275500Y-92600009D01*
X184275499Y-91799992D01*
X184271197Y-91757882D01*
X184264999Y-91697203D01*
X184264998Y-91697200D01*
X184209814Y-91530666D01*
X184117712Y-91381344D01*
X183993656Y-91257288D01*
X183993652Y-91257285D01*
X183929456Y-91217688D01*
X183882731Y-91165740D01*
X183871510Y-91096777D01*
X183899353Y-91032695D01*
X183906850Y-91024491D01*
X184014414Y-90916928D01*
X184116232Y-90776788D01*
X184194873Y-90622445D01*
X184248402Y-90457701D01*
X184275500Y-90286611D01*
X184275500Y-90113389D01*
X184248402Y-89942299D01*
X184194873Y-89777555D01*
X184116232Y-89623212D01*
X184014414Y-89483072D01*
X183891928Y-89360586D01*
X183751788Y-89258768D01*
X183718203Y-89241655D01*
X183667408Y-89193680D01*
X183650500Y-89131171D01*
X183650500Y-86072016D01*
X183670185Y-86004977D01*
X183722989Y-85959222D01*
X183735488Y-85954313D01*
X183794334Y-85934814D01*
X183943656Y-85842712D01*
X184067712Y-85718656D01*
X184159814Y-85569334D01*
X184214999Y-85402797D01*
X184225500Y-85300009D01*
X184225499Y-84499992D01*
X184214999Y-84397203D01*
X184159814Y-84230666D01*
X184067712Y-84081344D01*
X183943656Y-83957288D01*
X183943655Y-83957287D01*
X183879019Y-83917420D01*
X183832294Y-83865472D01*
X183821071Y-83796510D01*
X183848914Y-83732428D01*
X183856434Y-83724199D01*
X183964035Y-83616598D01*
X184065804Y-83476524D01*
X184144408Y-83322255D01*
X184197914Y-83157584D01*
X184199115Y-83150000D01*
X183130330Y-83150000D01*
X183150075Y-83130255D01*
X183199444Y-83044745D01*
X183225000Y-82949370D01*
X183225000Y-82850630D01*
X183199444Y-82755255D01*
X183150075Y-82669745D01*
X183130330Y-82650000D01*
X184199115Y-82650000D01*
X184199115Y-82649999D01*
X184197914Y-82642415D01*
X184144408Y-82477744D01*
X184065804Y-82323475D01*
X183964032Y-82183397D01*
X183841602Y-82060967D01*
X183701524Y-81959195D01*
X183547257Y-81880591D01*
X183382584Y-81827085D01*
X183211571Y-81800000D01*
X183100000Y-81800000D01*
X183100000Y-82619670D01*
X183080255Y-82599925D01*
X182994745Y-82550556D01*
X182899370Y-82525000D01*
X182800630Y-82525000D01*
X182705255Y-82550556D01*
X182619745Y-82599925D01*
X182600000Y-82619670D01*
X182600000Y-81800000D01*
X182488429Y-81800000D01*
X182317415Y-81827085D01*
X182152742Y-81880591D01*
X181998475Y-81959195D01*
X181858397Y-82060967D01*
X181735967Y-82183397D01*
X181634195Y-82323475D01*
X181555591Y-82477744D01*
X181502085Y-82642415D01*
X181500884Y-82649999D01*
X181500885Y-82650000D01*
X182569670Y-82650000D01*
X182549925Y-82669745D01*
X182500556Y-82755255D01*
X182475000Y-82850630D01*
X182475000Y-82949370D01*
X182500556Y-83044745D01*
X182549925Y-83130255D01*
X182569670Y-83150000D01*
X181500885Y-83150000D01*
X181502085Y-83157584D01*
X181555591Y-83322255D01*
X181634195Y-83476524D01*
X181735967Y-83616602D01*
X181843565Y-83724200D01*
X181877050Y-83785523D01*
X181872066Y-83855215D01*
X181830194Y-83911148D01*
X181820981Y-83917420D01*
X181756342Y-83957289D01*
X181632289Y-84081342D01*
X181540187Y-84230663D01*
X181540186Y-84230666D01*
X181485001Y-84397203D01*
X181485001Y-84397204D01*
X181485000Y-84397204D01*
X181474500Y-84499983D01*
X181474500Y-85300001D01*
X181474501Y-85300019D01*
X181485000Y-85402796D01*
X181485001Y-85402799D01*
X181527597Y-85531342D01*
X181540186Y-85569334D01*
X181632288Y-85718656D01*
X181756344Y-85842712D01*
X181905666Y-85934814D01*
X182027580Y-85975212D01*
X182064504Y-85987448D01*
X182121949Y-86027221D01*
X182148772Y-86091737D01*
X182149500Y-86105154D01*
X182149500Y-89131171D01*
X182129815Y-89198210D01*
X182081797Y-89241655D01*
X182048211Y-89258768D01*
X181968256Y-89316859D01*
X181908072Y-89360586D01*
X181908070Y-89360588D01*
X181908069Y-89360588D01*
X181785588Y-89483069D01*
X181785588Y-89483070D01*
X181785586Y-89483072D01*
X181741859Y-89543256D01*
X181683768Y-89623211D01*
X181605128Y-89777552D01*
X181551597Y-89942302D01*
X181527307Y-90095669D01*
X181524500Y-90113389D01*
X181524500Y-90286611D01*
X181551598Y-90457701D01*
X181605127Y-90622445D01*
X181683768Y-90776788D01*
X181785586Y-90916928D01*
X181785588Y-90916930D01*
X181893127Y-91024469D01*
X181926612Y-91085792D01*
X181921628Y-91155484D01*
X181879756Y-91211417D01*
X181870544Y-91217688D01*
X181806344Y-91257287D01*
X181682289Y-91381342D01*
X181590187Y-91530663D01*
X181590185Y-91530668D01*
X181589719Y-91532074D01*
X181535001Y-91697203D01*
X181535001Y-91697204D01*
X181535000Y-91697204D01*
X181524500Y-91799983D01*
X181524500Y-92462769D01*
X181504815Y-92529808D01*
X181488181Y-92550450D01*
X181017052Y-93021578D01*
X181017049Y-93021581D01*
X180967812Y-93095271D01*
X180934921Y-93144496D01*
X180934914Y-93144508D01*
X180878342Y-93281086D01*
X180878340Y-93281092D01*
X180849500Y-93426079D01*
X180849500Y-97221042D01*
X180829815Y-97288081D01*
X180790598Y-97326580D01*
X180781344Y-97332287D01*
X180657289Y-97456342D01*
X180565187Y-97605663D01*
X180565185Y-97605668D01*
X180548412Y-97656286D01*
X180510001Y-97772203D01*
X180510001Y-97772204D01*
X180510000Y-97772204D01*
X180499500Y-97874983D01*
X180499500Y-98537769D01*
X180479815Y-98604808D01*
X180463181Y-98625450D01*
X177976589Y-101112042D01*
X177915266Y-101145527D01*
X177845574Y-101140543D01*
X177801227Y-101112042D01*
X177697213Y-101008028D01*
X177531613Y-100887715D01*
X177531612Y-100887714D01*
X177531610Y-100887713D01*
X177474653Y-100858691D01*
X177349223Y-100794781D01*
X177154534Y-100731522D01*
X176979995Y-100703878D01*
X176952352Y-100699500D01*
X176747648Y-100699500D01*
X176723329Y-100703351D01*
X176545465Y-100731522D01*
X176350776Y-100794781D01*
X176168386Y-100887715D01*
X176002786Y-101008028D01*
X175858028Y-101152786D01*
X175737714Y-101318386D01*
X175710203Y-101372379D01*
X175662227Y-101423174D01*
X175594406Y-101439968D01*
X175528272Y-101417429D01*
X175489234Y-101372376D01*
X175461861Y-101318652D01*
X175429474Y-101274077D01*
X175429474Y-101274076D01*
X174750000Y-101953551D01*
X174750000Y-101947339D01*
X174722741Y-101845606D01*
X174670080Y-101754394D01*
X174595606Y-101679920D01*
X174504394Y-101627259D01*
X174402661Y-101600000D01*
X174396446Y-101600000D01*
X175075922Y-100920524D01*
X175075921Y-100920523D01*
X175031359Y-100888147D01*
X175031350Y-100888141D01*
X174849031Y-100795244D01*
X174654417Y-100732009D01*
X174452317Y-100700000D01*
X174247683Y-100700000D01*
X174045582Y-100732009D01*
X173850968Y-100795244D01*
X173668644Y-100888143D01*
X173624077Y-100920523D01*
X173624077Y-100920524D01*
X174303554Y-101600000D01*
X174297339Y-101600000D01*
X174195606Y-101627259D01*
X174104394Y-101679920D01*
X174029920Y-101754394D01*
X173977259Y-101845606D01*
X173950000Y-101947339D01*
X173950000Y-101953553D01*
X173270524Y-101274077D01*
X173270523Y-101274077D01*
X173238143Y-101318644D01*
X173145244Y-101500968D01*
X173082009Y-101695582D01*
X173050000Y-101897682D01*
X173050000Y-102102317D01*
X173082009Y-102304417D01*
X173145244Y-102499031D01*
X173238141Y-102681350D01*
X173238147Y-102681359D01*
X173270523Y-102725921D01*
X173270524Y-102725922D01*
X173950000Y-102046446D01*
X173950000Y-102052661D01*
X173977259Y-102154394D01*
X174029920Y-102245606D01*
X174104394Y-102320080D01*
X174195606Y-102372741D01*
X174297339Y-102400000D01*
X174303553Y-102400000D01*
X173619067Y-103084483D01*
X173608635Y-103134147D01*
X173559584Y-103183905D01*
X173499381Y-103199500D01*
X138714428Y-103199500D01*
X138705582Y-103199184D01*
X138683622Y-103197613D01*
X138505442Y-103184869D01*
X138487931Y-103182351D01*
X138296212Y-103140646D01*
X138279236Y-103135662D01*
X138095390Y-103067090D01*
X138079298Y-103059740D01*
X137907095Y-102965711D01*
X137892210Y-102956146D01*
X137735132Y-102838558D01*
X137721762Y-102826972D01*
X137583027Y-102688237D01*
X137571441Y-102674867D01*
X137564119Y-102665086D01*
X137453849Y-102517784D01*
X137444288Y-102502904D01*
X137350259Y-102330701D01*
X137342909Y-102314609D01*
X137317172Y-102245606D01*
X137274334Y-102130755D01*
X137269355Y-102113797D01*
X137227647Y-101922063D01*
X137225130Y-101904557D01*
X137224923Y-101901663D01*
X137224923Y-101901662D01*
X137224638Y-101897682D01*
X137210816Y-101704418D01*
X137210500Y-101695572D01*
X137210500Y-94399983D01*
X147844500Y-94399983D01*
X147844500Y-95700001D01*
X147844501Y-95700018D01*
X147855000Y-95802796D01*
X147855001Y-95802799D01*
X147910185Y-95969331D01*
X147910187Y-95969336D01*
X148002289Y-96118657D01*
X148126344Y-96242712D01*
X148281120Y-96338178D01*
X148327845Y-96390126D01*
X148339068Y-96459088D01*
X148311224Y-96523171D01*
X148303706Y-96531398D01*
X148164889Y-96670215D01*
X148039951Y-96842179D01*
X147943444Y-97031585D01*
X147877753Y-97233760D01*
X147844500Y-97443713D01*
X147844500Y-97656286D01*
X147877140Y-97862371D01*
X147877754Y-97866243D01*
X147922632Y-98004364D01*
X147943444Y-98068414D01*
X148039951Y-98257820D01*
X148164890Y-98429786D01*
X148315213Y-98580109D01*
X148487179Y-98705048D01*
X148487181Y-98705049D01*
X148487184Y-98705051D01*
X148676588Y-98801557D01*
X148878757Y-98867246D01*
X149088713Y-98900500D01*
X149088714Y-98900500D01*
X149601286Y-98900500D01*
X149601287Y-98900500D01*
X149811243Y-98867246D01*
X150013412Y-98801557D01*
X150202816Y-98705051D01*
X150224789Y-98689086D01*
X150374786Y-98580109D01*
X150374788Y-98580106D01*
X150374792Y-98580104D01*
X150525104Y-98429792D01*
X150525106Y-98429788D01*
X150525109Y-98429786D01*
X150650048Y-98257820D01*
X150650047Y-98257820D01*
X150650051Y-98257816D01*
X150679184Y-98200639D01*
X159037500Y-98200639D01*
X159037500Y-98399360D01*
X159068587Y-98595637D01*
X159129993Y-98784629D01*
X159129994Y-98784632D01*
X159172089Y-98867246D01*
X159220213Y-98961694D01*
X159337019Y-99122464D01*
X159477536Y-99262981D01*
X159638306Y-99379787D01*
X159725149Y-99424035D01*
X159815367Y-99470005D01*
X159815370Y-99470006D01*
X159909866Y-99500709D01*
X160004364Y-99531413D01*
X160200639Y-99562500D01*
X160200640Y-99562500D01*
X160399360Y-99562500D01*
X160399361Y-99562500D01*
X160595636Y-99531413D01*
X160784632Y-99470005D01*
X160961694Y-99379787D01*
X161122464Y-99262981D01*
X161262981Y-99122464D01*
X161379787Y-98961694D01*
X161459515Y-98805218D01*
X161507490Y-98754423D01*
X161575311Y-98737628D01*
X161641446Y-98760165D01*
X161680484Y-98805218D01*
X161760213Y-98961694D01*
X161877019Y-99122464D01*
X162017536Y-99262981D01*
X162178306Y-99379787D01*
X162265149Y-99424035D01*
X162355367Y-99470005D01*
X162355370Y-99470006D01*
X162449866Y-99500709D01*
X162544364Y-99531413D01*
X162740639Y-99562500D01*
X162740640Y-99562500D01*
X162939360Y-99562500D01*
X162939361Y-99562500D01*
X163135636Y-99531413D01*
X163324632Y-99470005D01*
X163501694Y-99379787D01*
X163662464Y-99262981D01*
X163802981Y-99122464D01*
X163919787Y-98961694D01*
X163999515Y-98805218D01*
X164047490Y-98754423D01*
X164115311Y-98737628D01*
X164181446Y-98760165D01*
X164220484Y-98805218D01*
X164300213Y-98961694D01*
X164417019Y-99122464D01*
X164557536Y-99262981D01*
X164718306Y-99379787D01*
X164805149Y-99424035D01*
X164895367Y-99470005D01*
X164895370Y-99470006D01*
X164989866Y-99500709D01*
X165084364Y-99531413D01*
X165280639Y-99562500D01*
X165280640Y-99562500D01*
X165479360Y-99562500D01*
X165479361Y-99562500D01*
X165675636Y-99531413D01*
X165864632Y-99470005D01*
X166041694Y-99379787D01*
X166202464Y-99262981D01*
X166342981Y-99122464D01*
X166459787Y-98961694D01*
X166539515Y-98805218D01*
X166587490Y-98754423D01*
X166655311Y-98737628D01*
X166721446Y-98760165D01*
X166760484Y-98805218D01*
X166840213Y-98961694D01*
X166957019Y-99122464D01*
X167097536Y-99262981D01*
X167258306Y-99379787D01*
X167345149Y-99424035D01*
X167435367Y-99470005D01*
X167435370Y-99470006D01*
X167529866Y-99500709D01*
X167624364Y-99531413D01*
X167820639Y-99562500D01*
X167820640Y-99562500D01*
X168019360Y-99562500D01*
X168019361Y-99562500D01*
X168215636Y-99531413D01*
X168404632Y-99470005D01*
X168581694Y-99379787D01*
X168742464Y-99262981D01*
X168882981Y-99122464D01*
X168999787Y-98961694D01*
X169079515Y-98805218D01*
X169127490Y-98754423D01*
X169195311Y-98737628D01*
X169261446Y-98760165D01*
X169300484Y-98805218D01*
X169380213Y-98961694D01*
X169497019Y-99122464D01*
X169637536Y-99262981D01*
X169798306Y-99379787D01*
X169885149Y-99424035D01*
X169975367Y-99470005D01*
X169975370Y-99470006D01*
X170069866Y-99500709D01*
X170164364Y-99531413D01*
X170360639Y-99562500D01*
X170360640Y-99562500D01*
X170559360Y-99562500D01*
X170559361Y-99562500D01*
X170755636Y-99531413D01*
X170944632Y-99470005D01*
X171121694Y-99379787D01*
X171282464Y-99262981D01*
X171422981Y-99122464D01*
X171539787Y-98961694D01*
X171619796Y-98804667D01*
X171667769Y-98753872D01*
X171735590Y-98737077D01*
X171801725Y-98759614D01*
X171840765Y-98804668D01*
X171920641Y-98961432D01*
X171947730Y-98998715D01*
X171947731Y-98998716D01*
X172562352Y-98384094D01*
X172585792Y-98471571D01*
X172644311Y-98572930D01*
X172727070Y-98655689D01*
X172828429Y-98714208D01*
X172915905Y-98737647D01*
X172301283Y-99352268D01*
X172301283Y-99352269D01*
X172338567Y-99379358D01*
X172515562Y-99469542D01*
X172704477Y-99530924D01*
X172900679Y-99562000D01*
X173099321Y-99562000D01*
X173295520Y-99530924D01*
X173295523Y-99530924D01*
X173484437Y-99469542D01*
X173661425Y-99379362D01*
X173698716Y-99352268D01*
X173084095Y-98737647D01*
X173171571Y-98714208D01*
X173272930Y-98655689D01*
X173355689Y-98572930D01*
X173414208Y-98471571D01*
X173437647Y-98384094D01*
X174052268Y-98998715D01*
X174079364Y-98961422D01*
X174159234Y-98804669D01*
X174207208Y-98753872D01*
X174275029Y-98737077D01*
X174341164Y-98759614D01*
X174380203Y-98804667D01*
X174460213Y-98961694D01*
X174577019Y-99122464D01*
X174717536Y-99262981D01*
X174878306Y-99379787D01*
X174965149Y-99424035D01*
X175055367Y-99470005D01*
X175055370Y-99470006D01*
X175149866Y-99500709D01*
X175244364Y-99531413D01*
X175440639Y-99562500D01*
X175440640Y-99562500D01*
X175639360Y-99562500D01*
X175639361Y-99562500D01*
X175835636Y-99531413D01*
X176024632Y-99470005D01*
X176201694Y-99379787D01*
X176362464Y-99262981D01*
X176502981Y-99122464D01*
X176619787Y-98961694D01*
X176710005Y-98784632D01*
X176771413Y-98595636D01*
X176802500Y-98399361D01*
X176802500Y-98200639D01*
X176771413Y-98004364D01*
X176723045Y-97855500D01*
X176710006Y-97815370D01*
X176710005Y-97815367D01*
X176650445Y-97698475D01*
X176619787Y-97638306D01*
X176502981Y-97477536D01*
X176362464Y-97337019D01*
X176201694Y-97220213D01*
X176163759Y-97200884D01*
X176024632Y-97129994D01*
X176024629Y-97129993D01*
X175835637Y-97068587D01*
X175737498Y-97053043D01*
X175639361Y-97037500D01*
X175440639Y-97037500D01*
X175375214Y-97047862D01*
X175244362Y-97068587D01*
X175055370Y-97129993D01*
X175055367Y-97129994D01*
X174878305Y-97220213D01*
X174717533Y-97337021D01*
X174577021Y-97477533D01*
X174460213Y-97638305D01*
X174380204Y-97795331D01*
X174332229Y-97846127D01*
X174264408Y-97862922D01*
X174198273Y-97840384D01*
X174159234Y-97795331D01*
X174079358Y-97638567D01*
X174052268Y-97601283D01*
X173437647Y-98215904D01*
X173414208Y-98128429D01*
X173355689Y-98027070D01*
X173272930Y-97944311D01*
X173171571Y-97885792D01*
X173084094Y-97862352D01*
X173698716Y-97247731D01*
X173698715Y-97247730D01*
X173661432Y-97220641D01*
X173484437Y-97130457D01*
X173295522Y-97069075D01*
X173099321Y-97038000D01*
X172900679Y-97038000D01*
X172704479Y-97069075D01*
X172704476Y-97069075D01*
X172515562Y-97130457D01*
X172338564Y-97220643D01*
X172301283Y-97247729D01*
X172301282Y-97247730D01*
X172915906Y-97862352D01*
X172828429Y-97885792D01*
X172727070Y-97944311D01*
X172644311Y-98027070D01*
X172585792Y-98128429D01*
X172562352Y-98215905D01*
X171947730Y-97601282D01*
X171947729Y-97601283D01*
X171920641Y-97638566D01*
X171840764Y-97795332D01*
X171792790Y-97846127D01*
X171724969Y-97862922D01*
X171658834Y-97840384D01*
X171619796Y-97795332D01*
X171539787Y-97638306D01*
X171422981Y-97477536D01*
X171282464Y-97337019D01*
X171121694Y-97220213D01*
X171083759Y-97200884D01*
X170944632Y-97129994D01*
X170944629Y-97129993D01*
X170755637Y-97068587D01*
X170657498Y-97053043D01*
X170559361Y-97037500D01*
X170360639Y-97037500D01*
X170295214Y-97047862D01*
X170164362Y-97068587D01*
X169975370Y-97129993D01*
X169975367Y-97129994D01*
X169798305Y-97220213D01*
X169637533Y-97337021D01*
X169497021Y-97477533D01*
X169380213Y-97638305D01*
X169300485Y-97794780D01*
X169252510Y-97845576D01*
X169184689Y-97862371D01*
X169118554Y-97839833D01*
X169079515Y-97794780D01*
X169030445Y-97698475D01*
X168999787Y-97638306D01*
X168882981Y-97477536D01*
X168742464Y-97337019D01*
X168581694Y-97220213D01*
X168543759Y-97200884D01*
X168404632Y-97129994D01*
X168404629Y-97129993D01*
X168215637Y-97068587D01*
X168117498Y-97053043D01*
X168019361Y-97037500D01*
X167820639Y-97037500D01*
X167755214Y-97047862D01*
X167624362Y-97068587D01*
X167435370Y-97129993D01*
X167435367Y-97129994D01*
X167258305Y-97220213D01*
X167097533Y-97337021D01*
X166957021Y-97477533D01*
X166840213Y-97638305D01*
X166760485Y-97794780D01*
X166712510Y-97845576D01*
X166644689Y-97862371D01*
X166578554Y-97839833D01*
X166539515Y-97794780D01*
X166490445Y-97698475D01*
X166459787Y-97638306D01*
X166342981Y-97477536D01*
X166202464Y-97337019D01*
X166041694Y-97220213D01*
X166003759Y-97200884D01*
X165864632Y-97129994D01*
X165864629Y-97129993D01*
X165675637Y-97068587D01*
X165577498Y-97053043D01*
X165479361Y-97037500D01*
X165280639Y-97037500D01*
X165215214Y-97047862D01*
X165084362Y-97068587D01*
X164895370Y-97129993D01*
X164895367Y-97129994D01*
X164718305Y-97220213D01*
X164557533Y-97337021D01*
X164417021Y-97477533D01*
X164300213Y-97638305D01*
X164220485Y-97794780D01*
X164172510Y-97845576D01*
X164104689Y-97862371D01*
X164038554Y-97839833D01*
X163999515Y-97794780D01*
X163950445Y-97698475D01*
X163919787Y-97638306D01*
X163802981Y-97477536D01*
X163662464Y-97337019D01*
X163501694Y-97220213D01*
X163463759Y-97200884D01*
X163324632Y-97129994D01*
X163324629Y-97129993D01*
X163135637Y-97068587D01*
X163037498Y-97053043D01*
X162939361Y-97037500D01*
X162740639Y-97037500D01*
X162675214Y-97047862D01*
X162544362Y-97068587D01*
X162355370Y-97129993D01*
X162355367Y-97129994D01*
X162178305Y-97220213D01*
X162017533Y-97337021D01*
X161877021Y-97477533D01*
X161760213Y-97638305D01*
X161680485Y-97794780D01*
X161632510Y-97845576D01*
X161564689Y-97862371D01*
X161498554Y-97839833D01*
X161459515Y-97794780D01*
X161410445Y-97698475D01*
X161379787Y-97638306D01*
X161262981Y-97477536D01*
X161122464Y-97337019D01*
X160961694Y-97220213D01*
X160923759Y-97200884D01*
X160784632Y-97129994D01*
X160784629Y-97129993D01*
X160595637Y-97068587D01*
X160497498Y-97053043D01*
X160399361Y-97037500D01*
X160200639Y-97037500D01*
X160135214Y-97047862D01*
X160004362Y-97068587D01*
X159815370Y-97129993D01*
X159815367Y-97129994D01*
X159638305Y-97220213D01*
X159477533Y-97337021D01*
X159337021Y-97477533D01*
X159220213Y-97638305D01*
X159129994Y-97815367D01*
X159129993Y-97815370D01*
X159068587Y-98004362D01*
X159037500Y-98200639D01*
X150679184Y-98200639D01*
X150746557Y-98068412D01*
X150812246Y-97866243D01*
X150845500Y-97656287D01*
X150845500Y-97443713D01*
X150812246Y-97233757D01*
X150746557Y-97031588D01*
X150650051Y-96842184D01*
X150650049Y-96842181D01*
X150650048Y-96842179D01*
X150525109Y-96670213D01*
X150386294Y-96531398D01*
X150352809Y-96470075D01*
X150357793Y-96400383D01*
X150399665Y-96344450D01*
X150408879Y-96338178D01*
X150414331Y-96334814D01*
X150414334Y-96334814D01*
X150563656Y-96242712D01*
X150687712Y-96118656D01*
X150779814Y-95969334D01*
X150834999Y-95802797D01*
X150845500Y-95700009D01*
X150845499Y-94399992D01*
X150834999Y-94297203D01*
X150779814Y-94130666D01*
X150687712Y-93981344D01*
X150563656Y-93857288D01*
X150414334Y-93765186D01*
X150247797Y-93710001D01*
X150247795Y-93710000D01*
X150145010Y-93699500D01*
X148544998Y-93699500D01*
X148544981Y-93699501D01*
X148442203Y-93710000D01*
X148442200Y-93710001D01*
X148275668Y-93765185D01*
X148275663Y-93765187D01*
X148126342Y-93857289D01*
X148002289Y-93981342D01*
X147910187Y-94130663D01*
X147910186Y-94130666D01*
X147855001Y-94297203D01*
X147855001Y-94297204D01*
X147855000Y-94297204D01*
X147844500Y-94399983D01*
X137210500Y-94399983D01*
X137210500Y-90655513D01*
X139439500Y-90655513D01*
X139439500Y-90844486D01*
X139469059Y-91031118D01*
X139527454Y-91210836D01*
X139551123Y-91257288D01*
X139613240Y-91379199D01*
X139724310Y-91532073D01*
X139857927Y-91665690D01*
X140010801Y-91776760D01*
X140090347Y-91817290D01*
X140179163Y-91862545D01*
X140179165Y-91862545D01*
X140179168Y-91862547D01*
X140275497Y-91893846D01*
X140358881Y-91920940D01*
X140545514Y-91950500D01*
X140545519Y-91950500D01*
X140734486Y-91950500D01*
X140921118Y-91920940D01*
X140922623Y-91920451D01*
X141100832Y-91862547D01*
X141269199Y-91776760D01*
X141295182Y-91757882D01*
X141885669Y-91757882D01*
X141885670Y-91757883D01*
X141911059Y-91776329D01*
X142079362Y-91862085D01*
X142258997Y-91920451D01*
X142445553Y-91950000D01*
X142634447Y-91950000D01*
X142821002Y-91920451D01*
X143000637Y-91862085D01*
X143168937Y-91776331D01*
X143194328Y-91757883D01*
X143194328Y-91757882D01*
X142540001Y-91103554D01*
X142540000Y-91103554D01*
X141885669Y-91757882D01*
X141295182Y-91757882D01*
X141422073Y-91665690D01*
X141555690Y-91532073D01*
X141666760Y-91379199D01*
X141752547Y-91210832D01*
X141756310Y-91199249D01*
X141786561Y-91149882D01*
X142186445Y-90749999D01*
X142140368Y-90703922D01*
X142190000Y-90703922D01*
X142190000Y-90796078D01*
X142213852Y-90885095D01*
X142259930Y-90964905D01*
X142325095Y-91030070D01*
X142404905Y-91076148D01*
X142493922Y-91100000D01*
X142586078Y-91100000D01*
X142675095Y-91076148D01*
X142754905Y-91030070D01*
X142820070Y-90964905D01*
X142866148Y-90885095D01*
X142890000Y-90796078D01*
X142890000Y-90749999D01*
X142893554Y-90749999D01*
X142893554Y-90750000D01*
X143547882Y-91404328D01*
X143547883Y-91404328D01*
X143566331Y-91378937D01*
X143652085Y-91210637D01*
X143710451Y-91031002D01*
X143740000Y-90844447D01*
X143740000Y-90655552D01*
X143739994Y-90655513D01*
X148039500Y-90655513D01*
X148039500Y-90844486D01*
X148069059Y-91031118D01*
X148127454Y-91210836D01*
X148151123Y-91257288D01*
X148213240Y-91379199D01*
X148324310Y-91532073D01*
X148457927Y-91665690D01*
X148610801Y-91776760D01*
X148690347Y-91817290D01*
X148779163Y-91862545D01*
X148779165Y-91862545D01*
X148779168Y-91862547D01*
X148875497Y-91893846D01*
X148958881Y-91920940D01*
X149145514Y-91950500D01*
X149145519Y-91950500D01*
X149334486Y-91950500D01*
X149521118Y-91920940D01*
X149522623Y-91920451D01*
X149700832Y-91862547D01*
X149869199Y-91776760D01*
X149895182Y-91757882D01*
X150485669Y-91757882D01*
X150485670Y-91757883D01*
X150511059Y-91776329D01*
X150679362Y-91862085D01*
X150858997Y-91920451D01*
X151045553Y-91950000D01*
X151234447Y-91950000D01*
X151421002Y-91920451D01*
X151600637Y-91862085D01*
X151768937Y-91776331D01*
X151794328Y-91757883D01*
X151794328Y-91757882D01*
X151140001Y-91103554D01*
X151140000Y-91103554D01*
X150485669Y-91757882D01*
X149895182Y-91757882D01*
X150022073Y-91665690D01*
X150155690Y-91532073D01*
X150266760Y-91379199D01*
X150352547Y-91210832D01*
X150356310Y-91199249D01*
X150386561Y-91149882D01*
X150786445Y-90749999D01*
X150740368Y-90703922D01*
X150790000Y-90703922D01*
X150790000Y-90796078D01*
X150813852Y-90885095D01*
X150859930Y-90964905D01*
X150925095Y-91030070D01*
X151004905Y-91076148D01*
X151093922Y-91100000D01*
X151186078Y-91100000D01*
X151275095Y-91076148D01*
X151354905Y-91030070D01*
X151420070Y-90964905D01*
X151466148Y-90885095D01*
X151490000Y-90796078D01*
X151490000Y-90749999D01*
X151493554Y-90749999D01*
X151493554Y-90750000D01*
X152147882Y-91404328D01*
X152147883Y-91404328D01*
X152166331Y-91378937D01*
X152252085Y-91210637D01*
X152310451Y-91031002D01*
X152340000Y-90844447D01*
X152340000Y-90655552D01*
X152310451Y-90468997D01*
X152252085Y-90289362D01*
X152166329Y-90121059D01*
X152147883Y-90095670D01*
X152147882Y-90095669D01*
X151493554Y-90749999D01*
X151490000Y-90749999D01*
X151490000Y-90703922D01*
X151466148Y-90614905D01*
X151420070Y-90535095D01*
X151354905Y-90469930D01*
X151275095Y-90423852D01*
X151186078Y-90400000D01*
X151093922Y-90400000D01*
X151004905Y-90423852D01*
X150925095Y-90469930D01*
X150859930Y-90535095D01*
X150813852Y-90614905D01*
X150790000Y-90703922D01*
X150740368Y-90703922D01*
X150386560Y-90350114D01*
X150356310Y-90300750D01*
X150352546Y-90289166D01*
X150266759Y-90120800D01*
X150248500Y-90095669D01*
X150155690Y-89967927D01*
X150022073Y-89834310D01*
X149895179Y-89742116D01*
X150485669Y-89742116D01*
X151140000Y-90396446D01*
X151140001Y-90396446D01*
X151794328Y-89742116D01*
X151768933Y-89723666D01*
X151600637Y-89637914D01*
X151421002Y-89579548D01*
X151234447Y-89550000D01*
X151045553Y-89550000D01*
X150858997Y-89579548D01*
X150679362Y-89637914D01*
X150511060Y-89723669D01*
X150485670Y-89742116D01*
X150485669Y-89742116D01*
X149895179Y-89742116D01*
X149869199Y-89723240D01*
X149700836Y-89637454D01*
X149521118Y-89579059D01*
X149334486Y-89549500D01*
X149334481Y-89549500D01*
X149145519Y-89549500D01*
X149145514Y-89549500D01*
X148958881Y-89579059D01*
X148779163Y-89637454D01*
X148610800Y-89723240D01*
X148536047Y-89777552D01*
X148457927Y-89834310D01*
X148457925Y-89834312D01*
X148457924Y-89834312D01*
X148324312Y-89967924D01*
X148324312Y-89967925D01*
X148324310Y-89967927D01*
X148276610Y-90033579D01*
X148213240Y-90120800D01*
X148127454Y-90289163D01*
X148069059Y-90468881D01*
X148039500Y-90655513D01*
X143739994Y-90655513D01*
X143710451Y-90468997D01*
X143652085Y-90289362D01*
X143566329Y-90121059D01*
X143547883Y-90095670D01*
X143547882Y-90095669D01*
X142893554Y-90749999D01*
X142890000Y-90749999D01*
X142890000Y-90703922D01*
X142866148Y-90614905D01*
X142820070Y-90535095D01*
X142754905Y-90469930D01*
X142675095Y-90423852D01*
X142586078Y-90400000D01*
X142493922Y-90400000D01*
X142404905Y-90423852D01*
X142325095Y-90469930D01*
X142259930Y-90535095D01*
X142213852Y-90614905D01*
X142190000Y-90703922D01*
X142140368Y-90703922D01*
X141786560Y-90350114D01*
X141756310Y-90300750D01*
X141752546Y-90289166D01*
X141666759Y-90120800D01*
X141648500Y-90095669D01*
X141555690Y-89967927D01*
X141422073Y-89834310D01*
X141295179Y-89742116D01*
X141885669Y-89742116D01*
X142540000Y-90396446D01*
X142540001Y-90396446D01*
X143194328Y-89742116D01*
X143168933Y-89723666D01*
X143000637Y-89637914D01*
X142821002Y-89579548D01*
X142634447Y-89550000D01*
X142445553Y-89550000D01*
X142258997Y-89579548D01*
X142079362Y-89637914D01*
X141911060Y-89723669D01*
X141885670Y-89742116D01*
X141885669Y-89742116D01*
X141295179Y-89742116D01*
X141269199Y-89723240D01*
X141100836Y-89637454D01*
X140921118Y-89579059D01*
X140734486Y-89549500D01*
X140734481Y-89549500D01*
X140545519Y-89549500D01*
X140545514Y-89549500D01*
X140358881Y-89579059D01*
X140179163Y-89637454D01*
X140010800Y-89723240D01*
X139936047Y-89777552D01*
X139857927Y-89834310D01*
X139857925Y-89834312D01*
X139857924Y-89834312D01*
X139724312Y-89967924D01*
X139724312Y-89967925D01*
X139724310Y-89967927D01*
X139676610Y-90033579D01*
X139613240Y-90120800D01*
X139527454Y-90289163D01*
X139469059Y-90468881D01*
X139439500Y-90655513D01*
X137210500Y-90655513D01*
X137210500Y-83993713D01*
X147789500Y-83993713D01*
X147789500Y-84206286D01*
X147822753Y-84416239D01*
X147888444Y-84618414D01*
X147984951Y-84807820D01*
X148109890Y-84979786D01*
X148248705Y-85118601D01*
X148282190Y-85179924D01*
X148277206Y-85249616D01*
X148235334Y-85305549D01*
X148226121Y-85311821D01*
X148071342Y-85407289D01*
X147947289Y-85531342D01*
X147855187Y-85680663D01*
X147855186Y-85680666D01*
X147800001Y-85847203D01*
X147800001Y-85847204D01*
X147800000Y-85847204D01*
X147789500Y-85949983D01*
X147789500Y-87250001D01*
X147789501Y-87250018D01*
X147800000Y-87352796D01*
X147800001Y-87352799D01*
X147855185Y-87519331D01*
X147855186Y-87519334D01*
X147947288Y-87668656D01*
X148071344Y-87792712D01*
X148220666Y-87884814D01*
X148387203Y-87939999D01*
X148489991Y-87950500D01*
X150090008Y-87950499D01*
X150192797Y-87939999D01*
X150359334Y-87884814D01*
X150508656Y-87792712D01*
X150632712Y-87668656D01*
X150724814Y-87519334D01*
X150779999Y-87352797D01*
X150790500Y-87250009D01*
X150790499Y-85949992D01*
X150779999Y-85847203D01*
X150724814Y-85680666D01*
X150632712Y-85531344D01*
X150508656Y-85407288D01*
X150359334Y-85315186D01*
X150359333Y-85315185D01*
X150353878Y-85311821D01*
X150307154Y-85259873D01*
X150295931Y-85190910D01*
X150323775Y-85126828D01*
X150331272Y-85118623D01*
X150470104Y-84979792D01*
X150595051Y-84807816D01*
X150691557Y-84618412D01*
X150757246Y-84416243D01*
X150790500Y-84206287D01*
X150790500Y-83993713D01*
X150757246Y-83783757D01*
X150691557Y-83581588D01*
X150595051Y-83392184D01*
X150595049Y-83392181D01*
X150595048Y-83392179D01*
X150470109Y-83220213D01*
X150319786Y-83069890D01*
X150300784Y-83056085D01*
X150169413Y-82960639D01*
X159037500Y-82960639D01*
X159037500Y-83159361D01*
X159047137Y-83220208D01*
X159068587Y-83355637D01*
X159129993Y-83544629D01*
X159129994Y-83544632D01*
X159220213Y-83721694D01*
X159337019Y-83882464D01*
X159477536Y-84022981D01*
X159638306Y-84139787D01*
X159725149Y-84184035D01*
X159815367Y-84230005D01*
X159815370Y-84230006D01*
X159909866Y-84260709D01*
X160004364Y-84291413D01*
X160200639Y-84322500D01*
X160200640Y-84322500D01*
X160399360Y-84322500D01*
X160399361Y-84322500D01*
X160595636Y-84291413D01*
X160777815Y-84232219D01*
X160784629Y-84230006D01*
X160784632Y-84230005D01*
X160961694Y-84139787D01*
X161122464Y-84022981D01*
X161262981Y-83882464D01*
X161379787Y-83721694D01*
X161459515Y-83565218D01*
X161507490Y-83514423D01*
X161575311Y-83497628D01*
X161641446Y-83520165D01*
X161680484Y-83565218D01*
X161760213Y-83721694D01*
X161877019Y-83882464D01*
X162017536Y-84022981D01*
X162178306Y-84139787D01*
X162265149Y-84184035D01*
X162355367Y-84230005D01*
X162355370Y-84230006D01*
X162449866Y-84260709D01*
X162544364Y-84291413D01*
X162740639Y-84322500D01*
X162740640Y-84322500D01*
X162939360Y-84322500D01*
X162939361Y-84322500D01*
X163135636Y-84291413D01*
X163317815Y-84232219D01*
X163324629Y-84230006D01*
X163324632Y-84230005D01*
X163501694Y-84139787D01*
X163662464Y-84022981D01*
X163802981Y-83882464D01*
X163919787Y-83721694D01*
X163999515Y-83565218D01*
X164047490Y-83514423D01*
X164115311Y-83497628D01*
X164181446Y-83520165D01*
X164220484Y-83565218D01*
X164300213Y-83721694D01*
X164417019Y-83882464D01*
X164557536Y-84022981D01*
X164718306Y-84139787D01*
X164805149Y-84184035D01*
X164895367Y-84230005D01*
X164895370Y-84230006D01*
X164989866Y-84260709D01*
X165084364Y-84291413D01*
X165280639Y-84322500D01*
X165280640Y-84322500D01*
X165479360Y-84322500D01*
X165479361Y-84322500D01*
X165675636Y-84291413D01*
X165857815Y-84232219D01*
X165864629Y-84230006D01*
X165864632Y-84230005D01*
X166041694Y-84139787D01*
X166202464Y-84022981D01*
X166342981Y-83882464D01*
X166459787Y-83721694D01*
X166539515Y-83565218D01*
X166587490Y-83514423D01*
X166655311Y-83497628D01*
X166721446Y-83520165D01*
X166760484Y-83565218D01*
X166840213Y-83721694D01*
X166957019Y-83882464D01*
X167097536Y-84022981D01*
X167258306Y-84139787D01*
X167345149Y-84184035D01*
X167435367Y-84230005D01*
X167435370Y-84230006D01*
X167529866Y-84260709D01*
X167624364Y-84291413D01*
X167820639Y-84322500D01*
X167820640Y-84322500D01*
X168019360Y-84322500D01*
X168019361Y-84322500D01*
X168215636Y-84291413D01*
X168397815Y-84232219D01*
X168404629Y-84230006D01*
X168404632Y-84230005D01*
X168581694Y-84139787D01*
X168742464Y-84022981D01*
X168882981Y-83882464D01*
X168999787Y-83721694D01*
X169079515Y-83565218D01*
X169127490Y-83514423D01*
X169195311Y-83497628D01*
X169261446Y-83520165D01*
X169300484Y-83565218D01*
X169380213Y-83721694D01*
X169497019Y-83882464D01*
X169637536Y-84022981D01*
X169798306Y-84139787D01*
X169885149Y-84184035D01*
X169975367Y-84230005D01*
X169975370Y-84230006D01*
X170069866Y-84260709D01*
X170164364Y-84291413D01*
X170360639Y-84322500D01*
X170360640Y-84322500D01*
X170559360Y-84322500D01*
X170559361Y-84322500D01*
X170755636Y-84291413D01*
X170937815Y-84232219D01*
X170944629Y-84230006D01*
X170944632Y-84230005D01*
X171121694Y-84139787D01*
X171282464Y-84022981D01*
X171422981Y-83882464D01*
X171539787Y-83721694D01*
X171619515Y-83565218D01*
X171667490Y-83514423D01*
X171735311Y-83497628D01*
X171801446Y-83520165D01*
X171840484Y-83565218D01*
X171920213Y-83721694D01*
X172037019Y-83882464D01*
X172177536Y-84022981D01*
X172338306Y-84139787D01*
X172425149Y-84184035D01*
X172515367Y-84230005D01*
X172515370Y-84230006D01*
X172609866Y-84260709D01*
X172704364Y-84291413D01*
X172900639Y-84322500D01*
X172900640Y-84322500D01*
X173099360Y-84322500D01*
X173099361Y-84322500D01*
X173295636Y-84291413D01*
X173477815Y-84232219D01*
X173484629Y-84230006D01*
X173484632Y-84230005D01*
X173661694Y-84139787D01*
X173822464Y-84022981D01*
X173962981Y-83882464D01*
X174079787Y-83721694D01*
X174159515Y-83565218D01*
X174207490Y-83514423D01*
X174275311Y-83497628D01*
X174341446Y-83520165D01*
X174380484Y-83565218D01*
X174460213Y-83721694D01*
X174577019Y-83882464D01*
X174717536Y-84022981D01*
X174878306Y-84139787D01*
X174965149Y-84184035D01*
X175055367Y-84230005D01*
X175055370Y-84230006D01*
X175149866Y-84260709D01*
X175244364Y-84291413D01*
X175440639Y-84322500D01*
X175440640Y-84322500D01*
X175639360Y-84322500D01*
X175639361Y-84322500D01*
X175835636Y-84291413D01*
X176017815Y-84232219D01*
X176024629Y-84230006D01*
X176024632Y-84230005D01*
X176201694Y-84139787D01*
X176362464Y-84022981D01*
X176502981Y-83882464D01*
X176619787Y-83721694D01*
X176710005Y-83544632D01*
X176771413Y-83355636D01*
X176802500Y-83159361D01*
X176802500Y-82960639D01*
X176771413Y-82764364D01*
X176771412Y-82764360D01*
X176758748Y-82725382D01*
X176710006Y-82575370D01*
X176710005Y-82575367D01*
X176619786Y-82398305D01*
X176565419Y-82323475D01*
X176502981Y-82237536D01*
X176362464Y-82097019D01*
X176201694Y-81980213D01*
X176160444Y-81959195D01*
X176024632Y-81889994D01*
X176024629Y-81889993D01*
X175835637Y-81828587D01*
X175737498Y-81813043D01*
X175639361Y-81797500D01*
X175440639Y-81797500D01*
X175424855Y-81800000D01*
X175244362Y-81828587D01*
X175055370Y-81889993D01*
X175055367Y-81889994D01*
X174878305Y-81980213D01*
X174717533Y-82097021D01*
X174577021Y-82237533D01*
X174460213Y-82398305D01*
X174380485Y-82554780D01*
X174332510Y-82605576D01*
X174264689Y-82622371D01*
X174198554Y-82599833D01*
X174159515Y-82554780D01*
X174079786Y-82398305D01*
X174025419Y-82323475D01*
X173962981Y-82237536D01*
X173822464Y-82097019D01*
X173661694Y-81980213D01*
X173620444Y-81959195D01*
X173484632Y-81889994D01*
X173484629Y-81889993D01*
X173295637Y-81828587D01*
X173197498Y-81813043D01*
X173099361Y-81797500D01*
X172900639Y-81797500D01*
X172884855Y-81800000D01*
X172704362Y-81828587D01*
X172515370Y-81889993D01*
X172515367Y-81889994D01*
X172338305Y-81980213D01*
X172177533Y-82097021D01*
X172037021Y-82237533D01*
X171920213Y-82398305D01*
X171840485Y-82554780D01*
X171792510Y-82605576D01*
X171724689Y-82622371D01*
X171658554Y-82599833D01*
X171619515Y-82554780D01*
X171539786Y-82398305D01*
X171485419Y-82323475D01*
X171422981Y-82237536D01*
X171282464Y-82097019D01*
X171121694Y-81980213D01*
X171080444Y-81959195D01*
X170944632Y-81889994D01*
X170944629Y-81889993D01*
X170755637Y-81828587D01*
X170657498Y-81813043D01*
X170559361Y-81797500D01*
X170360639Y-81797500D01*
X170344855Y-81800000D01*
X170164362Y-81828587D01*
X169975370Y-81889993D01*
X169975367Y-81889994D01*
X169798305Y-81980213D01*
X169637533Y-82097021D01*
X169497021Y-82237533D01*
X169380213Y-82398305D01*
X169300485Y-82554780D01*
X169252510Y-82605576D01*
X169184689Y-82622371D01*
X169118554Y-82599833D01*
X169079515Y-82554780D01*
X168999786Y-82398305D01*
X168945419Y-82323475D01*
X168882981Y-82237536D01*
X168742464Y-82097019D01*
X168581694Y-81980213D01*
X168540444Y-81959195D01*
X168404632Y-81889994D01*
X168404629Y-81889993D01*
X168215637Y-81828587D01*
X168117498Y-81813043D01*
X168019361Y-81797500D01*
X167820639Y-81797500D01*
X167804855Y-81800000D01*
X167624362Y-81828587D01*
X167435370Y-81889993D01*
X167435367Y-81889994D01*
X167258305Y-81980213D01*
X167097533Y-82097021D01*
X166957021Y-82237533D01*
X166840213Y-82398305D01*
X166760485Y-82554780D01*
X166712510Y-82605576D01*
X166644689Y-82622371D01*
X166578554Y-82599833D01*
X166539515Y-82554780D01*
X166459786Y-82398305D01*
X166405419Y-82323475D01*
X166342981Y-82237536D01*
X166202464Y-82097019D01*
X166041694Y-81980213D01*
X166000444Y-81959195D01*
X165864632Y-81889994D01*
X165864629Y-81889993D01*
X165675637Y-81828587D01*
X165577498Y-81813043D01*
X165479361Y-81797500D01*
X165280639Y-81797500D01*
X165264855Y-81800000D01*
X165084362Y-81828587D01*
X164895370Y-81889993D01*
X164895367Y-81889994D01*
X164718305Y-81980213D01*
X164557533Y-82097021D01*
X164417021Y-82237533D01*
X164300213Y-82398305D01*
X164220485Y-82554780D01*
X164172510Y-82605576D01*
X164104689Y-82622371D01*
X164038554Y-82599833D01*
X163999515Y-82554780D01*
X163919786Y-82398305D01*
X163865419Y-82323475D01*
X163802981Y-82237536D01*
X163662464Y-82097019D01*
X163501694Y-81980213D01*
X163460444Y-81959195D01*
X163324632Y-81889994D01*
X163324629Y-81889993D01*
X163135637Y-81828587D01*
X163037498Y-81813043D01*
X162939361Y-81797500D01*
X162740639Y-81797500D01*
X162724855Y-81800000D01*
X162544362Y-81828587D01*
X162355370Y-81889993D01*
X162355367Y-81889994D01*
X162178305Y-81980213D01*
X162017533Y-82097021D01*
X161877021Y-82237533D01*
X161760213Y-82398305D01*
X161680485Y-82554780D01*
X161632510Y-82605576D01*
X161564689Y-82622371D01*
X161498554Y-82599833D01*
X161459515Y-82554780D01*
X161379786Y-82398305D01*
X161325419Y-82323475D01*
X161262981Y-82237536D01*
X161122464Y-82097019D01*
X160961694Y-81980213D01*
X160920444Y-81959195D01*
X160784632Y-81889994D01*
X160784629Y-81889993D01*
X160595637Y-81828587D01*
X160497498Y-81813043D01*
X160399361Y-81797500D01*
X160200639Y-81797500D01*
X160184855Y-81800000D01*
X160004362Y-81828587D01*
X159815370Y-81889993D01*
X159815367Y-81889994D01*
X159638305Y-81980213D01*
X159477533Y-82097021D01*
X159337021Y-82237533D01*
X159220213Y-82398305D01*
X159129994Y-82575367D01*
X159129993Y-82575370D01*
X159068587Y-82764362D01*
X159068587Y-82764364D01*
X159037500Y-82960639D01*
X150169413Y-82960639D01*
X150147820Y-82944951D01*
X149958414Y-82848444D01*
X149958413Y-82848443D01*
X149958412Y-82848443D01*
X149756243Y-82782754D01*
X149756241Y-82782753D01*
X149756240Y-82782753D01*
X149582622Y-82755255D01*
X149546287Y-82749500D01*
X149033713Y-82749500D01*
X148997378Y-82755255D01*
X148823760Y-82782753D01*
X148621585Y-82848444D01*
X148432179Y-82944951D01*
X148260213Y-83069890D01*
X148109890Y-83220213D01*
X147984951Y-83392179D01*
X147888444Y-83581585D01*
X147822753Y-83783760D01*
X147789500Y-83993713D01*
X137210500Y-83993713D01*
X137210500Y-77505513D01*
X141094500Y-77505513D01*
X141094500Y-77694486D01*
X141124059Y-77881118D01*
X141182454Y-78060836D01*
X141268104Y-78228933D01*
X141268240Y-78229199D01*
X141379310Y-78382073D01*
X141512927Y-78515690D01*
X141665801Y-78626760D01*
X141745347Y-78667290D01*
X141834163Y-78712545D01*
X141834165Y-78712545D01*
X141834168Y-78712547D01*
X141930497Y-78743846D01*
X142013881Y-78770940D01*
X142200514Y-78800500D01*
X142200519Y-78800500D01*
X142389486Y-78800500D01*
X142576118Y-78770940D01*
X142577623Y-78770451D01*
X142755832Y-78712547D01*
X142924199Y-78626760D01*
X142950182Y-78607882D01*
X143540669Y-78607882D01*
X143540670Y-78607883D01*
X143566059Y-78626329D01*
X143734362Y-78712085D01*
X143913997Y-78770451D01*
X144100553Y-78800000D01*
X144289447Y-78800000D01*
X144476002Y-78770451D01*
X144655637Y-78712085D01*
X144823937Y-78626331D01*
X144849328Y-78607883D01*
X144849328Y-78607882D01*
X148645669Y-78607882D01*
X148645670Y-78607883D01*
X148671059Y-78626329D01*
X148839362Y-78712085D01*
X149018997Y-78770451D01*
X149205553Y-78800000D01*
X149394447Y-78800000D01*
X149581002Y-78770451D01*
X149760637Y-78712085D01*
X149928937Y-78626331D01*
X149954328Y-78607883D01*
X149954328Y-78607882D01*
X149300001Y-77953554D01*
X149300000Y-77953554D01*
X148645669Y-78607882D01*
X144849328Y-78607882D01*
X144195001Y-77953554D01*
X144195000Y-77953554D01*
X143540669Y-78607882D01*
X142950182Y-78607882D01*
X143077073Y-78515690D01*
X143210690Y-78382073D01*
X143321760Y-78229199D01*
X143407547Y-78060832D01*
X143411310Y-78049249D01*
X143441561Y-77999882D01*
X143841445Y-77599999D01*
X143795368Y-77553922D01*
X143845000Y-77553922D01*
X143845000Y-77646078D01*
X143868852Y-77735095D01*
X143914930Y-77814905D01*
X143980095Y-77880070D01*
X144059905Y-77926148D01*
X144148922Y-77950000D01*
X144241078Y-77950000D01*
X144330095Y-77926148D01*
X144409905Y-77880070D01*
X144475070Y-77814905D01*
X144521148Y-77735095D01*
X144545000Y-77646078D01*
X144545000Y-77599999D01*
X144548554Y-77599999D01*
X144548554Y-77600000D01*
X145202882Y-78254328D01*
X145202883Y-78254328D01*
X145221331Y-78228937D01*
X145307085Y-78060637D01*
X145365451Y-77881002D01*
X145395000Y-77694447D01*
X145395000Y-77505552D01*
X148100000Y-77505552D01*
X148100000Y-77694447D01*
X148129548Y-77881002D01*
X148187914Y-78060637D01*
X148273666Y-78228933D01*
X148292116Y-78254328D01*
X148946446Y-77600000D01*
X148946446Y-77599999D01*
X148900369Y-77553922D01*
X148950000Y-77553922D01*
X148950000Y-77646078D01*
X148973852Y-77735095D01*
X149019930Y-77814905D01*
X149085095Y-77880070D01*
X149164905Y-77926148D01*
X149253922Y-77950000D01*
X149346078Y-77950000D01*
X149435095Y-77926148D01*
X149514905Y-77880070D01*
X149580070Y-77814905D01*
X149626148Y-77735095D01*
X149650000Y-77646078D01*
X149650000Y-77599999D01*
X149653554Y-77599999D01*
X149653554Y-77600000D01*
X150053439Y-77999885D01*
X150083688Y-78049246D01*
X150087453Y-78060832D01*
X150116778Y-78118387D01*
X150173238Y-78229197D01*
X150191497Y-78254328D01*
X150284310Y-78382073D01*
X150417927Y-78515690D01*
X150570801Y-78626760D01*
X150650347Y-78667290D01*
X150739163Y-78712545D01*
X150739165Y-78712545D01*
X150739168Y-78712547D01*
X150835497Y-78743846D01*
X150918881Y-78770940D01*
X151105514Y-78800500D01*
X151105519Y-78800500D01*
X151294486Y-78800500D01*
X151481118Y-78770940D01*
X151482623Y-78770451D01*
X151660832Y-78712547D01*
X151829199Y-78626760D01*
X151982073Y-78515690D01*
X152115690Y-78382073D01*
X152226760Y-78229199D01*
X152312547Y-78060832D01*
X152370940Y-77881118D01*
X152381427Y-77814905D01*
X152400500Y-77694486D01*
X152400500Y-77505513D01*
X154194500Y-77505513D01*
X154194500Y-77694486D01*
X154224059Y-77881118D01*
X154282454Y-78060836D01*
X154368104Y-78228933D01*
X154368240Y-78229199D01*
X154479310Y-78382073D01*
X154612927Y-78515690D01*
X154765801Y-78626760D01*
X154845347Y-78667290D01*
X154934163Y-78712545D01*
X154934165Y-78712545D01*
X154934168Y-78712547D01*
X155030497Y-78743846D01*
X155113881Y-78770940D01*
X155300514Y-78800500D01*
X155300519Y-78800500D01*
X155489486Y-78800500D01*
X155676118Y-78770940D01*
X155677623Y-78770451D01*
X155855832Y-78712547D01*
X156024199Y-78626760D01*
X156050182Y-78607882D01*
X156640669Y-78607882D01*
X156640670Y-78607883D01*
X156666059Y-78626329D01*
X156834362Y-78712085D01*
X157013997Y-78770451D01*
X157200553Y-78800000D01*
X157389447Y-78800000D01*
X157576002Y-78770451D01*
X157755637Y-78712085D01*
X157923937Y-78626331D01*
X157949328Y-78607883D01*
X157949328Y-78607882D01*
X161650669Y-78607882D01*
X161650670Y-78607883D01*
X161676059Y-78626329D01*
X161844362Y-78712085D01*
X162023997Y-78770451D01*
X162210553Y-78800000D01*
X162399447Y-78800000D01*
X162586002Y-78770451D01*
X162765637Y-78712085D01*
X162933937Y-78626331D01*
X162959328Y-78607883D01*
X162959328Y-78607882D01*
X162305001Y-77953554D01*
X162305000Y-77953554D01*
X161650669Y-78607882D01*
X157949328Y-78607882D01*
X157295001Y-77953554D01*
X157295000Y-77953554D01*
X156640669Y-78607882D01*
X156050182Y-78607882D01*
X156177073Y-78515690D01*
X156310690Y-78382073D01*
X156421760Y-78229199D01*
X156507547Y-78060832D01*
X156511310Y-78049249D01*
X156541561Y-77999882D01*
X156941445Y-77599999D01*
X156895368Y-77553922D01*
X156945000Y-77553922D01*
X156945000Y-77646078D01*
X156968852Y-77735095D01*
X157014930Y-77814905D01*
X157080095Y-77880070D01*
X157159905Y-77926148D01*
X157248922Y-77950000D01*
X157341078Y-77950000D01*
X157430095Y-77926148D01*
X157509905Y-77880070D01*
X157575070Y-77814905D01*
X157621148Y-77735095D01*
X157645000Y-77646078D01*
X157645000Y-77599999D01*
X157648554Y-77599999D01*
X157648554Y-77600000D01*
X158302882Y-78254328D01*
X158302883Y-78254328D01*
X158321331Y-78228937D01*
X158407085Y-78060637D01*
X158465451Y-77881002D01*
X158495000Y-77694447D01*
X158495000Y-77505552D01*
X161105000Y-77505552D01*
X161105000Y-77694447D01*
X161134548Y-77881002D01*
X161192914Y-78060637D01*
X161278666Y-78228933D01*
X161297116Y-78254328D01*
X161951446Y-77600000D01*
X161951446Y-77599999D01*
X161905369Y-77553922D01*
X161955000Y-77553922D01*
X161955000Y-77646078D01*
X161978852Y-77735095D01*
X162024930Y-77814905D01*
X162090095Y-77880070D01*
X162169905Y-77926148D01*
X162258922Y-77950000D01*
X162351078Y-77950000D01*
X162440095Y-77926148D01*
X162519905Y-77880070D01*
X162585070Y-77814905D01*
X162631148Y-77735095D01*
X162655000Y-77646078D01*
X162655000Y-77599999D01*
X162658554Y-77599999D01*
X162658554Y-77600000D01*
X163058439Y-77999885D01*
X163088688Y-78049246D01*
X163092453Y-78060832D01*
X163121778Y-78118387D01*
X163178238Y-78229197D01*
X163196497Y-78254328D01*
X163289310Y-78382073D01*
X163422927Y-78515690D01*
X163575801Y-78626760D01*
X163655347Y-78667290D01*
X163744163Y-78712545D01*
X163744165Y-78712545D01*
X163744168Y-78712547D01*
X163840497Y-78743846D01*
X163923881Y-78770940D01*
X164110514Y-78800500D01*
X164110519Y-78800500D01*
X164299486Y-78800500D01*
X164486118Y-78770940D01*
X164487623Y-78770451D01*
X164665832Y-78712547D01*
X164834199Y-78626760D01*
X164987073Y-78515690D01*
X165120690Y-78382073D01*
X165231760Y-78229199D01*
X165317547Y-78060832D01*
X165375940Y-77881118D01*
X165386427Y-77814905D01*
X165405500Y-77694486D01*
X165405500Y-77505513D01*
X167294500Y-77505513D01*
X167294500Y-77694486D01*
X167324059Y-77881118D01*
X167382454Y-78060836D01*
X167468104Y-78228933D01*
X167468240Y-78229199D01*
X167579310Y-78382073D01*
X167712927Y-78515690D01*
X167865801Y-78626760D01*
X167945347Y-78667290D01*
X168034163Y-78712545D01*
X168034165Y-78712545D01*
X168034168Y-78712547D01*
X168130497Y-78743846D01*
X168213881Y-78770940D01*
X168400514Y-78800500D01*
X168400519Y-78800500D01*
X168589486Y-78800500D01*
X168776118Y-78770940D01*
X168777623Y-78770451D01*
X168955832Y-78712547D01*
X169124199Y-78626760D01*
X169150182Y-78607882D01*
X169740669Y-78607882D01*
X169740670Y-78607883D01*
X169766059Y-78626329D01*
X169934362Y-78712085D01*
X170113997Y-78770451D01*
X170300553Y-78800000D01*
X170489447Y-78800000D01*
X170676002Y-78770451D01*
X170855637Y-78712085D01*
X171023937Y-78626331D01*
X171049328Y-78607883D01*
X171049328Y-78607882D01*
X174850669Y-78607882D01*
X174850670Y-78607883D01*
X174876059Y-78626329D01*
X175044362Y-78712085D01*
X175223997Y-78770451D01*
X175410553Y-78800000D01*
X175599447Y-78800000D01*
X175786002Y-78770451D01*
X175965637Y-78712085D01*
X176133937Y-78626331D01*
X176159328Y-78607883D01*
X176159328Y-78607882D01*
X175505001Y-77953554D01*
X175505000Y-77953554D01*
X174850669Y-78607882D01*
X171049328Y-78607882D01*
X170395001Y-77953554D01*
X170395000Y-77953554D01*
X169740669Y-78607882D01*
X169150182Y-78607882D01*
X169277073Y-78515690D01*
X169410690Y-78382073D01*
X169521760Y-78229199D01*
X169607547Y-78060832D01*
X169611310Y-78049249D01*
X169641561Y-77999882D01*
X170041445Y-77599999D01*
X169995368Y-77553922D01*
X170045000Y-77553922D01*
X170045000Y-77646078D01*
X170068852Y-77735095D01*
X170114930Y-77814905D01*
X170180095Y-77880070D01*
X170259905Y-77926148D01*
X170348922Y-77950000D01*
X170441078Y-77950000D01*
X170530095Y-77926148D01*
X170609905Y-77880070D01*
X170675070Y-77814905D01*
X170721148Y-77735095D01*
X170745000Y-77646078D01*
X170745000Y-77599999D01*
X170748554Y-77599999D01*
X170748554Y-77600000D01*
X171402882Y-78254328D01*
X171402883Y-78254328D01*
X171421331Y-78228937D01*
X171507085Y-78060637D01*
X171565451Y-77881002D01*
X171595000Y-77694447D01*
X171595000Y-77505552D01*
X174305000Y-77505552D01*
X174305000Y-77694447D01*
X174334548Y-77881002D01*
X174392914Y-78060637D01*
X174478666Y-78228933D01*
X174497116Y-78254328D01*
X175151446Y-77600000D01*
X175151446Y-77599999D01*
X175105369Y-77553922D01*
X175155000Y-77553922D01*
X175155000Y-77646078D01*
X175178852Y-77735095D01*
X175224930Y-77814905D01*
X175290095Y-77880070D01*
X175369905Y-77926148D01*
X175458922Y-77950000D01*
X175551078Y-77950000D01*
X175640095Y-77926148D01*
X175719905Y-77880070D01*
X175785070Y-77814905D01*
X175831148Y-77735095D01*
X175855000Y-77646078D01*
X175855000Y-77599999D01*
X175858554Y-77599999D01*
X175858554Y-77600000D01*
X176258439Y-77999885D01*
X176288688Y-78049246D01*
X176292453Y-78060832D01*
X176321778Y-78118387D01*
X176378238Y-78229197D01*
X176396497Y-78254328D01*
X176489310Y-78382073D01*
X176622927Y-78515690D01*
X176775801Y-78626760D01*
X176855347Y-78667290D01*
X176944163Y-78712545D01*
X176944165Y-78712545D01*
X176944168Y-78712547D01*
X177040497Y-78743846D01*
X177123881Y-78770940D01*
X177310514Y-78800500D01*
X177310519Y-78800500D01*
X177499486Y-78800500D01*
X177686118Y-78770940D01*
X177687623Y-78770451D01*
X177865832Y-78712547D01*
X178034199Y-78626760D01*
X178187073Y-78515690D01*
X178320690Y-78382073D01*
X178431760Y-78229199D01*
X178517547Y-78060832D01*
X178575940Y-77881118D01*
X178586427Y-77814905D01*
X178605500Y-77694486D01*
X178605500Y-77505513D01*
X180194500Y-77505513D01*
X180194500Y-77694486D01*
X180224059Y-77881118D01*
X180282454Y-78060836D01*
X180368104Y-78228933D01*
X180368240Y-78229199D01*
X180479310Y-78382073D01*
X180612927Y-78515690D01*
X180765801Y-78626760D01*
X180845347Y-78667290D01*
X180934163Y-78712545D01*
X180934165Y-78712545D01*
X180934168Y-78712547D01*
X181030497Y-78743846D01*
X181113881Y-78770940D01*
X181300514Y-78800500D01*
X181300519Y-78800500D01*
X181489486Y-78800500D01*
X181676118Y-78770940D01*
X181677623Y-78770451D01*
X181855832Y-78712547D01*
X182024199Y-78626760D01*
X182050182Y-78607882D01*
X182640669Y-78607882D01*
X182640670Y-78607883D01*
X182666059Y-78626329D01*
X182834362Y-78712085D01*
X183013997Y-78770451D01*
X183200553Y-78800000D01*
X183389447Y-78800000D01*
X183576002Y-78770451D01*
X183755637Y-78712085D01*
X183923937Y-78626331D01*
X183949328Y-78607883D01*
X183949328Y-78607882D01*
X183295001Y-77953554D01*
X183295000Y-77953554D01*
X182640669Y-78607882D01*
X182050182Y-78607882D01*
X182177073Y-78515690D01*
X182310690Y-78382073D01*
X182421760Y-78229199D01*
X182507547Y-78060832D01*
X182511310Y-78049249D01*
X182541561Y-77999882D01*
X182941445Y-77599999D01*
X182895368Y-77553922D01*
X182945000Y-77553922D01*
X182945000Y-77646078D01*
X182968852Y-77735095D01*
X183014930Y-77814905D01*
X183080095Y-77880070D01*
X183159905Y-77926148D01*
X183248922Y-77950000D01*
X183341078Y-77950000D01*
X183430095Y-77926148D01*
X183509905Y-77880070D01*
X183575070Y-77814905D01*
X183621148Y-77735095D01*
X183645000Y-77646078D01*
X183645000Y-77599999D01*
X183648554Y-77599999D01*
X183648554Y-77600000D01*
X184302882Y-78254328D01*
X184302883Y-78254328D01*
X184321331Y-78228937D01*
X184407085Y-78060637D01*
X184465451Y-77881002D01*
X184495000Y-77694447D01*
X184495000Y-77505552D01*
X184465451Y-77318997D01*
X184407085Y-77139362D01*
X184321329Y-76971059D01*
X184302883Y-76945670D01*
X184302882Y-76945669D01*
X183648554Y-77599999D01*
X183645000Y-77599999D01*
X183645000Y-77553922D01*
X183621148Y-77464905D01*
X183575070Y-77385095D01*
X183509905Y-77319930D01*
X183430095Y-77273852D01*
X183341078Y-77250000D01*
X183248922Y-77250000D01*
X183159905Y-77273852D01*
X183080095Y-77319930D01*
X183014930Y-77385095D01*
X182968852Y-77464905D01*
X182945000Y-77553922D01*
X182895368Y-77553922D01*
X182541560Y-77200114D01*
X182511310Y-77150750D01*
X182507546Y-77139166D01*
X182504339Y-77132871D01*
X182421760Y-76970801D01*
X182310690Y-76817927D01*
X182177073Y-76684310D01*
X182050179Y-76592116D01*
X182640669Y-76592116D01*
X183295000Y-77246446D01*
X183295001Y-77246446D01*
X183949328Y-76592116D01*
X183923933Y-76573666D01*
X183755637Y-76487914D01*
X183576002Y-76429548D01*
X183389447Y-76400000D01*
X183200553Y-76400000D01*
X183013997Y-76429548D01*
X182834362Y-76487914D01*
X182666060Y-76573669D01*
X182640670Y-76592116D01*
X182640669Y-76592116D01*
X182050179Y-76592116D01*
X182024199Y-76573240D01*
X181855836Y-76487454D01*
X181676118Y-76429059D01*
X181489486Y-76399500D01*
X181489481Y-76399500D01*
X181300519Y-76399500D01*
X181300514Y-76399500D01*
X181113881Y-76429059D01*
X180934163Y-76487454D01*
X180765800Y-76573240D01*
X180678579Y-76636610D01*
X180612927Y-76684310D01*
X180612925Y-76684312D01*
X180612924Y-76684312D01*
X180479312Y-76817924D01*
X180479312Y-76817925D01*
X180479310Y-76817927D01*
X180431610Y-76883579D01*
X180368240Y-76970800D01*
X180282454Y-77139163D01*
X180224059Y-77318881D01*
X180194500Y-77505513D01*
X178605500Y-77505513D01*
X178575940Y-77318881D01*
X178517545Y-77139163D01*
X178472290Y-77050347D01*
X178431760Y-76970801D01*
X178320690Y-76817927D01*
X178187073Y-76684310D01*
X178034199Y-76573240D01*
X177865836Y-76487454D01*
X177686118Y-76429059D01*
X177499486Y-76399500D01*
X177499481Y-76399500D01*
X177310519Y-76399500D01*
X177310514Y-76399500D01*
X177123881Y-76429059D01*
X176944163Y-76487454D01*
X176775800Y-76573240D01*
X176688579Y-76636610D01*
X176622927Y-76684310D01*
X176622925Y-76684312D01*
X176622924Y-76684312D01*
X176489312Y-76817924D01*
X176489312Y-76817925D01*
X176489310Y-76817927D01*
X176455941Y-76863855D01*
X176378238Y-76970802D01*
X176292452Y-77139169D01*
X176288686Y-77150759D01*
X176258438Y-77200114D01*
X175858554Y-77599999D01*
X175855000Y-77599999D01*
X175855000Y-77553922D01*
X175831148Y-77464905D01*
X175785070Y-77385095D01*
X175719905Y-77319930D01*
X175640095Y-77273852D01*
X175551078Y-77250000D01*
X175458922Y-77250000D01*
X175369905Y-77273852D01*
X175290095Y-77319930D01*
X175224930Y-77385095D01*
X175178852Y-77464905D01*
X175155000Y-77553922D01*
X175105369Y-77553922D01*
X174497116Y-76945669D01*
X174497116Y-76945670D01*
X174478669Y-76971060D01*
X174392914Y-77139362D01*
X174334548Y-77318997D01*
X174305000Y-77505552D01*
X171595000Y-77505552D01*
X171565451Y-77318997D01*
X171507085Y-77139362D01*
X171421329Y-76971059D01*
X171402883Y-76945670D01*
X171402882Y-76945669D01*
X170748554Y-77599999D01*
X170745000Y-77599999D01*
X170745000Y-77553922D01*
X170721148Y-77464905D01*
X170675070Y-77385095D01*
X170609905Y-77319930D01*
X170530095Y-77273852D01*
X170441078Y-77250000D01*
X170348922Y-77250000D01*
X170259905Y-77273852D01*
X170180095Y-77319930D01*
X170114930Y-77385095D01*
X170068852Y-77464905D01*
X170045000Y-77553922D01*
X169995368Y-77553922D01*
X169641560Y-77200114D01*
X169611310Y-77150750D01*
X169607546Y-77139166D01*
X169604339Y-77132871D01*
X169521760Y-76970801D01*
X169410690Y-76817927D01*
X169277073Y-76684310D01*
X169150179Y-76592116D01*
X169740669Y-76592116D01*
X170395000Y-77246446D01*
X170395001Y-77246446D01*
X171049328Y-76592116D01*
X174850669Y-76592116D01*
X175505000Y-77246446D01*
X175505001Y-77246446D01*
X176159328Y-76592116D01*
X176133933Y-76573666D01*
X175965637Y-76487914D01*
X175786002Y-76429548D01*
X175599447Y-76400000D01*
X175410553Y-76400000D01*
X175223997Y-76429548D01*
X175044362Y-76487914D01*
X174876060Y-76573669D01*
X174850670Y-76592116D01*
X174850669Y-76592116D01*
X171049328Y-76592116D01*
X171023933Y-76573666D01*
X170855637Y-76487914D01*
X170676002Y-76429548D01*
X170489447Y-76400000D01*
X170300553Y-76400000D01*
X170113997Y-76429548D01*
X169934362Y-76487914D01*
X169766060Y-76573669D01*
X169740670Y-76592116D01*
X169740669Y-76592116D01*
X169150179Y-76592116D01*
X169124199Y-76573240D01*
X168955836Y-76487454D01*
X168776118Y-76429059D01*
X168589486Y-76399500D01*
X168589481Y-76399500D01*
X168400519Y-76399500D01*
X168400514Y-76399500D01*
X168213881Y-76429059D01*
X168034163Y-76487454D01*
X167865800Y-76573240D01*
X167778579Y-76636610D01*
X167712927Y-76684310D01*
X167712925Y-76684312D01*
X167712924Y-76684312D01*
X167579312Y-76817924D01*
X167579312Y-76817925D01*
X167579310Y-76817927D01*
X167531610Y-76883579D01*
X167468240Y-76970800D01*
X167382454Y-77139163D01*
X167324059Y-77318881D01*
X167294500Y-77505513D01*
X165405500Y-77505513D01*
X165375940Y-77318881D01*
X165317545Y-77139163D01*
X165272290Y-77050347D01*
X165231760Y-76970801D01*
X165120690Y-76817927D01*
X164987073Y-76684310D01*
X164834199Y-76573240D01*
X164665836Y-76487454D01*
X164486118Y-76429059D01*
X164299486Y-76399500D01*
X164299481Y-76399500D01*
X164110519Y-76399500D01*
X164110514Y-76399500D01*
X163923881Y-76429059D01*
X163744163Y-76487454D01*
X163575800Y-76573240D01*
X163488579Y-76636610D01*
X163422927Y-76684310D01*
X163422925Y-76684312D01*
X163422924Y-76684312D01*
X163289312Y-76817924D01*
X163289312Y-76817925D01*
X163289310Y-76817927D01*
X163255941Y-76863855D01*
X163178238Y-76970802D01*
X163092452Y-77139169D01*
X163088686Y-77150759D01*
X163058438Y-77200114D01*
X162658554Y-77599999D01*
X162655000Y-77599999D01*
X162655000Y-77553922D01*
X162631148Y-77464905D01*
X162585070Y-77385095D01*
X162519905Y-77319930D01*
X162440095Y-77273852D01*
X162351078Y-77250000D01*
X162258922Y-77250000D01*
X162169905Y-77273852D01*
X162090095Y-77319930D01*
X162024930Y-77385095D01*
X161978852Y-77464905D01*
X161955000Y-77553922D01*
X161905369Y-77553922D01*
X161297116Y-76945669D01*
X161297116Y-76945670D01*
X161278669Y-76971060D01*
X161192914Y-77139362D01*
X161134548Y-77318997D01*
X161105000Y-77505552D01*
X158495000Y-77505552D01*
X158465451Y-77318997D01*
X158407085Y-77139362D01*
X158321329Y-76971059D01*
X158302883Y-76945670D01*
X158302882Y-76945669D01*
X157648554Y-77599999D01*
X157645000Y-77599999D01*
X157645000Y-77553922D01*
X157621148Y-77464905D01*
X157575070Y-77385095D01*
X157509905Y-77319930D01*
X157430095Y-77273852D01*
X157341078Y-77250000D01*
X157248922Y-77250000D01*
X157159905Y-77273852D01*
X157080095Y-77319930D01*
X157014930Y-77385095D01*
X156968852Y-77464905D01*
X156945000Y-77553922D01*
X156895368Y-77553922D01*
X156541560Y-77200114D01*
X156511310Y-77150750D01*
X156507546Y-77139166D01*
X156504339Y-77132871D01*
X156421760Y-76970801D01*
X156310690Y-76817927D01*
X156177073Y-76684310D01*
X156050179Y-76592116D01*
X156640669Y-76592116D01*
X157295000Y-77246446D01*
X157295001Y-77246446D01*
X157949328Y-76592116D01*
X161650669Y-76592116D01*
X162305000Y-77246446D01*
X162305001Y-77246446D01*
X162959328Y-76592116D01*
X162933933Y-76573666D01*
X162765637Y-76487914D01*
X162586002Y-76429548D01*
X162399447Y-76400000D01*
X162210553Y-76400000D01*
X162023997Y-76429548D01*
X161844362Y-76487914D01*
X161676060Y-76573669D01*
X161650670Y-76592116D01*
X161650669Y-76592116D01*
X157949328Y-76592116D01*
X157923933Y-76573666D01*
X157755637Y-76487914D01*
X157576002Y-76429548D01*
X157389447Y-76400000D01*
X157200553Y-76400000D01*
X157013997Y-76429548D01*
X156834362Y-76487914D01*
X156666060Y-76573669D01*
X156640670Y-76592116D01*
X156640669Y-76592116D01*
X156050179Y-76592116D01*
X156024199Y-76573240D01*
X155855836Y-76487454D01*
X155676118Y-76429059D01*
X155489486Y-76399500D01*
X155489481Y-76399500D01*
X155300519Y-76399500D01*
X155300514Y-76399500D01*
X155113881Y-76429059D01*
X154934163Y-76487454D01*
X154765800Y-76573240D01*
X154678579Y-76636610D01*
X154612927Y-76684310D01*
X154612925Y-76684312D01*
X154612924Y-76684312D01*
X154479312Y-76817924D01*
X154479312Y-76817925D01*
X154479310Y-76817927D01*
X154431610Y-76883579D01*
X154368240Y-76970800D01*
X154282454Y-77139163D01*
X154224059Y-77318881D01*
X154194500Y-77505513D01*
X152400500Y-77505513D01*
X152370940Y-77318881D01*
X152312545Y-77139163D01*
X152267290Y-77050347D01*
X152226760Y-76970801D01*
X152115690Y-76817927D01*
X151982073Y-76684310D01*
X151829199Y-76573240D01*
X151660836Y-76487454D01*
X151481118Y-76429059D01*
X151294486Y-76399500D01*
X151294481Y-76399500D01*
X151105519Y-76399500D01*
X151105514Y-76399500D01*
X150918881Y-76429059D01*
X150739163Y-76487454D01*
X150570800Y-76573240D01*
X150483579Y-76636610D01*
X150417927Y-76684310D01*
X150417925Y-76684312D01*
X150417924Y-76684312D01*
X150284312Y-76817924D01*
X150284312Y-76817925D01*
X150284310Y-76817927D01*
X150250941Y-76863855D01*
X150173238Y-76970802D01*
X150087452Y-77139169D01*
X150083686Y-77150759D01*
X150053438Y-77200114D01*
X149653554Y-77599999D01*
X149650000Y-77599999D01*
X149650000Y-77553922D01*
X149626148Y-77464905D01*
X149580070Y-77385095D01*
X149514905Y-77319930D01*
X149435095Y-77273852D01*
X149346078Y-77250000D01*
X149253922Y-77250000D01*
X149164905Y-77273852D01*
X149085095Y-77319930D01*
X149019930Y-77385095D01*
X148973852Y-77464905D01*
X148950000Y-77553922D01*
X148900369Y-77553922D01*
X148292116Y-76945669D01*
X148292116Y-76945670D01*
X148273669Y-76971060D01*
X148187914Y-77139362D01*
X148129548Y-77318997D01*
X148100000Y-77505552D01*
X145395000Y-77505552D01*
X145365451Y-77318997D01*
X145307085Y-77139362D01*
X145221329Y-76971059D01*
X145202883Y-76945670D01*
X145202882Y-76945669D01*
X144548554Y-77599999D01*
X144545000Y-77599999D01*
X144545000Y-77553922D01*
X144521148Y-77464905D01*
X144475070Y-77385095D01*
X144409905Y-77319930D01*
X144330095Y-77273852D01*
X144241078Y-77250000D01*
X144148922Y-77250000D01*
X144059905Y-77273852D01*
X143980095Y-77319930D01*
X143914930Y-77385095D01*
X143868852Y-77464905D01*
X143845000Y-77553922D01*
X143795368Y-77553922D01*
X143441560Y-77200114D01*
X143411310Y-77150750D01*
X143407546Y-77139166D01*
X143404339Y-77132871D01*
X143321760Y-76970801D01*
X143210690Y-76817927D01*
X143077073Y-76684310D01*
X142950179Y-76592116D01*
X143540669Y-76592116D01*
X144195000Y-77246446D01*
X144195001Y-77246446D01*
X144849328Y-76592116D01*
X148645669Y-76592116D01*
X149300000Y-77246446D01*
X149300001Y-77246446D01*
X149954328Y-76592116D01*
X149928933Y-76573666D01*
X149760637Y-76487914D01*
X149581002Y-76429548D01*
X149394447Y-76400000D01*
X149205553Y-76400000D01*
X149018997Y-76429548D01*
X148839362Y-76487914D01*
X148671060Y-76573669D01*
X148645670Y-76592116D01*
X148645669Y-76592116D01*
X144849328Y-76592116D01*
X144823933Y-76573666D01*
X144655637Y-76487914D01*
X144476002Y-76429548D01*
X144289447Y-76400000D01*
X144100553Y-76400000D01*
X143913997Y-76429548D01*
X143734362Y-76487914D01*
X143566060Y-76573669D01*
X143540670Y-76592116D01*
X143540669Y-76592116D01*
X142950179Y-76592116D01*
X142924199Y-76573240D01*
X142755836Y-76487454D01*
X142576118Y-76429059D01*
X142389486Y-76399500D01*
X142389481Y-76399500D01*
X142200519Y-76399500D01*
X142200514Y-76399500D01*
X142013881Y-76429059D01*
X141834163Y-76487454D01*
X141665800Y-76573240D01*
X141578579Y-76636610D01*
X141512927Y-76684310D01*
X141512925Y-76684312D01*
X141512924Y-76684312D01*
X141379312Y-76817924D01*
X141379312Y-76817925D01*
X141379310Y-76817927D01*
X141331610Y-76883579D01*
X141268240Y-76970800D01*
X141182454Y-77139163D01*
X141124059Y-77318881D01*
X141094500Y-77505513D01*
X137210500Y-77505513D01*
X137210500Y-72888713D01*
X140799500Y-72888713D01*
X140799500Y-73401286D01*
X140832753Y-73611239D01*
X140898444Y-73813414D01*
X140994951Y-74002820D01*
X141119890Y-74174786D01*
X141270213Y-74325109D01*
X141442179Y-74450048D01*
X141442181Y-74450049D01*
X141442184Y-74450051D01*
X141631588Y-74546557D01*
X141833757Y-74612246D01*
X142043713Y-74645500D01*
X142043714Y-74645500D01*
X142256286Y-74645500D01*
X142256287Y-74645500D01*
X142466243Y-74612246D01*
X142668412Y-74546557D01*
X142857816Y-74450051D01*
X143029792Y-74325104D01*
X143168604Y-74186291D01*
X143229923Y-74152809D01*
X143299615Y-74157793D01*
X143355549Y-74199664D01*
X143361821Y-74208878D01*
X143365185Y-74214333D01*
X143365186Y-74214334D01*
X143457288Y-74363656D01*
X143581344Y-74487712D01*
X143730666Y-74579814D01*
X143897203Y-74634999D01*
X143999991Y-74645500D01*
X145300008Y-74645499D01*
X145402797Y-74634999D01*
X145569334Y-74579814D01*
X145718656Y-74487712D01*
X145842712Y-74363656D01*
X145934814Y-74214334D01*
X145989999Y-74047797D01*
X146000500Y-73945009D01*
X146000499Y-72344992D01*
X146000498Y-72344983D01*
X147399500Y-72344983D01*
X147399500Y-73945001D01*
X147399501Y-73945018D01*
X147410000Y-74047796D01*
X147410001Y-74047799D01*
X147455894Y-74186294D01*
X147465186Y-74214334D01*
X147557288Y-74363656D01*
X147681344Y-74487712D01*
X147830666Y-74579814D01*
X147997203Y-74634999D01*
X148099991Y-74645500D01*
X149400008Y-74645499D01*
X149502797Y-74634999D01*
X149669334Y-74579814D01*
X149818656Y-74487712D01*
X149942712Y-74363656D01*
X150034814Y-74214334D01*
X150034814Y-74214331D01*
X150038178Y-74208879D01*
X150090126Y-74162154D01*
X150159088Y-74150931D01*
X150223170Y-74178774D01*
X150231398Y-74186294D01*
X150370213Y-74325109D01*
X150542179Y-74450048D01*
X150542181Y-74450049D01*
X150542184Y-74450051D01*
X150731588Y-74546557D01*
X150933757Y-74612246D01*
X151143713Y-74645500D01*
X151143714Y-74645500D01*
X151356286Y-74645500D01*
X151356287Y-74645500D01*
X151566243Y-74612246D01*
X151768412Y-74546557D01*
X151957816Y-74450051D01*
X151979789Y-74434086D01*
X152129786Y-74325109D01*
X152129788Y-74325106D01*
X152129792Y-74325104D01*
X152280104Y-74174792D01*
X152280106Y-74174788D01*
X152280109Y-74174786D01*
X152405048Y-74002820D01*
X152405047Y-74002820D01*
X152405051Y-74002816D01*
X152501557Y-73813412D01*
X152567246Y-73611243D01*
X152600500Y-73401287D01*
X152600500Y-72888713D01*
X153999500Y-72888713D01*
X153999500Y-73401286D01*
X154032753Y-73611239D01*
X154098444Y-73813414D01*
X154194951Y-74002820D01*
X154319890Y-74174786D01*
X154470213Y-74325109D01*
X154642179Y-74450048D01*
X154642181Y-74450049D01*
X154642184Y-74450051D01*
X154831588Y-74546557D01*
X155033757Y-74612246D01*
X155243713Y-74645500D01*
X155243714Y-74645500D01*
X155456286Y-74645500D01*
X155456287Y-74645500D01*
X155666243Y-74612246D01*
X155868412Y-74546557D01*
X156057816Y-74450051D01*
X156229792Y-74325104D01*
X156368604Y-74186291D01*
X156429923Y-74152809D01*
X156499615Y-74157793D01*
X156555549Y-74199664D01*
X156561821Y-74208878D01*
X156565185Y-74214333D01*
X156565186Y-74214334D01*
X156657288Y-74363656D01*
X156781344Y-74487712D01*
X156930666Y-74579814D01*
X157097203Y-74634999D01*
X157199991Y-74645500D01*
X158500008Y-74645499D01*
X158602797Y-74634999D01*
X158769334Y-74579814D01*
X158918656Y-74487712D01*
X159042712Y-74363656D01*
X159134814Y-74214334D01*
X159189999Y-74047797D01*
X159200500Y-73945009D01*
X159200499Y-72344992D01*
X159200498Y-72344983D01*
X160499500Y-72344983D01*
X160499500Y-73945001D01*
X160499501Y-73945018D01*
X160510000Y-74047796D01*
X160510001Y-74047799D01*
X160555894Y-74186294D01*
X160565186Y-74214334D01*
X160657288Y-74363656D01*
X160781344Y-74487712D01*
X160930666Y-74579814D01*
X161097203Y-74634999D01*
X161199991Y-74645500D01*
X162500008Y-74645499D01*
X162602797Y-74634999D01*
X162769334Y-74579814D01*
X162918656Y-74487712D01*
X163042712Y-74363656D01*
X163134814Y-74214334D01*
X163134814Y-74214331D01*
X163138178Y-74208879D01*
X163190126Y-74162154D01*
X163259088Y-74150931D01*
X163323170Y-74178774D01*
X163331398Y-74186294D01*
X163470213Y-74325109D01*
X163642179Y-74450048D01*
X163642181Y-74450049D01*
X163642184Y-74450051D01*
X163831588Y-74546557D01*
X164033757Y-74612246D01*
X164243713Y-74645500D01*
X164243714Y-74645500D01*
X164456286Y-74645500D01*
X164456287Y-74645500D01*
X164666243Y-74612246D01*
X164868412Y-74546557D01*
X165057816Y-74450051D01*
X165079789Y-74434086D01*
X165229786Y-74325109D01*
X165229788Y-74325106D01*
X165229792Y-74325104D01*
X165380104Y-74174792D01*
X165380106Y-74174788D01*
X165380109Y-74174786D01*
X165505048Y-74002820D01*
X165505047Y-74002820D01*
X165505051Y-74002816D01*
X165601557Y-73813412D01*
X165667246Y-73611243D01*
X165700500Y-73401287D01*
X165700500Y-72888713D01*
X167099500Y-72888713D01*
X167099500Y-73401286D01*
X167132753Y-73611239D01*
X167198444Y-73813414D01*
X167294951Y-74002820D01*
X167419890Y-74174786D01*
X167570213Y-74325109D01*
X167742179Y-74450048D01*
X167742181Y-74450049D01*
X167742184Y-74450051D01*
X167931588Y-74546557D01*
X168133757Y-74612246D01*
X168343713Y-74645500D01*
X168343714Y-74645500D01*
X168556286Y-74645500D01*
X168556287Y-74645500D01*
X168766243Y-74612246D01*
X168968412Y-74546557D01*
X169157816Y-74450051D01*
X169329792Y-74325104D01*
X169468604Y-74186291D01*
X169529923Y-74152809D01*
X169599615Y-74157793D01*
X169655549Y-74199664D01*
X169661821Y-74208878D01*
X169665185Y-74214333D01*
X169665186Y-74214334D01*
X169757288Y-74363656D01*
X169881344Y-74487712D01*
X170030666Y-74579814D01*
X170197203Y-74634999D01*
X170299991Y-74645500D01*
X171600008Y-74645499D01*
X171702797Y-74634999D01*
X171869334Y-74579814D01*
X172018656Y-74487712D01*
X172142712Y-74363656D01*
X172234814Y-74214334D01*
X172289999Y-74047797D01*
X172300500Y-73945009D01*
X172300499Y-72344992D01*
X172300498Y-72344983D01*
X173699500Y-72344983D01*
X173699500Y-73945001D01*
X173699501Y-73945018D01*
X173710000Y-74047796D01*
X173710001Y-74047799D01*
X173755894Y-74186294D01*
X173765186Y-74214334D01*
X173857288Y-74363656D01*
X173981344Y-74487712D01*
X174130666Y-74579814D01*
X174297203Y-74634999D01*
X174399991Y-74645500D01*
X175700008Y-74645499D01*
X175802797Y-74634999D01*
X175969334Y-74579814D01*
X176118656Y-74487712D01*
X176242712Y-74363656D01*
X176334814Y-74214334D01*
X176334814Y-74214331D01*
X176338178Y-74208879D01*
X176390126Y-74162154D01*
X176459088Y-74150931D01*
X176523170Y-74178774D01*
X176531398Y-74186294D01*
X176670213Y-74325109D01*
X176842179Y-74450048D01*
X176842181Y-74450049D01*
X176842184Y-74450051D01*
X177031588Y-74546557D01*
X177233757Y-74612246D01*
X177443713Y-74645500D01*
X177443714Y-74645500D01*
X177656286Y-74645500D01*
X177656287Y-74645500D01*
X177866243Y-74612246D01*
X178068412Y-74546557D01*
X178257816Y-74450051D01*
X178279789Y-74434086D01*
X178429786Y-74325109D01*
X178429788Y-74325106D01*
X178429792Y-74325104D01*
X178580104Y-74174792D01*
X178580106Y-74174788D01*
X178580109Y-74174786D01*
X178705048Y-74002820D01*
X178705047Y-74002820D01*
X178705051Y-74002816D01*
X178801557Y-73813412D01*
X178867246Y-73611243D01*
X178900500Y-73401287D01*
X178900500Y-72888713D01*
X180199500Y-72888713D01*
X180199500Y-73401286D01*
X180232753Y-73611239D01*
X180298444Y-73813414D01*
X180394951Y-74002820D01*
X180519890Y-74174786D01*
X180670213Y-74325109D01*
X180842179Y-74450048D01*
X180842181Y-74450049D01*
X180842184Y-74450051D01*
X181031588Y-74546557D01*
X181233757Y-74612246D01*
X181443713Y-74645500D01*
X181443714Y-74645500D01*
X181656286Y-74645500D01*
X181656287Y-74645500D01*
X181866243Y-74612246D01*
X182068412Y-74546557D01*
X182257816Y-74450051D01*
X182429792Y-74325104D01*
X182568604Y-74186291D01*
X182629923Y-74152809D01*
X182699615Y-74157793D01*
X182755549Y-74199664D01*
X182761821Y-74208878D01*
X182765185Y-74214333D01*
X182765186Y-74214334D01*
X182857288Y-74363656D01*
X182981344Y-74487712D01*
X183130666Y-74579814D01*
X183297203Y-74634999D01*
X183399991Y-74645500D01*
X184700008Y-74645499D01*
X184802797Y-74634999D01*
X184969334Y-74579814D01*
X185118656Y-74487712D01*
X185242712Y-74363656D01*
X185334814Y-74214334D01*
X185389999Y-74047797D01*
X185400500Y-73945009D01*
X185400499Y-72344992D01*
X185389999Y-72242203D01*
X185334814Y-72075666D01*
X185242712Y-71926344D01*
X185118656Y-71802288D01*
X184969334Y-71710186D01*
X184802797Y-71655001D01*
X184802795Y-71655000D01*
X184700010Y-71644500D01*
X183399998Y-71644500D01*
X183399981Y-71644501D01*
X183297203Y-71655000D01*
X183297200Y-71655001D01*
X183130668Y-71710185D01*
X183130663Y-71710187D01*
X182981342Y-71802289D01*
X182857289Y-71926342D01*
X182761821Y-72081121D01*
X182709873Y-72127845D01*
X182640910Y-72139068D01*
X182576828Y-72111224D01*
X182568601Y-72103705D01*
X182429786Y-71964890D01*
X182257820Y-71839951D01*
X182068414Y-71743444D01*
X182068413Y-71743443D01*
X182068412Y-71743443D01*
X181866243Y-71677754D01*
X181866241Y-71677753D01*
X181866240Y-71677753D01*
X181704957Y-71652208D01*
X181656287Y-71644500D01*
X181443713Y-71644500D01*
X181395042Y-71652208D01*
X181233760Y-71677753D01*
X181031585Y-71743444D01*
X180842179Y-71839951D01*
X180670213Y-71964890D01*
X180519890Y-72115213D01*
X180394951Y-72287179D01*
X180298444Y-72476585D01*
X180232753Y-72678760D01*
X180199500Y-72888713D01*
X178900500Y-72888713D01*
X178867246Y-72678757D01*
X178801557Y-72476588D01*
X178705051Y-72287184D01*
X178705049Y-72287181D01*
X178705048Y-72287179D01*
X178580109Y-72115213D01*
X178429786Y-71964890D01*
X178257820Y-71839951D01*
X178068414Y-71743444D01*
X178068413Y-71743443D01*
X178068412Y-71743443D01*
X177866243Y-71677754D01*
X177866241Y-71677753D01*
X177866240Y-71677753D01*
X177704957Y-71652208D01*
X177656287Y-71644500D01*
X177443713Y-71644500D01*
X177395042Y-71652208D01*
X177233760Y-71677753D01*
X177031585Y-71743444D01*
X176842179Y-71839951D01*
X176670215Y-71964889D01*
X176531398Y-72103706D01*
X176470075Y-72137190D01*
X176400383Y-72132206D01*
X176344450Y-72090334D01*
X176338178Y-72081120D01*
X176242712Y-71926344D01*
X176118657Y-71802289D01*
X176118656Y-71802288D01*
X175969334Y-71710186D01*
X175802797Y-71655001D01*
X175802795Y-71655000D01*
X175700010Y-71644500D01*
X174399998Y-71644500D01*
X174399981Y-71644501D01*
X174297203Y-71655000D01*
X174297200Y-71655001D01*
X174130668Y-71710185D01*
X174130663Y-71710187D01*
X173981342Y-71802289D01*
X173857289Y-71926342D01*
X173765187Y-72075663D01*
X173765185Y-72075668D01*
X173746450Y-72132206D01*
X173710001Y-72242203D01*
X173710001Y-72242204D01*
X173710000Y-72242204D01*
X173699500Y-72344983D01*
X172300498Y-72344983D01*
X172289999Y-72242203D01*
X172234814Y-72075666D01*
X172142712Y-71926344D01*
X172018656Y-71802288D01*
X171869334Y-71710186D01*
X171702797Y-71655001D01*
X171702795Y-71655000D01*
X171600010Y-71644500D01*
X170299998Y-71644500D01*
X170299981Y-71644501D01*
X170197203Y-71655000D01*
X170197200Y-71655001D01*
X170030668Y-71710185D01*
X170030663Y-71710187D01*
X169881342Y-71802289D01*
X169757289Y-71926342D01*
X169661821Y-72081121D01*
X169609873Y-72127845D01*
X169540910Y-72139068D01*
X169476828Y-72111224D01*
X169468601Y-72103705D01*
X169329786Y-71964890D01*
X169157820Y-71839951D01*
X168968414Y-71743444D01*
X168968413Y-71743443D01*
X168968412Y-71743443D01*
X168766243Y-71677754D01*
X168766241Y-71677753D01*
X168766240Y-71677753D01*
X168604957Y-71652208D01*
X168556287Y-71644500D01*
X168343713Y-71644500D01*
X168295042Y-71652208D01*
X168133760Y-71677753D01*
X167931585Y-71743444D01*
X167742179Y-71839951D01*
X167570213Y-71964890D01*
X167419890Y-72115213D01*
X167294951Y-72287179D01*
X167198444Y-72476585D01*
X167132753Y-72678760D01*
X167099500Y-72888713D01*
X165700500Y-72888713D01*
X165667246Y-72678757D01*
X165601557Y-72476588D01*
X165505051Y-72287184D01*
X165505049Y-72287181D01*
X165505048Y-72287179D01*
X165380109Y-72115213D01*
X165229786Y-71964890D01*
X165057820Y-71839951D01*
X164868414Y-71743444D01*
X164868413Y-71743443D01*
X164868412Y-71743443D01*
X164666243Y-71677754D01*
X164666241Y-71677753D01*
X164666240Y-71677753D01*
X164504957Y-71652208D01*
X164456287Y-71644500D01*
X164243713Y-71644500D01*
X164195042Y-71652208D01*
X164033760Y-71677753D01*
X163831585Y-71743444D01*
X163642179Y-71839951D01*
X163470215Y-71964889D01*
X163331398Y-72103706D01*
X163270075Y-72137190D01*
X163200383Y-72132206D01*
X163144450Y-72090334D01*
X163138178Y-72081120D01*
X163042712Y-71926344D01*
X162918657Y-71802289D01*
X162918656Y-71802288D01*
X162769334Y-71710186D01*
X162602797Y-71655001D01*
X162602795Y-71655000D01*
X162500010Y-71644500D01*
X161199998Y-71644500D01*
X161199981Y-71644501D01*
X161097203Y-71655000D01*
X161097200Y-71655001D01*
X160930668Y-71710185D01*
X160930663Y-71710187D01*
X160781342Y-71802289D01*
X160657289Y-71926342D01*
X160565187Y-72075663D01*
X160565185Y-72075668D01*
X160546450Y-72132206D01*
X160510001Y-72242203D01*
X160510001Y-72242204D01*
X160510000Y-72242204D01*
X160499500Y-72344983D01*
X159200498Y-72344983D01*
X159189999Y-72242203D01*
X159134814Y-72075666D01*
X159042712Y-71926344D01*
X158918656Y-71802288D01*
X158769334Y-71710186D01*
X158602797Y-71655001D01*
X158602795Y-71655000D01*
X158500010Y-71644500D01*
X157199998Y-71644500D01*
X157199981Y-71644501D01*
X157097203Y-71655000D01*
X157097200Y-71655001D01*
X156930668Y-71710185D01*
X156930663Y-71710187D01*
X156781342Y-71802289D01*
X156657289Y-71926342D01*
X156561821Y-72081121D01*
X156509873Y-72127845D01*
X156440910Y-72139068D01*
X156376828Y-72111224D01*
X156368601Y-72103705D01*
X156229786Y-71964890D01*
X156057820Y-71839951D01*
X155868414Y-71743444D01*
X155868413Y-71743443D01*
X155868412Y-71743443D01*
X155666243Y-71677754D01*
X155666241Y-71677753D01*
X155666240Y-71677753D01*
X155504957Y-71652208D01*
X155456287Y-71644500D01*
X155243713Y-71644500D01*
X155195042Y-71652208D01*
X155033760Y-71677753D01*
X154831585Y-71743444D01*
X154642179Y-71839951D01*
X154470213Y-71964890D01*
X154319890Y-72115213D01*
X154194951Y-72287179D01*
X154098444Y-72476585D01*
X154032753Y-72678760D01*
X153999500Y-72888713D01*
X152600500Y-72888713D01*
X152567246Y-72678757D01*
X152501557Y-72476588D01*
X152405051Y-72287184D01*
X152405049Y-72287181D01*
X152405048Y-72287179D01*
X152280109Y-72115213D01*
X152129786Y-71964890D01*
X151957820Y-71839951D01*
X151768414Y-71743444D01*
X151768413Y-71743443D01*
X151768412Y-71743443D01*
X151566243Y-71677754D01*
X151566241Y-71677753D01*
X151566240Y-71677753D01*
X151404957Y-71652208D01*
X151356287Y-71644500D01*
X151143713Y-71644500D01*
X151095042Y-71652208D01*
X150933760Y-71677753D01*
X150731585Y-71743444D01*
X150542179Y-71839951D01*
X150370215Y-71964889D01*
X150231398Y-72103706D01*
X150170075Y-72137190D01*
X150100383Y-72132206D01*
X150044450Y-72090334D01*
X150038178Y-72081120D01*
X149942712Y-71926344D01*
X149818657Y-71802289D01*
X149818656Y-71802288D01*
X149669334Y-71710186D01*
X149502797Y-71655001D01*
X149502795Y-71655000D01*
X149400010Y-71644500D01*
X148099998Y-71644500D01*
X148099981Y-71644501D01*
X147997203Y-71655000D01*
X147997200Y-71655001D01*
X147830668Y-71710185D01*
X147830663Y-71710187D01*
X147681342Y-71802289D01*
X147557289Y-71926342D01*
X147465187Y-72075663D01*
X147465185Y-72075668D01*
X147446450Y-72132206D01*
X147410001Y-72242203D01*
X147410001Y-72242204D01*
X147410000Y-72242204D01*
X147399500Y-72344983D01*
X146000498Y-72344983D01*
X145989999Y-72242203D01*
X145934814Y-72075666D01*
X145842712Y-71926344D01*
X145718656Y-71802288D01*
X145569334Y-71710186D01*
X145402797Y-71655001D01*
X145402795Y-71655000D01*
X145300010Y-71644500D01*
X143999998Y-71644500D01*
X143999981Y-71644501D01*
X143897203Y-71655000D01*
X143897200Y-71655001D01*
X143730668Y-71710185D01*
X143730663Y-71710187D01*
X143581342Y-71802289D01*
X143457289Y-71926342D01*
X143361821Y-72081121D01*
X143309873Y-72127845D01*
X143240910Y-72139068D01*
X143176828Y-72111224D01*
X143168601Y-72103705D01*
X143029786Y-71964890D01*
X142857820Y-71839951D01*
X142668414Y-71743444D01*
X142668413Y-71743443D01*
X142668412Y-71743443D01*
X142466243Y-71677754D01*
X142466241Y-71677753D01*
X142466240Y-71677753D01*
X142304957Y-71652208D01*
X142256287Y-71644500D01*
X142043713Y-71644500D01*
X141995042Y-71652208D01*
X141833760Y-71677753D01*
X141631585Y-71743444D01*
X141442179Y-71839951D01*
X141270213Y-71964890D01*
X141119890Y-72115213D01*
X140994951Y-72287179D01*
X140898444Y-72476585D01*
X140832753Y-72678760D01*
X140799500Y-72888713D01*
X137210500Y-72888713D01*
X137210500Y-63104427D01*
X137210816Y-63095581D01*
X137225130Y-62895443D01*
X137225131Y-62895434D01*
X137227646Y-62877938D01*
X137269356Y-62686199D01*
X137274333Y-62669248D01*
X137342911Y-62485385D01*
X137350259Y-62469298D01*
X137412815Y-62354734D01*
X137444291Y-62297089D01*
X137453845Y-62282221D01*
X137571448Y-62125123D01*
X137583020Y-62111769D01*
X137721769Y-61973020D01*
X137735123Y-61961448D01*
X137892221Y-61843845D01*
X137907089Y-61834291D01*
X138079298Y-61740258D01*
X138095385Y-61732911D01*
X138279248Y-61664333D01*
X138296199Y-61659356D01*
X138487938Y-61617646D01*
X138505436Y-61615130D01*
X138705582Y-61600816D01*
X138714428Y-61600500D01*
X138775892Y-61600500D01*
X187404108Y-61600500D01*
X187465572Y-61600500D01*
X187474418Y-61600816D01*
G37*
%TD.AperFunction*%
%TA.AperFunction,Conductor*%
G36*
X175429474Y-102725921D02*
G01*
X175461859Y-102681349D01*
X175489233Y-102627624D01*
X175537207Y-102576827D01*
X175605028Y-102560031D01*
X175671163Y-102582567D01*
X175710203Y-102627621D01*
X175737713Y-102681611D01*
X175858028Y-102847213D01*
X175998634Y-102987819D01*
X176032119Y-103049142D01*
X176027135Y-103118834D01*
X175985263Y-103174767D01*
X175919799Y-103199184D01*
X175910953Y-103199500D01*
X175200618Y-103199500D01*
X175133579Y-103179815D01*
X175087824Y-103127011D01*
X175080173Y-103083725D01*
X174396447Y-102400000D01*
X174402661Y-102400000D01*
X174504394Y-102372741D01*
X174595606Y-102320080D01*
X174670080Y-102245606D01*
X174722741Y-102154394D01*
X174750000Y-102052661D01*
X174750000Y-102046447D01*
X175429474Y-102725921D01*
G37*
%TD.AperFunction*%
%TD*%
M02*
